<?xml version="1.0" encoding="utf-8" standalone="no"?>
<!DOCTYPE svg PUBLIC "-//W3C//DTD SVG 1.1//EN"
  "http://www.w3.org/Graphics/SVG/1.1/DTD/svg11.dtd">
<svg xmlns:xlink="http://www.w3.org/1999/xlink" width="566.82pt" height="263.712063pt" viewBox="0 0 566.82 263.712063" xmlns="http://www.w3.org/2000/svg" version="1.1" role="img" aria-labelledby="title desc"><title id="title">ROCHADE chessboard detection pipeline</title><desc id="desc">10-stage pipeline from input image through Scharr gradient, local threshold, conditional dilation, centreline thinning, saddle detection, clustering, grid verification, cone filtering, and subpixel refinement to final corners.</desc>
 <metadata>
  <rdf:RDF xmlns:dc="http://purl.org/dc/elements/1.1/" xmlns:cc="http://creativecommons.org/ns#" xmlns:rdf="http://www.w3.org/1999/02/22-rdf-syntax-ns#">
   <cc:Work>
    <dc:type rdf:resource="http://purl.org/dc/dcmitype/StillImage"/>
    <dc:format>image/svg+xml</dc:format>
    <dc:creator>
     <cc:Agent>
      <dc:title>Matplotlib v3.10.8, https://matplotlib.org/</dc:title>
     </cc:Agent>
    </dc:creator>
   </cc:Work>
  </rdf:RDF>
 </metadata>
 <defs>
  <style type="text/css">*{stroke-linejoin: round; stroke-linecap: butt}</style>
 </defs>
 <g id="figure_1">
  <g id="patch_1">
   <path d="M 0 263.712063 
L 566.82 263.712063 
L 566.82 0 
L 0 0 
z
" style="fill: #f8fafc"/>
  </g>
  <g id="axes_1">
   <g id="patch_2">
    <path d="M 20.793581 16.165979 
L 129.54223 16.165979 
Q 134.169832 16.165979 134.169832 20.793581 
L 134.169832 67.069602 
Q 134.169832 71.697204 129.54223 71.697204 
L 20.793581 71.697204 
Q 16.165979 71.697204 16.165979 67.069602 
L 16.165979 20.793581 
Q 16.165979 16.165979 20.793581 16.165979 
z
" clip-path="url(#pc2dc695587)" style="fill: #e2e8f0; stroke: #475569; stroke-linejoin: miter"/>
   </g>
   <g id="patch_3">
    <path d="M 159.621644 16.165979 
L 268.370293 16.165979 
Q 272.997895 16.165979 272.997895 20.793581 
L 272.997895 67.069602 
Q 272.997895 71.697204 268.370293 71.697204 
L 159.621644 71.697204 
Q 154.994042 71.697204 154.994042 67.069602 
L 154.994042 20.793581 
Q 154.994042 16.165979 159.621644 16.165979 
z
" clip-path="url(#pc2dc695587)" style="fill: #e2e8f0; stroke: #475569; stroke-linejoin: miter"/>
   </g>
   <g id="patch_4">
    <path d="M 298.449707 16.165979 
L 407.198356 16.165979 
Q 411.825958 16.165979 411.825958 20.793581 
L 411.825958 67.069602 
Q 411.825958 71.697204 407.198356 71.697204 
L 298.449707 71.697204 
Q 293.822105 71.697204 293.822105 67.069602 
L 293.822105 20.793581 
Q 293.822105 16.165979 298.449707 16.165979 
z
" clip-path="url(#pc2dc695587)" style="fill: #e2e8f0; stroke: #475569; stroke-linejoin: miter"/>
   </g>
   <g id="patch_5">
    <path d="M 437.27777 16.165979 
L 546.026419 16.165979 
Q 550.654021 16.165979 550.654021 20.793581 
L 550.654021 67.069602 
Q 550.654021 71.697204 546.026419 71.697204 
L 437.27777 71.697204 
Q 432.650168 71.697204 432.650168 67.069602 
L 432.650168 20.793581 
Q 432.650168 16.165979 437.27777 16.165979 
z
" clip-path="url(#pc2dc695587)" style="fill: #e2e8f0; stroke: #475569; stroke-linejoin: miter"/>
   </g>
   <g id="patch_6">
    <path d="M 437.27777 104.090419 
L 546.026419 104.090419 
Q 550.654021 104.090419 550.654021 108.718021 
L 550.654021 154.994042 
Q 550.654021 159.621644 546.026419 159.621644 
L 437.27777 159.621644 
Q 432.650168 159.621644 432.650168 154.994042 
L 432.650168 108.718021 
Q 432.650168 104.090419 437.27777 104.090419 
z
" clip-path="url(#pc2dc695587)" style="fill: #e2e8f0; stroke: #475569; stroke-linejoin: miter"/>
   </g>
   <g id="patch_7">
    <path d="M 298.449707 104.090419 
L 407.198356 104.090419 
Q 411.825958 104.090419 411.825958 108.718021 
L 411.825958 154.994042 
Q 411.825958 159.621644 407.198356 159.621644 
L 298.449707 159.621644 
Q 293.822105 159.621644 293.822105 154.994042 
L 293.822105 108.718021 
Q 293.822105 104.090419 298.449707 104.090419 
z
" clip-path="url(#pc2dc695587)" style="fill: #e2e8f0; stroke: #475569; stroke-linejoin: miter"/>
   </g>
   <g id="patch_8">
    <path d="M 159.621644 104.090419 
L 268.370293 104.090419 
Q 272.997895 104.090419 272.997895 108.718021 
L 272.997895 154.994042 
Q 272.997895 159.621644 268.370293 159.621644 
L 159.621644 159.621644 
Q 154.994042 159.621644 154.994042 154.994042 
L 154.994042 108.718021 
Q 154.994042 104.090419 159.621644 104.090419 
z
" clip-path="url(#pc2dc695587)" style="fill: #e2e8f0; stroke: #475569; stroke-linejoin: miter"/>
   </g>
   <g id="patch_9">
    <path d="M 20.793581 104.090419 
L 129.54223 104.090419 
Q 134.169832 104.090419 134.169832 108.718021 
L 134.169832 154.994042 
Q 134.169832 159.621644 129.54223 159.621644 
L 20.793581 159.621644 
Q 16.165979 159.621644 16.165979 154.994042 
L 16.165979 108.718021 
Q 16.165979 104.090419 20.793581 104.090419 
z
" clip-path="url(#pc2dc695587)" style="fill: #e2e8f0; stroke: #475569; stroke-linejoin: miter"/>
   </g>
   <g id="patch_10">
    <path d="M 20.793581 192.014859 
L 129.54223 192.014859 
Q 134.169832 192.014859 134.169832 196.642461 
L 134.169832 242.918482 
Q 134.169832 247.546084 129.54223 247.546084 
L 20.793581 247.546084 
Q 16.165979 247.546084 16.165979 242.918482 
L 16.165979 196.642461 
Q 16.165979 192.014859 20.793581 192.014859 
z
" clip-path="url(#pc2dc695587)" style="fill: #e2e8f0; stroke: #475569; stroke-linejoin: miter"/>
   </g>
   <g id="patch_11">
    <path d="M 159.621644 192.014859 
L 268.370293 192.014859 
Q 272.997895 192.014859 272.997895 196.642461 
L 272.997895 242.918482 
Q 272.997895 247.546084 268.370293 247.546084 
L 159.621644 247.546084 
Q 154.994042 247.546084 154.994042 242.918482 
L 154.994042 196.642461 
Q 154.994042 192.014859 159.621644 192.014859 
z
" clip-path="url(#pc2dc695587)" style="fill: #e2e8f0; stroke: #475569; stroke-linejoin: miter"/>
   </g>
   <g id="patch_12">
    <path d="M 135.015477 43.931592 
Q 144.583455 43.931592 153.033398 43.931592 
" clip-path="url(#pc2dc695587)" style="fill: none; stroke: #475569; stroke-linecap: round"/>
    <path d="M 148.633398 41.731592 
L 153.033398 43.931592 
L 148.633398 46.131592 
z
" clip-path="url(#pc2dc695587)" style="fill: #475569; stroke: #475569; stroke-linecap: round"/>
   </g>
   <g id="patch_13">
    <path d="M 273.84354 43.931592 
Q 283.411518 43.931592 291.861461 43.931592 
" clip-path="url(#pc2dc695587)" style="fill: none; stroke: #475569; stroke-linecap: round"/>
    <path d="M 287.461461 41.731592 
L 291.861461 43.931592 
L 287.461461 46.131592 
z
" clip-path="url(#pc2dc695587)" style="fill: #475569; stroke: #475569; stroke-linecap: round"/>
   </g>
   <g id="patch_14">
    <path d="M 412.671603 43.931592 
Q 422.23958 43.931592 430.689524 43.931592 
" clip-path="url(#pc2dc695587)" style="fill: none; stroke: #475569; stroke-linecap: round"/>
    <path d="M 426.289524 41.731592 
L 430.689524 43.931592 
L 426.289524 46.131592 
z
" clip-path="url(#pc2dc695587)" style="fill: #475569; stroke: #475569; stroke-linecap: round"/>
   </g>
   <g id="patch_15">
    <path d="M 491.652094 72.544261 
Q 491.652094 87.895776 491.652094 102.129257 
" clip-path="url(#pc2dc695587)" style="fill: none; stroke: #475569; stroke-linecap: round"/>
    <path d="M 493.852094 97.729257 
L 491.652094 102.129257 
L 489.452094 97.729257 
z
" clip-path="url(#pc2dc695587)" style="fill: #475569; stroke: #475569; stroke-linecap: round"/>
   </g>
   <g id="patch_16">
    <path d="M 431.804523 131.856031 
Q 422.236545 131.856031 413.786602 131.856031 
" clip-path="url(#pc2dc695587)" style="fill: none; stroke: #475569; stroke-linecap: round"/>
    <path d="M 418.186602 134.056031 
L 413.786602 131.856031 
L 418.186602 129.656031 
z
" clip-path="url(#pc2dc695587)" style="fill: #475569; stroke: #475569; stroke-linecap: round"/>
   </g>
   <g id="patch_17">
    <path d="M 292.97646 131.856031 
Q 283.408482 131.856031 274.958539 131.856031 
" clip-path="url(#pc2dc695587)" style="fill: none; stroke: #475569; stroke-linecap: round"/>
    <path d="M 279.358539 134.056031 
L 274.958539 131.856031 
L 279.358539 129.656031 
z
" clip-path="url(#pc2dc695587)" style="fill: #475569; stroke: #475569; stroke-linecap: round"/>
   </g>
   <g id="patch_18">
    <path d="M 154.148397 131.856031 
Q 144.58042 131.856031 136.130476 131.856031 
" clip-path="url(#pc2dc695587)" style="fill: none; stroke: #475569; stroke-linecap: round"/>
    <path d="M 140.530476 134.056031 
L 136.130476 131.856031 
L 140.530476 129.656031 
z
" clip-path="url(#pc2dc695587)" style="fill: #475569; stroke: #475569; stroke-linecap: round"/>
   </g>
   <g id="patch_19">
    <path d="M 75.167906 160.468701 
Q 75.167906 175.820216 75.167906 190.053697 
" clip-path="url(#pc2dc695587)" style="fill: none; stroke: #475569; stroke-linecap: round"/>
    <path d="M 77.367906 185.653697 
L 75.167906 190.053697 
L 72.967906 185.653697 
z
" clip-path="url(#pc2dc695587)" style="fill: #475569; stroke: #475569; stroke-linecap: round"/>
   </g>
   <g id="patch_20">
    <path d="M 135.015477 219.780471 
Q 144.583455 219.780471 153.033398 219.780471 
" clip-path="url(#pc2dc695587)" style="fill: none; stroke: #475569; stroke-linecap: round"/>
    <path d="M 148.633398 217.580471 
L 153.033398 219.780471 
L 148.633398 221.980471 
z
" clip-path="url(#pc2dc695587)" style="fill: #475569; stroke: #475569; stroke-linecap: round"/>
   </g>
   <g id="text_1">
    <text style="font-size: 12px; font-family: 'DejaVu Sans', 'Bitstream Vera Sans', 'Computer Modern Sans Serif', 'Lucida Grande', 'Verdana', 'Geneva', 'Lucid', 'Arial', 'Helvetica', 'Avant Garde', sans-serif; text-anchor: middle; fill: #111827" x="75.167906" y="47.242842" transform="rotate(-0 75.167906 47.242842)">I</text>
   </g>
   <g id="text_2">
    <text style="font-size: 12px; font-family: 'DejaVu Sans', 'Bitstream Vera Sans', 'Computer Modern Sans Serif', 'Lucida Grande', 'Verdana', 'Geneva', 'Lucid', 'Arial', 'Helvetica', 'Avant Garde', sans-serif; fill: #111827" transform="translate(194.580344 40.296201)">Scharr</text>
    <text style="font-size: 12px; font-family: 'DejaVu Sans', 'Bitstream Vera Sans', 'Computer Modern Sans Serif', 'Lucida Grande', 'Verdana', 'Geneva', 'Lucid', 'Arial', 'Helvetica', 'Avant Garde', sans-serif; fill: #111827" transform="translate(188.720969 54.189482)">gradient</text>
   </g>
   <g id="text_3">
    <text style="font-size: 12px; font-family: 'DejaVu Sans', 'Bitstream Vera Sans', 'Computer Modern Sans Serif', 'Lucida Grande', 'Verdana', 'Geneva', 'Lucid', 'Arial', 'Helvetica', 'Avant Garde', sans-serif; fill: #111827" transform="translate(307.111531 40.296201)">Local threshold</text>
    <text style="font-size: 12px; font-family: 'DejaVu Sans', 'Bitstream Vera Sans', 'Computer Modern Sans Serif', 'Lucida Grande', 'Verdana', 'Geneva', 'Lucid', 'Arial', 'Helvetica', 'Avant Garde', sans-serif; fill: #111827" transform="translate(336.552781 54.189482)">τ = 4</text>
   </g>
   <g id="text_4">
    <text style="font-size: 12px; font-family: 'DejaVu Sans', 'Bitstream Vera Sans', 'Computer Modern Sans Serif', 'Lucida Grande', 'Verdana', 'Geneva', 'Lucid', 'Arial', 'Helvetica', 'Avant Garde', sans-serif; fill: #111827" transform="translate(457.676157 40.296201)">Conditional</text>
    <text style="font-size: 12px; font-family: 'DejaVu Sans', 'Bitstream Vera Sans', 'Computer Modern Sans Serif', 'Lucida Grande', 'Verdana', 'Geneva', 'Lucid', 'Arial', 'Helvetica', 'Avant Garde', sans-serif; fill: #111827" transform="translate(469.339594 54.189482)">dilation</text>
   </g>
   <g id="text_5">
    <text style="font-size: 12px; font-family: 'DejaVu Sans', 'Bitstream Vera Sans', 'Computer Modern Sans Serif', 'Lucida Grande', 'Verdana', 'Geneva', 'Lucid', 'Arial', 'Helvetica', 'Avant Garde', sans-serif; fill: #111827" transform="translate(460.764282 128.220641)">Centreline</text>
    <text style="font-size: 12px; font-family: 'DejaVu Sans', 'Bitstream Vera Sans', 'Computer Modern Sans Serif', 'Lucida Grande', 'Verdana', 'Geneva', 'Lucid', 'Arial', 'Helvetica', 'Avant Garde', sans-serif; fill: #111827" transform="translate(466.947094 142.113922)">thinning</text>
   </g>
   <g id="text_6">
    <text style="font-size: 12px; font-family: 'DejaVu Sans', 'Bitstream Vera Sans', 'Computer Modern Sans Serif', 'Lucida Grande', 'Verdana', 'Geneva', 'Lucid', 'Arial', 'Helvetica', 'Avant Garde', sans-serif; fill: #111827" transform="translate(329.235594 128.220641)">Saddles</text>
    <text style="font-size: 12px; font-family: 'DejaVu Sans', 'Bitstream Vera Sans', 'Computer Modern Sans Serif', 'Lucida Grande', 'Verdana', 'Geneva', 'Lucid', 'Arial', 'Helvetica', 'Avant Garde', sans-serif; fill: #111827" transform="translate(328.854969 142.113922)">deg ≥ 3</text>
   </g>
   <g id="text_7">
    <text style="font-size: 12px; font-family: 'DejaVu Sans', 'Bitstream Vera Sans', 'Computer Modern Sans Serif', 'Lucida Grande', 'Verdana', 'Geneva', 'Lucid', 'Arial', 'Helvetica', 'Avant Garde', sans-serif; fill: #111827" transform="translate(192.700656 128.220641)">Cluster</text>
    <text style="font-size: 12px; font-family: 'DejaVu Sans', 'Bitstream Vera Sans', 'Computer Modern Sans Serif', 'Lucida Grande', 'Verdana', 'Geneva', 'Lucid', 'Arial', 'Helvetica', 'Avant Garde', sans-serif; fill: #111827" transform="translate(184.869719 142.113922)">α ∈ [2, 5]</text>
   </g>
   <g id="text_8">
    <text style="font-size: 12px; font-family: 'DejaVu Sans', 'Bitstream Vera Sans', 'Computer Modern Sans Serif', 'Lucida Grande', 'Verdana', 'Geneva', 'Lucid', 'Arial', 'Helvetica', 'Avant Garde', sans-serif; fill: #111827" transform="translate(62.576343 128.220641)">Grid</text>
    <text style="font-size: 12px; font-family: 'DejaVu Sans', 'Bitstream Vera Sans', 'Computer Modern Sans Serif', 'Lucida Grande', 'Verdana', 'Geneva', 'Lucid', 'Arial', 'Helvetica', 'Avant Garde', sans-serif; fill: #111827" transform="translate(58.232906 142.113922)">verify</text>
   </g>
   <g id="text_9">
    <text style="font-size: 12px; font-family: 'DejaVu Sans', 'Bitstream Vera Sans', 'Computer Modern Sans Serif', 'Lucida Grande', 'Verdana', 'Geneva', 'Lucid', 'Arial', 'Helvetica', 'Avant Garde', sans-serif; fill: #111827" transform="translate(43.949156 216.145081)">Cone filter</text>
    <text style="font-size: 12px; font-family: 'DejaVu Sans', 'Bitstream Vera Sans', 'Computer Modern Sans Serif', 'Lucida Grande', 'Verdana', 'Geneva', 'Lucid', 'Arial', 'Helvetica', 'Avant Garde', sans-serif; fill: #111827" transform="translate(31.636031 230.038362)">+ quadratic fit</text>
   </g>
   <g id="text_10">
    <text style="font-size: 12px; font-family: 'DejaVu Sans', 'Bitstream Vera Sans', 'Computer Modern Sans Serif', 'Lucida Grande', 'Verdana', 'Geneva', 'Lucid', 'Arial', 'Helvetica', 'Avant Garde', sans-serif; fill: #111827" transform="translate(188.376906 216.145081)">Subpixel</text>
    <text style="font-size: 12px; font-family: 'DejaVu Sans', 'Bitstream Vera Sans', 'Computer Modern Sans Serif', 'Lucida Grande', 'Verdana', 'Geneva', 'Lucid', 'Arial', 'Helvetica', 'Avant Garde', sans-serif; fill: #111827" transform="translate(191.577531 230.038362)">corners</text>
   </g>
  </g>
 </g>
 <defs>
  <clipPath id="pc2dc695587">
   <rect x="7.2" y="7.2" width="552.42" height="249.312063"/>
  </clipPath>
 </defs>
</svg>
