<?xml version="1.0" encoding="utf-8" standalone="no"?>
<!DOCTYPE svg PUBLIC "-//W3C//DTD SVG 1.1//EN"
  "http://www.w3.org/Graphics/SVG/1.1/DTD/svg11.dtd">
<svg role="img" aria-labelledby="title desc" xmlns:xlink="http://www.w3.org/1999/xlink" width="518.4pt" height="388.8pt" viewBox="0 0 518.4 388.8" xmlns="http://www.w3.org/2000/svg" version="1.1">
 <title id="title">Harris response regions in eigenvalue space</title>
 <desc id="desc">Positive Harris response indicates corners, negative response indicates edges, and small eigenvalues near the origin correspond to flat image regions.</desc>
 <metadata>
  <rdf:RDF xmlns:dc="http://purl.org/dc/elements/1.1/" xmlns:cc="http://creativecommons.org/ns#" xmlns:rdf="http://www.w3.org/1999/02/22-rdf-syntax-ns#">
   <cc:Work>
    <dc:type rdf:resource="http://purl.org/dc/dcmitype/StillImage"/>
    <dc:date>2026-04-17</dc:date>
    <dc:format>image/svg+xml</dc:format>
    <dc:creator>
     <cc:Agent>
      <dc:title>py/generate_harris_eigenvalue_regions.py</dc:title>
     </cc:Agent>
    </dc:creator>
   </cc:Work>
  </rdf:RDF>
 </metadata>
 <defs>
  <style type="text/css">*{stroke-linejoin: round; stroke-linecap: butt}</style>
 </defs>
 <g id="figure_1">
  <g id="patch_1">
   <path d="M 0 388.8 
L 518.4 388.8 
L 518.4 0 
L 0 0 
z
" style="fill: #ffffff"/>
  </g>
  <g id="axes_1">
   <g id="patch_2">
    <path d="M 152.928 322.704 
L 417.312 322.704 
L 417.312 58.32 
L 152.928 58.32 
z
" style="fill: #ffffff"/>
   </g>
   <g id="QuadContourSet_1">
    <path d="M 153.948788 322.704 
L 154.969575 322.704 
L 155.990363 322.704 
L 157.011151 322.704 
L 158.031938 322.704 
L 159.052726 322.704 
L 160.073514 322.704 
L 161.094301 322.704 
L 162.115089 322.704 
L 163.135876 322.704 
L 164.156664 322.704 
L 165.177452 322.704 
L 166.198239 322.704 
L 167.219027 322.704 
L 168.239815 322.704 
L 169.260602 322.704 
L 170.28139 322.704 
L 171.302178 322.704 
L 172.322965 322.704 
L 173.343753 322.704 
L 174.364541 322.704 
L 175.385328 322.704 
L 176.406116 322.704 
L 177.426903 322.704 
L 178.447691 322.704 
L 179.468479 322.704 
L 180.489266 322.704 
L 181.510054 322.704 
L 182.530842 322.704 
L 183.551629 322.704 
L 184.572417 322.704 
L 185.593205 322.704 
L 186.613992 322.704 
L 187.63478 322.704 
L 188.655568 322.704 
L 189.676355 322.704 
L 190.697143 322.704 
L 191.717931 322.704 
L 192.738718 322.704 
L 193.759506 322.704 
L 194.780293 322.704 
L 195.801081 322.704 
L 196.821869 322.704 
L 197.842656 322.704 
L 198.863444 322.704 
L 199.884232 322.704 
L 200.905019 322.704 
L 201.925807 322.704 
L 202.946595 322.704 
L 203.967382 322.704 
L 204.98817 322.704 
L 206.008958 322.704 
L 207.029745 322.704 
L 208.050533 322.704 
L 209.07132 322.704 
L 210.092108 322.704 
L 211.112896 322.704 
L 212.133683 322.704 
L 213.154471 322.704 
L 214.175259 322.704 
L 215.196046 322.704 
L 216.216834 322.704 
L 217.237622 322.704 
L 218.258409 322.704 
L 219.279197 322.704 
L 220.299985 322.704 
L 221.320772 322.704 
L 222.34156 322.704 
L 223.362347 322.704 
L 224.383135 322.704 
L 225.403923 322.704 
L 226.42471 322.704 
L 227.445498 322.704 
L 228.466286 322.704 
L 229.487073 322.704 
L 230.507861 322.704 
L 231.528649 322.704 
L 232.549436 322.704 
L 233.570224 322.704 
L 234.591012 322.704 
L 235.611799 322.704 
L 236.632587 322.704 
L 237.653375 322.704 
L 238.674162 322.704 
L 239.69495 322.704 
L 240.715737 322.704 
L 241.736525 322.704 
L 242.757313 322.704 
L 243.7781 322.704 
L 244.798888 322.704 
L 245.819676 322.704 
L 246.840463 322.704 
L 247.861251 322.704 
L 248.882039 322.704 
L 249.902826 322.704 
L 250.923614 322.704 
L 251.944402 322.704 
L 252.965189 322.704 
L 253.985977 322.704 
L 255.006764 322.704 
L 256.027552 322.704 
L 257.04834 322.704 
L 258.069127 322.704 
L 259.089915 322.704 
L 260.110703 322.704 
L 261.13149 322.704 
L 262.152278 322.704 
L 263.173066 322.704 
L 264.193853 322.704 
L 265.214641 322.704 
L 266.235429 322.704 
L 267.256216 322.704 
L 268.277004 322.704 
L 269.297792 322.704 
L 270.318579 322.704 
L 271.339367 322.704 
L 272.360154 322.704 
L 273.380942 322.704 
L 274.40173 322.704 
L 275.422517 322.704 
L 276.443305 322.704 
L 277.464093 322.704 
L 278.48488 322.704 
L 279.505668 322.704 
L 280.526456 322.704 
L 281.547243 322.704 
L 282.568031 322.704 
L 283.588819 322.704 
L 284.609606 322.704 
L 285.630394 322.704 
L 286.651181 322.704 
L 287.671969 322.704 
L 288.692757 322.704 
L 289.713544 322.704 
L 290.734332 322.704 
L 291.75512 322.704 
L 292.775907 322.704 
L 293.796695 322.704 
L 294.817483 322.704 
L 295.83827 322.704 
L 296.859058 322.704 
L 297.879846 322.704 
L 298.900633 322.704 
L 299.921421 322.704 
L 300.942208 322.704 
L 301.962996 322.704 
L 302.983784 322.704 
L 304.004571 322.704 
L 305.025359 322.704 
L 306.046147 322.704 
L 307.066934 322.704 
L 308.087722 322.704 
L 309.10851 322.704 
L 310.129297 322.704 
L 311.150085 322.704 
L 312.170873 322.704 
L 313.19166 322.704 
L 314.212448 322.704 
L 315.233236 322.704 
L 316.254023 322.704 
L 317.274811 322.704 
L 318.295598 322.704 
L 319.316386 322.704 
L 320.337174 322.704 
L 321.357961 322.704 
L 322.378749 322.704 
L 323.399537 322.704 
L 324.420324 322.704 
L 325.441112 322.704 
L 326.4619 322.704 
L 327.482687 322.704 
L 328.503475 322.704 
L 329.524263 322.704 
L 330.54505 322.704 
L 331.565838 322.704 
L 332.586625 322.704 
L 333.607413 322.704 
L 334.628201 322.704 
L 335.648988 322.704 
L 336.669776 322.704 
L 337.690564 322.704 
L 338.711351 322.704 
L 339.732139 322.704 
L 340.752927 322.704 
L 341.773714 322.704 
L 342.794502 322.704 
L 343.81529 322.704 
L 344.836077 322.704 
L 345.856865 322.704 
L 346.877653 322.704 
L 347.89844 322.704 
L 348.919228 322.704 
L 349.940015 322.704 
L 350.960803 322.704 
L 351.981591 322.704 
L 353.002378 322.704 
L 354.023166 322.704 
L 355.043954 322.704 
L 356.064741 322.704 
L 357.085529 322.704 
L 358.106317 322.704 
L 359.127104 322.704 
L 360.147892 322.704 
L 361.16868 322.704 
L 362.189467 322.704 
L 363.210255 322.704 
L 364.231042 322.704 
L 365.25183 322.704 
L 366.272618 322.704 
L 367.293405 322.704 
L 368.314193 322.704 
L 369.334981 322.704 
L 370.355768 322.704 
L 371.376556 322.704 
L 372.397344 322.704 
L 373.418131 322.704 
L 374.438919 322.704 
L 375.459707 322.704 
L 376.480494 322.704 
L 377.501282 322.704 
L 378.522069 322.704 
L 379.542857 322.704 
L 380.563645 322.704 
L 381.584432 322.704 
L 382.60522 322.704 
L 383.626008 322.704 
L 384.646795 322.704 
L 385.667583 322.704 
L 386.688371 322.704 
L 387.709158 322.704 
L 388.729946 322.704 
L 389.750734 322.704 
L 390.771521 322.704 
L 391.792309 322.704 
L 392.813097 322.704 
L 393.833884 322.704 
L 394.854672 322.704 
L 395.875459 322.704 
L 396.896247 322.704 
L 397.917035 322.704 
L 398.937822 322.704 
L 399.95861 322.704 
L 400.979398 322.704 
L 402.000185 322.704 
L 403.020973 322.704 
L 404.041761 322.704 
L 405.062548 322.704 
L 406.083336 322.704 
L 407.104124 322.704 
L 408.124911 322.704 
L 409.145699 322.704 
L 410.166486 322.704 
L 411.187274 322.704 
L 412.208062 322.704 
L 413.228849 322.704 
L 414.249637 322.704 
L 415.270425 322.704 
L 416.291212 322.704 
L 417.312 322.704 
L 417.312 321.683212 
L 417.312 320.662425 
L 417.312 319.641637 
L 417.312 318.620849 
L 417.312 317.600062 
L 417.312 316.579274 
L 417.312 315.558486 
L 417.312 314.537699 
L 417.312 313.516911 
L 417.312 312.496124 
L 417.312 311.475336 
L 417.312 311.187196 
L 416.291212 311.231666 
L 415.270425 311.276137 
L 414.249637 311.320608 
L 413.228849 311.36508 
L 412.208062 311.409552 
L 411.187274 311.454025 
L 410.697134 311.475336 
L 410.166486 311.498491 
L 409.145699 311.542951 
L 408.124911 311.587411 
L 407.104124 311.631871 
L 406.083336 311.676332 
L 405.062548 311.720794 
L 404.041761 311.765256 
L 403.020973 311.809719 
L 402.000185 311.854183 
L 400.979398 311.898647 
L 399.95861 311.943113 
L 398.937822 311.987578 
L 397.917035 312.032045 
L 396.896247 312.076512 
L 395.875459 312.12098 
L 394.854672 312.165449 
L 393.833884 312.209918 
L 392.813097 312.254388 
L 391.792309 312.298859 
L 390.771521 312.34333 
L 389.750734 312.387803 
L 388.729946 312.432276 
L 387.709158 312.47675 
L 387.2634 312.496124 
L 386.688371 312.521215 
L 385.667583 312.565674 
L 384.646795 312.610133 
L 383.626008 312.654593 
L 382.60522 312.699054 
L 381.584432 312.743515 
L 380.563645 312.787977 
L 379.542857 312.83244 
L 378.522069 312.876903 
L 377.501282 312.921367 
L 376.480494 312.965832 
L 375.459707 313.010298 
L 374.438919 313.054765 
L 373.418131 313.099232 
L 372.397344 313.1437 
L 371.376556 313.188169 
L 370.355768 313.232639 
L 369.334981 313.277109 
L 368.314193 313.321581 
L 367.293405 313.366053 
L 366.272618 313.410526 
L 365.25183 313.455 
L 364.231042 313.499475 
L 363.829665 313.516911 
L 363.210255 313.543939 
L 362.189467 313.588397 
L 361.16868 313.632855 
L 360.147892 313.677314 
L 359.127104 313.721774 
L 358.106317 313.766235 
L 357.085529 313.810697 
L 356.064741 313.855159 
L 355.043954 313.899622 
L 354.023166 313.944086 
L 353.002378 313.988551 
L 351.981591 314.033017 
L 350.960803 314.077483 
L 349.940015 314.121951 
L 348.919228 314.166419 
L 347.89844 314.210888 
L 346.877653 314.255358 
L 345.856865 314.299829 
L 344.836077 314.344301 
L 343.81529 314.388774 
L 342.794502 314.433248 
L 341.773714 314.477723 
L 340.752927 314.522199 
L 340.39593 314.537699 
L 339.732139 314.566663 
L 338.711351 314.611119 
L 337.690564 314.655577 
L 336.669776 314.700035 
L 335.648988 314.744494 
L 334.628201 314.788954 
L 333.607413 314.833415 
L 332.586625 314.877877 
L 331.565838 314.92234 
L 330.54505 314.966803 
L 329.524263 315.011268 
L 328.503475 315.055734 
L 327.482687 315.1002 
L 326.4619 315.144668 
L 325.441112 315.189136 
L 324.420324 315.233606 
L 323.399537 315.278077 
L 322.378749 315.322548 
L 321.357961 315.367021 
L 320.337174 315.411495 
L 319.316386 315.45597 
L 318.295598 315.500447 
L 317.274811 315.544924 
L 316.962195 315.558486 
L 316.254023 315.589386 
L 315.233236 315.633841 
L 314.212448 315.678297 
L 313.19166 315.722754 
L 312.170873 315.767213 
L 311.150085 315.811672 
L 310.129297 315.856132 
L 309.10851 315.900593 
L 308.087722 315.945055 
L 307.066934 315.989518 
L 306.046147 316.033983 
L 305.025359 316.078448 
L 304.004571 316.122915 
L 302.983784 316.167383 
L 301.962996 316.211852 
L 300.942208 316.256322 
L 299.921421 316.300793 
L 298.900633 316.345266 
L 297.879846 316.38974 
L 296.859058 316.434215 
L 295.83827 316.478691 
L 294.817483 316.523169 
L 293.796695 316.567649 
L 293.528459 316.579274 
L 292.775907 316.612108 
L 291.75512 316.656562 
L 290.734332 316.701016 
L 289.713544 316.745472 
L 288.692757 316.789929 
L 287.671969 316.834387 
L 286.651181 316.878846 
L 285.630394 316.923306 
L 284.609606 316.967767 
L 283.588819 317.01223 
L 282.568031 317.056694 
L 281.547243 317.101159 
L 280.526456 317.145626 
L 279.505668 317.190094 
L 278.48488 317.234563 
L 277.464093 317.279034 
L 276.443305 317.323506 
L 275.422517 317.36798 
L 274.40173 317.412456 
L 273.380942 317.456932 
L 272.360154 317.501411 
L 271.339367 317.545891 
L 270.318579 317.590373 
L 270.094722 317.600062 
L 269.297792 317.63483 
L 268.277004 317.679281 
L 267.256216 317.723733 
L 266.235429 317.768187 
L 265.214641 317.812642 
L 264.193853 317.857098 
L 263.173066 317.901555 
L 262.152278 317.946014 
L 261.13149 317.990474 
L 260.110703 318.034936 
L 259.089915 318.079399 
L 258.069127 318.123864 
L 257.04834 318.168331 
L 256.027552 318.212799 
L 255.006764 318.257269 
L 253.985977 318.301741 
L 252.965189 318.346214 
L 251.944402 318.39069 
L 250.923614 318.435167 
L 249.902826 318.479647 
L 248.882039 318.524128 
L 247.861251 318.568612 
L 246.840463 318.613098 
L 246.660984 318.620849 
L 245.819676 318.657551 
L 244.798888 318.701998 
L 243.7781 318.746446 
L 242.757313 318.790896 
L 241.736525 318.835348 
L 240.715737 318.879801 
L 239.69495 318.924256 
L 238.674162 318.968713 
L 237.653375 319.013171 
L 236.632587 319.057631 
L 235.611799 319.102094 
L 234.591012 319.146558 
L 233.570224 319.191024 
L 232.549436 319.235493 
L 231.528649 319.279963 
L 230.507861 319.324437 
L 229.487073 319.368912 
L 228.466286 319.41339 
L 227.445498 319.457871 
L 226.42471 319.502354 
L 225.403923 319.546841 
L 224.383135 319.59133 
L 223.362347 319.635822 
L 223.227243 319.641637 
L 222.34156 319.680269 
L 221.320772 319.724709 
L 220.299985 319.769151 
L 219.279197 319.813595 
L 218.258409 319.858041 
L 217.237622 319.902489 
L 216.216834 319.946939 
L 215.196046 319.991392 
L 214.175259 320.035847 
L 213.154471 320.080304 
L 212.133683 320.124764 
L 211.112896 320.169226 
L 210.092108 320.213692 
L 209.07132 320.25816 
L 208.050533 320.302632 
L 207.029745 320.347107 
L 206.008958 320.391586 
L 204.98817 320.436069 
L 203.967382 320.480555 
L 202.946595 320.525046 
L 201.925807 320.569541 
L 200.905019 320.614042 
L 199.884232 320.658547 
L 199.793495 320.662425 
L 198.863444 320.702979 
L 197.842656 320.747406 
L 196.821869 320.791835 
L 195.801081 320.836266 
L 194.780293 320.8807 
L 193.759506 320.925136 
L 192.738718 320.969574 
L 191.717931 321.014016 
L 190.697143 321.058461 
L 189.676355 321.10291 
L 188.655568 321.147362 
L 187.63478 321.191819 
L 186.613992 321.23628 
L 185.593205 321.280746 
L 184.572417 321.325218 
L 183.551629 321.369695 
L 182.530842 321.414179 
L 181.510054 321.458671 
L 180.489266 321.503171 
L 179.468479 321.547679 
L 178.447691 321.592198 
L 177.426903 321.636728 
L 176.406116 321.681272 
L 176.359716 321.683212 
L 175.385328 321.725661 
L 174.364541 321.770043 
L 173.343753 321.814425 
L 172.322965 321.858807 
L 171.302178 321.903188 
L 170.28139 321.94757 
L 169.260602 321.991952 
L 168.239815 322.036334 
L 167.219027 322.080715 
L 166.198239 322.125097 
L 165.177452 322.169478 
L 164.156664 322.21386 
L 163.135876 322.258241 
L 162.115089 322.302622 
L 161.094301 322.347003 
L 160.073514 322.391384 
L 159.052726 322.435764 
L 158.031938 322.480143 
L 157.011151 322.524521 
L 155.990363 322.568896 
L 154.969575 322.613263 
L 153.948788 322.657601 
L 152.974399 321.683212 
L 153.018737 320.662425 
L 153.063104 319.641637 
L 153.107479 318.620849 
L 153.151857 317.600062 
L 153.196236 316.579274 
L 153.240616 315.558486 
L 153.284997 314.537699 
L 153.329378 313.516911 
L 153.373759 312.496124 
L 153.41814 311.475336 
L 153.462522 310.454548 
L 153.506903 309.433761 
L 153.551285 308.412973 
L 153.595666 307.392185 
L 153.640048 306.371398 
L 153.68443 305.35061 
L 153.728812 304.329822 
L 153.773193 303.309035 
L 153.817575 302.288247 
L 153.861957 301.267459 
L 153.906339 300.246672 
L 153.948788 299.272284 
L 153.950728 299.225884 
L 153.995272 298.205097 
L 154.039802 297.184309 
L 154.084321 296.163521 
L 154.128829 295.142734 
L 154.173329 294.121946 
L 154.217821 293.101158 
L 154.262305 292.080371 
L 154.306782 291.059583 
L 154.351254 290.038795 
L 154.39572 289.018008 
L 154.440181 287.99722 
L 154.484638 286.976432 
L 154.52909 285.955645 
L 154.573539 284.934857 
L 154.617984 283.914069 
L 154.662426 282.893282 
L 154.706864 281.872494 
L 154.7513 280.851707 
L 154.795734 279.830919 
L 154.840165 278.810131 
L 154.884594 277.789344 
L 154.929021 276.768556 
L 154.969575 275.838505 
L 154.973453 275.747768 
L 155.017958 274.726981 
L 155.062459 273.706193 
L 155.106954 272.685405 
L 155.151445 271.664618 
L 155.195931 270.64383 
L 155.240414 269.623042 
L 155.284893 268.602255 
L 155.329368 267.581467 
L 155.37384 266.56068 
L 155.418308 265.539892 
L 155.462774 264.519104 
L 155.507236 263.498317 
L 155.551696 262.477529 
L 155.596153 261.456741 
L 155.640608 260.435954 
L 155.685061 259.415166 
L 155.729511 258.394378 
L 155.773959 257.373591 
L 155.818405 256.352803 
L 155.862849 255.332015 
L 155.907291 254.311228 
L 155.951731 253.29044 
L 155.990363 252.404757 
L 155.996178 252.269653 
L 156.04067 251.248865 
L 156.085159 250.228077 
L 156.129646 249.20729 
L 156.174129 248.186502 
L 156.21861 247.165714 
L 156.263088 246.144927 
L 156.307563 245.124139 
L 156.352037 244.103351 
L 156.396507 243.082564 
L 156.440976 242.061776 
L 156.485442 241.040988 
L 156.529906 240.020201 
L 156.574369 238.999413 
L 156.618829 237.978625 
L 156.663287 236.957838 
L 156.707744 235.93705 
L 156.752199 234.916263 
L 156.796652 233.895475 
L 156.841104 232.874687 
L 156.885554 231.8539 
L 156.930002 230.833112 
L 156.974449 229.812324 
L 157.011151 228.971016 
L 157.018902 228.791537 
L 157.063388 227.770749 
L 157.107872 226.749961 
L 157.152353 225.729174 
L 157.196833 224.708386 
L 157.24131 223.687598 
L 157.285786 222.666811 
L 157.330259 221.646023 
L 157.374731 220.625236 
L 157.419201 219.604448 
L 157.463669 218.58366 
L 157.508136 217.562873 
L 157.552601 216.542085 
L 157.597064 215.521297 
L 157.641526 214.50051 
L 157.685986 213.479722 
L 157.730445 212.458934 
L 157.774902 211.438147 
L 157.819358 210.417359 
L 157.863813 209.396571 
L 157.908267 208.375784 
L 157.952719 207.354996 
L 157.99717 206.334208 
L 158.031938 205.537278 
L 158.041627 205.313421 
L 158.086109 204.292633 
L 158.130589 203.271846 
L 158.175068 202.251058 
L 158.219544 201.23027 
L 158.26402 200.209483 
L 158.308494 199.188695 
L 158.352966 198.167907 
L 158.397437 197.14712 
L 158.441906 196.126332 
L 158.486374 195.105544 
L 158.530841 194.084757 
L 158.575306 193.063969 
L 158.61977 192.043181 
L 158.664233 191.022394 
L 158.708694 190.001606 
L 158.753154 188.980819 
L 158.797613 187.960031 
L 158.842071 186.939243 
L 158.886528 185.918456 
L 158.930984 184.897668 
L 158.975438 183.87688 
L 159.019892 182.856093 
L 159.052726 182.103541 
L 159.064351 181.835305 
L 159.108831 180.814517 
L 159.153309 179.79373 
L 159.197785 178.772942 
L 159.24226 177.752154 
L 159.286734 176.731367 
L 159.331207 175.710579 
L 159.375678 174.689792 
L 159.420148 173.669004 
L 159.464617 172.648216 
L 159.509085 171.627429 
L 159.553552 170.606641 
L 159.598017 169.585853 
L 159.642482 168.565066 
L 159.686945 167.544278 
L 159.731407 166.52349 
L 159.775868 165.502703 
L 159.820328 164.481915 
L 159.864787 163.461127 
L 159.909246 162.44034 
L 159.953703 161.419552 
L 159.998159 160.398764 
L 160.042614 159.377977 
L 160.073514 158.669805 
L 160.087076 158.357189 
L 160.131553 157.336402 
L 160.17603 156.315614 
L 160.220505 155.294826 
L 160.264979 154.274039 
L 160.309452 153.253251 
L 160.353923 152.232463 
L 160.398394 151.211676 
L 160.442864 150.190888 
L 160.487332 149.1701 
L 160.5318 148.149313 
L 160.576266 147.128525 
L 160.620732 146.107737 
L 160.665197 145.08695 
L 160.70966 144.066162 
L 160.754123 143.045375 
L 160.798585 142.024587 
L 160.843046 141.003799 
L 160.887506 139.983012 
L 160.931965 138.962224 
L 160.976423 137.941436 
L 161.020881 136.920649 
L 161.065337 135.899861 
L 161.094301 135.23607 
L 161.109801 134.879073 
L 161.154277 133.858286 
L 161.198752 132.837498 
L 161.243226 131.81671 
L 161.287699 130.795923 
L 161.332171 129.775135 
L 161.376642 128.754347 
L 161.421112 127.73356 
L 161.465581 126.712772 
L 161.510049 125.691985 
L 161.554517 124.671197 
L 161.598983 123.650409 
L 161.643449 122.629622 
L 161.687914 121.608834 
L 161.732378 120.588046 
L 161.776841 119.567259 
L 161.821303 118.546471 
L 161.865765 117.525683 
L 161.910226 116.504896 
L 161.954686 115.484108 
L 161.999145 114.46332 
L 162.043603 113.442533 
L 162.088061 112.421745 
L 162.115089 111.802335 
L 162.132525 111.400958 
L 162.177 110.38017 
L 162.221474 109.359382 
L 162.265947 108.338595 
L 162.310419 107.317807 
L 162.354891 106.297019 
L 162.399361 105.276232 
L 162.443831 104.255444 
L 162.4883 103.234656 
L 162.532768 102.213869 
L 162.577235 101.193081 
L 162.621702 100.172293 
L 162.666168 99.151506 
L 162.710633 98.130718 
L 162.755097 97.109931 
L 162.79956 96.089143 
L 162.844023 95.068355 
L 162.888485 94.047568 
L 162.932946 93.02678 
L 162.977407 92.005992 
L 163.021867 90.985205 
L 163.066326 89.964417 
L 163.110785 88.943629 
L 163.135876 88.3686 
L 163.15525 87.922842 
L 163.199724 86.902054 
L 163.244197 85.881266 
L 163.28867 84.860479 
L 163.333141 83.839691 
L 163.377612 82.818903 
L 163.422082 81.798116 
L 163.466551 80.777328 
L 163.51102 79.756541 
L 163.555488 78.735753 
L 163.599955 77.714965 
L 163.644422 76.694178 
L 163.688887 75.67339 
L 163.733353 74.652602 
L 163.777817 73.631815 
L 163.822281 72.611027 
L 163.866744 71.590239 
L 163.911206 70.569452 
L 163.955668 69.548664 
L 164.000129 68.527876 
L 164.044589 67.507089 
L 164.089049 66.486301 
L 164.133509 65.465514 
L 164.156664 64.934866 
L 164.177975 64.444726 
L 164.222448 63.423938 
L 164.26692 62.403151 
L 164.311392 61.382363 
L 164.355863 60.361575 
L 164.400334 59.340788 
L 164.444804 58.32 
L 164.156664 58.32 
L 163.135876 58.32 
L 162.115089 58.32 
L 161.094301 58.32 
L 160.073514 58.32 
L 159.052726 58.32 
L 158.031938 58.32 
L 157.011151 58.32 
L 155.990363 58.32 
L 154.969575 58.32 
L 153.948788 58.32 
L 152.928 58.32 
L 152.928 59.340788 
L 152.928 60.361575 
L 152.928 61.382363 
L 152.928 62.403151 
L 152.928 63.423938 
L 152.928 64.444726 
L 152.928 65.465514 
L 152.928 66.486301 
L 152.928 67.507089 
L 152.928 68.527876 
L 152.928 69.548664 
L 152.928 70.569452 
L 152.928 71.590239 
L 152.928 72.611027 
L 152.928 73.631815 
L 152.928 74.652602 
L 152.928 75.67339 
L 152.928 76.694178 
L 152.928 77.714965 
L 152.928 78.735753 
L 152.928 79.756541 
L 152.928 80.777328 
L 152.928 81.798116 
L 152.928 82.818903 
L 152.928 83.839691 
L 152.928 84.860479 
L 152.928 85.881266 
L 152.928 86.902054 
L 152.928 87.922842 
L 152.928 88.943629 
L 152.928 89.964417 
L 152.928 90.985205 
L 152.928 92.005992 
L 152.928 93.02678 
L 152.928 94.047568 
L 152.928 95.068355 
L 152.928 96.089143 
L 152.928 97.109931 
L 152.928 98.130718 
L 152.928 99.151506 
L 152.928 100.172293 
L 152.928 101.193081 
L 152.928 102.213869 
L 152.928 103.234656 
L 152.928 104.255444 
L 152.928 105.276232 
L 152.928 106.297019 
L 152.928 107.317807 
L 152.928 108.338595 
L 152.928 109.359382 
L 152.928 110.38017 
L 152.928 111.400958 
L 152.928 112.421745 
L 152.928 113.442533 
L 152.928 114.46332 
L 152.928 115.484108 
L 152.928 116.504896 
L 152.928 117.525683 
L 152.928 118.546471 
L 152.928 119.567259 
L 152.928 120.588046 
L 152.928 121.608834 
L 152.928 122.629622 
L 152.928 123.650409 
L 152.928 124.671197 
L 152.928 125.691985 
L 152.928 126.712772 
L 152.928 127.73356 
L 152.928 128.754347 
L 152.928 129.775135 
L 152.928 130.795923 
L 152.928 131.81671 
L 152.928 132.837498 
L 152.928 133.858286 
L 152.928 134.879073 
L 152.928 135.899861 
L 152.928 136.920649 
L 152.928 137.941436 
L 152.928 138.962224 
L 152.928 139.983012 
L 152.928 141.003799 
L 152.928 142.024587 
L 152.928 143.045375 
L 152.928 144.066162 
L 152.928 145.08695 
L 152.928 146.107737 
L 152.928 147.128525 
L 152.928 148.149313 
L 152.928 149.1701 
L 152.928 150.190888 
L 152.928 151.211676 
L 152.928 152.232463 
L 152.928 153.253251 
L 152.928 154.274039 
L 152.928 155.294826 
L 152.928 156.315614 
L 152.928 157.336402 
L 152.928 158.357189 
L 152.928 159.377977 
L 152.928 160.398764 
L 152.928 161.419552 
L 152.928 162.44034 
L 152.928 163.461127 
L 152.928 164.481915 
L 152.928 165.502703 
L 152.928 166.52349 
L 152.928 167.544278 
L 152.928 168.565066 
L 152.928 169.585853 
L 152.928 170.606641 
L 152.928 171.627429 
L 152.928 172.648216 
L 152.928 173.669004 
L 152.928 174.689792 
L 152.928 175.710579 
L 152.928 176.731367 
L 152.928 177.752154 
L 152.928 178.772942 
L 152.928 179.79373 
L 152.928 180.814517 
L 152.928 181.835305 
L 152.928 182.856093 
L 152.928 183.87688 
L 152.928 184.897668 
L 152.928 185.918456 
L 152.928 186.939243 
L 152.928 187.960031 
L 152.928 188.980819 
L 152.928 190.001606 
L 152.928 191.022394 
L 152.928 192.043181 
L 152.928 193.063969 
L 152.928 194.084757 
L 152.928 195.105544 
L 152.928 196.126332 
L 152.928 197.14712 
L 152.928 198.167907 
L 152.928 199.188695 
L 152.928 200.209483 
L 152.928 201.23027 
L 152.928 202.251058 
L 152.928 203.271846 
L 152.928 204.292633 
L 152.928 205.313421 
L 152.928 206.334208 
L 152.928 207.354996 
L 152.928 208.375784 
L 152.928 209.396571 
L 152.928 210.417359 
L 152.928 211.438147 
L 152.928 212.458934 
L 152.928 213.479722 
L 152.928 214.50051 
L 152.928 215.521297 
L 152.928 216.542085 
L 152.928 217.562873 
L 152.928 218.58366 
L 152.928 219.604448 
L 152.928 220.625236 
L 152.928 221.646023 
L 152.928 222.666811 
L 152.928 223.687598 
L 152.928 224.708386 
L 152.928 225.729174 
L 152.928 226.749961 
L 152.928 227.770749 
L 152.928 228.791537 
L 152.928 229.812324 
L 152.928 230.833112 
L 152.928 231.8539 
L 152.928 232.874687 
L 152.928 233.895475 
L 152.928 234.916263 
L 152.928 235.93705 
L 152.928 236.957838 
L 152.928 237.978625 
L 152.928 238.999413 
L 152.928 240.020201 
L 152.928 241.040988 
L 152.928 242.061776 
L 152.928 243.082564 
L 152.928 244.103351 
L 152.928 245.124139 
L 152.928 246.144927 
L 152.928 247.165714 
L 152.928 248.186502 
L 152.928 249.20729 
L 152.928 250.228077 
L 152.928 251.248865 
L 152.928 252.269653 
L 152.928 253.29044 
L 152.928 254.311228 
L 152.928 255.332015 
L 152.928 256.352803 
L 152.928 257.373591 
L 152.928 258.394378 
L 152.928 259.415166 
L 152.928 260.435954 
L 152.928 261.456741 
L 152.928 262.477529 
L 152.928 263.498317 
L 152.928 264.519104 
L 152.928 265.539892 
L 152.928 266.56068 
L 152.928 267.581467 
L 152.928 268.602255 
L 152.928 269.623042 
L 152.928 270.64383 
L 152.928 271.664618 
L 152.928 272.685405 
L 152.928 273.706193 
L 152.928 274.726981 
L 152.928 275.747768 
L 152.928 276.768556 
L 152.928 277.789344 
L 152.928 278.810131 
L 152.928 279.830919 
L 152.928 280.851707 
L 152.928 281.872494 
L 152.928 282.893282 
L 152.928 283.914069 
L 152.928 284.934857 
L 152.928 285.955645 
L 152.928 286.976432 
L 152.928 287.99722 
L 152.928 289.018008 
L 152.928 290.038795 
L 152.928 291.059583 
L 152.928 292.080371 
L 152.928 293.101158 
L 152.928 294.121946 
L 152.928 295.142734 
L 152.928 296.163521 
L 152.928 297.184309 
L 152.928 298.205097 
L 152.928 299.225884 
L 152.928 300.246672 
L 152.928 301.267459 
L 152.928 302.288247 
L 152.928 303.309035 
L 152.928 304.329822 
L 152.928 305.35061 
L 152.928 306.371398 
L 152.928 307.392185 
L 152.928 308.412973 
L 152.928 309.433761 
L 152.928 310.454548 
L 152.928 311.475336 
L 152.928 312.496124 
L 152.928 313.516911 
L 152.928 314.537699 
L 152.928 315.558486 
L 152.928 316.579274 
L 152.928 317.600062 
L 152.928 318.620849 
L 152.928 319.641637 
L 152.928 320.662425 
L 152.928 321.683212 
L 152.928 322.704 
z
" clip-path="url(#p4529a24ad5)" style="fill: #bfdbfe; fill-opacity: 0.74"/>
    <path d="M 153.948788 322.657601 
L 154.969575 322.613263 
L 155.990363 322.568896 
L 157.011151 322.524521 
L 158.031938 322.480143 
L 159.052726 322.435764 
L 160.073514 322.391384 
L 161.094301 322.347003 
L 162.115089 322.302622 
L 163.135876 322.258241 
L 164.156664 322.21386 
L 165.177452 322.169478 
L 166.198239 322.125097 
L 167.219027 322.080715 
L 168.239815 322.036334 
L 169.260602 321.991952 
L 170.28139 321.94757 
L 171.302178 321.903188 
L 172.322965 321.858807 
L 173.343753 321.814425 
L 174.364541 321.770043 
L 175.385328 321.725661 
L 176.359716 321.683212 
L 176.406116 321.681272 
L 177.426903 321.636728 
L 178.447691 321.592198 
L 179.468479 321.547679 
L 180.489266 321.503171 
L 181.510054 321.458671 
L 182.530842 321.414179 
L 183.551629 321.369695 
L 184.572417 321.325218 
L 185.593205 321.280746 
L 186.613992 321.23628 
L 187.63478 321.191819 
L 188.655568 321.147362 
L 189.676355 321.10291 
L 190.697143 321.058461 
L 191.717931 321.014016 
L 192.738718 320.969574 
L 193.759506 320.925136 
L 194.780293 320.8807 
L 195.801081 320.836266 
L 196.821869 320.791835 
L 197.842656 320.747406 
L 198.863444 320.702979 
L 199.793495 320.662425 
L 199.884232 320.658547 
L 200.905019 320.614042 
L 201.925807 320.569541 
L 202.946595 320.525046 
L 203.967382 320.480555 
L 204.98817 320.436069 
L 206.008958 320.391586 
L 207.029745 320.347107 
L 208.050533 320.302632 
L 209.07132 320.25816 
L 210.092108 320.213692 
L 211.112896 320.169226 
L 212.133683 320.124764 
L 213.154471 320.080304 
L 214.175259 320.035847 
L 215.196046 319.991392 
L 216.216834 319.946939 
L 217.237622 319.902489 
L 218.258409 319.858041 
L 219.279197 319.813595 
L 220.299985 319.769151 
L 221.320772 319.724709 
L 222.34156 319.680269 
L 223.227243 319.641637 
L 223.362347 319.635822 
L 224.383135 319.59133 
L 225.403923 319.546841 
L 226.42471 319.502354 
L 227.445498 319.457871 
L 228.466286 319.41339 
L 229.487073 319.368912 
L 230.507861 319.324437 
L 231.528649 319.279963 
L 232.549436 319.235493 
L 233.570224 319.191024 
L 234.591012 319.146558 
L 235.611799 319.102094 
L 236.632587 319.057631 
L 237.653375 319.013171 
L 238.674162 318.968713 
L 239.69495 318.924256 
L 240.715737 318.879801 
L 241.736525 318.835348 
L 242.757313 318.790896 
L 243.7781 318.746446 
L 244.798888 318.701998 
L 245.819676 318.657551 
L 246.660984 318.620849 
L 246.840463 318.613098 
L 247.861251 318.568612 
L 248.882039 318.524128 
L 249.902826 318.479647 
L 250.923614 318.435167 
L 251.944402 318.39069 
L 252.965189 318.346214 
L 253.985977 318.301741 
L 255.006764 318.257269 
L 256.027552 318.212799 
L 257.04834 318.168331 
L 258.069127 318.123864 
L 259.089915 318.079399 
L 260.110703 318.034936 
L 261.13149 317.990474 
L 262.152278 317.946014 
L 263.173066 317.901555 
L 264.193853 317.857098 
L 265.214641 317.812642 
L 266.235429 317.768187 
L 267.256216 317.723733 
L 268.277004 317.679281 
L 269.297792 317.63483 
L 270.094722 317.600062 
L 270.318579 317.590373 
L 271.339367 317.545891 
L 272.360154 317.501411 
L 273.380942 317.456932 
L 274.40173 317.412456 
L 275.422517 317.36798 
L 276.443305 317.323506 
L 277.464093 317.279034 
L 278.48488 317.234563 
L 279.505668 317.190094 
L 280.526456 317.145626 
L 281.547243 317.101159 
L 282.568031 317.056694 
L 283.588819 317.01223 
L 284.609606 316.967767 
L 285.630394 316.923306 
L 286.651181 316.878846 
L 287.671969 316.834387 
L 288.692757 316.789929 
L 289.713544 316.745472 
L 290.734332 316.701016 
L 291.75512 316.656562 
L 292.775907 316.612108 
L 293.528459 316.579274 
L 293.796695 316.567649 
L 294.817483 316.523169 
L 295.83827 316.478691 
L 296.859058 316.434215 
L 297.879846 316.38974 
L 298.900633 316.345266 
L 299.921421 316.300793 
L 300.942208 316.256322 
L 301.962996 316.211852 
L 302.983784 316.167383 
L 304.004571 316.122915 
L 305.025359 316.078448 
L 306.046147 316.033983 
L 307.066934 315.989518 
L 308.087722 315.945055 
L 309.10851 315.900593 
L 310.129297 315.856132 
L 311.150085 315.811672 
L 312.170873 315.767213 
L 313.19166 315.722754 
L 314.212448 315.678297 
L 315.233236 315.633841 
L 316.254023 315.589386 
L 316.962195 315.558486 
L 317.274811 315.544924 
L 318.295598 315.500447 
L 319.316386 315.45597 
L 320.337174 315.411495 
L 321.357961 315.367021 
L 322.378749 315.322548 
L 323.399537 315.278077 
L 324.420324 315.233606 
L 325.441112 315.189136 
L 326.4619 315.144668 
L 327.482687 315.1002 
L 328.503475 315.055734 
L 329.524263 315.011268 
L 330.54505 314.966803 
L 331.565838 314.92234 
L 332.586625 314.877877 
L 333.607413 314.833415 
L 334.628201 314.788954 
L 335.648988 314.744494 
L 336.669776 314.700035 
L 337.690564 314.655577 
L 338.711351 314.611119 
L 339.732139 314.566663 
L 340.39593 314.537699 
L 340.752927 314.522199 
L 341.773714 314.477723 
L 342.794502 314.433248 
L 343.81529 314.388774 
L 344.836077 314.344301 
L 345.856865 314.299829 
L 346.877653 314.255358 
L 347.89844 314.210888 
L 348.919228 314.166419 
L 349.940015 314.121951 
L 350.960803 314.077483 
L 351.981591 314.033017 
L 353.002378 313.988551 
L 354.023166 313.944086 
L 355.043954 313.899622 
L 356.064741 313.855159 
L 357.085529 313.810697 
L 358.106317 313.766235 
L 359.127104 313.721774 
L 360.147892 313.677314 
L 361.16868 313.632855 
L 362.189467 313.588397 
L 363.210255 313.543939 
L 363.829665 313.516911 
L 364.231042 313.499475 
L 365.25183 313.455 
L 366.272618 313.410526 
L 367.293405 313.366053 
L 368.314193 313.321581 
L 369.334981 313.277109 
L 370.355768 313.232639 
L 371.376556 313.188169 
L 372.397344 313.1437 
L 373.418131 313.099232 
L 374.438919 313.054765 
L 375.459707 313.010298 
L 376.480494 312.965832 
L 377.501282 312.921367 
L 378.522069 312.876903 
L 379.542857 312.83244 
L 380.563645 312.787977 
L 381.584432 312.743515 
L 382.60522 312.699054 
L 383.626008 312.654593 
L 384.646795 312.610133 
L 385.667583 312.565674 
L 386.688371 312.521215 
L 387.2634 312.496124 
L 387.709158 312.47675 
L 388.729946 312.432276 
L 389.750734 312.387803 
L 390.771521 312.34333 
L 391.792309 312.298859 
L 392.813097 312.254388 
L 393.833884 312.209918 
L 394.854672 312.165449 
L 395.875459 312.12098 
L 396.896247 312.076512 
L 397.917035 312.032045 
L 398.937822 311.987578 
L 399.95861 311.943113 
L 400.979398 311.898647 
L 402.000185 311.854183 
L 403.020973 311.809719 
L 404.041761 311.765256 
L 405.062548 311.720794 
L 406.083336 311.676332 
L 407.104124 311.631871 
L 408.124911 311.587411 
L 409.145699 311.542951 
L 410.166486 311.498491 
L 410.697134 311.475336 
L 411.187274 311.454025 
L 412.208062 311.409552 
L 413.228849 311.36508 
L 414.249637 311.320608 
L 415.270425 311.276137 
L 416.291212 311.231666 
L 417.312 311.187196 
L 417.312 310.454548 
L 417.312 309.433761 
L 417.312 308.412973 
L 417.312 307.392185 
L 417.312 306.371398 
L 417.312 305.35061 
L 417.312 304.329822 
L 417.312 303.309035 
L 417.312 302.288247 
L 417.312 301.267459 
L 417.312 300.246672 
L 417.312 299.225884 
L 417.312 298.205097 
L 417.312 297.184309 
L 417.312 296.163521 
L 417.312 295.142734 
L 417.312 294.121946 
L 417.312 293.101158 
L 417.312 292.080371 
L 417.312 291.059583 
L 417.312 290.038795 
L 417.312 289.018008 
L 417.312 287.99722 
L 417.312 286.976432 
L 417.312 285.955645 
L 417.312 284.934857 
L 417.312 283.914069 
L 417.312 282.893282 
L 417.312 281.872494 
L 417.312 280.851707 
L 417.312 279.830919 
L 417.312 278.810131 
L 417.312 277.789344 
L 417.312 276.768556 
L 417.312 275.747768 
L 417.312 274.726981 
L 417.312 273.706193 
L 417.312 272.685405 
L 417.312 271.664618 
L 417.312 270.64383 
L 417.312 269.623042 
L 417.312 268.602255 
L 417.312 267.581467 
L 417.312 266.56068 
L 417.312 265.539892 
L 417.312 264.519104 
L 417.312 263.498317 
L 417.312 262.477529 
L 417.312 261.456741 
L 417.312 260.435954 
L 417.312 259.415166 
L 417.312 258.394378 
L 417.312 257.373591 
L 417.312 256.352803 
L 417.312 255.332015 
L 417.312 254.311228 
L 417.312 253.29044 
L 417.312 252.269653 
L 417.312 251.248865 
L 417.312 250.228077 
L 417.312 249.20729 
L 417.312 248.186502 
L 417.312 247.165714 
L 417.312 246.144927 
L 417.312 245.124139 
L 417.312 244.103351 
L 417.312 243.082564 
L 417.312 242.061776 
L 417.312 241.040988 
L 417.312 240.020201 
L 417.312 238.999413 
L 417.312 237.978625 
L 417.312 236.957838 
L 417.312 235.93705 
L 417.312 234.916263 
L 417.312 233.895475 
L 417.312 232.874687 
L 417.312 231.8539 
L 417.312 230.833112 
L 417.312 229.812324 
L 417.312 228.791537 
L 417.312 227.770749 
L 417.312 226.749961 
L 417.312 225.729174 
L 417.312 224.708386 
L 417.312 223.687598 
L 417.312 222.666811 
L 417.312 221.646023 
L 417.312 220.625236 
L 417.312 219.604448 
L 417.312 218.58366 
L 417.312 217.562873 
L 417.312 216.542085 
L 417.312 215.521297 
L 417.312 214.50051 
L 417.312 213.479722 
L 417.312 212.458934 
L 417.312 211.438147 
L 417.312 210.417359 
L 417.312 209.396571 
L 417.312 208.375784 
L 417.312 207.354996 
L 417.312 206.334208 
L 417.312 205.313421 
L 417.312 204.292633 
L 417.312 203.271846 
L 417.312 202.251058 
L 417.312 201.23027 
L 417.312 200.209483 
L 417.312 199.188695 
L 417.312 198.167907 
L 417.312 197.14712 
L 417.312 196.126332 
L 417.312 195.105544 
L 417.312 194.084757 
L 417.312 193.063969 
L 417.312 192.043181 
L 417.312 191.022394 
L 417.312 190.001606 
L 417.312 188.980819 
L 417.312 187.960031 
L 417.312 186.939243 
L 417.312 185.918456 
L 417.312 184.897668 
L 417.312 183.87688 
L 417.312 182.856093 
L 417.312 181.835305 
L 417.312 180.814517 
L 417.312 179.79373 
L 417.312 178.772942 
L 417.312 177.752154 
L 417.312 176.731367 
L 417.312 175.710579 
L 417.312 174.689792 
L 417.312 173.669004 
L 417.312 172.648216 
L 417.312 171.627429 
L 417.312 170.606641 
L 417.312 169.585853 
L 417.312 168.565066 
L 417.312 167.544278 
L 417.312 166.52349 
L 417.312 165.502703 
L 417.312 164.481915 
L 417.312 163.461127 
L 417.312 162.44034 
L 417.312 161.419552 
L 417.312 160.398764 
L 417.312 159.377977 
L 417.312 158.357189 
L 417.312 157.336402 
L 417.312 156.315614 
L 417.312 155.294826 
L 417.312 154.274039 
L 417.312 153.253251 
L 417.312 152.232463 
L 417.312 151.211676 
L 417.312 150.190888 
L 417.312 149.1701 
L 417.312 148.149313 
L 417.312 147.128525 
L 417.312 146.107737 
L 417.312 145.08695 
L 417.312 144.066162 
L 417.312 143.045375 
L 417.312 142.024587 
L 417.312 141.003799 
L 417.312 139.983012 
L 417.312 138.962224 
L 417.312 137.941436 
L 417.312 136.920649 
L 417.312 135.899861 
L 417.312 134.879073 
L 417.312 133.858286 
L 417.312 132.837498 
L 417.312 131.81671 
L 417.312 130.795923 
L 417.312 129.775135 
L 417.312 128.754347 
L 417.312 127.73356 
L 417.312 126.712772 
L 417.312 125.691985 
L 417.312 124.671197 
L 417.312 123.650409 
L 417.312 122.629622 
L 417.312 121.608834 
L 417.312 120.588046 
L 417.312 119.567259 
L 417.312 118.546471 
L 417.312 117.525683 
L 417.312 116.504896 
L 417.312 115.484108 
L 417.312 114.46332 
L 417.312 113.442533 
L 417.312 112.421745 
L 417.312 111.400958 
L 417.312 110.38017 
L 417.312 109.359382 
L 417.312 108.338595 
L 417.312 107.317807 
L 417.312 106.297019 
L 417.312 105.276232 
L 417.312 104.255444 
L 417.312 103.234656 
L 417.312 102.213869 
L 417.312 101.193081 
L 417.312 100.172293 
L 417.312 99.151506 
L 417.312 98.130718 
L 417.312 97.109931 
L 417.312 96.089143 
L 417.312 95.068355 
L 417.312 94.047568 
L 417.312 93.02678 
L 417.312 92.005992 
L 417.312 90.985205 
L 417.312 89.964417 
L 417.312 88.943629 
L 417.312 87.922842 
L 417.312 86.902054 
L 417.312 85.881266 
L 417.312 84.860479 
L 417.312 83.839691 
L 417.312 82.818903 
L 417.312 81.798116 
L 417.312 80.777328 
L 417.312 79.756541 
L 417.312 78.735753 
L 417.312 77.714965 
L 417.312 76.694178 
L 417.312 75.67339 
L 417.312 74.652602 
L 417.312 73.631815 
L 417.312 72.611027 
L 417.312 71.590239 
L 417.312 70.569452 
L 417.312 69.548664 
L 417.312 68.527876 
L 417.312 67.507089 
L 417.312 66.486301 
L 417.312 65.465514 
L 417.312 64.444726 
L 417.312 63.423938 
L 417.312 62.403151 
L 417.312 61.382363 
L 417.312 60.361575 
L 417.312 59.340788 
L 417.312 58.32 
L 416.291212 58.32 
L 415.270425 58.32 
L 414.249637 58.32 
L 413.228849 58.32 
L 412.208062 58.32 
L 411.187274 58.32 
L 410.166486 58.32 
L 409.145699 58.32 
L 408.124911 58.32 
L 407.104124 58.32 
L 406.083336 58.32 
L 405.062548 58.32 
L 404.041761 58.32 
L 403.020973 58.32 
L 402.000185 58.32 
L 400.979398 58.32 
L 399.95861 58.32 
L 398.937822 58.32 
L 397.917035 58.32 
L 396.896247 58.32 
L 395.875459 58.32 
L 394.854672 58.32 
L 393.833884 58.32 
L 392.813097 58.32 
L 391.792309 58.32 
L 390.771521 58.32 
L 389.750734 58.32 
L 388.729946 58.32 
L 387.709158 58.32 
L 386.688371 58.32 
L 385.667583 58.32 
L 384.646795 58.32 
L 383.626008 58.32 
L 382.60522 58.32 
L 381.584432 58.32 
L 380.563645 58.32 
L 379.542857 58.32 
L 378.522069 58.32 
L 377.501282 58.32 
L 376.480494 58.32 
L 375.459707 58.32 
L 374.438919 58.32 
L 373.418131 58.32 
L 372.397344 58.32 
L 371.376556 58.32 
L 370.355768 58.32 
L 369.334981 58.32 
L 368.314193 58.32 
L 367.293405 58.32 
L 366.272618 58.32 
L 365.25183 58.32 
L 364.231042 58.32 
L 363.210255 58.32 
L 362.189467 58.32 
L 361.16868 58.32 
L 360.147892 58.32 
L 359.127104 58.32 
L 358.106317 58.32 
L 357.085529 58.32 
L 356.064741 58.32 
L 355.043954 58.32 
L 354.023166 58.32 
L 353.002378 58.32 
L 351.981591 58.32 
L 350.960803 58.32 
L 349.940015 58.32 
L 348.919228 58.32 
L 347.89844 58.32 
L 346.877653 58.32 
L 345.856865 58.32 
L 344.836077 58.32 
L 343.81529 58.32 
L 342.794502 58.32 
L 341.773714 58.32 
L 340.752927 58.32 
L 339.732139 58.32 
L 338.711351 58.32 
L 337.690564 58.32 
L 336.669776 58.32 
L 335.648988 58.32 
L 334.628201 58.32 
L 333.607413 58.32 
L 332.586625 58.32 
L 331.565838 58.32 
L 330.54505 58.32 
L 329.524263 58.32 
L 328.503475 58.32 
L 327.482687 58.32 
L 326.4619 58.32 
L 325.441112 58.32 
L 324.420324 58.32 
L 323.399537 58.32 
L 322.378749 58.32 
L 321.357961 58.32 
L 320.337174 58.32 
L 319.316386 58.32 
L 318.295598 58.32 
L 317.274811 58.32 
L 316.254023 58.32 
L 315.233236 58.32 
L 314.212448 58.32 
L 313.19166 58.32 
L 312.170873 58.32 
L 311.150085 58.32 
L 310.129297 58.32 
L 309.10851 58.32 
L 308.087722 58.32 
L 307.066934 58.32 
L 306.046147 58.32 
L 305.025359 58.32 
L 304.004571 58.32 
L 302.983784 58.32 
L 301.962996 58.32 
L 300.942208 58.32 
L 299.921421 58.32 
L 298.900633 58.32 
L 297.879846 58.32 
L 296.859058 58.32 
L 295.83827 58.32 
L 294.817483 58.32 
L 293.796695 58.32 
L 292.775907 58.32 
L 291.75512 58.32 
L 290.734332 58.32 
L 289.713544 58.32 
L 288.692757 58.32 
L 287.671969 58.32 
L 286.651181 58.32 
L 285.630394 58.32 
L 284.609606 58.32 
L 283.588819 58.32 
L 282.568031 58.32 
L 281.547243 58.32 
L 280.526456 58.32 
L 279.505668 58.32 
L 278.48488 58.32 
L 277.464093 58.32 
L 276.443305 58.32 
L 275.422517 58.32 
L 274.40173 58.32 
L 273.380942 58.32 
L 272.360154 58.32 
L 271.339367 58.32 
L 270.318579 58.32 
L 269.297792 58.32 
L 268.277004 58.32 
L 267.256216 58.32 
L 266.235429 58.32 
L 265.214641 58.32 
L 264.193853 58.32 
L 263.173066 58.32 
L 262.152278 58.32 
L 261.13149 58.32 
L 260.110703 58.32 
L 259.089915 58.32 
L 258.069127 58.32 
L 257.04834 58.32 
L 256.027552 58.32 
L 255.006764 58.32 
L 253.985977 58.32 
L 252.965189 58.32 
L 251.944402 58.32 
L 250.923614 58.32 
L 249.902826 58.32 
L 248.882039 58.32 
L 247.861251 58.32 
L 246.840463 58.32 
L 245.819676 58.32 
L 244.798888 58.32 
L 243.7781 58.32 
L 242.757313 58.32 
L 241.736525 58.32 
L 240.715737 58.32 
L 239.69495 58.32 
L 238.674162 58.32 
L 237.653375 58.32 
L 236.632587 58.32 
L 235.611799 58.32 
L 234.591012 58.32 
L 233.570224 58.32 
L 232.549436 58.32 
L 231.528649 58.32 
L 230.507861 58.32 
L 229.487073 58.32 
L 228.466286 58.32 
L 227.445498 58.32 
L 226.42471 58.32 
L 225.403923 58.32 
L 224.383135 58.32 
L 223.362347 58.32 
L 222.34156 58.32 
L 221.320772 58.32 
L 220.299985 58.32 
L 219.279197 58.32 
L 218.258409 58.32 
L 217.237622 58.32 
L 216.216834 58.32 
L 215.196046 58.32 
L 214.175259 58.32 
L 213.154471 58.32 
L 212.133683 58.32 
L 211.112896 58.32 
L 210.092108 58.32 
L 209.07132 58.32 
L 208.050533 58.32 
L 207.029745 58.32 
L 206.008958 58.32 
L 204.98817 58.32 
L 203.967382 58.32 
L 202.946595 58.32 
L 201.925807 58.32 
L 200.905019 58.32 
L 199.884232 58.32 
L 198.863444 58.32 
L 197.842656 58.32 
L 196.821869 58.32 
L 195.801081 58.32 
L 194.780293 58.32 
L 193.759506 58.32 
L 192.738718 58.32 
L 191.717931 58.32 
L 190.697143 58.32 
L 189.676355 58.32 
L 188.655568 58.32 
L 187.63478 58.32 
L 186.613992 58.32 
L 185.593205 58.32 
L 184.572417 58.32 
L 183.551629 58.32 
L 182.530842 58.32 
L 181.510054 58.32 
L 180.489266 58.32 
L 179.468479 58.32 
L 178.447691 58.32 
L 177.426903 58.32 
L 176.406116 58.32 
L 175.385328 58.32 
L 174.364541 58.32 
L 173.343753 58.32 
L 172.322965 58.32 
L 171.302178 58.32 
L 170.28139 58.32 
L 169.260602 58.32 
L 168.239815 58.32 
L 167.219027 58.32 
L 166.198239 58.32 
L 165.177452 58.32 
L 164.444804 58.32 
L 164.400334 59.340788 
L 164.355863 60.361575 
L 164.311392 61.382363 
L 164.26692 62.403151 
L 164.222448 63.423938 
L 164.177975 64.444726 
L 164.156664 64.934866 
L 164.133509 65.465514 
L 164.089049 66.486301 
L 164.044589 67.507089 
L 164.000129 68.527876 
L 163.955668 69.548664 
L 163.911206 70.569452 
L 163.866744 71.590239 
L 163.822281 72.611027 
L 163.777817 73.631815 
L 163.733353 74.652602 
L 163.688887 75.67339 
L 163.644422 76.694178 
L 163.599955 77.714965 
L 163.555488 78.735753 
L 163.51102 79.756541 
L 163.466551 80.777328 
L 163.422082 81.798116 
L 163.377612 82.818903 
L 163.333141 83.839691 
L 163.28867 84.860479 
L 163.244197 85.881266 
L 163.199724 86.902054 
L 163.15525 87.922842 
L 163.135876 88.3686 
L 163.110785 88.943629 
L 163.066326 89.964417 
L 163.021867 90.985205 
L 162.977407 92.005992 
L 162.932946 93.02678 
L 162.888485 94.047568 
L 162.844023 95.068355 
L 162.79956 96.089143 
L 162.755097 97.109931 
L 162.710633 98.130718 
L 162.666168 99.151506 
L 162.621702 100.172293 
L 162.577235 101.193081 
L 162.532768 102.213869 
L 162.4883 103.234656 
L 162.443831 104.255444 
L 162.399361 105.276232 
L 162.354891 106.297019 
L 162.310419 107.317807 
L 162.265947 108.338595 
L 162.221474 109.359382 
L 162.177 110.38017 
L 162.132525 111.400958 
L 162.115089 111.802335 
L 162.088061 112.421745 
L 162.043603 113.442533 
L 161.999145 114.46332 
L 161.954686 115.484108 
L 161.910226 116.504896 
L 161.865765 117.525683 
L 161.821303 118.546471 
L 161.776841 119.567259 
L 161.732378 120.588046 
L 161.687914 121.608834 
L 161.643449 122.629622 
L 161.598983 123.650409 
L 161.554517 124.671197 
L 161.510049 125.691985 
L 161.465581 126.712772 
L 161.421112 127.73356 
L 161.376642 128.754347 
L 161.332171 129.775135 
L 161.287699 130.795923 
L 161.243226 131.81671 
L 161.198752 132.837498 
L 161.154277 133.858286 
L 161.109801 134.879073 
L 161.094301 135.23607 
L 161.065337 135.899861 
L 161.020881 136.920649 
L 160.976423 137.941436 
L 160.931965 138.962224 
L 160.887506 139.983012 
L 160.843046 141.003799 
L 160.798585 142.024587 
L 160.754123 143.045375 
L 160.70966 144.066162 
L 160.665197 145.08695 
L 160.620732 146.107737 
L 160.576266 147.128525 
L 160.5318 148.149313 
L 160.487332 149.1701 
L 160.442864 150.190888 
L 160.398394 151.211676 
L 160.353923 152.232463 
L 160.309452 153.253251 
L 160.264979 154.274039 
L 160.220505 155.294826 
L 160.17603 156.315614 
L 160.131553 157.336402 
L 160.087076 158.357189 
L 160.073514 158.669805 
L 160.042614 159.377977 
L 159.998159 160.398764 
L 159.953703 161.419552 
L 159.909246 162.44034 
L 159.864787 163.461127 
L 159.820328 164.481915 
L 159.775868 165.502703 
L 159.731407 166.52349 
L 159.686945 167.544278 
L 159.642482 168.565066 
L 159.598017 169.585853 
L 159.553552 170.606641 
L 159.509085 171.627429 
L 159.464617 172.648216 
L 159.420148 173.669004 
L 159.375678 174.689792 
L 159.331207 175.710579 
L 159.286734 176.731367 
L 159.24226 177.752154 
L 159.197785 178.772942 
L 159.153309 179.79373 
L 159.108831 180.814517 
L 159.064351 181.835305 
L 159.052726 182.103541 
L 159.019892 182.856093 
L 158.975438 183.87688 
L 158.930984 184.897668 
L 158.886528 185.918456 
L 158.842071 186.939243 
L 158.797613 187.960031 
L 158.753154 188.980819 
L 158.708694 190.001606 
L 158.664233 191.022394 
L 158.61977 192.043181 
L 158.575306 193.063969 
L 158.530841 194.084757 
L 158.486374 195.105544 
L 158.441906 196.126332 
L 158.397437 197.14712 
L 158.352966 198.167907 
L 158.308494 199.188695 
L 158.26402 200.209483 
L 158.219544 201.23027 
L 158.175068 202.251058 
L 158.130589 203.271846 
L 158.086109 204.292633 
L 158.041627 205.313421 
L 158.031938 205.537278 
L 157.99717 206.334208 
L 157.952719 207.354996 
L 157.908267 208.375784 
L 157.863813 209.396571 
L 157.819358 210.417359 
L 157.774902 211.438147 
L 157.730445 212.458934 
L 157.685986 213.479722 
L 157.641526 214.50051 
L 157.597064 215.521297 
L 157.552601 216.542085 
L 157.508136 217.562873 
L 157.463669 218.58366 
L 157.419201 219.604448 
L 157.374731 220.625236 
L 157.330259 221.646023 
L 157.285786 222.666811 
L 157.24131 223.687598 
L 157.196833 224.708386 
L 157.152353 225.729174 
L 157.107872 226.749961 
L 157.063388 227.770749 
L 157.018902 228.791537 
L 157.011151 228.971016 
L 156.974449 229.812324 
L 156.930002 230.833112 
L 156.885554 231.8539 
L 156.841104 232.874687 
L 156.796652 233.895475 
L 156.752199 234.916263 
L 156.707744 235.93705 
L 156.663287 236.957838 
L 156.618829 237.978625 
L 156.574369 238.999413 
L 156.529906 240.020201 
L 156.485442 241.040988 
L 156.440976 242.061776 
L 156.396507 243.082564 
L 156.352037 244.103351 
L 156.307563 245.124139 
L 156.263088 246.144927 
L 156.21861 247.165714 
L 156.174129 248.186502 
L 156.129646 249.20729 
L 156.085159 250.228077 
L 156.04067 251.248865 
L 155.996178 252.269653 
L 155.990363 252.404757 
L 155.951731 253.29044 
L 155.907291 254.311228 
L 155.862849 255.332015 
L 155.818405 256.352803 
L 155.773959 257.373591 
L 155.729511 258.394378 
L 155.685061 259.415166 
L 155.640608 260.435954 
L 155.596153 261.456741 
L 155.551696 262.477529 
L 155.507236 263.498317 
L 155.462774 264.519104 
L 155.418308 265.539892 
L 155.37384 266.56068 
L 155.329368 267.581467 
L 155.284893 268.602255 
L 155.240414 269.623042 
L 155.195931 270.64383 
L 155.151445 271.664618 
L 155.106954 272.685405 
L 155.062459 273.706193 
L 155.017958 274.726981 
L 154.973453 275.747768 
L 154.969575 275.838505 
L 154.929021 276.768556 
L 154.884594 277.789344 
L 154.840165 278.810131 
L 154.795734 279.830919 
L 154.7513 280.851707 
L 154.706864 281.872494 
L 154.662426 282.893282 
L 154.617984 283.914069 
L 154.573539 284.934857 
L 154.52909 285.955645 
L 154.484638 286.976432 
L 154.440181 287.99722 
L 154.39572 289.018008 
L 154.351254 290.038795 
L 154.306782 291.059583 
L 154.262305 292.080371 
L 154.217821 293.101158 
L 154.173329 294.121946 
L 154.128829 295.142734 
L 154.084321 296.163521 
L 154.039802 297.184309 
L 153.995272 298.205097 
L 153.950728 299.225884 
L 153.948788 299.272284 
L 153.906339 300.246672 
L 153.861957 301.267459 
L 153.817575 302.288247 
L 153.773193 303.309035 
L 153.728812 304.329822 
L 153.68443 305.35061 
L 153.640048 306.371398 
L 153.595666 307.392185 
L 153.551285 308.412973 
L 153.506903 309.433761 
L 153.462522 310.454548 
L 153.41814 311.475336 
L 153.373759 312.496124 
L 153.329378 313.516911 
L 153.284997 314.537699 
L 153.240616 315.558486 
L 153.196236 316.579274 
L 153.151857 317.600062 
L 153.107479 318.620849 
L 153.063104 319.641637 
L 153.018737 320.662425 
L 152.974399 321.683212 
z
" clip-path="url(#p4529a24ad5)" style="fill: #bbf7d0; fill-opacity: 0.74"/>
   </g>
   <g id="matplotlib.axis_1">
    <g id="xtick_1">
     <g id="line2d_1">
      <path d="M 152.928 322.704 
L 152.928 58.32 
" clip-path="url(#p4529a24ad5)" style="fill: none; stroke: #cbd5e1; stroke-width: 0.8; stroke-linecap: square"/>
     </g>
     <g id="line2d_2"/>
     <g id="text_1">
      <text style="font-size: 10.5px; font-family: 'DejaVu Sans'; text-anchor: middle; fill: #475569" x="152.928" y="334.182359" transform="rotate(-0 152.928 334.182359)">0</text>
     </g>
    </g>
    <g id="xtick_2">
     <g id="line2d_3">
      <path d="M 219.024 322.704 
L 219.024 58.32 
" clip-path="url(#p4529a24ad5)" style="fill: none; stroke: #cbd5e1; stroke-width: 0.8; stroke-linecap: square"/>
     </g>
     <g id="line2d_4"/>
     <g id="text_2">
      <text style="font-size: 10.5px; font-family: 'DejaVu Sans'; text-anchor: middle; fill: #475569" x="219.024" y="334.182359" transform="rotate(-0 219.024 334.182359)">0.25</text>
     </g>
    </g>
    <g id="xtick_3">
     <g id="line2d_5">
      <path d="M 285.12 322.704 
L 285.12 58.32 
" clip-path="url(#p4529a24ad5)" style="fill: none; stroke: #cbd5e1; stroke-width: 0.8; stroke-linecap: square"/>
     </g>
     <g id="line2d_6"/>
     <g id="text_3">
      <text style="font-size: 10.5px; font-family: 'DejaVu Sans'; text-anchor: middle; fill: #475569" x="285.12" y="334.182359" transform="rotate(-0 285.12 334.182359)">0.50</text>
     </g>
    </g>
    <g id="xtick_4">
     <g id="line2d_7">
      <path d="M 351.216 322.704 
L 351.216 58.32 
" clip-path="url(#p4529a24ad5)" style="fill: none; stroke: #cbd5e1; stroke-width: 0.8; stroke-linecap: square"/>
     </g>
     <g id="line2d_8"/>
     <g id="text_4">
      <text style="font-size: 10.5px; font-family: 'DejaVu Sans'; text-anchor: middle; fill: #475569" x="351.216" y="334.182359" transform="rotate(-0 351.216 334.182359)">0.75</text>
     </g>
    </g>
    <g id="xtick_5">
     <g id="line2d_9">
      <path d="M 417.312 322.704 
L 417.312 58.32 
" clip-path="url(#p4529a24ad5)" style="fill: none; stroke: #cbd5e1; stroke-width: 0.8; stroke-linecap: square"/>
     </g>
     <g id="line2d_10"/>
     <g id="text_5">
      <text style="font-size: 10.5px; font-family: 'DejaVu Sans'; text-anchor: middle; fill: #475569" x="417.312" y="334.182359" transform="rotate(-0 417.312 334.182359)">1.00</text>
     </g>
    </g>
    <g id="text_6">
     <!-- $\lambda_1$ -->
     <g style="fill: #111827" transform="translate(279.5025 348.344391)">
      <text>
       <tspan x="0" y="-0.640625" style="font-style: oblique; font-size: 10.5px; font-family: 'DejaVu Sans'; fill: #111827">λ</tspan>
       <tspan x="6.213867" y="1.164062" style="font-size: 7.35px; font-family: 'DejaVu Sans'; fill: #111827">1</tspan>
      </text>
     </g>
    </g>
   </g>
   <g id="matplotlib.axis_2">
    <g id="ytick_1">
     <g id="line2d_11">
      <path d="M 152.928 322.704 
L 417.312 322.704 
" clip-path="url(#p4529a24ad5)" style="fill: none; stroke: #cbd5e1; stroke-width: 0.8; stroke-linecap: square"/>
     </g>
     <g id="line2d_12"/>
     <g id="text_7">
      <text style="font-size: 10.5px; font-family: 'DejaVu Sans'; text-anchor: end; fill: #475569" x="149.428" y="326.69318" transform="rotate(-0 149.428 326.69318)">0</text>
     </g>
    </g>
    <g id="ytick_2">
     <g id="line2d_13">
      <path d="M 152.928 256.608 
L 417.312 256.608 
" clip-path="url(#p4529a24ad5)" style="fill: none; stroke: #cbd5e1; stroke-width: 0.8; stroke-linecap: square"/>
     </g>
     <g id="line2d_14"/>
     <g id="text_8">
      <text style="font-size: 10.5px; font-family: 'DejaVu Sans'; text-anchor: end; fill: #475569" x="149.428" y="260.59718" transform="rotate(-0 149.428 260.59718)">0.25</text>
     </g>
    </g>
    <g id="ytick_3">
     <g id="line2d_15">
      <path d="M 152.928 190.512 
L 417.312 190.512 
" clip-path="url(#p4529a24ad5)" style="fill: none; stroke: #cbd5e1; stroke-width: 0.8; stroke-linecap: square"/>
     </g>
     <g id="line2d_16"/>
     <g id="text_9">
      <text style="font-size: 10.5px; font-family: 'DejaVu Sans'; text-anchor: end; fill: #475569" x="149.428" y="194.50118" transform="rotate(-0 149.428 194.50118)">0.50</text>
     </g>
    </g>
    <g id="ytick_4">
     <g id="line2d_17">
      <path d="M 152.928 124.416 
L 417.312 124.416 
" clip-path="url(#p4529a24ad5)" style="fill: none; stroke: #cbd5e1; stroke-width: 0.8; stroke-linecap: square"/>
     </g>
     <g id="line2d_18"/>
     <g id="text_10">
      <text style="font-size: 10.5px; font-family: 'DejaVu Sans'; text-anchor: end; fill: #475569" x="149.428" y="128.40518" transform="rotate(-0 149.428 128.40518)">0.75</text>
     </g>
    </g>
    <g id="ytick_5">
     <g id="line2d_19">
      <path d="M 152.928 58.32 
L 417.312 58.32 
" clip-path="url(#p4529a24ad5)" style="fill: none; stroke: #cbd5e1; stroke-width: 0.8; stroke-linecap: square"/>
     </g>
     <g id="line2d_20"/>
     <g id="text_11">
      <text style="font-size: 10.5px; font-family: 'DejaVu Sans'; text-anchor: end; fill: #475569" x="149.428" y="62.30918" transform="rotate(-0 149.428 62.30918)">1.00</text>
     </g>
    </g>
    <g id="text_12">
     <!-- $\lambda_2$ -->
     <g style="fill: #111827" transform="translate(104.431594 188.328328)">
      <text>
       <tspan x="0" y="-0.640625" style="font-style: oblique; font-size: 10.5px; font-family: 'DejaVu Sans'; fill: #111827">λ</tspan>
       <tspan x="6.213867" y="1.164062" style="font-size: 7.35px; font-family: 'DejaVu Sans'; fill: #111827">2</tspan>
      </text>
     </g>
    </g>
   </g>
   <g id="line2d_21">
    <path d="M 152.928 322.704 
L 417.312 311.187231 
L 417.312 311.187231 
" clip-path="url(#p4529a24ad5)" style="fill: none; stroke: #2563eb; stroke-width: 2; stroke-linecap: square"/>
   </g>
   <g id="line2d_22">
    <path d="M 152.928 322.704 
L 164.444769 58.32 
L 164.444769 58.32 
" clip-path="url(#p4529a24ad5)" style="fill: none; stroke: #2563eb; stroke-width: 2; stroke-linecap: square"/>
   </g>
   <g id="line2d_23">
    <path d="M 152.928 322.704 
L 417.312 58.32 
" clip-path="url(#p4529a24ad5)" style="fill: none; stroke-dasharray: 4.8,4.8; stroke-dashoffset: 0; stroke: #94a3b8; stroke-width: 1.2"/>
   </g>
   <g id="patch_3">
    <path d="M 152.928 322.704 
L 152.928 58.32 
" style="fill: none; stroke: #111827; stroke-width: 1.1; stroke-linejoin: miter; stroke-linecap: square"/>
   </g>
   <g id="patch_4">
    <path d="M 152.928 322.704 
L 417.312 322.704 
" style="fill: none; stroke: #111827; stroke-width: 1.1; stroke-linejoin: miter; stroke-linecap: square"/>
   </g>
   <g id="text_13">
    <!-- $\lambda_1 = \lambda_2$ -->
    <g style="fill: #64748b" transform="translate(288.151631 204.601158) rotate(-39)">
     <text>
      <tspan x="0" y="-0.15625" style="font-style: oblique; font-size: 9px; font-family: 'DejaVu Sans'; fill: #64748b">λ</tspan>
      <tspan x="20.628369" y="-0.15625" style="font-style: oblique; font-size: 9px; font-family: 'DejaVu Sans'; fill: #64748b">λ</tspan>
      <tspan x="5.326172" y="1.320312" style="font-size: 6.3px; font-family: 'DejaVu Sans'; fill: #64748b">1</tspan>
      <tspan x="25.954541" y="1.320312" style="font-size: 6.3px; font-family: 'DejaVu Sans'; fill: #64748b">2</tspan>
      <tspan x="11.333936" y="-0.15625" style="font-size: 9px; font-family: 'DejaVu Sans'; fill: #64748b">=</tspan>
     </text>
    </g>
   </g>
   <g id="text_14">
    <!-- $R = \lambda_1\lambda_2 - k(\lambda_1 + \lambda_2)^2$,  $k = 0.04$ -->
    <g style="fill: #475569" transform="translate(152.928 46.882888)">
     <text>
      <tspan x="0" y="-0.06875" style="font-style: oblique; font-size: 10.5px; font-family: 'DejaVu Sans'; fill: #475569">R</tspan>
      <tspan x="20.184814" y="-0.06875" style="font-style: oblique; font-size: 10.5px; font-family: 'DejaVu Sans'; fill: #475569">λ</tspan>
      <tspan x="31.375757" y="-0.06875" style="font-style: oblique; font-size: 10.5px; font-family: 'DejaVu Sans'; fill: #475569">λ</tspan>
      <tspan x="55.455859" y="-0.06875" style="font-style: oblique; font-size: 10.5px; font-family: 'DejaVu Sans'; fill: #475569">k</tspan>
      <tspan x="65.632861" y="-0.06875" style="font-style: oblique; font-size: 10.5px; font-family: 'DejaVu Sans'; fill: #475569">λ</tspan>
      <tspan x="89.712964" y="-0.06875" style="font-style: oblique; font-size: 10.5px; font-family: 'DejaVu Sans'; fill: #475569">λ</tspan>
      <tspan x="120.09563" y="-0.06875" style="font-style: oblique; font-size: 10.5px; font-family: 'DejaVu Sans'; fill: #475569">k</tspan>
      <tspan x="9.341309" y="-0.06875" style="font-size: 10.5px; font-family: 'DejaVu Sans'; fill: #475569">=</tspan>
      <tspan x="44.612354" y="-0.06875" style="font-size: 10.5px; font-family: 'DejaVu Sans'; fill: #475569">−</tspan>
      <tspan x="61.536426" y="-0.06875" style="font-size: 10.5px; font-family: 'DejaVu Sans'; fill: #475569">(</tspan>
      <tspan x="78.869458" y="-0.06875" style="font-size: 10.5px; font-family: 'DejaVu Sans'; fill: #475569">+</tspan>
      <tspan x="100.903906" y="-0.06875" style="font-size: 10.5px; font-family: 'DejaVu Sans'; fill: #475569">)</tspan>
      <tspan x="110.08269" y="-0.06875" style="font-size: 10.5px; font-family: 'DejaVu Sans'; fill: #475569">,</tspan>
      <tspan x="113.420337" y="-0.06875" style="font-size: 10.5px; font-family: 'DejaVu Sans'; fill: #475569"> </tspan>
      <tspan x="116.757983" y="-0.06875" style="font-size: 10.5px; font-family: 'DejaVu Sans'; fill: #475569"> </tspan>
      <tspan x="128.221851" y="-0.06875" style="font-size: 10.5px; font-family: 'DejaVu Sans'; fill: #475569">=</tspan>
      <tspan x="139.065356" y="-0.06875" style="font-size: 10.5px; font-family: 'DejaVu Sans'; fill: #475569">0</tspan>
      <tspan x="145.745776" y="-0.06875" style="font-size: 10.5px; font-family: 'DejaVu Sans'; fill: #475569">.</tspan>
      <tspan x="149.083423" y="-0.06875" style="font-size: 10.5px; font-family: 'DejaVu Sans'; fill: #475569">0</tspan>
      <tspan x="155.763843" y="-0.06875" style="font-size: 10.5px; font-family: 'DejaVu Sans'; fill: #475569">4</tspan>
      <tspan x="26.398682" y="1.735937" style="font-size: 7.35px; font-family: 'DejaVu Sans'; fill: #475569">1</tspan>
      <tspan x="37.589624" y="1.735937" style="font-size: 7.35px; font-family: 'DejaVu Sans'; fill: #475569">2</tspan>
      <tspan x="71.846729" y="1.735937" style="font-size: 7.35px; font-family: 'DejaVu Sans'; fill: #475569">1</tspan>
      <tspan x="95.926831" y="1.735937" style="font-size: 7.35px; font-family: 'DejaVu Sans'; fill: #475569">2</tspan>
      <tspan x="105.105615" y="-4.279688" style="font-size: 7.35px; font-family: 'DejaVu Sans'; fill: #475569">2</tspan>
     </text>
    </g>
   </g>
   <g id="text_15">
    <text style="font-size: 9.5px; font-family: 'DejaVu Sans'; text-anchor: start; fill: #475569" x="152.928" y="374.867796" transform="rotate(-0 152.928 374.867796)">Corners have two significant eigenvalues; edges have one dominant eigenvalue.</text>
   </g>
   <g id="text_16">
    <text style="font-weight: 700; font-size: 15px; font-family: 'DejaVu Sans'; text-anchor: start; fill: #111827" x="152.928" y="36.32" transform="rotate(-0 152.928 36.32)">Harris response in eigenvalue space</text>
   </g>
   <g id="patch_5">
    <path d="M 152.928 365.00544 
C 164.146473 365.00544 174.906977 360.548293 182.839635 352.615635 
C 190.772293 344.682977 195.22944 333.922473 195.22944 322.704 
C 195.22944 311.485527 190.772293 300.725023 182.839635 292.792365 
C 174.906977 284.859707 164.146473 280.40256 152.928 280.40256 
C 141.709527 280.40256 130.949023 284.859707 123.016365 292.792365 
C 115.083707 300.725023 110.62656 311.485527 110.62656 322.704 
C 110.62656 333.922473 115.083707 344.682977 123.016365 352.615635 
C 130.949023 360.548293 141.709527 365.00544 152.928 365.00544 
z
" clip-path="url(#p4529a24ad5)" style="fill: #e2e8f0; opacity: 0.92; stroke: #64748b; stroke-width: 1.3; stroke-linejoin: miter"/>
   </g>
   <g id="text_17">
    <text style="font-weight: 700; font-size: 13px; font-family: 'DejaVu Sans'; fill: #047857" transform="translate(298.368135 139.231489)">corner</text>
    <!-- $R &gt; 0$ -->
    <g style="fill: #047857" transform="translate(305.49376 153.788646)">
     <text>
      <tspan x="0" y="-0.34375" style="font-style: oblique; font-size: 13px; font-family: 'DejaVu Sans'; fill: #047857">R</tspan>
      <tspan x="11.56543" y="-0.34375" style="font-size: 13px; font-family: 'DejaVu Sans'; fill: #047857">&gt;</tspan>
      <tspan x="24.990723" y="-0.34375" style="font-size: 13px; font-family: 'DejaVu Sans'; fill: #047857">0</tspan>
     </text>
    </g>
   </g>
   <g id="patch_6">
    <path d="M 349.060204 292.949879 
Q 346.692312 301.748742 344.67307 309.252058 
" style="fill: none; stroke: #2563eb; stroke-width: 1.2; stroke-linecap: round"/>
    <path d="M 347.792367 305.742074 
L 344.67307 309.252058 
L 343.736661 304.65063 
" style="fill: none; stroke: #2563eb; stroke-width: 1.2; stroke-linecap: round"/>
   </g>
   <g id="text_18">
    <text style="font-weight: 700; font-size: 10.5px; font-family: 'DejaVu Sans'; fill: #2563eb" transform="translate(339.222184 272.092357)">edge</text>
    <!-- $R &lt; 0$ -->
    <g style="fill: #2563eb" transform="translate(340.41984 283.932091)">
     <text>
      <tspan x="0" y="-0.828125" style="font-style: oblique; font-size: 10.5px; font-family: 'DejaVu Sans'; fill: #2563eb">R</tspan>
      <tspan x="9.341309" y="-0.828125" style="font-size: 10.5px; font-family: 'DejaVu Sans'; fill: #2563eb">&lt;</tspan>
      <tspan x="20.184814" y="-0.828125" style="font-size: 10.5px; font-family: 'DejaVu Sans'; fill: #2563eb">0</tspan>
     </text>
    </g>
   </g>
   <g id="patch_7">
    <path d="M 179.05025 127.549181 
Q 172.065748 129.428804 166.376795 130.959777 
" style="fill: none; stroke: #2563eb; stroke-width: 1.2; stroke-linecap: round"/>
    <path d="M 170.978223 131.896186 
L 166.376795 130.959777 
L 169.886778 127.84048 
" style="fill: none; stroke: #2563eb; stroke-width: 1.2; stroke-linecap: round"/>
   </g>
   <g id="text_19">
    <text style="font-weight: 700; font-size: 10.5px; font-family: 'DejaVu Sans'; fill: #2563eb" transform="translate(185.879464 118.749637)">edge</text>
    <!-- $R &lt; 0$ -->
    <g style="fill: #2563eb" transform="translate(187.07712 130.589371)">
     <text>
      <tspan x="0" y="-0.828125" style="font-style: oblique; font-size: 10.5px; font-family: 'DejaVu Sans'; fill: #2563eb">R</tspan>
      <tspan x="9.341309" y="-0.828125" style="font-size: 10.5px; font-family: 'DejaVu Sans'; fill: #2563eb">&lt;</tspan>
      <tspan x="20.184814" y="-0.828125" style="font-size: 10.5px; font-family: 'DejaVu Sans'; fill: #2563eb">0</tspan>
     </text>
    </g>
   </g>
   <g id="text_20">
    <text style="font-weight: 700; font-size: 8.6px; font-family: 'DejaVu Sans'; fill: #475569" transform="translate(163.926344 303.341427)">flat</text>
    <!-- small $\lambda_1, \lambda_2$ -->
    <g style="fill: #475569" transform="translate(146.471032 312.971546)">
     <text>
      <tspan x="0" y="-0.15625" style="font-weight: 700; font-size: 8.6px; font-family: 'DejaVu Sans'; fill: #475569">s</tspan>
      <tspan x="5.133728" y="-0.15625" style="font-weight: 700; font-size: 8.6px; font-family: 'DejaVu Sans'; fill: #475569">m</tspan>
      <tspan x="14.120911" y="-0.15625" style="font-weight: 700; font-size: 8.6px; font-family: 'DejaVu Sans'; fill: #475569">a</tspan>
      <tspan x="19.941101" y="-0.15625" style="font-weight: 700; font-size: 8.6px; font-family: 'DejaVu Sans'; fill: #475569">l</tspan>
      <tspan x="22.897522" y="-0.15625" style="font-weight: 700; font-size: 8.6px; font-family: 'DejaVu Sans'; fill: #475569">l</tspan>
      <tspan x="25.853943" y="-0.15625" style="font-weight: 700; font-size: 8.6px; font-family: 'DejaVu Sans'; fill: #475569"> </tspan>
      <tspan x="28.856689" y="-0.15625" style="font-style: oblique; font-size: 8.6px; font-family: 'DejaVu Sans'; fill: #475569">λ</tspan>
      <tspan x="42.47027" y="-0.15625" style="font-style: oblique; font-size: 8.6px; font-family: 'DejaVu Sans'; fill: #475569">λ</tspan>
      <tspan x="33.960938" y="1.320312" style="font-size: 6.02px; font-family: 'DejaVu Sans'; fill: #475569">1</tspan>
      <tspan x="47.574518" y="1.320312" style="font-size: 6.02px; font-family: 'DejaVu Sans'; fill: #475569">2</tspan>
      <tspan x="38.048273" y="-0.15625" style="font-size: 8.6px; font-family: 'DejaVu Sans'; fill: #475569">,</tspan>
     </text>
    </g>
   </g>
  </g>
 </g>
 <defs>
  <clipPath id="p4529a24ad5">
   <rect x="152.928" y="58.32" width="264.384" height="264.384"/>
  </clipPath>
 </defs>
</svg>
