<?xml version="1.0" encoding="utf-8" standalone="no"?>
<!DOCTYPE svg PUBLIC "-//W3C//DTD SVG 1.1//EN"
  "http://www.w3.org/Graphics/SVG/1.1/DTD/svg11.dtd">
<svg role="img" aria-labelledby="title desc" xmlns:xlink="http://www.w3.org/1999/xlink" width="518.4pt" height="388.8pt" viewBox="0 0 518.4 388.8" xmlns="http://www.w3.org/2000/svg" version="1.1">
 <title id="title">Harris response regions in eigenvalue space</title>
 <desc id="desc">Positive Harris response indicates corners, negative response indicates edges, and small eigenvalues near the origin correspond to flat image regions.</desc>
 <metadata>
  <rdf:RDF xmlns:dc="http://purl.org/dc/elements/1.1/" xmlns:cc="http://creativecommons.org/ns#" xmlns:rdf="http://www.w3.org/1999/02/22-rdf-syntax-ns#">
   <cc:Work>
    <dc:type rdf:resource="http://purl.org/dc/dcmitype/StillImage"/>
    <dc:date>2026-04-17</dc:date>
    <dc:format>image/svg+xml</dc:format>
    <dc:creator>
     <cc:Agent>
      <dc:title>py/generate_harris_eigenvalue_regions.py</dc:title>
     </cc:Agent>
    </dc:creator>
   </cc:Work>
  </rdf:RDF>
 </metadata>
 <defs>
  <style type="text/css">*{stroke-linejoin: round; stroke-linecap: butt}</style>
 </defs>
 <g id="figure_1">
  <g id="patch_1">
   <path d="M 0 388.8 
L 518.4 388.8 
L 518.4 0 
L 0 0 
z
" style="fill: #f8fafc"/>
  </g>
  <g id="axes_1">
   <g id="patch_2">
    <path d="M 137.376 342.144 
L 432.864 342.144 
L 432.864 46.656 
L 137.376 46.656 
z
" style="fill: #ffffff"/>
   </g>
   <g id="QuadContourSet_1">
    <path d="M 138.51688 342.144 
L 139.657761 342.144 
L 140.798641 342.144 
L 141.939521 342.144 
L 143.080402 342.144 
L 144.221282 342.144 
L 145.362162 342.144 
L 146.503042 342.144 
L 147.643923 342.144 
L 148.784803 342.144 
L 149.925683 342.144 
L 151.066564 342.144 
L 152.207444 342.144 
L 153.348324 342.144 
L 154.489205 342.144 
L 155.630085 342.144 
L 156.770965 342.144 
L 157.911846 342.144 
L 159.052726 342.144 
L 160.193606 342.144 
L 161.334486 342.144 
L 162.475367 342.144 
L 163.616247 342.144 
L 164.757127 342.144 
L 165.898008 342.144 
L 167.038888 342.144 
L 168.179768 342.144 
L 169.320649 342.144 
L 170.461529 342.144 
L 171.602409 342.144 
L 172.74329 342.144 
L 173.88417 342.144 
L 175.02505 342.144 
L 176.165931 342.144 
L 177.306811 342.144 
L 178.447691 342.144 
L 179.588571 342.144 
L 180.729452 342.144 
L 181.870332 342.144 
L 183.011212 342.144 
L 184.152093 342.144 
L 185.292973 342.144 
L 186.433853 342.144 
L 187.574734 342.144 
L 188.715614 342.144 
L 189.856494 342.144 
L 190.997375 342.144 
L 192.138255 342.144 
L 193.279135 342.144 
L 194.420015 342.144 
L 195.560896 342.144 
L 196.701776 342.144 
L 197.842656 342.144 
L 198.983537 342.144 
L 200.124417 342.144 
L 201.265297 342.144 
L 202.406178 342.144 
L 203.547058 342.144 
L 204.687938 342.144 
L 205.828819 342.144 
L 206.969699 342.144 
L 208.110579 342.144 
L 209.251459 342.144 
L 210.39234 342.144 
L 211.53322 342.144 
L 212.6741 342.144 
L 213.814981 342.144 
L 214.955861 342.144 
L 216.096741 342.144 
L 217.237622 342.144 
L 218.378502 342.144 
L 219.519382 342.144 
L 220.660263 342.144 
L 221.801143 342.144 
L 222.942023 342.144 
L 224.082903 342.144 
L 225.223784 342.144 
L 226.364664 342.144 
L 227.505544 342.144 
L 228.646425 342.144 
L 229.787305 342.144 
L 230.928185 342.144 
L 232.069066 342.144 
L 233.209946 342.144 
L 234.350826 342.144 
L 235.491707 342.144 
L 236.632587 342.144 
L 237.773467 342.144 
L 238.914347 342.144 
L 240.055228 342.144 
L 241.196108 342.144 
L 242.336988 342.144 
L 243.477869 342.144 
L 244.618749 342.144 
L 245.759629 342.144 
L 246.90051 342.144 
L 248.04139 342.144 
L 249.18227 342.144 
L 250.323151 342.144 
L 251.464031 342.144 
L 252.604911 342.144 
L 253.745792 342.144 
L 254.886672 342.144 
L 256.027552 342.144 
L 257.168432 342.144 
L 258.309313 342.144 
L 259.450193 342.144 
L 260.591073 342.144 
L 261.731954 342.144 
L 262.872834 342.144 
L 264.013714 342.144 
L 265.154595 342.144 
L 266.295475 342.144 
L 267.436355 342.144 
L 268.577236 342.144 
L 269.718116 342.144 
L 270.858996 342.144 
L 271.999876 342.144 
L 273.140757 342.144 
L 274.281637 342.144 
L 275.422517 342.144 
L 276.563398 342.144 
L 277.704278 342.144 
L 278.845158 342.144 
L 279.986039 342.144 
L 281.126919 342.144 
L 282.267799 342.144 
L 283.40868 342.144 
L 284.54956 342.144 
L 285.69044 342.144 
L 286.83132 342.144 
L 287.972201 342.144 
L 289.113081 342.144 
L 290.253961 342.144 
L 291.394842 342.144 
L 292.535722 342.144 
L 293.676602 342.144 
L 294.817483 342.144 
L 295.958363 342.144 
L 297.099243 342.144 
L 298.240124 342.144 
L 299.381004 342.144 
L 300.521884 342.144 
L 301.662764 342.144 
L 302.803645 342.144 
L 303.944525 342.144 
L 305.085405 342.144 
L 306.226286 342.144 
L 307.367166 342.144 
L 308.508046 342.144 
L 309.648927 342.144 
L 310.789807 342.144 
L 311.930687 342.144 
L 313.071568 342.144 
L 314.212448 342.144 
L 315.353328 342.144 
L 316.494208 342.144 
L 317.635089 342.144 
L 318.775969 342.144 
L 319.916849 342.144 
L 321.05773 342.144 
L 322.19861 342.144 
L 323.33949 342.144 
L 324.480371 342.144 
L 325.621251 342.144 
L 326.762131 342.144 
L 327.903012 342.144 
L 329.043892 342.144 
L 330.184772 342.144 
L 331.325653 342.144 
L 332.466533 342.144 
L 333.607413 342.144 
L 334.748293 342.144 
L 335.889174 342.144 
L 337.030054 342.144 
L 338.170934 342.144 
L 339.311815 342.144 
L 340.452695 342.144 
L 341.593575 342.144 
L 342.734456 342.144 
L 343.875336 342.144 
L 345.016216 342.144 
L 346.157097 342.144 
L 347.297977 342.144 
L 348.438857 342.144 
L 349.579737 342.144 
L 350.720618 342.144 
L 351.861498 342.144 
L 353.002378 342.144 
L 354.143259 342.144 
L 355.284139 342.144 
L 356.425019 342.144 
L 357.5659 342.144 
L 358.70678 342.144 
L 359.84766 342.144 
L 360.988541 342.144 
L 362.129421 342.144 
L 363.270301 342.144 
L 364.411181 342.144 
L 365.552062 342.144 
L 366.692942 342.144 
L 367.833822 342.144 
L 368.974703 342.144 
L 370.115583 342.144 
L 371.256463 342.144 
L 372.397344 342.144 
L 373.538224 342.144 
L 374.679104 342.144 
L 375.819985 342.144 
L 376.960865 342.144 
L 378.101745 342.144 
L 379.242625 342.144 
L 380.383506 342.144 
L 381.524386 342.144 
L 382.665266 342.144 
L 383.806147 342.144 
L 384.947027 342.144 
L 386.087907 342.144 
L 387.228788 342.144 
L 388.369668 342.144 
L 389.510548 342.144 
L 390.651429 342.144 
L 391.792309 342.144 
L 392.933189 342.144 
L 394.074069 342.144 
L 395.21495 342.144 
L 396.35583 342.144 
L 397.49671 342.144 
L 398.637591 342.144 
L 399.778471 342.144 
L 400.919351 342.144 
L 402.060232 342.144 
L 403.201112 342.144 
L 404.341992 342.144 
L 405.482873 342.144 
L 406.623753 342.144 
L 407.764633 342.144 
L 408.905514 342.144 
L 410.046394 342.144 
L 411.187274 342.144 
L 412.328154 342.144 
L 413.469035 342.144 
L 414.609915 342.144 
L 415.750795 342.144 
L 416.891676 342.144 
L 418.032556 342.144 
L 419.173436 342.144 
L 420.314317 342.144 
L 421.455197 342.144 
L 422.596077 342.144 
L 423.736958 342.144 
L 424.877838 342.144 
L 426.018718 342.144 
L 427.159598 342.144 
L 428.300479 342.144 
L 429.441359 342.144 
L 430.582239 342.144 
L 431.72312 342.144 
L 432.864 342.144 
L 432.864 341.00312 
L 432.864 339.862239 
L 432.864 338.721359 
L 432.864 337.580479 
L 432.864 336.439598 
L 432.864 335.298718 
L 432.864 334.157838 
L 432.864 333.016958 
L 432.864 331.876077 
L 432.864 330.735197 
L 432.864 329.594317 
L 432.864 329.272278 
L 431.72312 329.32198 
L 430.582239 329.371682 
L 429.441359 329.421385 
L 428.300479 329.471089 
L 427.159598 329.520794 
L 426.018718 329.570499 
L 425.470915 329.594317 
L 424.877838 329.620196 
L 423.736958 329.669886 
L 422.596077 329.719576 
L 421.455197 329.769268 
L 420.314317 329.818959 
L 419.173436 329.868652 
L 418.032556 329.918345 
L 416.891676 329.968039 
L 415.750795 330.017734 
L 414.609915 330.06743 
L 413.469035 330.117126 
L 412.328154 330.166823 
L 411.187274 330.216521 
L 410.046394 330.266219 
L 408.905514 330.315919 
L 407.764633 330.365619 
L 406.623753 330.41532 
L 405.482873 330.465022 
L 404.341992 330.514725 
L 403.201112 330.564428 
L 402.060232 330.614133 
L 400.919351 330.663838 
L 399.778471 330.713544 
L 399.28027 330.735197 
L 398.637591 330.763241 
L 397.49671 330.81293 
L 396.35583 330.862619 
L 395.21495 330.91231 
L 394.074069 330.962001 
L 392.933189 331.011693 
L 391.792309 331.061386 
L 390.651429 331.11108 
L 389.510548 331.160774 
L 388.369668 331.210469 
L 387.228788 331.260166 
L 386.087907 331.309863 
L 384.947027 331.35956 
L 383.806147 331.409259 
L 382.665266 331.458959 
L 381.524386 331.508659 
L 380.383506 331.558361 
L 379.242625 331.608063 
L 378.101745 331.657766 
L 376.960865 331.707471 
L 375.819985 331.757176 
L 374.679104 331.806882 
L 373.538224 331.856589 
L 373.089625 331.876077 
L 372.397344 331.906285 
L 371.256463 331.955973 
L 370.115583 332.005662 
L 368.974703 332.055351 
L 367.833822 332.105042 
L 366.692942 332.154733 
L 365.552062 332.204426 
L 364.411181 332.254119 
L 363.270301 332.303813 
L 362.129421 332.353508 
L 360.988541 332.403204 
L 359.84766 332.452901 
L 358.70678 332.502599 
L 357.5659 332.552298 
L 356.425019 332.601998 
L 355.284139 332.651699 
L 354.143259 332.7014 
L 353.002378 332.751103 
L 351.861498 332.800807 
L 350.720618 332.850513 
L 349.579737 332.900219 
L 348.438857 332.949926 
L 347.297977 332.999635 
L 346.89898 333.016958 
L 346.157097 333.049329 
L 345.016216 333.099016 
L 343.875336 333.148703 
L 342.734456 333.198392 
L 341.593575 333.248082 
L 340.452695 333.297772 
L 339.311815 333.347464 
L 338.170934 333.397157 
L 337.030054 333.44685 
L 335.889174 333.496545 
L 334.748293 333.546241 
L 333.607413 333.595938 
L 332.466533 333.645636 
L 331.325653 333.695335 
L 330.184772 333.745035 
L 329.043892 333.794736 
L 327.903012 333.844439 
L 326.762131 333.894142 
L 325.621251 333.943847 
L 324.480371 333.993554 
L 323.33949 334.043261 
L 322.19861 334.09297 
L 321.05773 334.14268 
L 320.708335 334.157838 
L 319.916849 334.192372 
L 318.775969 334.242058 
L 317.635089 334.291744 
L 316.494208 334.341431 
L 315.353328 334.39112 
L 314.212448 334.44081 
L 313.071568 334.4905 
L 311.930687 334.540192 
L 310.789807 334.589885 
L 309.648927 334.639579 
L 308.508046 334.689275 
L 307.367166 334.738972 
L 306.226286 334.78867 
L 305.085405 334.838369 
L 303.944525 334.888069 
L 302.803645 334.937771 
L 301.662764 334.987475 
L 300.521884 335.037179 
L 299.381004 335.086885 
L 298.240124 335.136593 
L 297.099243 335.186302 
L 295.958363 335.236013 
L 294.817483 335.285725 
L 294.517689 335.298718 
L 293.676602 335.335415 
L 292.535722 335.385099 
L 291.394842 335.434783 
L 290.253961 335.484469 
L 289.113081 335.534156 
L 287.972201 335.583844 
L 286.83132 335.633533 
L 285.69044 335.683224 
L 284.54956 335.732917 
L 283.40868 335.78261 
L 282.267799 335.832305 
L 281.126919 335.882002 
L 279.986039 335.9317 
L 278.845158 335.981399 
L 277.704278 336.0311 
L 276.563398 336.080803 
L 275.422517 336.130507 
L 274.281637 336.180213 
L 273.140757 336.229921 
L 271.999876 336.27963 
L 270.858996 336.329342 
L 269.718116 336.379055 
L 268.577236 336.42877 
L 268.327042 336.439598 
L 267.436355 336.478457 
L 266.295475 336.528138 
L 265.154595 336.57782 
L 264.013714 336.627503 
L 262.872834 336.677188 
L 261.731954 336.726874 
L 260.591073 336.776561 
L 259.450193 336.826251 
L 258.309313 336.875942 
L 257.168432 336.925634 
L 256.027552 336.975329 
L 254.886672 337.025025 
L 253.745792 337.074723 
L 252.604911 337.124422 
L 251.464031 337.174124 
L 250.323151 337.223828 
L 249.18227 337.273534 
L 248.04139 337.323242 
L 246.90051 337.372952 
L 245.759629 337.422664 
L 244.618749 337.472379 
L 243.477869 337.522096 
L 242.336988 337.571815 
L 242.136394 337.580479 
L 241.196108 337.621498 
L 240.055228 337.671174 
L 238.914347 337.720852 
L 237.773467 337.770531 
L 236.632587 337.820212 
L 235.491707 337.869895 
L 234.350826 337.91958 
L 233.209946 337.969267 
L 232.069066 338.018956 
L 230.928185 338.068647 
L 229.787305 338.11834 
L 228.646425 338.168035 
L 227.505544 338.217733 
L 226.364664 338.267433 
L 225.223784 338.317136 
L 224.082903 338.366841 
L 222.942023 338.416549 
L 221.801143 338.46626 
L 220.660263 338.515973 
L 219.519382 338.56569 
L 218.378502 338.61541 
L 217.237622 338.665134 
L 216.096741 338.71486 
L 215.945742 338.721359 
L 214.955861 338.764535 
L 213.814981 338.814204 
L 212.6741 338.863875 
L 211.53322 338.913548 
L 210.39234 338.963223 
L 209.251459 339.0129 
L 208.110579 339.062579 
L 206.969699 339.112262 
L 205.828819 339.161946 
L 204.687938 339.211634 
L 203.547058 339.261324 
L 202.406178 339.311018 
L 201.265297 339.360714 
L 200.124417 339.410415 
L 198.983537 339.460118 
L 197.842656 339.509826 
L 196.701776 339.559537 
L 195.560896 339.609253 
L 194.420015 339.658973 
L 193.279135 339.708698 
L 192.138255 339.758429 
L 190.997375 339.808164 
L 189.856494 339.857906 
L 189.755083 339.862239 
L 188.715614 339.907565 
L 187.574734 339.957219 
L 186.433853 340.006874 
L 185.292973 340.056533 
L 184.152093 340.106194 
L 183.011212 340.155857 
L 181.870332 340.205524 
L 180.729452 340.255195 
L 179.588571 340.304869 
L 178.447691 340.354547 
L 177.306811 340.404229 
L 176.165931 340.453915 
L 175.02505 340.503607 
L 173.88417 340.553305 
L 172.74329 340.603008 
L 171.602409 340.652718 
L 170.461529 340.702436 
L 169.320649 340.752162 
L 168.179768 340.801896 
L 167.038888 340.851641 
L 165.898008 340.901398 
L 164.757127 340.951167 
L 163.616247 341.000951 
L 163.564389 341.00312 
L 162.475367 341.050562 
L 161.334486 341.100166 
L 160.193606 341.149769 
L 159.052726 341.199372 
L 157.911846 341.248975 
L 156.770965 341.298578 
L 155.630085 341.348182 
L 154.489205 341.397785 
L 153.348324 341.447388 
L 152.207444 341.496991 
L 151.066564 341.546594 
L 149.925683 341.596196 
L 148.784803 341.645799 
L 147.643923 341.695401 
L 146.503042 341.745004 
L 145.362162 341.794605 
L 144.221282 341.844207 
L 143.080402 341.893807 
L 141.939521 341.943406 
L 140.798641 341.993001 
L 139.657761 342.042588 
L 138.51688 342.092142 
L 137.427858 341.00312 
L 137.477412 339.862239 
L 137.526999 338.721359 
L 137.576594 337.580479 
L 137.626193 336.439598 
L 137.675793 335.298718 
L 137.725395 334.157838 
L 137.774996 333.016958 
L 137.824599 331.876077 
L 137.874201 330.735197 
L 137.923804 329.594317 
L 137.973406 328.453436 
L 138.023009 327.312556 
L 138.072612 326.171676 
L 138.122215 325.030795 
L 138.171818 323.889915 
L 138.221422 322.749035 
L 138.271025 321.608154 
L 138.320628 320.467274 
L 138.370231 319.326394 
L 138.419834 318.185514 
L 138.469438 317.044633 
L 138.51688 315.955611 
L 138.519049 315.903753 
L 138.568833 314.762873 
L 138.618602 313.621992 
L 138.668359 312.481112 
L 138.718104 311.340232 
L 138.767838 310.199351 
L 138.817564 309.058471 
L 138.867282 307.917591 
L 138.916992 306.77671 
L 138.966695 305.63583 
L 139.016393 304.49495 
L 139.066085 303.354069 
L 139.115771 302.213189 
L 139.165453 301.072309 
L 139.215131 299.931429 
L 139.264805 298.790548 
L 139.314476 297.649668 
L 139.364143 296.508788 
L 139.413806 295.367907 
L 139.463467 294.227027 
L 139.513126 293.086147 
L 139.562781 291.945266 
L 139.612435 290.804386 
L 139.657761 289.764917 
L 139.662094 289.663506 
L 139.711836 288.522625 
L 139.761571 287.381745 
L 139.811302 286.240865 
L 139.861027 285.099985 
L 139.910747 283.959104 
L 139.960463 282.818224 
L 140.010174 281.677344 
L 140.059882 280.536463 
L 140.109585 279.395583 
L 140.159286 278.254703 
L 140.208982 277.113822 
L 140.258676 275.972942 
L 140.308366 274.832062 
L 140.358054 273.691181 
L 140.407738 272.550301 
L 140.457421 271.409421 
L 140.5071 270.268541 
L 140.556777 269.12766 
L 140.606452 267.98678 
L 140.656125 266.8459 
L 140.705796 265.705019 
L 140.755465 264.564139 
L 140.798641 263.574258 
L 140.80514 263.423259 
L 140.854866 262.282378 
L 140.90459 261.141498 
L 140.95431 260.000618 
L 141.004027 258.859737 
L 141.05374 257.718857 
L 141.103451 256.577977 
L 141.153159 255.437097 
L 141.202864 254.296216 
L 141.252567 253.155336 
L 141.302267 252.014456 
L 141.351965 250.873575 
L 141.40166 249.732695 
L 141.451353 248.591815 
L 141.501044 247.450934 
L 141.550733 246.310054 
L 141.60042 245.169174 
L 141.650105 244.028293 
L 141.699788 242.887413 
L 141.749469 241.746533 
L 141.799148 240.605653 
L 141.848826 239.464772 
L 141.898502 238.323892 
L 141.939521 237.383606 
L 141.948185 237.183012 
L 141.997904 236.042131 
L 142.047621 234.901251 
L 142.097336 233.760371 
L 142.147048 232.61949 
L 142.196758 231.47861 
L 142.246466 230.33773 
L 142.296172 229.196849 
L 142.345876 228.055969 
L 142.395578 226.915089 
L 142.445277 225.774208 
L 142.494975 224.633328 
L 142.544671 223.492448 
L 142.594366 222.351568 
L 142.644058 221.210687 
L 142.693749 220.069807 
L 142.743439 218.928927 
L 142.793126 217.788046 
L 142.842812 216.647166 
L 142.892497 215.506286 
L 142.94218 214.365405 
L 142.991862 213.224525 
L 143.041543 212.083645 
L 143.080402 211.192958 
L 143.09123 210.942764 
L 143.140945 209.801884 
L 143.190658 208.661004 
L 143.24037 207.520124 
L 143.290079 206.379243 
L 143.339787 205.238363 
L 143.389493 204.097483 
L 143.439197 202.956602 
L 143.4889 201.815722 
L 143.538601 200.674842 
L 143.5883 199.533961 
L 143.637998 198.393081 
L 143.687695 197.252201 
L 143.73739 196.11132 
L 143.787083 194.97044 
L 143.836776 193.82956 
L 143.886467 192.68868 
L 143.936156 191.547799 
L 143.985844 190.406919 
L 144.035531 189.266039 
L 144.085217 188.125158 
L 144.134901 186.984278 
L 144.184585 185.843398 
L 144.221282 185.002311 
L 144.234275 184.702517 
L 144.283987 183.561637 
L 144.333698 182.420757 
L 144.383407 181.279876 
L 144.433115 180.138996 
L 144.482821 178.998116 
L 144.532525 177.857236 
L 144.582229 176.716355 
L 144.631931 175.575475 
L 144.681631 174.434595 
L 144.73133 173.293714 
L 144.781028 172.152834 
L 144.830725 171.011954 
L 144.880421 169.871073 
L 144.930115 168.730193 
L 144.979808 167.589313 
L 145.0295 166.448432 
L 145.07919 165.307552 
L 145.12888 164.166672 
L 145.178569 163.025792 
L 145.228256 161.884911 
L 145.277942 160.744031 
L 145.327628 159.603151 
L 145.362162 158.811665 
L 145.37732 158.46227 
L 145.42703 157.32139 
L 145.476739 156.18051 
L 145.526446 155.039629 
L 145.576153 153.898749 
L 145.625858 152.757869 
L 145.675561 151.616988 
L 145.725264 150.476108 
L 145.774965 149.335228 
L 145.824665 148.194347 
L 145.874364 147.053467 
L 145.924062 145.912587 
L 145.973759 144.771707 
L 146.023455 143.630826 
L 146.07315 142.489946 
L 146.122843 141.349066 
L 146.172536 140.208185 
L 146.222228 139.067305 
L 146.271918 137.926425 
L 146.321608 136.785544 
L 146.371297 135.644664 
L 146.420984 134.503784 
L 146.470671 133.362903 
L 146.503042 132.62102 
L 146.520365 132.222023 
L 146.570074 131.081143 
L 146.619781 129.940263 
L 146.669487 128.799382 
L 146.719193 127.658502 
L 146.768897 126.517622 
L 146.8186 125.376741 
L 146.868301 124.235861 
L 146.918002 123.094981 
L 146.967702 121.9541 
L 147.017401 120.81322 
L 147.067099 119.67234 
L 147.116796 118.531459 
L 147.166492 117.390579 
L 147.216187 116.249699 
L 147.265881 115.108819 
L 147.315574 113.967938 
L 147.365267 112.827058 
L 147.414958 111.686178 
L 147.464649 110.545297 
L 147.514338 109.404417 
L 147.564027 108.263537 
L 147.613715 107.122656 
L 147.643923 106.430375 
L 147.663411 105.981776 
L 147.713118 104.840896 
L 147.762824 103.700015 
L 147.812529 102.559135 
L 147.862234 101.418255 
L 147.911937 100.277375 
L 147.961639 99.136494 
L 148.011341 97.995614 
L 148.061041 96.854734 
L 148.110741 95.713853 
L 148.16044 94.572973 
L 148.210137 93.432093 
L 148.259834 92.291212 
L 148.309531 91.150332 
L 148.359226 90.009452 
L 148.40892 88.868571 
L 148.458614 87.727691 
L 148.508307 86.586811 
L 148.557999 85.445931 
L 148.60769 84.30505 
L 148.657381 83.16417 
L 148.70707 82.02329 
L 148.756759 80.882409 
L 148.784803 80.23973 
L 148.806456 79.741529 
L 148.856162 78.600649 
L 148.905867 77.459768 
L 148.955572 76.318888 
L 149.005275 75.178008 
L 149.054978 74.037127 
L 149.10468 72.896247 
L 149.154381 71.755367 
L 149.204081 70.614486 
L 149.253781 69.473606 
L 149.303479 68.332726 
L 149.353177 67.191846 
L 149.402874 66.050965 
L 149.45257 64.910085 
L 149.502266 63.769205 
L 149.551961 62.628324 
L 149.601655 61.487444 
L 149.651348 60.346564 
L 149.701041 59.205683 
L 149.750732 58.064803 
L 149.800424 56.923923 
L 149.850114 55.783042 
L 149.899804 54.642162 
L 149.925683 54.049085 
L 149.949501 53.501282 
L 149.999206 52.360402 
L 150.048911 51.219521 
L 150.098615 50.078641 
L 150.148318 48.937761 
L 150.19802 47.79688 
L 150.247722 46.656 
L 149.925683 46.656 
L 148.784803 46.656 
L 147.643923 46.656 
L 146.503042 46.656 
L 145.362162 46.656 
L 144.221282 46.656 
L 143.080402 46.656 
L 141.939521 46.656 
L 140.798641 46.656 
L 139.657761 46.656 
L 138.51688 46.656 
L 137.376 46.656 
L 137.376 47.79688 
L 137.376 48.937761 
L 137.376 50.078641 
L 137.376 51.219521 
L 137.376 52.360402 
L 137.376 53.501282 
L 137.376 54.642162 
L 137.376 55.783042 
L 137.376 56.923923 
L 137.376 58.064803 
L 137.376 59.205683 
L 137.376 60.346564 
L 137.376 61.487444 
L 137.376 62.628324 
L 137.376 63.769205 
L 137.376 64.910085 
L 137.376 66.050965 
L 137.376 67.191846 
L 137.376 68.332726 
L 137.376 69.473606 
L 137.376 70.614486 
L 137.376 71.755367 
L 137.376 72.896247 
L 137.376 74.037127 
L 137.376 75.178008 
L 137.376 76.318888 
L 137.376 77.459768 
L 137.376 78.600649 
L 137.376 79.741529 
L 137.376 80.882409 
L 137.376 82.02329 
L 137.376 83.16417 
L 137.376 84.30505 
L 137.376 85.445931 
L 137.376 86.586811 
L 137.376 87.727691 
L 137.376 88.868571 
L 137.376 90.009452 
L 137.376 91.150332 
L 137.376 92.291212 
L 137.376 93.432093 
L 137.376 94.572973 
L 137.376 95.713853 
L 137.376 96.854734 
L 137.376 97.995614 
L 137.376 99.136494 
L 137.376 100.277375 
L 137.376 101.418255 
L 137.376 102.559135 
L 137.376 103.700015 
L 137.376 104.840896 
L 137.376 105.981776 
L 137.376 107.122656 
L 137.376 108.263537 
L 137.376 109.404417 
L 137.376 110.545297 
L 137.376 111.686178 
L 137.376 112.827058 
L 137.376 113.967938 
L 137.376 115.108819 
L 137.376 116.249699 
L 137.376 117.390579 
L 137.376 118.531459 
L 137.376 119.67234 
L 137.376 120.81322 
L 137.376 121.9541 
L 137.376 123.094981 
L 137.376 124.235861 
L 137.376 125.376741 
L 137.376 126.517622 
L 137.376 127.658502 
L 137.376 128.799382 
L 137.376 129.940263 
L 137.376 131.081143 
L 137.376 132.222023 
L 137.376 133.362903 
L 137.376 134.503784 
L 137.376 135.644664 
L 137.376 136.785544 
L 137.376 137.926425 
L 137.376 139.067305 
L 137.376 140.208185 
L 137.376 141.349066 
L 137.376 142.489946 
L 137.376 143.630826 
L 137.376 144.771707 
L 137.376 145.912587 
L 137.376 147.053467 
L 137.376 148.194347 
L 137.376 149.335228 
L 137.376 150.476108 
L 137.376 151.616988 
L 137.376 152.757869 
L 137.376 153.898749 
L 137.376 155.039629 
L 137.376 156.18051 
L 137.376 157.32139 
L 137.376 158.46227 
L 137.376 159.603151 
L 137.376 160.744031 
L 137.376 161.884911 
L 137.376 163.025792 
L 137.376 164.166672 
L 137.376 165.307552 
L 137.376 166.448432 
L 137.376 167.589313 
L 137.376 168.730193 
L 137.376 169.871073 
L 137.376 171.011954 
L 137.376 172.152834 
L 137.376 173.293714 
L 137.376 174.434595 
L 137.376 175.575475 
L 137.376 176.716355 
L 137.376 177.857236 
L 137.376 178.998116 
L 137.376 180.138996 
L 137.376 181.279876 
L 137.376 182.420757 
L 137.376 183.561637 
L 137.376 184.702517 
L 137.376 185.843398 
L 137.376 186.984278 
L 137.376 188.125158 
L 137.376 189.266039 
L 137.376 190.406919 
L 137.376 191.547799 
L 137.376 192.68868 
L 137.376 193.82956 
L 137.376 194.97044 
L 137.376 196.11132 
L 137.376 197.252201 
L 137.376 198.393081 
L 137.376 199.533961 
L 137.376 200.674842 
L 137.376 201.815722 
L 137.376 202.956602 
L 137.376 204.097483 
L 137.376 205.238363 
L 137.376 206.379243 
L 137.376 207.520124 
L 137.376 208.661004 
L 137.376 209.801884 
L 137.376 210.942764 
L 137.376 212.083645 
L 137.376 213.224525 
L 137.376 214.365405 
L 137.376 215.506286 
L 137.376 216.647166 
L 137.376 217.788046 
L 137.376 218.928927 
L 137.376 220.069807 
L 137.376 221.210687 
L 137.376 222.351568 
L 137.376 223.492448 
L 137.376 224.633328 
L 137.376 225.774208 
L 137.376 226.915089 
L 137.376 228.055969 
L 137.376 229.196849 
L 137.376 230.33773 
L 137.376 231.47861 
L 137.376 232.61949 
L 137.376 233.760371 
L 137.376 234.901251 
L 137.376 236.042131 
L 137.376 237.183012 
L 137.376 238.323892 
L 137.376 239.464772 
L 137.376 240.605653 
L 137.376 241.746533 
L 137.376 242.887413 
L 137.376 244.028293 
L 137.376 245.169174 
L 137.376 246.310054 
L 137.376 247.450934 
L 137.376 248.591815 
L 137.376 249.732695 
L 137.376 250.873575 
L 137.376 252.014456 
L 137.376 253.155336 
L 137.376 254.296216 
L 137.376 255.437097 
L 137.376 256.577977 
L 137.376 257.718857 
L 137.376 258.859737 
L 137.376 260.000618 
L 137.376 261.141498 
L 137.376 262.282378 
L 137.376 263.423259 
L 137.376 264.564139 
L 137.376 265.705019 
L 137.376 266.8459 
L 137.376 267.98678 
L 137.376 269.12766 
L 137.376 270.268541 
L 137.376 271.409421 
L 137.376 272.550301 
L 137.376 273.691181 
L 137.376 274.832062 
L 137.376 275.972942 
L 137.376 277.113822 
L 137.376 278.254703 
L 137.376 279.395583 
L 137.376 280.536463 
L 137.376 281.677344 
L 137.376 282.818224 
L 137.376 283.959104 
L 137.376 285.099985 
L 137.376 286.240865 
L 137.376 287.381745 
L 137.376 288.522625 
L 137.376 289.663506 
L 137.376 290.804386 
L 137.376 291.945266 
L 137.376 293.086147 
L 137.376 294.227027 
L 137.376 295.367907 
L 137.376 296.508788 
L 137.376 297.649668 
L 137.376 298.790548 
L 137.376 299.931429 
L 137.376 301.072309 
L 137.376 302.213189 
L 137.376 303.354069 
L 137.376 304.49495 
L 137.376 305.63583 
L 137.376 306.77671 
L 137.376 307.917591 
L 137.376 309.058471 
L 137.376 310.199351 
L 137.376 311.340232 
L 137.376 312.481112 
L 137.376 313.621992 
L 137.376 314.762873 
L 137.376 315.903753 
L 137.376 317.044633 
L 137.376 318.185514 
L 137.376 319.326394 
L 137.376 320.467274 
L 137.376 321.608154 
L 137.376 322.749035 
L 137.376 323.889915 
L 137.376 325.030795 
L 137.376 326.171676 
L 137.376 327.312556 
L 137.376 328.453436 
L 137.376 329.594317 
L 137.376 330.735197 
L 137.376 331.876077 
L 137.376 333.016958 
L 137.376 334.157838 
L 137.376 335.298718 
L 137.376 336.439598 
L 137.376 337.580479 
L 137.376 338.721359 
L 137.376 339.862239 
L 137.376 341.00312 
L 137.376 342.144 
z
" clip-path="url(#p25816208d1)" style="fill: #bfdbfe; fill-opacity: 0.74"/>
    <path d="M 138.51688 342.092142 
L 139.657761 342.042588 
L 140.798641 341.993001 
L 141.939521 341.943406 
L 143.080402 341.893807 
L 144.221282 341.844207 
L 145.362162 341.794605 
L 146.503042 341.745004 
L 147.643923 341.695401 
L 148.784803 341.645799 
L 149.925683 341.596196 
L 151.066564 341.546594 
L 152.207444 341.496991 
L 153.348324 341.447388 
L 154.489205 341.397785 
L 155.630085 341.348182 
L 156.770965 341.298578 
L 157.911846 341.248975 
L 159.052726 341.199372 
L 160.193606 341.149769 
L 161.334486 341.100166 
L 162.475367 341.050562 
L 163.564389 341.00312 
L 163.616247 341.000951 
L 164.757127 340.951167 
L 165.898008 340.901398 
L 167.038888 340.851641 
L 168.179768 340.801896 
L 169.320649 340.752162 
L 170.461529 340.702436 
L 171.602409 340.652718 
L 172.74329 340.603008 
L 173.88417 340.553305 
L 175.02505 340.503607 
L 176.165931 340.453915 
L 177.306811 340.404229 
L 178.447691 340.354547 
L 179.588571 340.304869 
L 180.729452 340.255195 
L 181.870332 340.205524 
L 183.011212 340.155857 
L 184.152093 340.106194 
L 185.292973 340.056533 
L 186.433853 340.006874 
L 187.574734 339.957219 
L 188.715614 339.907565 
L 189.755083 339.862239 
L 189.856494 339.857906 
L 190.997375 339.808164 
L 192.138255 339.758429 
L 193.279135 339.708698 
L 194.420015 339.658973 
L 195.560896 339.609253 
L 196.701776 339.559537 
L 197.842656 339.509826 
L 198.983537 339.460118 
L 200.124417 339.410415 
L 201.265297 339.360714 
L 202.406178 339.311018 
L 203.547058 339.261324 
L 204.687938 339.211634 
L 205.828819 339.161946 
L 206.969699 339.112262 
L 208.110579 339.062579 
L 209.251459 339.0129 
L 210.39234 338.963223 
L 211.53322 338.913548 
L 212.6741 338.863875 
L 213.814981 338.814204 
L 214.955861 338.764535 
L 215.945742 338.721359 
L 216.096741 338.71486 
L 217.237622 338.665134 
L 218.378502 338.61541 
L 219.519382 338.56569 
L 220.660263 338.515973 
L 221.801143 338.46626 
L 222.942023 338.416549 
L 224.082903 338.366841 
L 225.223784 338.317136 
L 226.364664 338.267433 
L 227.505544 338.217733 
L 228.646425 338.168035 
L 229.787305 338.11834 
L 230.928185 338.068647 
L 232.069066 338.018956 
L 233.209946 337.969267 
L 234.350826 337.91958 
L 235.491707 337.869895 
L 236.632587 337.820212 
L 237.773467 337.770531 
L 238.914347 337.720852 
L 240.055228 337.671174 
L 241.196108 337.621498 
L 242.136394 337.580479 
L 242.336988 337.571815 
L 243.477869 337.522096 
L 244.618749 337.472379 
L 245.759629 337.422664 
L 246.90051 337.372952 
L 248.04139 337.323242 
L 249.18227 337.273534 
L 250.323151 337.223828 
L 251.464031 337.174124 
L 252.604911 337.124422 
L 253.745792 337.074723 
L 254.886672 337.025025 
L 256.027552 336.975329 
L 257.168432 336.925634 
L 258.309313 336.875942 
L 259.450193 336.826251 
L 260.591073 336.776561 
L 261.731954 336.726874 
L 262.872834 336.677188 
L 264.013714 336.627503 
L 265.154595 336.57782 
L 266.295475 336.528138 
L 267.436355 336.478457 
L 268.327042 336.439598 
L 268.577236 336.42877 
L 269.718116 336.379055 
L 270.858996 336.329342 
L 271.999876 336.27963 
L 273.140757 336.229921 
L 274.281637 336.180213 
L 275.422517 336.130507 
L 276.563398 336.080803 
L 277.704278 336.0311 
L 278.845158 335.981399 
L 279.986039 335.9317 
L 281.126919 335.882002 
L 282.267799 335.832305 
L 283.40868 335.78261 
L 284.54956 335.732917 
L 285.69044 335.683224 
L 286.83132 335.633533 
L 287.972201 335.583844 
L 289.113081 335.534156 
L 290.253961 335.484469 
L 291.394842 335.434783 
L 292.535722 335.385099 
L 293.676602 335.335415 
L 294.517689 335.298718 
L 294.817483 335.285725 
L 295.958363 335.236013 
L 297.099243 335.186302 
L 298.240124 335.136593 
L 299.381004 335.086885 
L 300.521884 335.037179 
L 301.662764 334.987475 
L 302.803645 334.937771 
L 303.944525 334.888069 
L 305.085405 334.838369 
L 306.226286 334.78867 
L 307.367166 334.738972 
L 308.508046 334.689275 
L 309.648927 334.639579 
L 310.789807 334.589885 
L 311.930687 334.540192 
L 313.071568 334.4905 
L 314.212448 334.44081 
L 315.353328 334.39112 
L 316.494208 334.341431 
L 317.635089 334.291744 
L 318.775969 334.242058 
L 319.916849 334.192372 
L 320.708335 334.157838 
L 321.05773 334.14268 
L 322.19861 334.09297 
L 323.33949 334.043261 
L 324.480371 333.993554 
L 325.621251 333.943847 
L 326.762131 333.894142 
L 327.903012 333.844439 
L 329.043892 333.794736 
L 330.184772 333.745035 
L 331.325653 333.695335 
L 332.466533 333.645636 
L 333.607413 333.595938 
L 334.748293 333.546241 
L 335.889174 333.496545 
L 337.030054 333.44685 
L 338.170934 333.397157 
L 339.311815 333.347464 
L 340.452695 333.297772 
L 341.593575 333.248082 
L 342.734456 333.198392 
L 343.875336 333.148703 
L 345.016216 333.099016 
L 346.157097 333.049329 
L 346.89898 333.016958 
L 347.297977 332.999635 
L 348.438857 332.949926 
L 349.579737 332.900219 
L 350.720618 332.850513 
L 351.861498 332.800807 
L 353.002378 332.751103 
L 354.143259 332.7014 
L 355.284139 332.651699 
L 356.425019 332.601998 
L 357.5659 332.552298 
L 358.70678 332.502599 
L 359.84766 332.452901 
L 360.988541 332.403204 
L 362.129421 332.353508 
L 363.270301 332.303813 
L 364.411181 332.254119 
L 365.552062 332.204426 
L 366.692942 332.154733 
L 367.833822 332.105042 
L 368.974703 332.055351 
L 370.115583 332.005662 
L 371.256463 331.955973 
L 372.397344 331.906285 
L 373.089625 331.876077 
L 373.538224 331.856589 
L 374.679104 331.806882 
L 375.819985 331.757176 
L 376.960865 331.707471 
L 378.101745 331.657766 
L 379.242625 331.608063 
L 380.383506 331.558361 
L 381.524386 331.508659 
L 382.665266 331.458959 
L 383.806147 331.409259 
L 384.947027 331.35956 
L 386.087907 331.309863 
L 387.228788 331.260166 
L 388.369668 331.210469 
L 389.510548 331.160774 
L 390.651429 331.11108 
L 391.792309 331.061386 
L 392.933189 331.011693 
L 394.074069 330.962001 
L 395.21495 330.91231 
L 396.35583 330.862619 
L 397.49671 330.81293 
L 398.637591 330.763241 
L 399.28027 330.735197 
L 399.778471 330.713544 
L 400.919351 330.663838 
L 402.060232 330.614133 
L 403.201112 330.564428 
L 404.341992 330.514725 
L 405.482873 330.465022 
L 406.623753 330.41532 
L 407.764633 330.365619 
L 408.905514 330.315919 
L 410.046394 330.266219 
L 411.187274 330.216521 
L 412.328154 330.166823 
L 413.469035 330.117126 
L 414.609915 330.06743 
L 415.750795 330.017734 
L 416.891676 329.968039 
L 418.032556 329.918345 
L 419.173436 329.868652 
L 420.314317 329.818959 
L 421.455197 329.769268 
L 422.596077 329.719576 
L 423.736958 329.669886 
L 424.877838 329.620196 
L 425.470915 329.594317 
L 426.018718 329.570499 
L 427.159598 329.520794 
L 428.300479 329.471089 
L 429.441359 329.421385 
L 430.582239 329.371682 
L 431.72312 329.32198 
L 432.864 329.272278 
L 432.864 328.453436 
L 432.864 327.312556 
L 432.864 326.171676 
L 432.864 325.030795 
L 432.864 323.889915 
L 432.864 322.749035 
L 432.864 321.608154 
L 432.864 320.467274 
L 432.864 319.326394 
L 432.864 318.185514 
L 432.864 317.044633 
L 432.864 315.903753 
L 432.864 314.762873 
L 432.864 313.621992 
L 432.864 312.481112 
L 432.864 311.340232 
L 432.864 310.199351 
L 432.864 309.058471 
L 432.864 307.917591 
L 432.864 306.77671 
L 432.864 305.63583 
L 432.864 304.49495 
L 432.864 303.354069 
L 432.864 302.213189 
L 432.864 301.072309 
L 432.864 299.931429 
L 432.864 298.790548 
L 432.864 297.649668 
L 432.864 296.508788 
L 432.864 295.367907 
L 432.864 294.227027 
L 432.864 293.086147 
L 432.864 291.945266 
L 432.864 290.804386 
L 432.864 289.663506 
L 432.864 288.522625 
L 432.864 287.381745 
L 432.864 286.240865 
L 432.864 285.099985 
L 432.864 283.959104 
L 432.864 282.818224 
L 432.864 281.677344 
L 432.864 280.536463 
L 432.864 279.395583 
L 432.864 278.254703 
L 432.864 277.113822 
L 432.864 275.972942 
L 432.864 274.832062 
L 432.864 273.691181 
L 432.864 272.550301 
L 432.864 271.409421 
L 432.864 270.268541 
L 432.864 269.12766 
L 432.864 267.98678 
L 432.864 266.8459 
L 432.864 265.705019 
L 432.864 264.564139 
L 432.864 263.423259 
L 432.864 262.282378 
L 432.864 261.141498 
L 432.864 260.000618 
L 432.864 258.859737 
L 432.864 257.718857 
L 432.864 256.577977 
L 432.864 255.437097 
L 432.864 254.296216 
L 432.864 253.155336 
L 432.864 252.014456 
L 432.864 250.873575 
L 432.864 249.732695 
L 432.864 248.591815 
L 432.864 247.450934 
L 432.864 246.310054 
L 432.864 245.169174 
L 432.864 244.028293 
L 432.864 242.887413 
L 432.864 241.746533 
L 432.864 240.605653 
L 432.864 239.464772 
L 432.864 238.323892 
L 432.864 237.183012 
L 432.864 236.042131 
L 432.864 234.901251 
L 432.864 233.760371 
L 432.864 232.61949 
L 432.864 231.47861 
L 432.864 230.33773 
L 432.864 229.196849 
L 432.864 228.055969 
L 432.864 226.915089 
L 432.864 225.774208 
L 432.864 224.633328 
L 432.864 223.492448 
L 432.864 222.351568 
L 432.864 221.210687 
L 432.864 220.069807 
L 432.864 218.928927 
L 432.864 217.788046 
L 432.864 216.647166 
L 432.864 215.506286 
L 432.864 214.365405 
L 432.864 213.224525 
L 432.864 212.083645 
L 432.864 210.942764 
L 432.864 209.801884 
L 432.864 208.661004 
L 432.864 207.520124 
L 432.864 206.379243 
L 432.864 205.238363 
L 432.864 204.097483 
L 432.864 202.956602 
L 432.864 201.815722 
L 432.864 200.674842 
L 432.864 199.533961 
L 432.864 198.393081 
L 432.864 197.252201 
L 432.864 196.11132 
L 432.864 194.97044 
L 432.864 193.82956 
L 432.864 192.68868 
L 432.864 191.547799 
L 432.864 190.406919 
L 432.864 189.266039 
L 432.864 188.125158 
L 432.864 186.984278 
L 432.864 185.843398 
L 432.864 184.702517 
L 432.864 183.561637 
L 432.864 182.420757 
L 432.864 181.279876 
L 432.864 180.138996 
L 432.864 178.998116 
L 432.864 177.857236 
L 432.864 176.716355 
L 432.864 175.575475 
L 432.864 174.434595 
L 432.864 173.293714 
L 432.864 172.152834 
L 432.864 171.011954 
L 432.864 169.871073 
L 432.864 168.730193 
L 432.864 167.589313 
L 432.864 166.448432 
L 432.864 165.307552 
L 432.864 164.166672 
L 432.864 163.025792 
L 432.864 161.884911 
L 432.864 160.744031 
L 432.864 159.603151 
L 432.864 158.46227 
L 432.864 157.32139 
L 432.864 156.18051 
L 432.864 155.039629 
L 432.864 153.898749 
L 432.864 152.757869 
L 432.864 151.616988 
L 432.864 150.476108 
L 432.864 149.335228 
L 432.864 148.194347 
L 432.864 147.053467 
L 432.864 145.912587 
L 432.864 144.771707 
L 432.864 143.630826 
L 432.864 142.489946 
L 432.864 141.349066 
L 432.864 140.208185 
L 432.864 139.067305 
L 432.864 137.926425 
L 432.864 136.785544 
L 432.864 135.644664 
L 432.864 134.503784 
L 432.864 133.362903 
L 432.864 132.222023 
L 432.864 131.081143 
L 432.864 129.940263 
L 432.864 128.799382 
L 432.864 127.658502 
L 432.864 126.517622 
L 432.864 125.376741 
L 432.864 124.235861 
L 432.864 123.094981 
L 432.864 121.9541 
L 432.864 120.81322 
L 432.864 119.67234 
L 432.864 118.531459 
L 432.864 117.390579 
L 432.864 116.249699 
L 432.864 115.108819 
L 432.864 113.967938 
L 432.864 112.827058 
L 432.864 111.686178 
L 432.864 110.545297 
L 432.864 109.404417 
L 432.864 108.263537 
L 432.864 107.122656 
L 432.864 105.981776 
L 432.864 104.840896 
L 432.864 103.700015 
L 432.864 102.559135 
L 432.864 101.418255 
L 432.864 100.277375 
L 432.864 99.136494 
L 432.864 97.995614 
L 432.864 96.854734 
L 432.864 95.713853 
L 432.864 94.572973 
L 432.864 93.432093 
L 432.864 92.291212 
L 432.864 91.150332 
L 432.864 90.009452 
L 432.864 88.868571 
L 432.864 87.727691 
L 432.864 86.586811 
L 432.864 85.445931 
L 432.864 84.30505 
L 432.864 83.16417 
L 432.864 82.02329 
L 432.864 80.882409 
L 432.864 79.741529 
L 432.864 78.600649 
L 432.864 77.459768 
L 432.864 76.318888 
L 432.864 75.178008 
L 432.864 74.037127 
L 432.864 72.896247 
L 432.864 71.755367 
L 432.864 70.614486 
L 432.864 69.473606 
L 432.864 68.332726 
L 432.864 67.191846 
L 432.864 66.050965 
L 432.864 64.910085 
L 432.864 63.769205 
L 432.864 62.628324 
L 432.864 61.487444 
L 432.864 60.346564 
L 432.864 59.205683 
L 432.864 58.064803 
L 432.864 56.923923 
L 432.864 55.783042 
L 432.864 54.642162 
L 432.864 53.501282 
L 432.864 52.360402 
L 432.864 51.219521 
L 432.864 50.078641 
L 432.864 48.937761 
L 432.864 47.79688 
L 432.864 46.656 
L 431.72312 46.656 
L 430.582239 46.656 
L 429.441359 46.656 
L 428.300479 46.656 
L 427.159598 46.656 
L 426.018718 46.656 
L 424.877838 46.656 
L 423.736958 46.656 
L 422.596077 46.656 
L 421.455197 46.656 
L 420.314317 46.656 
L 419.173436 46.656 
L 418.032556 46.656 
L 416.891676 46.656 
L 415.750795 46.656 
L 414.609915 46.656 
L 413.469035 46.656 
L 412.328154 46.656 
L 411.187274 46.656 
L 410.046394 46.656 
L 408.905514 46.656 
L 407.764633 46.656 
L 406.623753 46.656 
L 405.482873 46.656 
L 404.341992 46.656 
L 403.201112 46.656 
L 402.060232 46.656 
L 400.919351 46.656 
L 399.778471 46.656 
L 398.637591 46.656 
L 397.49671 46.656 
L 396.35583 46.656 
L 395.21495 46.656 
L 394.074069 46.656 
L 392.933189 46.656 
L 391.792309 46.656 
L 390.651429 46.656 
L 389.510548 46.656 
L 388.369668 46.656 
L 387.228788 46.656 
L 386.087907 46.656 
L 384.947027 46.656 
L 383.806147 46.656 
L 382.665266 46.656 
L 381.524386 46.656 
L 380.383506 46.656 
L 379.242625 46.656 
L 378.101745 46.656 
L 376.960865 46.656 
L 375.819985 46.656 
L 374.679104 46.656 
L 373.538224 46.656 
L 372.397344 46.656 
L 371.256463 46.656 
L 370.115583 46.656 
L 368.974703 46.656 
L 367.833822 46.656 
L 366.692942 46.656 
L 365.552062 46.656 
L 364.411181 46.656 
L 363.270301 46.656 
L 362.129421 46.656 
L 360.988541 46.656 
L 359.84766 46.656 
L 358.70678 46.656 
L 357.5659 46.656 
L 356.425019 46.656 
L 355.284139 46.656 
L 354.143259 46.656 
L 353.002378 46.656 
L 351.861498 46.656 
L 350.720618 46.656 
L 349.579737 46.656 
L 348.438857 46.656 
L 347.297977 46.656 
L 346.157097 46.656 
L 345.016216 46.656 
L 343.875336 46.656 
L 342.734456 46.656 
L 341.593575 46.656 
L 340.452695 46.656 
L 339.311815 46.656 
L 338.170934 46.656 
L 337.030054 46.656 
L 335.889174 46.656 
L 334.748293 46.656 
L 333.607413 46.656 
L 332.466533 46.656 
L 331.325653 46.656 
L 330.184772 46.656 
L 329.043892 46.656 
L 327.903012 46.656 
L 326.762131 46.656 
L 325.621251 46.656 
L 324.480371 46.656 
L 323.33949 46.656 
L 322.19861 46.656 
L 321.05773 46.656 
L 319.916849 46.656 
L 318.775969 46.656 
L 317.635089 46.656 
L 316.494208 46.656 
L 315.353328 46.656 
L 314.212448 46.656 
L 313.071568 46.656 
L 311.930687 46.656 
L 310.789807 46.656 
L 309.648927 46.656 
L 308.508046 46.656 
L 307.367166 46.656 
L 306.226286 46.656 
L 305.085405 46.656 
L 303.944525 46.656 
L 302.803645 46.656 
L 301.662764 46.656 
L 300.521884 46.656 
L 299.381004 46.656 
L 298.240124 46.656 
L 297.099243 46.656 
L 295.958363 46.656 
L 294.817483 46.656 
L 293.676602 46.656 
L 292.535722 46.656 
L 291.394842 46.656 
L 290.253961 46.656 
L 289.113081 46.656 
L 287.972201 46.656 
L 286.83132 46.656 
L 285.69044 46.656 
L 284.54956 46.656 
L 283.40868 46.656 
L 282.267799 46.656 
L 281.126919 46.656 
L 279.986039 46.656 
L 278.845158 46.656 
L 277.704278 46.656 
L 276.563398 46.656 
L 275.422517 46.656 
L 274.281637 46.656 
L 273.140757 46.656 
L 271.999876 46.656 
L 270.858996 46.656 
L 269.718116 46.656 
L 268.577236 46.656 
L 267.436355 46.656 
L 266.295475 46.656 
L 265.154595 46.656 
L 264.013714 46.656 
L 262.872834 46.656 
L 261.731954 46.656 
L 260.591073 46.656 
L 259.450193 46.656 
L 258.309313 46.656 
L 257.168432 46.656 
L 256.027552 46.656 
L 254.886672 46.656 
L 253.745792 46.656 
L 252.604911 46.656 
L 251.464031 46.656 
L 250.323151 46.656 
L 249.18227 46.656 
L 248.04139 46.656 
L 246.90051 46.656 
L 245.759629 46.656 
L 244.618749 46.656 
L 243.477869 46.656 
L 242.336988 46.656 
L 241.196108 46.656 
L 240.055228 46.656 
L 238.914347 46.656 
L 237.773467 46.656 
L 236.632587 46.656 
L 235.491707 46.656 
L 234.350826 46.656 
L 233.209946 46.656 
L 232.069066 46.656 
L 230.928185 46.656 
L 229.787305 46.656 
L 228.646425 46.656 
L 227.505544 46.656 
L 226.364664 46.656 
L 225.223784 46.656 
L 224.082903 46.656 
L 222.942023 46.656 
L 221.801143 46.656 
L 220.660263 46.656 
L 219.519382 46.656 
L 218.378502 46.656 
L 217.237622 46.656 
L 216.096741 46.656 
L 214.955861 46.656 
L 213.814981 46.656 
L 212.6741 46.656 
L 211.53322 46.656 
L 210.39234 46.656 
L 209.251459 46.656 
L 208.110579 46.656 
L 206.969699 46.656 
L 205.828819 46.656 
L 204.687938 46.656 
L 203.547058 46.656 
L 202.406178 46.656 
L 201.265297 46.656 
L 200.124417 46.656 
L 198.983537 46.656 
L 197.842656 46.656 
L 196.701776 46.656 
L 195.560896 46.656 
L 194.420015 46.656 
L 193.279135 46.656 
L 192.138255 46.656 
L 190.997375 46.656 
L 189.856494 46.656 
L 188.715614 46.656 
L 187.574734 46.656 
L 186.433853 46.656 
L 185.292973 46.656 
L 184.152093 46.656 
L 183.011212 46.656 
L 181.870332 46.656 
L 180.729452 46.656 
L 179.588571 46.656 
L 178.447691 46.656 
L 177.306811 46.656 
L 176.165931 46.656 
L 175.02505 46.656 
L 173.88417 46.656 
L 172.74329 46.656 
L 171.602409 46.656 
L 170.461529 46.656 
L 169.320649 46.656 
L 168.179768 46.656 
L 167.038888 46.656 
L 165.898008 46.656 
L 164.757127 46.656 
L 163.616247 46.656 
L 162.475367 46.656 
L 161.334486 46.656 
L 160.193606 46.656 
L 159.052726 46.656 
L 157.911846 46.656 
L 156.770965 46.656 
L 155.630085 46.656 
L 154.489205 46.656 
L 153.348324 46.656 
L 152.207444 46.656 
L 151.066564 46.656 
L 150.247722 46.656 
L 150.19802 47.79688 
L 150.148318 48.937761 
L 150.098615 50.078641 
L 150.048911 51.219521 
L 149.999206 52.360402 
L 149.949501 53.501282 
L 149.925683 54.049085 
L 149.899804 54.642162 
L 149.850114 55.783042 
L 149.800424 56.923923 
L 149.750732 58.064803 
L 149.701041 59.205683 
L 149.651348 60.346564 
L 149.601655 61.487444 
L 149.551961 62.628324 
L 149.502266 63.769205 
L 149.45257 64.910085 
L 149.402874 66.050965 
L 149.353177 67.191846 
L 149.303479 68.332726 
L 149.253781 69.473606 
L 149.204081 70.614486 
L 149.154381 71.755367 
L 149.10468 72.896247 
L 149.054978 74.037127 
L 149.005275 75.178008 
L 148.955572 76.318888 
L 148.905867 77.459768 
L 148.856162 78.600649 
L 148.806456 79.741529 
L 148.784803 80.23973 
L 148.756759 80.882409 
L 148.70707 82.02329 
L 148.657381 83.16417 
L 148.60769 84.30505 
L 148.557999 85.445931 
L 148.508307 86.586811 
L 148.458614 87.727691 
L 148.40892 88.868571 
L 148.359226 90.009452 
L 148.309531 91.150332 
L 148.259834 92.291212 
L 148.210137 93.432093 
L 148.16044 94.572973 
L 148.110741 95.713853 
L 148.061041 96.854734 
L 148.011341 97.995614 
L 147.961639 99.136494 
L 147.911937 100.277375 
L 147.862234 101.418255 
L 147.812529 102.559135 
L 147.762824 103.700015 
L 147.713118 104.840896 
L 147.663411 105.981776 
L 147.643923 106.430375 
L 147.613715 107.122656 
L 147.564027 108.263537 
L 147.514338 109.404417 
L 147.464649 110.545297 
L 147.414958 111.686178 
L 147.365267 112.827058 
L 147.315574 113.967938 
L 147.265881 115.108819 
L 147.216187 116.249699 
L 147.166492 117.390579 
L 147.116796 118.531459 
L 147.067099 119.67234 
L 147.017401 120.81322 
L 146.967702 121.9541 
L 146.918002 123.094981 
L 146.868301 124.235861 
L 146.8186 125.376741 
L 146.768897 126.517622 
L 146.719193 127.658502 
L 146.669487 128.799382 
L 146.619781 129.940263 
L 146.570074 131.081143 
L 146.520365 132.222023 
L 146.503042 132.62102 
L 146.470671 133.362903 
L 146.420984 134.503784 
L 146.371297 135.644664 
L 146.321608 136.785544 
L 146.271918 137.926425 
L 146.222228 139.067305 
L 146.172536 140.208185 
L 146.122843 141.349066 
L 146.07315 142.489946 
L 146.023455 143.630826 
L 145.973759 144.771707 
L 145.924062 145.912587 
L 145.874364 147.053467 
L 145.824665 148.194347 
L 145.774965 149.335228 
L 145.725264 150.476108 
L 145.675561 151.616988 
L 145.625858 152.757869 
L 145.576153 153.898749 
L 145.526446 155.039629 
L 145.476739 156.18051 
L 145.42703 157.32139 
L 145.37732 158.46227 
L 145.362162 158.811665 
L 145.327628 159.603151 
L 145.277942 160.744031 
L 145.228256 161.884911 
L 145.178569 163.025792 
L 145.12888 164.166672 
L 145.07919 165.307552 
L 145.0295 166.448432 
L 144.979808 167.589313 
L 144.930115 168.730193 
L 144.880421 169.871073 
L 144.830725 171.011954 
L 144.781028 172.152834 
L 144.73133 173.293714 
L 144.681631 174.434595 
L 144.631931 175.575475 
L 144.582229 176.716355 
L 144.532525 177.857236 
L 144.482821 178.998116 
L 144.433115 180.138996 
L 144.383407 181.279876 
L 144.333698 182.420757 
L 144.283987 183.561637 
L 144.234275 184.702517 
L 144.221282 185.002311 
L 144.184585 185.843398 
L 144.134901 186.984278 
L 144.085217 188.125158 
L 144.035531 189.266039 
L 143.985844 190.406919 
L 143.936156 191.547799 
L 143.886467 192.68868 
L 143.836776 193.82956 
L 143.787083 194.97044 
L 143.73739 196.11132 
L 143.687695 197.252201 
L 143.637998 198.393081 
L 143.5883 199.533961 
L 143.538601 200.674842 
L 143.4889 201.815722 
L 143.439197 202.956602 
L 143.389493 204.097483 
L 143.339787 205.238363 
L 143.290079 206.379243 
L 143.24037 207.520124 
L 143.190658 208.661004 
L 143.140945 209.801884 
L 143.09123 210.942764 
L 143.080402 211.192958 
L 143.041543 212.083645 
L 142.991862 213.224525 
L 142.94218 214.365405 
L 142.892497 215.506286 
L 142.842812 216.647166 
L 142.793126 217.788046 
L 142.743439 218.928927 
L 142.693749 220.069807 
L 142.644058 221.210687 
L 142.594366 222.351568 
L 142.544671 223.492448 
L 142.494975 224.633328 
L 142.445277 225.774208 
L 142.395578 226.915089 
L 142.345876 228.055969 
L 142.296172 229.196849 
L 142.246466 230.33773 
L 142.196758 231.47861 
L 142.147048 232.61949 
L 142.097336 233.760371 
L 142.047621 234.901251 
L 141.997904 236.042131 
L 141.948185 237.183012 
L 141.939521 237.383606 
L 141.898502 238.323892 
L 141.848826 239.464772 
L 141.799148 240.605653 
L 141.749469 241.746533 
L 141.699788 242.887413 
L 141.650105 244.028293 
L 141.60042 245.169174 
L 141.550733 246.310054 
L 141.501044 247.450934 
L 141.451353 248.591815 
L 141.40166 249.732695 
L 141.351965 250.873575 
L 141.302267 252.014456 
L 141.252567 253.155336 
L 141.202864 254.296216 
L 141.153159 255.437097 
L 141.103451 256.577977 
L 141.05374 257.718857 
L 141.004027 258.859737 
L 140.95431 260.000618 
L 140.90459 261.141498 
L 140.854866 262.282378 
L 140.80514 263.423259 
L 140.798641 263.574258 
L 140.755465 264.564139 
L 140.705796 265.705019 
L 140.656125 266.8459 
L 140.606452 267.98678 
L 140.556777 269.12766 
L 140.5071 270.268541 
L 140.457421 271.409421 
L 140.407738 272.550301 
L 140.358054 273.691181 
L 140.308366 274.832062 
L 140.258676 275.972942 
L 140.208982 277.113822 
L 140.159286 278.254703 
L 140.109585 279.395583 
L 140.059882 280.536463 
L 140.010174 281.677344 
L 139.960463 282.818224 
L 139.910747 283.959104 
L 139.861027 285.099985 
L 139.811302 286.240865 
L 139.761571 287.381745 
L 139.711836 288.522625 
L 139.662094 289.663506 
L 139.657761 289.764917 
L 139.612435 290.804386 
L 139.562781 291.945266 
L 139.513126 293.086147 
L 139.463467 294.227027 
L 139.413806 295.367907 
L 139.364143 296.508788 
L 139.314476 297.649668 
L 139.264805 298.790548 
L 139.215131 299.931429 
L 139.165453 301.072309 
L 139.115771 302.213189 
L 139.066085 303.354069 
L 139.016393 304.49495 
L 138.966695 305.63583 
L 138.916992 306.77671 
L 138.867282 307.917591 
L 138.817564 309.058471 
L 138.767838 310.199351 
L 138.718104 311.340232 
L 138.668359 312.481112 
L 138.618602 313.621992 
L 138.568833 314.762873 
L 138.519049 315.903753 
L 138.51688 315.955611 
L 138.469438 317.044633 
L 138.419834 318.185514 
L 138.370231 319.326394 
L 138.320628 320.467274 
L 138.271025 321.608154 
L 138.221422 322.749035 
L 138.171818 323.889915 
L 138.122215 325.030795 
L 138.072612 326.171676 
L 138.023009 327.312556 
L 137.973406 328.453436 
L 137.923804 329.594317 
L 137.874201 330.735197 
L 137.824599 331.876077 
L 137.774996 333.016958 
L 137.725395 334.157838 
L 137.675793 335.298718 
L 137.626193 336.439598 
L 137.576594 337.580479 
L 137.526999 338.721359 
L 137.477412 339.862239 
L 137.427858 341.00312 
z
" clip-path="url(#p25816208d1)" style="fill: #bbf7d0; fill-opacity: 0.74"/>
   </g>
   <g id="matplotlib.axis_1">
    <g id="xtick_1">
     <g id="line2d_1">
      <path d="M 137.376 342.144 
L 137.376 46.656 
" clip-path="url(#p25816208d1)" style="fill: none; stroke: #cbd5e1; stroke-width: 0.8; stroke-linecap: square"/>
     </g>
     <g id="line2d_2"/>
     <g id="text_1">
      <text style="font-size: 12px; font-family: 'DejaVu Sans'; text-anchor: middle; fill: #475569" x="137.376" y="354.762125" transform="rotate(-0 137.376 354.762125)">0</text>
     </g>
    </g>
    <g id="xtick_2">
     <g id="line2d_3">
      <path d="M 211.248 342.144 
L 211.248 46.656 
" clip-path="url(#p25816208d1)" style="fill: none; stroke: #cbd5e1; stroke-width: 0.8; stroke-linecap: square"/>
     </g>
     <g id="line2d_4"/>
     <g id="text_2">
      <text style="font-size: 12px; font-family: 'DejaVu Sans'; text-anchor: middle; fill: #475569" x="211.248" y="354.762125" transform="rotate(-0 211.248 354.762125)">0.25</text>
     </g>
    </g>
    <g id="xtick_3">
     <g id="line2d_5">
      <path d="M 285.12 342.144 
L 285.12 46.656 
" clip-path="url(#p25816208d1)" style="fill: none; stroke: #cbd5e1; stroke-width: 0.8; stroke-linecap: square"/>
     </g>
     <g id="line2d_6"/>
     <g id="text_3">
      <text style="font-size: 12px; font-family: 'DejaVu Sans'; text-anchor: middle; fill: #475569" x="285.12" y="354.762125" transform="rotate(-0 285.12 354.762125)">0.50</text>
     </g>
    </g>
    <g id="xtick_4">
     <g id="line2d_7">
      <path d="M 358.992 342.144 
L 358.992 46.656 
" clip-path="url(#p25816208d1)" style="fill: none; stroke: #cbd5e1; stroke-width: 0.8; stroke-linecap: square"/>
     </g>
     <g id="line2d_8"/>
     <g id="text_4">
      <text style="font-size: 12px; font-family: 'DejaVu Sans'; text-anchor: middle; fill: #475569" x="358.992" y="354.762125" transform="rotate(-0 358.992 354.762125)">0.75</text>
     </g>
    </g>
    <g id="xtick_5">
     <g id="line2d_9">
      <path d="M 432.864 342.144 
L 432.864 46.656 
" clip-path="url(#p25816208d1)" style="fill: none; stroke: #cbd5e1; stroke-width: 0.8; stroke-linecap: square"/>
     </g>
     <g id="line2d_10"/>
     <g id="text_5">
      <text style="font-size: 12px; font-family: 'DejaVu Sans'; text-anchor: middle; fill: #475569" x="432.864" y="354.762125" transform="rotate(-0 432.864 354.762125)">1.00</text>
     </g>
    </g>
    <g id="text_6">
     <!-- $\lambda_1$ -->
     <g style="fill: #111827" transform="translate(277.095 372.655406)">
      <text>
       <tspan x="0" y="-0.609375" style="font-style: oblique; font-size: 15px; font-family: 'DejaVu Sans'; fill: #111827">λ</tspan>
       <tspan x="8.876953" y="1.851562" style="font-size: 10.5px; font-family: 'DejaVu Sans'; fill: #111827">1</tspan>
      </text>
     </g>
    </g>
   </g>
   <g id="matplotlib.axis_2">
    <g id="ytick_1">
     <g id="line2d_11">
      <path d="M 137.376 342.144 
L 432.864 342.144 
" clip-path="url(#p25816208d1)" style="fill: none; stroke: #cbd5e1; stroke-width: 0.8; stroke-linecap: square"/>
     </g>
     <g id="line2d_12"/>
     <g id="text_7">
      <text style="font-size: 12px; font-family: 'DejaVu Sans'; text-anchor: end; fill: #475569" x="133.876" y="346.703062" transform="rotate(-0 133.876 346.703062)">0</text>
     </g>
    </g>
    <g id="ytick_2">
     <g id="line2d_13">
      <path d="M 137.376 268.272 
L 432.864 268.272 
" clip-path="url(#p25816208d1)" style="fill: none; stroke: #cbd5e1; stroke-width: 0.8; stroke-linecap: square"/>
     </g>
     <g id="line2d_14"/>
     <g id="text_8">
      <text style="font-size: 12px; font-family: 'DejaVu Sans'; text-anchor: end; fill: #475569" x="133.876" y="272.831063" transform="rotate(-0 133.876 272.831063)">0.25</text>
     </g>
    </g>
    <g id="ytick_3">
     <g id="line2d_15">
      <path d="M 137.376 194.4 
L 432.864 194.4 
" clip-path="url(#p25816208d1)" style="fill: none; stroke: #cbd5e1; stroke-width: 0.8; stroke-linecap: square"/>
     </g>
     <g id="line2d_16"/>
     <g id="text_9">
      <text style="font-size: 12px; font-family: 'DejaVu Sans'; text-anchor: end; fill: #475569" x="133.876" y="198.959063" transform="rotate(-0 133.876 198.959063)">0.50</text>
     </g>
    </g>
    <g id="ytick_4">
     <g id="line2d_17">
      <path d="M 137.376 120.528 
L 432.864 120.528 
" clip-path="url(#p25816208d1)" style="fill: none; stroke: #cbd5e1; stroke-width: 0.8; stroke-linecap: square"/>
     </g>
     <g id="line2d_18"/>
     <g id="text_10">
      <text style="font-size: 12px; font-family: 'DejaVu Sans'; text-anchor: end; fill: #475569" x="133.876" y="125.087063" transform="rotate(-0 133.876 125.087063)">0.75</text>
     </g>
    </g>
    <g id="ytick_5">
     <g id="line2d_19">
      <path d="M 137.376 46.656 
L 432.864 46.656 
" clip-path="url(#p25816208d1)" style="fill: none; stroke: #cbd5e1; stroke-width: 0.8; stroke-linecap: square"/>
     </g>
     <g id="line2d_20"/>
     <g id="text_11">
      <text style="font-size: 12px; font-family: 'DejaVu Sans'; text-anchor: end; fill: #475569" x="133.876" y="51.215062" transform="rotate(-0 133.876 51.215062)">1.00</text>
     </g>
    </g>
    <g id="text_12">
     <!-- $\lambda_2$ -->
     <g style="fill: #111827" transform="translate(83.13225 191.280469)">
      <text>
       <tspan x="0" y="-0.609375" style="font-style: oblique; font-size: 15px; font-family: 'DejaVu Sans'; fill: #111827">λ</tspan>
       <tspan x="8.876953" y="1.851562" style="font-size: 10.5px; font-family: 'DejaVu Sans'; fill: #111827">2</tspan>
      </text>
     </g>
    </g>
   </g>
   <g id="line2d_21">
    <path d="M 137.376 342.144 
L 432.864 329.272317 
L 432.864 329.272317 
" clip-path="url(#p25816208d1)" style="fill: none; stroke: #2563eb; stroke-width: 2; stroke-linecap: square"/>
   </g>
   <g id="line2d_22">
    <path d="M 137.376 342.144 
L 150.247683 46.656 
L 150.247683 46.656 
" clip-path="url(#p25816208d1)" style="fill: none; stroke: #2563eb; stroke-width: 2; stroke-linecap: square"/>
   </g>
   <g id="line2d_23">
    <path d="M 137.376 342.144 
L 432.864 46.656 
" clip-path="url(#p25816208d1)" style="fill: none; stroke-dasharray: 4.8,4.8; stroke-dashoffset: 0; stroke: #94a3b8; stroke-width: 1.2"/>
   </g>
   <g id="patch_3">
    <path d="M 137.376 342.144 
L 137.376 46.656 
" style="fill: none; stroke: #111827; stroke-width: 1.1; stroke-linejoin: miter; stroke-linecap: square"/>
   </g>
   <g id="patch_4">
    <path d="M 137.376 342.144 
L 432.864 342.144 
" style="fill: none; stroke: #111827; stroke-width: 1.1; stroke-linejoin: miter; stroke-linecap: square"/>
   </g>
   <g id="text_13">
    <text style="font-weight: 700; font-size: 17px; font-family: 'DejaVu Sans'; text-anchor: start; fill: #111827" x="137.376" y="28.656" transform="rotate(-0 137.376 28.656)">Harris response in eigenvalue space  (k = 0.04)</text>
   </g>
   <g id="patch_5">
    <path d="M 137.376 389.42208 
C 149.914293 389.42208 161.940739 384.440563 170.806651 375.574651 
C 179.672563 366.708739 184.65408 354.682293 184.65408 342.144 
C 184.65408 329.605707 179.672563 317.579261 170.806651 308.713349 
C 161.940739 299.847437 149.914293 294.86592 137.376 294.86592 
C 124.837707 294.86592 112.811261 299.847437 103.945349 308.713349 
C 95.079437 317.579261 90.09792 329.605707 90.09792 342.144 
C 90.09792 354.682293 95.079437 366.708739 103.945349 375.574651 
C 112.811261 384.440563 124.837707 389.42208 137.376 389.42208 
z
" clip-path="url(#p25816208d1)" style="fill: #e2e8f0; opacity: 0.92; stroke: #64748b; stroke-width: 1.3; stroke-linejoin: miter"/>
   </g>
   <g id="text_14">
    <text style="font-weight: 700; font-size: 15px; font-family: 'DejaVu Sans'; fill: #047857" transform="translate(299.066445 136.952863)">corner</text>
    <!-- $R &gt; 0$ -->
    <g style="fill: #047857" transform="translate(307.28832 153.749582)">
     <text>
      <tspan x="0" y="-0.859375" style="font-style: oblique; font-size: 15px; font-family: 'DejaVu Sans'; fill: #047857">R</tspan>
      <tspan x="13.344727" y="-0.859375" style="font-size: 15px; font-family: 'DejaVu Sans'; fill: #047857">&gt;</tspan>
      <tspan x="28.835449" y="-0.859375" style="font-size: 15px; font-family: 'DejaVu Sans'; fill: #047857">0</tspan>
     </text>
    </g>
   </g>
   <g id="patch_6">
    <path d="M 360.625378 303.370616 
Q 356.047232 316.237971 351.918818 327.841308 
" style="fill: none; stroke: #2563eb; stroke-width: 1.2; stroke-linecap: round"/>
    <path d="M 356.111484 323.813709 
L 351.918818 327.841308 
L 351.212339 322.070616 
" style="fill: none; stroke: #2563eb; stroke-width: 1.2; stroke-linecap: round"/>
   </g>
   <g id="text_15">
    <text style="font-weight: 700; font-size: 13px; font-family: 'DejaVu Sans'; fill: #2563eb" transform="translate(349.733827 279.304228)">edge</text>
    <!-- $R &lt; 0$ -->
    <g style="fill: #2563eb" transform="translate(351.21664 293.962947)">
     <text>
      <tspan x="0" y="-0.34375" style="font-style: oblique; font-size: 13px; font-family: 'DejaVu Sans'; fill: #2563eb">R</tspan>
      <tspan x="11.56543" y="-0.34375" style="font-size: 13px; font-family: 'DejaVu Sans'; fill: #2563eb">&lt;</tspan>
      <tspan x="24.990723" y="-0.34375" style="font-size: 13px; font-family: 'DejaVu Sans'; fill: #2563eb">0</tspan>
     </text>
    </g>
   </g>
   <g id="patch_7">
    <path d="M 171.638452 120.499591 
Q 161.025103 124.275772 151.675773 127.60222 
" style="fill: none; stroke: #2563eb; stroke-width: 1.2; stroke-linecap: round"/>
    <path d="M 157.446465 128.3087 
L 151.675773 127.60222 
L 155.703371 123.409554 
" style="fill: none; stroke: #2563eb; stroke-width: 1.2; stroke-linecap: round"/>
   </g>
   <g id="text_16">
    <text style="font-weight: 700; font-size: 13px; font-family: 'DejaVu Sans'; fill: #2563eb" transform="translate(178.350787 107.921188)">edge</text>
    <!-- $R &lt; 0$ -->
    <g style="fill: #2563eb" transform="translate(179.8336 122.579907)">
     <text>
      <tspan x="0" y="-0.34375" style="font-style: oblique; font-size: 13px; font-family: 'DejaVu Sans'; fill: #2563eb">R</tspan>
      <tspan x="11.56543" y="-0.34375" style="font-size: 13px; font-family: 'DejaVu Sans'; fill: #2563eb">&lt;</tspan>
      <tspan x="24.990723" y="-0.34375" style="font-size: 13px; font-family: 'DejaVu Sans'; fill: #2563eb">0</tspan>
     </text>
    </g>
   </g>
   <g id="text_17">
    <text style="font-weight: 700; font-size: 13px; font-family: 'DejaVu Sans'; text-anchor: middle; fill: #475569" x="160.424064" y="325.638004" transform="rotate(-0 160.424064 325.638004)">flat</text>
   </g>
  </g>
 </g>
 <defs>
  <clipPath id="p25816208d1">
   <rect x="137.376" y="46.656" width="295.488" height="295.488"/>
  </clipPath>
 </defs>
</svg>
