<?xml version="1.0" encoding="UTF-8"?>
<svg xmlns="http://www.w3.org/2000/svg" viewBox="0 0 540 540" class="h-auto w-full text-foreground" style="color:#1e293b" width="540" height="540" role="img" aria-label="ChESS detector response illustration for the Stripe case at 22.5 degrees."><rect x="1" y="1" width="538" height="538" rx="28" fill="#f8fafc" stroke="#cbd5e1"></rect><g aria-hidden="true"><rect x="83" y="83" width="22" height="22" fill="rgb(0 0 0)" stroke="rgba(148, 163, 184, 0.22)" stroke-width="1"></rect><rect x="105" y="83" width="22" height="22" fill="rgb(0 0 0)" stroke="rgba(148, 163, 184, 0.22)" stroke-width="1"></rect><rect x="127" y="83" width="22" height="22" fill="rgb(0 0 0)" stroke="rgba(148, 163, 184, 0.22)" stroke-width="1"></rect><rect x="149" y="83" width="22" height="22" fill="rgb(0 0 0)" stroke="rgba(148, 163, 184, 0.22)" stroke-width="1"></rect><rect x="171" y="83" width="22" height="22" fill="rgb(0 0 0)" stroke="rgba(148, 163, 184, 0.22)" stroke-width="1"></rect><rect x="193" y="83" width="22" height="22" fill="rgb(0 0 0)" stroke="rgba(148, 163, 184, 0.22)" stroke-width="1"></rect><rect x="215" y="83" width="22" height="22" fill="rgb(13 13 13)" stroke="rgba(148, 163, 184, 0.22)" stroke-width="1"></rect><rect x="237" y="83" width="22" height="22" fill="rgb(58 58 58)" stroke="rgba(148, 163, 184, 0.22)" stroke-width="1"></rect><rect x="259" y="83" width="22" height="22" fill="rgb(141 141 141)" stroke="rgba(148, 163, 184, 0.22)" stroke-width="1"></rect><rect x="281" y="83" width="22" height="22" fill="rgb(215 215 215)" stroke="rgba(148, 163, 184, 0.22)" stroke-width="1"></rect><rect x="303" y="83" width="22" height="22" fill="rgb(249 249 249)" stroke="rgba(148, 163, 184, 0.22)" stroke-width="1"></rect><rect x="325" y="83" width="22" height="22" fill="rgb(255 255 255)" stroke="rgba(148, 163, 184, 0.22)" stroke-width="1"></rect><rect x="347" y="83" width="22" height="22" fill="rgb(255 255 255)" stroke="rgba(148, 163, 184, 0.22)" stroke-width="1"></rect><rect x="369" y="83" width="22" height="22" fill="rgb(240 240 240)" stroke="rgba(148, 163, 184, 0.22)" stroke-width="1"></rect><rect x="391" y="83" width="22" height="22" fill="rgb(192 192 192)" stroke="rgba(148, 163, 184, 0.22)" stroke-width="1"></rect><rect x="413" y="83" width="22" height="22" fill="rgb(108 108 108)" stroke="rgba(148, 163, 184, 0.22)" stroke-width="1"></rect><rect x="435" y="83" width="22" height="22" fill="rgb(37 37 37)" stroke="rgba(148, 163, 184, 0.22)" stroke-width="1"></rect><rect x="83" y="105" width="22" height="22" fill="rgb(0 0 0)" stroke="rgba(148, 163, 184, 0.22)" stroke-width="1"></rect><rect x="105" y="105" width="22" height="22" fill="rgb(0 0 0)" stroke="rgba(148, 163, 184, 0.22)" stroke-width="1"></rect><rect x="127" y="105" width="22" height="22" fill="rgb(0 0 0)" stroke="rgba(148, 163, 184, 0.22)" stroke-width="1"></rect><rect x="149" y="105" width="22" height="22" fill="rgb(0 0 0)" stroke="rgba(148, 163, 184, 0.22)" stroke-width="1"></rect><rect x="171" y="105" width="22" height="22" fill="rgb(0 0 0)" stroke="rgba(148, 163, 184, 0.22)" stroke-width="1"></rect><rect x="193" y="105" width="22" height="22" fill="rgb(1 1 1)" stroke="rgba(148, 163, 184, 0.22)" stroke-width="1"></rect><rect x="215" y="105" width="22" height="22" fill="rgb(27 27 27)" stroke="rgba(148, 163, 184, 0.22)" stroke-width="1"></rect><rect x="237" y="105" width="22" height="22" fill="rgb(90 90 90)" stroke="rgba(148, 163, 184, 0.22)" stroke-width="1"></rect><rect x="259" y="105" width="22" height="22" fill="rgb(176 176 176)" stroke="rgba(148, 163, 184, 0.22)" stroke-width="1"></rect><rect x="281" y="105" width="22" height="22" fill="rgb(233 233 233)" stroke="rgba(148, 163, 184, 0.22)" stroke-width="1"></rect><rect x="303" y="105" width="22" height="22" fill="rgb(255 255 255)" stroke="rgba(148, 163, 184, 0.22)" stroke-width="1"></rect><rect x="325" y="105" width="22" height="22" fill="rgb(255 255 255)" stroke="rgba(148, 163, 184, 0.22)" stroke-width="1"></rect><rect x="347" y="105" width="22" height="22" fill="rgb(253 253 253)" stroke="rgba(148, 163, 184, 0.22)" stroke-width="1"></rect><rect x="369" y="105" width="22" height="22" fill="rgb(225 225 225)" stroke="rgba(148, 163, 184, 0.22)" stroke-width="1"></rect><rect x="391" y="105" width="22" height="22" fill="rgb(159 159 159)" stroke="rgba(148, 163, 184, 0.22)" stroke-width="1"></rect><rect x="413" y="105" width="22" height="22" fill="rgb(74 74 74)" stroke="rgba(148, 163, 184, 0.22)" stroke-width="1"></rect><rect x="435" y="105" width="22" height="22" fill="rgb(19 19 19)" stroke="rgba(148, 163, 184, 0.22)" stroke-width="1"></rect><rect x="83" y="127" width="22" height="22" fill="rgb(0 0 0)" stroke="rgba(148, 163, 184, 0.22)" stroke-width="1"></rect><rect x="105" y="127" width="22" height="22" fill="rgb(0 0 0)" stroke="rgba(148, 163, 184, 0.22)" stroke-width="1"></rect><rect x="127" y="127" width="22" height="22" fill="rgb(0 0 0)" stroke="rgba(148, 163, 184, 0.22)" stroke-width="1"></rect><rect x="149" y="127" width="22" height="22" fill="rgb(0 0 0)" stroke="rgba(148, 163, 184, 0.22)" stroke-width="1"></rect><rect x="171" y="127" width="22" height="22" fill="rgb(0 0 0)" stroke="rgba(148, 163, 184, 0.22)" stroke-width="1"></rect><rect x="193" y="127" width="22" height="22" fill="rgb(8 8 8)" stroke="rgba(148, 163, 184, 0.22)" stroke-width="1"></rect><rect x="215" y="127" width="22" height="22" fill="rgb(48 48 48)" stroke="rgba(148, 163, 184, 0.22)" stroke-width="1"></rect><rect x="237" y="127" width="22" height="22" fill="rgb(126 126 126)" stroke="rgba(148, 163, 184, 0.22)" stroke-width="1"></rect><rect x="259" y="127" width="22" height="22" fill="rgb(205 205 205)" stroke="rgba(148, 163, 184, 0.22)" stroke-width="1"></rect><rect x="281" y="127" width="22" height="22" fill="rgb(246 246 246)" stroke="rgba(148, 163, 184, 0.22)" stroke-width="1"></rect><rect x="303" y="127" width="22" height="22" fill="rgb(255 255 255)" stroke="rgba(148, 163, 184, 0.22)" stroke-width="1"></rect><rect x="325" y="127" width="22" height="22" fill="rgb(255 255 255)" stroke="rgba(148, 163, 184, 0.22)" stroke-width="1"></rect><rect x="347" y="127" width="22" height="22" fill="rgb(245 245 245)" stroke="rgba(148, 163, 184, 0.22)" stroke-width="1"></rect><rect x="369" y="127" width="22" height="22" fill="rgb(203 203 203)" stroke="rgba(148, 163, 184, 0.22)" stroke-width="1"></rect><rect x="391" y="127" width="22" height="22" fill="rgb(123 123 123)" stroke="rgba(148, 163, 184, 0.22)" stroke-width="1"></rect><rect x="413" y="127" width="22" height="22" fill="rgb(46 46 46)" stroke="rgba(148, 163, 184, 0.22)" stroke-width="1"></rect><rect x="435" y="127" width="22" height="22" fill="rgb(8 8 8)" stroke="rgba(148, 163, 184, 0.22)" stroke-width="1"></rect><rect x="83" y="149" width="22" height="22" fill="rgb(0 0 0)" stroke="rgba(148, 163, 184, 0.22)" stroke-width="1"></rect><rect x="105" y="149" width="22" height="22" fill="rgb(0 0 0)" stroke="rgba(148, 163, 184, 0.22)" stroke-width="1"></rect><rect x="127" y="149" width="22" height="22" fill="rgb(0 0 0)" stroke="rgba(148, 163, 184, 0.22)" stroke-width="1"></rect><rect x="149" y="149" width="22" height="22" fill="rgb(0 0 0)" stroke="rgba(148, 163, 184, 0.22)" stroke-width="1"></rect><rect x="171" y="149" width="22" height="22" fill="rgb(0 0 0)" stroke="rgba(148, 163, 184, 0.22)" stroke-width="1"></rect><rect x="193" y="149" width="22" height="22" fill="rgb(20 20 20)" stroke="rgba(148, 163, 184, 0.22)" stroke-width="1"></rect><rect x="215" y="149" width="22" height="22" fill="rgb(76 76 76)" stroke="rgba(148, 163, 184, 0.22)" stroke-width="1"></rect><rect x="237" y="149" width="22" height="22" fill="rgb(162 162 162)" stroke="rgba(148, 163, 184, 0.22)" stroke-width="1"></rect><rect x="259" y="149" width="22" height="22" fill="rgb(226 226 226)" stroke="rgba(148, 163, 184, 0.22)" stroke-width="1"></rect><rect x="281" y="149" width="22" height="22" fill="rgb(253 253 253)" stroke="rgba(148, 163, 184, 0.22)" stroke-width="1"></rect><rect x="303" y="149" width="22" height="22" fill="rgb(255 255 255)" stroke="rgba(148, 163, 184, 0.22)" stroke-width="1"></rect><rect x="325" y="149" width="22" height="22" fill="rgb(255 255 255)" stroke="rgba(148, 163, 184, 0.22)" stroke-width="1"></rect><rect x="347" y="149" width="22" height="22" fill="rgb(232 232 232)" stroke="rgba(148, 163, 184, 0.22)" stroke-width="1"></rect><rect x="369" y="149" width="22" height="22" fill="rgb(173 173 173)" stroke="rgba(148, 163, 184, 0.22)" stroke-width="1"></rect><rect x="391" y="149" width="22" height="22" fill="rgb(87 87 87)" stroke="rgba(148, 163, 184, 0.22)" stroke-width="1"></rect><rect x="413" y="149" width="22" height="22" fill="rgb(26 26 26)" stroke="rgba(148, 163, 184, 0.22)" stroke-width="1"></rect><rect x="435" y="149" width="22" height="22" fill="rgb(1 1 1)" stroke="rgba(148, 163, 184, 0.22)" stroke-width="1"></rect><rect x="83" y="171" width="22" height="22" fill="rgb(0 0 0)" stroke="rgba(148, 163, 184, 0.22)" stroke-width="1"></rect><rect x="105" y="171" width="22" height="22" fill="rgb(0 0 0)" stroke="rgba(148, 163, 184, 0.22)" stroke-width="1"></rect><rect x="127" y="171" width="22" height="22" fill="rgb(0 0 0)" stroke="rgba(148, 163, 184, 0.22)" stroke-width="1"></rect><rect x="149" y="171" width="22" height="22" fill="rgb(0 0 0)" stroke="rgba(148, 163, 184, 0.22)" stroke-width="1"></rect><rect x="171" y="171" width="22" height="22" fill="rgb(5 5 5)" stroke="rgba(148, 163, 184, 0.22)" stroke-width="1"></rect><rect x="193" y="171" width="22" height="22" fill="rgb(38 38 38)" stroke="rgba(148, 163, 184, 0.22)" stroke-width="1"></rect><rect x="215" y="171" width="22" height="22" fill="rgb(110 110 110)" stroke="rgba(148, 163, 184, 0.22)" stroke-width="1"></rect><rect x="237" y="171" width="22" height="22" fill="rgb(194 194 194)" stroke="rgba(148, 163, 184, 0.22)" stroke-width="1"></rect><rect x="259" y="171" width="22" height="22" fill="rgb(241 241 241)" stroke="rgba(148, 163, 184, 0.22)" stroke-width="1"></rect><rect x="281" y="171" width="22" height="22" fill="rgb(255 255 255)" stroke="rgba(148, 163, 184, 0.22)" stroke-width="1"></rect><rect x="303" y="171" width="22" height="22" fill="rgb(255 255 255)" stroke="rgba(148, 163, 184, 0.22)" stroke-width="1"></rect><rect x="325" y="171" width="22" height="22" fill="rgb(249 249 249)" stroke="rgba(148, 163, 184, 0.22)" stroke-width="1"></rect><rect x="347" y="171" width="22" height="22" fill="rgb(213 213 213)" stroke="rgba(148, 163, 184, 0.22)" stroke-width="1"></rect><rect x="369" y="171" width="22" height="22" fill="rgb(138 138 138)" stroke="rgba(148, 163, 184, 0.22)" stroke-width="1"></rect><rect x="391" y="171" width="22" height="22" fill="rgb(57 57 57)" stroke="rgba(148, 163, 184, 0.22)" stroke-width="1"></rect><rect x="413" y="171" width="22" height="22" fill="rgb(12 12 12)" stroke="rgba(148, 163, 184, 0.22)" stroke-width="1"></rect><rect x="435" y="171" width="22" height="22" fill="rgb(0 0 0)" stroke="rgba(148, 163, 184, 0.22)" stroke-width="1"></rect><rect x="83" y="193" width="22" height="22" fill="rgb(0 0 0)" stroke="rgba(148, 163, 184, 0.22)" stroke-width="1"></rect><rect x="105" y="193" width="22" height="22" fill="rgb(0 0 0)" stroke="rgba(148, 163, 184, 0.22)" stroke-width="1"></rect><rect x="127" y="193" width="22" height="22" fill="rgb(0 0 0)" stroke="rgba(148, 163, 184, 0.22)" stroke-width="1"></rect><rect x="149" y="193" width="22" height="22" fill="rgb(0 0 0)" stroke="rgba(148, 163, 184, 0.22)" stroke-width="1"></rect><rect x="171" y="193" width="22" height="22" fill="rgb(15 15 15)" stroke="rgba(148, 163, 184, 0.22)" stroke-width="1"></rect><rect x="193" y="193" width="22" height="22" fill="rgb(63 63 63)" stroke="rgba(148, 163, 184, 0.22)" stroke-width="1"></rect><rect x="215" y="193" width="22" height="22" fill="rgb(147 147 147)" stroke="rgba(148, 163, 184, 0.22)" stroke-width="1"></rect><rect x="237" y="193" width="22" height="22" fill="rgb(218 218 218)" stroke="rgba(148, 163, 184, 0.22)" stroke-width="1"></rect><rect x="259" y="193" width="22" height="22" fill="rgb(251 251 251)" stroke="rgba(148, 163, 184, 0.22)" stroke-width="1"></rect><rect x="281" y="193" width="22" height="22" fill="rgb(255 255 255)" stroke="rgba(148, 163, 184, 0.22)" stroke-width="1"></rect><rect x="303" y="193" width="22" height="22" fill="rgb(255 255 255)" stroke="rgba(148, 163, 184, 0.22)" stroke-width="1"></rect><rect x="325" y="193" width="22" height="22" fill="rgb(238 238 238)" stroke="rgba(148, 163, 184, 0.22)" stroke-width="1"></rect><rect x="347" y="193" width="22" height="22" fill="rgb(186 186 186)" stroke="rgba(148, 163, 184, 0.22)" stroke-width="1"></rect><rect x="369" y="193" width="22" height="22" fill="rgb(102 102 102)" stroke="rgba(148, 163, 184, 0.22)" stroke-width="1"></rect><rect x="391" y="193" width="22" height="22" fill="rgb(33 33 33)" stroke="rgba(148, 163, 184, 0.22)" stroke-width="1"></rect><rect x="413" y="193" width="22" height="22" fill="rgb(3 3 3)" stroke="rgba(148, 163, 184, 0.22)" stroke-width="1"></rect><rect x="435" y="193" width="22" height="22" fill="rgb(0 0 0)" stroke="rgba(148, 163, 184, 0.22)" stroke-width="1"></rect><rect x="83" y="215" width="22" height="22" fill="rgb(0 0 0)" stroke="rgba(148, 163, 184, 0.22)" stroke-width="1"></rect><rect x="105" y="215" width="22" height="22" fill="rgb(0 0 0)" stroke="rgba(148, 163, 184, 0.22)" stroke-width="1"></rect><rect x="127" y="215" width="22" height="22" fill="rgb(0 0 0)" stroke="rgba(148, 163, 184, 0.22)" stroke-width="1"></rect><rect x="149" y="215" width="22" height="22" fill="rgb(2 2 2)" stroke="rgba(148, 163, 184, 0.22)" stroke-width="1"></rect><rect x="171" y="215" width="22" height="22" fill="rgb(30 30 30)" stroke="rgba(148, 163, 184, 0.22)" stroke-width="1"></rect><rect x="193" y="215" width="22" height="22" fill="rgb(96 96 96)" stroke="rgba(148, 163, 184, 0.22)" stroke-width="1"></rect><rect x="215" y="215" width="22" height="22" fill="rgb(181 181 181)" stroke="rgba(148, 163, 184, 0.22)" stroke-width="1"></rect><rect x="237" y="215" width="22" height="22" fill="rgb(236 236 236)" stroke="rgba(148, 163, 184, 0.22)" stroke-width="1"></rect><rect x="259" y="215" width="22" height="22" fill="rgb(255 255 255)" stroke="rgba(148, 163, 184, 0.22)" stroke-width="1"></rect><rect x="281" y="215" width="22" height="22" fill="rgb(255 255 255)" stroke="rgba(148, 163, 184, 0.22)" stroke-width="1"></rect><rect x="303" y="215" width="22" height="22" fill="rgb(252 252 252)" stroke="rgba(148, 163, 184, 0.22)" stroke-width="1"></rect><rect x="325" y="215" width="22" height="22" fill="rgb(222 222 222)" stroke="rgba(148, 163, 184, 0.22)" stroke-width="1"></rect><rect x="347" y="215" width="22" height="22" fill="rgb(153 153 153)" stroke="rgba(148, 163, 184, 0.22)" stroke-width="1"></rect><rect x="369" y="215" width="22" height="22" fill="rgb(68 68 68)" stroke="rgba(148, 163, 184, 0.22)" stroke-width="1"></rect><rect x="391" y="215" width="22" height="22" fill="rgb(17 17 17)" stroke="rgba(148, 163, 184, 0.22)" stroke-width="1"></rect><rect x="413" y="215" width="22" height="22" fill="rgb(0 0 0)" stroke="rgba(148, 163, 184, 0.22)" stroke-width="1"></rect><rect x="435" y="215" width="22" height="22" fill="rgb(0 0 0)" stroke="rgba(148, 163, 184, 0.22)" stroke-width="1"></rect><rect x="83" y="237" width="22" height="22" fill="rgb(0 0 0)" stroke="rgba(148, 163, 184, 0.22)" stroke-width="1"></rect><rect x="105" y="237" width="22" height="22" fill="rgb(0 0 0)" stroke="rgba(148, 163, 184, 0.22)" stroke-width="1"></rect><rect x="127" y="237" width="22" height="22" fill="rgb(0 0 0)" stroke="rgba(148, 163, 184, 0.22)" stroke-width="1"></rect><rect x="149" y="237" width="22" height="22" fill="rgb(10 10 10)" stroke="rgba(148, 163, 184, 0.22)" stroke-width="1"></rect><rect x="171" y="237" width="22" height="22" fill="rgb(52 52 52)" stroke="rgba(148, 163, 184, 0.22)" stroke-width="1"></rect><rect x="193" y="237" width="22" height="22" fill="rgb(132 132 132)" stroke="rgba(148, 163, 184, 0.22)" stroke-width="1"></rect><rect x="215" y="237" width="22" height="22" fill="rgb(209 209 209)" stroke="rgba(148, 163, 184, 0.22)" stroke-width="1"></rect><rect x="237" y="237" width="22" height="22" fill="rgb(247 247 247)" stroke="rgba(148, 163, 184, 0.22)" stroke-width="1"></rect><rect x="259" y="237" width="22" height="22" fill="rgb(255 255 255)" stroke="rgba(148, 163, 184, 0.22)" stroke-width="1"></rect><rect x="281" y="237" width="22" height="22" fill="rgb(255 255 255)" stroke="rgba(148, 163, 184, 0.22)" stroke-width="1"></rect><rect x="303" y="237" width="22" height="22" fill="rgb(243 243 243)" stroke="rgba(148, 163, 184, 0.22)" stroke-width="1"></rect><rect x="325" y="237" width="22" height="22" fill="rgb(198 198 198)" stroke="rgba(148, 163, 184, 0.22)" stroke-width="1"></rect><rect x="347" y="237" width="22" height="22" fill="rgb(117 117 117)" stroke="rgba(148, 163, 184, 0.22)" stroke-width="1"></rect><rect x="369" y="237" width="22" height="22" fill="rgb(42 42 42)" stroke="rgba(148, 163, 184, 0.22)" stroke-width="1"></rect><rect x="391" y="237" width="22" height="22" fill="rgb(6 6 6)" stroke="rgba(148, 163, 184, 0.22)" stroke-width="1"></rect><rect x="413" y="237" width="22" height="22" fill="rgb(0 0 0)" stroke="rgba(148, 163, 184, 0.22)" stroke-width="1"></rect><rect x="435" y="237" width="22" height="22" fill="rgb(0 0 0)" stroke="rgba(148, 163, 184, 0.22)" stroke-width="1"></rect><rect x="83" y="259" width="22" height="22" fill="rgb(0 0 0)" stroke="rgba(148, 163, 184, 0.22)" stroke-width="1"></rect><rect x="105" y="259" width="22" height="22" fill="rgb(0 0 0)" stroke="rgba(148, 163, 184, 0.22)" stroke-width="1"></rect><rect x="127" y="259" width="22" height="22" fill="rgb(0 0 0)" stroke="rgba(148, 163, 184, 0.22)" stroke-width="1"></rect><rect x="149" y="259" width="22" height="22" fill="rgb(23 23 23)" stroke="rgba(148, 163, 184, 0.22)" stroke-width="1"></rect><rect x="171" y="259" width="22" height="22" fill="rgb(81 81 81)" stroke="rgba(148, 163, 184, 0.22)" stroke-width="1"></rect><rect x="193" y="259" width="22" height="22" fill="rgb(168 168 168)" stroke="rgba(148, 163, 184, 0.22)" stroke-width="1"></rect><rect x="215" y="259" width="22" height="22" fill="rgb(229 229 229)" stroke="rgba(148, 163, 184, 0.22)" stroke-width="1"></rect><rect x="237" y="259" width="22" height="22" fill="rgb(254 254 254)" stroke="rgba(148, 163, 184, 0.22)" stroke-width="1"></rect><rect x="259" y="259" width="22" height="22" fill="rgb(255 255 255)" stroke="rgba(148, 163, 184, 0.22)" stroke-width="1"></rect><rect x="281" y="259" width="22" height="22" fill="rgb(254 254 254)" stroke="rgba(148, 163, 184, 0.22)" stroke-width="1"></rect><rect x="303" y="259" width="22" height="22" fill="rgb(229 229 229)" stroke="rgba(148, 163, 184, 0.22)" stroke-width="1"></rect><rect x="325" y="259" width="22" height="22" fill="rgb(168 168 168)" stroke="rgba(148, 163, 184, 0.22)" stroke-width="1"></rect><rect x="347" y="259" width="22" height="22" fill="rgb(81 81 81)" stroke="rgba(148, 163, 184, 0.22)" stroke-width="1"></rect><rect x="369" y="259" width="22" height="22" fill="rgb(23 23 23)" stroke="rgba(148, 163, 184, 0.22)" stroke-width="1"></rect><rect x="391" y="259" width="22" height="22" fill="rgb(0 0 0)" stroke="rgba(148, 163, 184, 0.22)" stroke-width="1"></rect><rect x="413" y="259" width="22" height="22" fill="rgb(0 0 0)" stroke="rgba(148, 163, 184, 0.22)" stroke-width="1"></rect><rect x="435" y="259" width="22" height="22" fill="rgb(0 0 0)" stroke="rgba(148, 163, 184, 0.22)" stroke-width="1"></rect><rect x="83" y="281" width="22" height="22" fill="rgb(0 0 0)" stroke="rgba(148, 163, 184, 0.22)" stroke-width="1"></rect><rect x="105" y="281" width="22" height="22" fill="rgb(0 0 0)" stroke="rgba(148, 163, 184, 0.22)" stroke-width="1"></rect><rect x="127" y="281" width="22" height="22" fill="rgb(6 6 6)" stroke="rgba(148, 163, 184, 0.22)" stroke-width="1"></rect><rect x="149" y="281" width="22" height="22" fill="rgb(42 42 42)" stroke="rgba(148, 163, 184, 0.22)" stroke-width="1"></rect><rect x="171" y="281" width="22" height="22" fill="rgb(117 117 117)" stroke="rgba(148, 163, 184, 0.22)" stroke-width="1"></rect><rect x="193" y="281" width="22" height="22" fill="rgb(198 198 198)" stroke="rgba(148, 163, 184, 0.22)" stroke-width="1"></rect><rect x="215" y="281" width="22" height="22" fill="rgb(243 243 243)" stroke="rgba(148, 163, 184, 0.22)" stroke-width="1"></rect><rect x="237" y="281" width="22" height="22" fill="rgb(255 255 255)" stroke="rgba(148, 163, 184, 0.22)" stroke-width="1"></rect><rect x="259" y="281" width="22" height="22" fill="rgb(255 255 255)" stroke="rgba(148, 163, 184, 0.22)" stroke-width="1"></rect><rect x="281" y="281" width="22" height="22" fill="rgb(247 247 247)" stroke="rgba(148, 163, 184, 0.22)" stroke-width="1"></rect><rect x="303" y="281" width="22" height="22" fill="rgb(209 209 209)" stroke="rgba(148, 163, 184, 0.22)" stroke-width="1"></rect><rect x="325" y="281" width="22" height="22" fill="rgb(132 132 132)" stroke="rgba(148, 163, 184, 0.22)" stroke-width="1"></rect><rect x="347" y="281" width="22" height="22" fill="rgb(52 52 52)" stroke="rgba(148, 163, 184, 0.22)" stroke-width="1"></rect><rect x="369" y="281" width="22" height="22" fill="rgb(10 10 10)" stroke="rgba(148, 163, 184, 0.22)" stroke-width="1"></rect><rect x="391" y="281" width="22" height="22" fill="rgb(0 0 0)" stroke="rgba(148, 163, 184, 0.22)" stroke-width="1"></rect><rect x="413" y="281" width="22" height="22" fill="rgb(0 0 0)" stroke="rgba(148, 163, 184, 0.22)" stroke-width="1"></rect><rect x="435" y="281" width="22" height="22" fill="rgb(0 0 0)" stroke="rgba(148, 163, 184, 0.22)" stroke-width="1"></rect><rect x="83" y="303" width="22" height="22" fill="rgb(0 0 0)" stroke="rgba(148, 163, 184, 0.22)" stroke-width="1"></rect><rect x="105" y="303" width="22" height="22" fill="rgb(0 0 0)" stroke="rgba(148, 163, 184, 0.22)" stroke-width="1"></rect><rect x="127" y="303" width="22" height="22" fill="rgb(17 17 17)" stroke="rgba(148, 163, 184, 0.22)" stroke-width="1"></rect><rect x="149" y="303" width="22" height="22" fill="rgb(68 68 68)" stroke="rgba(148, 163, 184, 0.22)" stroke-width="1"></rect><rect x="171" y="303" width="22" height="22" fill="rgb(153 153 153)" stroke="rgba(148, 163, 184, 0.22)" stroke-width="1"></rect><rect x="193" y="303" width="22" height="22" fill="rgb(222 222 222)" stroke="rgba(148, 163, 184, 0.22)" stroke-width="1"></rect><rect x="215" y="303" width="22" height="22" fill="rgb(252 252 252)" stroke="rgba(148, 163, 184, 0.22)" stroke-width="1"></rect><rect x="237" y="303" width="22" height="22" fill="rgb(255 255 255)" stroke="rgba(148, 163, 184, 0.22)" stroke-width="1"></rect><rect x="259" y="303" width="22" height="22" fill="rgb(255 255 255)" stroke="rgba(148, 163, 184, 0.22)" stroke-width="1"></rect><rect x="281" y="303" width="22" height="22" fill="rgb(236 236 236)" stroke="rgba(148, 163, 184, 0.22)" stroke-width="1"></rect><rect x="303" y="303" width="22" height="22" fill="rgb(181 181 181)" stroke="rgba(148, 163, 184, 0.22)" stroke-width="1"></rect><rect x="325" y="303" width="22" height="22" fill="rgb(96 96 96)" stroke="rgba(148, 163, 184, 0.22)" stroke-width="1"></rect><rect x="347" y="303" width="22" height="22" fill="rgb(30 30 30)" stroke="rgba(148, 163, 184, 0.22)" stroke-width="1"></rect><rect x="369" y="303" width="22" height="22" fill="rgb(2 2 2)" stroke="rgba(148, 163, 184, 0.22)" stroke-width="1"></rect><rect x="391" y="303" width="22" height="22" fill="rgb(0 0 0)" stroke="rgba(148, 163, 184, 0.22)" stroke-width="1"></rect><rect x="413" y="303" width="22" height="22" fill="rgb(0 0 0)" stroke="rgba(148, 163, 184, 0.22)" stroke-width="1"></rect><rect x="435" y="303" width="22" height="22" fill="rgb(0 0 0)" stroke="rgba(148, 163, 184, 0.22)" stroke-width="1"></rect><rect x="83" y="325" width="22" height="22" fill="rgb(0 0 0)" stroke="rgba(148, 163, 184, 0.22)" stroke-width="1"></rect><rect x="105" y="325" width="22" height="22" fill="rgb(3 3 3)" stroke="rgba(148, 163, 184, 0.22)" stroke-width="1"></rect><rect x="127" y="325" width="22" height="22" fill="rgb(33 33 33)" stroke="rgba(148, 163, 184, 0.22)" stroke-width="1"></rect><rect x="149" y="325" width="22" height="22" fill="rgb(102 102 102)" stroke="rgba(148, 163, 184, 0.22)" stroke-width="1"></rect><rect x="171" y="325" width="22" height="22" fill="rgb(186 186 186)" stroke="rgba(148, 163, 184, 0.22)" stroke-width="1"></rect><rect x="193" y="325" width="22" height="22" fill="rgb(238 238 238)" stroke="rgba(148, 163, 184, 0.22)" stroke-width="1"></rect><rect x="215" y="325" width="22" height="22" fill="rgb(255 255 255)" stroke="rgba(148, 163, 184, 0.22)" stroke-width="1"></rect><rect x="237" y="325" width="22" height="22" fill="rgb(255 255 255)" stroke="rgba(148, 163, 184, 0.22)" stroke-width="1"></rect><rect x="259" y="325" width="22" height="22" fill="rgb(251 251 251)" stroke="rgba(148, 163, 184, 0.22)" stroke-width="1"></rect><rect x="281" y="325" width="22" height="22" fill="rgb(218 218 218)" stroke="rgba(148, 163, 184, 0.22)" stroke-width="1"></rect><rect x="303" y="325" width="22" height="22" fill="rgb(147 147 147)" stroke="rgba(148, 163, 184, 0.22)" stroke-width="1"></rect><rect x="325" y="325" width="22" height="22" fill="rgb(63 63 63)" stroke="rgba(148, 163, 184, 0.22)" stroke-width="1"></rect><rect x="347" y="325" width="22" height="22" fill="rgb(15 15 15)" stroke="rgba(148, 163, 184, 0.22)" stroke-width="1"></rect><rect x="369" y="325" width="22" height="22" fill="rgb(0 0 0)" stroke="rgba(148, 163, 184, 0.22)" stroke-width="1"></rect><rect x="391" y="325" width="22" height="22" fill="rgb(0 0 0)" stroke="rgba(148, 163, 184, 0.22)" stroke-width="1"></rect><rect x="413" y="325" width="22" height="22" fill="rgb(0 0 0)" stroke="rgba(148, 163, 184, 0.22)" stroke-width="1"></rect><rect x="435" y="325" width="22" height="22" fill="rgb(0 0 0)" stroke="rgba(148, 163, 184, 0.22)" stroke-width="1"></rect><rect x="83" y="347" width="22" height="22" fill="rgb(0 0 0)" stroke="rgba(148, 163, 184, 0.22)" stroke-width="1"></rect><rect x="105" y="347" width="22" height="22" fill="rgb(12 12 12)" stroke="rgba(148, 163, 184, 0.22)" stroke-width="1"></rect><rect x="127" y="347" width="22" height="22" fill="rgb(57 57 57)" stroke="rgba(148, 163, 184, 0.22)" stroke-width="1"></rect><rect x="149" y="347" width="22" height="22" fill="rgb(138 138 138)" stroke="rgba(148, 163, 184, 0.22)" stroke-width="1"></rect><rect x="171" y="347" width="22" height="22" fill="rgb(213 213 213)" stroke="rgba(148, 163, 184, 0.22)" stroke-width="1"></rect><rect x="193" y="347" width="22" height="22" fill="rgb(249 249 249)" stroke="rgba(148, 163, 184, 0.22)" stroke-width="1"></rect><rect x="215" y="347" width="22" height="22" fill="rgb(255 255 255)" stroke="rgba(148, 163, 184, 0.22)" stroke-width="1"></rect><rect x="237" y="347" width="22" height="22" fill="rgb(255 255 255)" stroke="rgba(148, 163, 184, 0.22)" stroke-width="1"></rect><rect x="259" y="347" width="22" height="22" fill="rgb(241 241 241)" stroke="rgba(148, 163, 184, 0.22)" stroke-width="1"></rect><rect x="281" y="347" width="22" height="22" fill="rgb(194 194 194)" stroke="rgba(148, 163, 184, 0.22)" stroke-width="1"></rect><rect x="303" y="347" width="22" height="22" fill="rgb(110 110 110)" stroke="rgba(148, 163, 184, 0.22)" stroke-width="1"></rect><rect x="325" y="347" width="22" height="22" fill="rgb(38 38 38)" stroke="rgba(148, 163, 184, 0.22)" stroke-width="1"></rect><rect x="347" y="347" width="22" height="22" fill="rgb(5 5 5)" stroke="rgba(148, 163, 184, 0.22)" stroke-width="1"></rect><rect x="369" y="347" width="22" height="22" fill="rgb(0 0 0)" stroke="rgba(148, 163, 184, 0.22)" stroke-width="1"></rect><rect x="391" y="347" width="22" height="22" fill="rgb(0 0 0)" stroke="rgba(148, 163, 184, 0.22)" stroke-width="1"></rect><rect x="413" y="347" width="22" height="22" fill="rgb(0 0 0)" stroke="rgba(148, 163, 184, 0.22)" stroke-width="1"></rect><rect x="435" y="347" width="22" height="22" fill="rgb(0 0 0)" stroke="rgba(148, 163, 184, 0.22)" stroke-width="1"></rect><rect x="83" y="369" width="22" height="22" fill="rgb(1 1 1)" stroke="rgba(148, 163, 184, 0.22)" stroke-width="1"></rect><rect x="105" y="369" width="22" height="22" fill="rgb(26 26 26)" stroke="rgba(148, 163, 184, 0.22)" stroke-width="1"></rect><rect x="127" y="369" width="22" height="22" fill="rgb(87 87 87)" stroke="rgba(148, 163, 184, 0.22)" stroke-width="1"></rect><rect x="149" y="369" width="22" height="22" fill="rgb(173 173 173)" stroke="rgba(148, 163, 184, 0.22)" stroke-width="1"></rect><rect x="171" y="369" width="22" height="22" fill="rgb(232 232 232)" stroke="rgba(148, 163, 184, 0.22)" stroke-width="1"></rect><rect x="193" y="369" width="22" height="22" fill="rgb(255 255 255)" stroke="rgba(148, 163, 184, 0.22)" stroke-width="1"></rect><rect x="215" y="369" width="22" height="22" fill="rgb(255 255 255)" stroke="rgba(148, 163, 184, 0.22)" stroke-width="1"></rect><rect x="237" y="369" width="22" height="22" fill="rgb(253 253 253)" stroke="rgba(148, 163, 184, 0.22)" stroke-width="1"></rect><rect x="259" y="369" width="22" height="22" fill="rgb(226 226 226)" stroke="rgba(148, 163, 184, 0.22)" stroke-width="1"></rect><rect x="281" y="369" width="22" height="22" fill="rgb(162 162 162)" stroke="rgba(148, 163, 184, 0.22)" stroke-width="1"></rect><rect x="303" y="369" width="22" height="22" fill="rgb(76 76 76)" stroke="rgba(148, 163, 184, 0.22)" stroke-width="1"></rect><rect x="325" y="369" width="22" height="22" fill="rgb(20 20 20)" stroke="rgba(148, 163, 184, 0.22)" stroke-width="1"></rect><rect x="347" y="369" width="22" height="22" fill="rgb(0 0 0)" stroke="rgba(148, 163, 184, 0.22)" stroke-width="1"></rect><rect x="369" y="369" width="22" height="22" fill="rgb(0 0 0)" stroke="rgba(148, 163, 184, 0.22)" stroke-width="1"></rect><rect x="391" y="369" width="22" height="22" fill="rgb(0 0 0)" stroke="rgba(148, 163, 184, 0.22)" stroke-width="1"></rect><rect x="413" y="369" width="22" height="22" fill="rgb(0 0 0)" stroke="rgba(148, 163, 184, 0.22)" stroke-width="1"></rect><rect x="435" y="369" width="22" height="22" fill="rgb(0 0 0)" stroke="rgba(148, 163, 184, 0.22)" stroke-width="1"></rect><rect x="83" y="391" width="22" height="22" fill="rgb(8 8 8)" stroke="rgba(148, 163, 184, 0.22)" stroke-width="1"></rect><rect x="105" y="391" width="22" height="22" fill="rgb(46 46 46)" stroke="rgba(148, 163, 184, 0.22)" stroke-width="1"></rect><rect x="127" y="391" width="22" height="22" fill="rgb(123 123 123)" stroke="rgba(148, 163, 184, 0.22)" stroke-width="1"></rect><rect x="149" y="391" width="22" height="22" fill="rgb(203 203 203)" stroke="rgba(148, 163, 184, 0.22)" stroke-width="1"></rect><rect x="171" y="391" width="22" height="22" fill="rgb(245 245 245)" stroke="rgba(148, 163, 184, 0.22)" stroke-width="1"></rect><rect x="193" y="391" width="22" height="22" fill="rgb(255 255 255)" stroke="rgba(148, 163, 184, 0.22)" stroke-width="1"></rect><rect x="215" y="391" width="22" height="22" fill="rgb(255 255 255)" stroke="rgba(148, 163, 184, 0.22)" stroke-width="1"></rect><rect x="237" y="391" width="22" height="22" fill="rgb(246 246 246)" stroke="rgba(148, 163, 184, 0.22)" stroke-width="1"></rect><rect x="259" y="391" width="22" height="22" fill="rgb(205 205 205)" stroke="rgba(148, 163, 184, 0.22)" stroke-width="1"></rect><rect x="281" y="391" width="22" height="22" fill="rgb(126 126 126)" stroke="rgba(148, 163, 184, 0.22)" stroke-width="1"></rect><rect x="303" y="391" width="22" height="22" fill="rgb(48 48 48)" stroke="rgba(148, 163, 184, 0.22)" stroke-width="1"></rect><rect x="325" y="391" width="22" height="22" fill="rgb(8 8 8)" stroke="rgba(148, 163, 184, 0.22)" stroke-width="1"></rect><rect x="347" y="391" width="22" height="22" fill="rgb(0 0 0)" stroke="rgba(148, 163, 184, 0.22)" stroke-width="1"></rect><rect x="369" y="391" width="22" height="22" fill="rgb(0 0 0)" stroke="rgba(148, 163, 184, 0.22)" stroke-width="1"></rect><rect x="391" y="391" width="22" height="22" fill="rgb(0 0 0)" stroke="rgba(148, 163, 184, 0.22)" stroke-width="1"></rect><rect x="413" y="391" width="22" height="22" fill="rgb(0 0 0)" stroke="rgba(148, 163, 184, 0.22)" stroke-width="1"></rect><rect x="435" y="391" width="22" height="22" fill="rgb(0 0 0)" stroke="rgba(148, 163, 184, 0.22)" stroke-width="1"></rect><rect x="83" y="413" width="22" height="22" fill="rgb(19 19 19)" stroke="rgba(148, 163, 184, 0.22)" stroke-width="1"></rect><rect x="105" y="413" width="22" height="22" fill="rgb(74 74 74)" stroke="rgba(148, 163, 184, 0.22)" stroke-width="1"></rect><rect x="127" y="413" width="22" height="22" fill="rgb(159 159 159)" stroke="rgba(148, 163, 184, 0.22)" stroke-width="1"></rect><rect x="149" y="413" width="22" height="22" fill="rgb(225 225 225)" stroke="rgba(148, 163, 184, 0.22)" stroke-width="1"></rect><rect x="171" y="413" width="22" height="22" fill="rgb(253 253 253)" stroke="rgba(148, 163, 184, 0.22)" stroke-width="1"></rect><rect x="193" y="413" width="22" height="22" fill="rgb(255 255 255)" stroke="rgba(148, 163, 184, 0.22)" stroke-width="1"></rect><rect x="215" y="413" width="22" height="22" fill="rgb(255 255 255)" stroke="rgba(148, 163, 184, 0.22)" stroke-width="1"></rect><rect x="237" y="413" width="22" height="22" fill="rgb(233 233 233)" stroke="rgba(148, 163, 184, 0.22)" stroke-width="1"></rect><rect x="259" y="413" width="22" height="22" fill="rgb(176 176 176)" stroke="rgba(148, 163, 184, 0.22)" stroke-width="1"></rect><rect x="281" y="413" width="22" height="22" fill="rgb(90 90 90)" stroke="rgba(148, 163, 184, 0.22)" stroke-width="1"></rect><rect x="303" y="413" width="22" height="22" fill="rgb(27 27 27)" stroke="rgba(148, 163, 184, 0.22)" stroke-width="1"></rect><rect x="325" y="413" width="22" height="22" fill="rgb(1 1 1)" stroke="rgba(148, 163, 184, 0.22)" stroke-width="1"></rect><rect x="347" y="413" width="22" height="22" fill="rgb(0 0 0)" stroke="rgba(148, 163, 184, 0.22)" stroke-width="1"></rect><rect x="369" y="413" width="22" height="22" fill="rgb(0 0 0)" stroke="rgba(148, 163, 184, 0.22)" stroke-width="1"></rect><rect x="391" y="413" width="22" height="22" fill="rgb(0 0 0)" stroke="rgba(148, 163, 184, 0.22)" stroke-width="1"></rect><rect x="413" y="413" width="22" height="22" fill="rgb(0 0 0)" stroke="rgba(148, 163, 184, 0.22)" stroke-width="1"></rect><rect x="435" y="413" width="22" height="22" fill="rgb(0 0 0)" stroke="rgba(148, 163, 184, 0.22)" stroke-width="1"></rect><rect x="83" y="435" width="22" height="22" fill="rgb(37 37 37)" stroke="rgba(148, 163, 184, 0.22)" stroke-width="1"></rect><rect x="105" y="435" width="22" height="22" fill="rgb(108 108 108)" stroke="rgba(148, 163, 184, 0.22)" stroke-width="1"></rect><rect x="127" y="435" width="22" height="22" fill="rgb(192 192 192)" stroke="rgba(148, 163, 184, 0.22)" stroke-width="1"></rect><rect x="149" y="435" width="22" height="22" fill="rgb(240 240 240)" stroke="rgba(148, 163, 184, 0.22)" stroke-width="1"></rect><rect x="171" y="435" width="22" height="22" fill="rgb(255 255 255)" stroke="rgba(148, 163, 184, 0.22)" stroke-width="1"></rect><rect x="193" y="435" width="22" height="22" fill="rgb(255 255 255)" stroke="rgba(148, 163, 184, 0.22)" stroke-width="1"></rect><rect x="215" y="435" width="22" height="22" fill="rgb(249 249 249)" stroke="rgba(148, 163, 184, 0.22)" stroke-width="1"></rect><rect x="237" y="435" width="22" height="22" fill="rgb(215 215 215)" stroke="rgba(148, 163, 184, 0.22)" stroke-width="1"></rect><rect x="259" y="435" width="22" height="22" fill="rgb(141 141 141)" stroke="rgba(148, 163, 184, 0.22)" stroke-width="1"></rect><rect x="281" y="435" width="22" height="22" fill="rgb(58 58 58)" stroke="rgba(148, 163, 184, 0.22)" stroke-width="1"></rect><rect x="303" y="435" width="22" height="22" fill="rgb(13 13 13)" stroke="rgba(148, 163, 184, 0.22)" stroke-width="1"></rect><rect x="325" y="435" width="22" height="22" fill="rgb(0 0 0)" stroke="rgba(148, 163, 184, 0.22)" stroke-width="1"></rect><rect x="347" y="435" width="22" height="22" fill="rgb(0 0 0)" stroke="rgba(148, 163, 184, 0.22)" stroke-width="1"></rect><rect x="369" y="435" width="22" height="22" fill="rgb(0 0 0)" stroke="rgba(148, 163, 184, 0.22)" stroke-width="1"></rect><rect x="391" y="435" width="22" height="22" fill="rgb(0 0 0)" stroke="rgba(148, 163, 184, 0.22)" stroke-width="1"></rect><rect x="413" y="435" width="22" height="22" fill="rgb(0 0 0)" stroke="rgba(148, 163, 184, 0.22)" stroke-width="1"></rect><rect x="435" y="435" width="22" height="22" fill="rgb(0 0 0)" stroke="rgba(148, 163, 184, 0.22)" stroke-width="1"></rect></g><circle cx="270" cy="270" r="132" fill="none" stroke="currentColor" stroke-width="1.5" stroke-opacity="0.45" stroke-dasharray="5 7" aria-hidden="true"></circle><g aria-hidden="true"><line x1="270" y1="138" x2="270" y2="402" stroke="#b91c1c" stroke-opacity="0.55" stroke-width="1.8" stroke-dasharray="4 6" stroke-linecap="round"></line><line x1="320.51421307219186" y1="148.04790170851015" x2="219.48578692780814" y2="391.95209829148985" stroke="#b91c1c" stroke-opacity="0.55" stroke-width="1.8" stroke-dasharray="4 6" stroke-linecap="round"></line><line x1="363.3380951166243" y1="176.66190488337574" x2="176.66190488337574" y2="363.3380951166243" stroke="#b91c1c" stroke-opacity="0.55" stroke-width="1.8" stroke-dasharray="4 6" stroke-linecap="round"></line><line x1="391.95209829148985" y1="219.48578692780814" x2="148.04790170851018" y2="320.5142130721919" stroke="#b91c1c" stroke-opacity="0.55" stroke-width="1.8" stroke-dasharray="4 6" stroke-linecap="round"></line><line x1="402" y1="270" x2="138" y2="270" stroke="#b91c1c" stroke-opacity="0.55" stroke-width="1.8" stroke-dasharray="4 6" stroke-linecap="round"></line><line x1="391.95209829148985" y1="320.51421307219186" x2="148.04790170851015" y2="219.4857869278081" stroke="#b91c1c" stroke-opacity="0.55" stroke-width="1.8" stroke-dasharray="4 6" stroke-linecap="round"></line><line x1="363.3380951166243" y1="363.33809511662423" x2="176.6619048833757" y2="176.66190488337574" stroke="#b91c1c" stroke-opacity="0.55" stroke-width="1.8" stroke-dasharray="4 6" stroke-linecap="round"></line><line x1="320.51421307219186" y1="391.95209829148985" x2="219.48578692780808" y2="148.04790170851018" stroke="#b91c1c" stroke-opacity="0.55" stroke-width="1.8" stroke-dasharray="4 6" stroke-linecap="round"></line></g><g aria-hidden="true"><g><circle cx="270" cy="138" r="9" fill="rgb(205 205 205)" stroke="#f8fafc" stroke-width="2.5"></circle><circle cx="270" cy="138" r="10.5" fill="none" stroke="currentColor" stroke-width="1" stroke-opacity="0.45"></circle><text x="270" y="114" font-size="11" font-family="Geist Mono, SFMono-Regular, Menlo, Consolas, monospace" text-anchor="middle" fill="currentColor">I0</text></g><g><circle cx="320.51421307219186" cy="148.04790170851015" r="9" fill="rgb(255 255 255)" stroke="#f8fafc" stroke-width="2.5"></circle><circle cx="320.51421307219186" cy="148.04790170851015" r="10.5" fill="none" stroke="currentColor" stroke-width="1" stroke-opacity="0.45"></circle><text x="331.2293491784144" y="126.17927479819411" font-size="11" font-family="Geist Mono, SFMono-Regular, Menlo, Consolas, monospace" text-anchor="middle" fill="currentColor">I1</text></g><g><circle cx="363.3380951166243" cy="176.66190488337574" r="9" fill="rgb(205 205 205)" stroke="#f8fafc" stroke-width="2.5"></circle><circle cx="363.3380951166243" cy="176.66190488337574" r="10.5" fill="none" stroke="currentColor" stroke-width="1" stroke-opacity="0.45"></circle><text x="383.1370849898476" y="160.8629150101524" font-size="11" font-family="Geist Mono, SFMono-Regular, Menlo, Consolas, monospace" text-anchor="middle" fill="currentColor">I2</text></g><g><circle cx="391.95209829148985" cy="219.48578692780814" r="9" fill="rgb(42 42 42)" stroke="#f8fafc" stroke-width="2.5"></circle><circle cx="391.95209829148985" cy="219.48578692780814" r="10.5" fill="none" stroke="currentColor" stroke-width="1" stroke-opacity="0.45"></circle><text x="417.8207252018059" y="212.77065082158563" font-size="11" font-family="Geist Mono, SFMono-Regular, Menlo, Consolas, monospace" text-anchor="middle" fill="currentColor">I3</text></g><g><circle cx="402" cy="270" r="9" fill="rgb(0 0 0)" stroke="#f8fafc" stroke-width="2.5"></circle><circle cx="402" cy="270" r="10.5" fill="none" stroke="currentColor" stroke-width="1" stroke-opacity="0.45"></circle><text x="430" y="274" font-size="11" font-family="Geist Mono, SFMono-Regular, Menlo, Consolas, monospace" text-anchor="middle" fill="currentColor">I4</text></g><g><circle cx="391.95209829148985" cy="320.51421307219186" r="9" fill="rgb(0 0 0)" stroke="#f8fafc" stroke-width="2.5"></circle><circle cx="391.95209829148985" cy="320.51421307219186" r="10.5" fill="none" stroke="currentColor" stroke-width="1" stroke-opacity="0.45"></circle><text x="417.8207252018059" y="335.2293491784144" font-size="11" font-family="Geist Mono, SFMono-Regular, Menlo, Consolas, monospace" text-anchor="middle" fill="currentColor">I5</text></g><g><circle cx="363.3380951166243" cy="363.33809511662423" r="9" fill="rgb(0 0 0)" stroke="#f8fafc" stroke-width="2.5"></circle><circle cx="363.3380951166243" cy="363.33809511662423" r="10.5" fill="none" stroke="currentColor" stroke-width="1" stroke-opacity="0.45"></circle><text x="383.1370849898476" y="387.1370849898476" font-size="11" font-family="Geist Mono, SFMono-Regular, Menlo, Consolas, monospace" text-anchor="middle" fill="currentColor">I6</text></g><g><circle cx="320.51421307219186" cy="391.95209829148985" r="9" fill="rgb(42 42 42)" stroke="#f8fafc" stroke-width="2.5"></circle><circle cx="320.51421307219186" cy="391.95209829148985" r="10.5" fill="none" stroke="currentColor" stroke-width="1" stroke-opacity="0.45"></circle><text x="331.2293491784144" y="421.8207252018059" font-size="11" font-family="Geist Mono, SFMono-Regular, Menlo, Consolas, monospace" text-anchor="middle" fill="currentColor">I7</text></g><g><circle cx="270" cy="402" r="9" fill="rgb(205 205 205)" stroke="#f8fafc" stroke-width="2.5"></circle><circle cx="270" cy="402" r="10.5" fill="none" stroke="currentColor" stroke-width="1" stroke-opacity="0.45"></circle><text x="270" y="434" font-size="11" font-family="Geist Mono, SFMono-Regular, Menlo, Consolas, monospace" text-anchor="middle" fill="currentColor">I8</text></g><g><circle cx="219.48578692780814" cy="391.95209829148985" r="9" fill="rgb(255 255 255)" stroke="#f8fafc" stroke-width="2.5"></circle><circle cx="219.48578692780814" cy="391.95209829148985" r="10.5" fill="none" stroke="currentColor" stroke-width="1" stroke-opacity="0.45"></circle><text x="208.77065082158566" y="421.8207252018059" font-size="11" font-family="Geist Mono, SFMono-Regular, Menlo, Consolas, monospace" text-anchor="middle" fill="currentColor">I9</text></g><g><circle cx="176.66190488337574" cy="363.3380951166243" r="9" fill="rgb(205 205 205)" stroke="#f8fafc" stroke-width="2.5"></circle><circle cx="176.66190488337574" cy="363.3380951166243" r="10.5" fill="none" stroke="currentColor" stroke-width="1" stroke-opacity="0.45"></circle><text x="156.8629150101524" y="387.1370849898476" font-size="11" font-family="Geist Mono, SFMono-Regular, Menlo, Consolas, monospace" text-anchor="middle" fill="currentColor">I10</text></g><g><circle cx="148.04790170851018" cy="320.5142130721919" r="9" fill="rgb(42 42 42)" stroke="#f8fafc" stroke-width="2.5"></circle><circle cx="148.04790170851018" cy="320.5142130721919" r="10.5" fill="none" stroke="currentColor" stroke-width="1" stroke-opacity="0.45"></circle><text x="122.17927479819417" y="335.22934917841445" font-size="11" font-family="Geist Mono, SFMono-Regular, Menlo, Consolas, monospace" text-anchor="middle" fill="currentColor">I11</text></g><g><circle cx="138" cy="270" r="9" fill="rgb(0 0 0)" stroke="#f8fafc" stroke-width="2.5"></circle><circle cx="138" cy="270" r="10.5" fill="none" stroke="currentColor" stroke-width="1" stroke-opacity="0.45"></circle><text x="110" y="274" font-size="11" font-family="Geist Mono, SFMono-Regular, Menlo, Consolas, monospace" text-anchor="middle" fill="currentColor">I12</text></g><g><circle cx="148.04790170851015" cy="219.4857869278081" r="9" fill="rgb(0 0 0)" stroke="#f8fafc" stroke-width="2.5"></circle><circle cx="148.04790170851015" cy="219.4857869278081" r="10.5" fill="none" stroke="currentColor" stroke-width="1" stroke-opacity="0.45"></circle><text x="122.17927479819414" y="212.7706508215856" font-size="11" font-family="Geist Mono, SFMono-Regular, Menlo, Consolas, monospace" text-anchor="middle" fill="currentColor">I13</text></g><g><circle cx="176.6619048833757" cy="176.66190488337574" r="9" fill="rgb(0 0 0)" stroke="#f8fafc" stroke-width="2.5"></circle><circle cx="176.6619048833757" cy="176.66190488337574" r="10.5" fill="none" stroke="currentColor" stroke-width="1" stroke-opacity="0.45"></circle><text x="156.86291501015236" y="160.8629150101524" font-size="11" font-family="Geist Mono, SFMono-Regular, Menlo, Consolas, monospace" text-anchor="middle" fill="currentColor">I14</text></g><g><circle cx="219.48578692780808" cy="148.04790170851018" r="9" fill="rgb(42 42 42)" stroke="#f8fafc" stroke-width="2.5"></circle><circle cx="219.48578692780808" cy="148.04790170851018" r="10.5" fill="none" stroke="currentColor" stroke-width="1" stroke-opacity="0.45"></circle><text x="208.77065082158555" y="126.17927479819417" font-size="11" font-family="Geist Mono, SFMono-Regular, Menlo, Consolas, monospace" text-anchor="middle" fill="currentColor">I15</text></g></g><circle cx="270" cy="270" r="5" fill="#ffffff" stroke="currentColor" stroke-width="1.5" stroke-opacity="0.75" aria-hidden="true"></circle></svg>
