<?xml version="1.0" encoding="UTF-8"?>
<svg xmlns="http://www.w3.org/2000/svg" viewBox="0 0 420 420" class="h-auto w-full text-foreground" style="color:#1e293b" width="540" height="540" role="img" aria-label="ChESS detector response illustration for the Stripe case at 22.5 degrees."><g aria-hidden="true"><rect x="23" y="23" width="22" height="22" fill="rgb(0 0 0)" stroke="rgba(148, 163, 184, 0.22)" stroke-width="1"></rect><rect x="45" y="23" width="22" height="22" fill="rgb(0 0 0)" stroke="rgba(148, 163, 184, 0.22)" stroke-width="1"></rect><rect x="67" y="23" width="22" height="22" fill="rgb(0 0 0)" stroke="rgba(148, 163, 184, 0.22)" stroke-width="1"></rect><rect x="89" y="23" width="22" height="22" fill="rgb(0 0 0)" stroke="rgba(148, 163, 184, 0.22)" stroke-width="1"></rect><rect x="111" y="23" width="22" height="22" fill="rgb(0 0 0)" stroke="rgba(148, 163, 184, 0.22)" stroke-width="1"></rect><rect x="133" y="23" width="22" height="22" fill="rgb(0 0 0)" stroke="rgba(148, 163, 184, 0.22)" stroke-width="1"></rect><rect x="155" y="23" width="22" height="22" fill="rgb(13 13 13)" stroke="rgba(148, 163, 184, 0.22)" stroke-width="1"></rect><rect x="177" y="23" width="22" height="22" fill="rgb(58 58 58)" stroke="rgba(148, 163, 184, 0.22)" stroke-width="1"></rect><rect x="199" y="23" width="22" height="22" fill="rgb(141 141 141)" stroke="rgba(148, 163, 184, 0.22)" stroke-width="1"></rect><rect x="221" y="23" width="22" height="22" fill="rgb(215 215 215)" stroke="rgba(148, 163, 184, 0.22)" stroke-width="1"></rect><rect x="243" y="23" width="22" height="22" fill="rgb(249 249 249)" stroke="rgba(148, 163, 184, 0.22)" stroke-width="1"></rect><rect x="265" y="23" width="22" height="22" fill="rgb(255 255 255)" stroke="rgba(148, 163, 184, 0.22)" stroke-width="1"></rect><rect x="287" y="23" width="22" height="22" fill="rgb(255 255 255)" stroke="rgba(148, 163, 184, 0.22)" stroke-width="1"></rect><rect x="309" y="23" width="22" height="22" fill="rgb(240 240 240)" stroke="rgba(148, 163, 184, 0.22)" stroke-width="1"></rect><rect x="331" y="23" width="22" height="22" fill="rgb(192 192 192)" stroke="rgba(148, 163, 184, 0.22)" stroke-width="1"></rect><rect x="353" y="23" width="22" height="22" fill="rgb(108 108 108)" stroke="rgba(148, 163, 184, 0.22)" stroke-width="1"></rect><rect x="375" y="23" width="22" height="22" fill="rgb(37 37 37)" stroke="rgba(148, 163, 184, 0.22)" stroke-width="1"></rect><rect x="23" y="45" width="22" height="22" fill="rgb(0 0 0)" stroke="rgba(148, 163, 184, 0.22)" stroke-width="1"></rect><rect x="45" y="45" width="22" height="22" fill="rgb(0 0 0)" stroke="rgba(148, 163, 184, 0.22)" stroke-width="1"></rect><rect x="67" y="45" width="22" height="22" fill="rgb(0 0 0)" stroke="rgba(148, 163, 184, 0.22)" stroke-width="1"></rect><rect x="89" y="45" width="22" height="22" fill="rgb(0 0 0)" stroke="rgba(148, 163, 184, 0.22)" stroke-width="1"></rect><rect x="111" y="45" width="22" height="22" fill="rgb(0 0 0)" stroke="rgba(148, 163, 184, 0.22)" stroke-width="1"></rect><rect x="133" y="45" width="22" height="22" fill="rgb(1 1 1)" stroke="rgba(148, 163, 184, 0.22)" stroke-width="1"></rect><rect x="155" y="45" width="22" height="22" fill="rgb(27 27 27)" stroke="rgba(148, 163, 184, 0.22)" stroke-width="1"></rect><rect x="177" y="45" width="22" height="22" fill="rgb(90 90 90)" stroke="rgba(148, 163, 184, 0.22)" stroke-width="1"></rect><rect x="199" y="45" width="22" height="22" fill="rgb(176 176 176)" stroke="rgba(148, 163, 184, 0.22)" stroke-width="1"></rect><rect x="221" y="45" width="22" height="22" fill="rgb(233 233 233)" stroke="rgba(148, 163, 184, 0.22)" stroke-width="1"></rect><rect x="243" y="45" width="22" height="22" fill="rgb(255 255 255)" stroke="rgba(148, 163, 184, 0.22)" stroke-width="1"></rect><rect x="265" y="45" width="22" height="22" fill="rgb(255 255 255)" stroke="rgba(148, 163, 184, 0.22)" stroke-width="1"></rect><rect x="287" y="45" width="22" height="22" fill="rgb(253 253 253)" stroke="rgba(148, 163, 184, 0.22)" stroke-width="1"></rect><rect x="309" y="45" width="22" height="22" fill="rgb(225 225 225)" stroke="rgba(148, 163, 184, 0.22)" stroke-width="1"></rect><rect x="331" y="45" width="22" height="22" fill="rgb(159 159 159)" stroke="rgba(148, 163, 184, 0.22)" stroke-width="1"></rect><rect x="353" y="45" width="22" height="22" fill="rgb(74 74 74)" stroke="rgba(148, 163, 184, 0.22)" stroke-width="1"></rect><rect x="375" y="45" width="22" height="22" fill="rgb(19 19 19)" stroke="rgba(148, 163, 184, 0.22)" stroke-width="1"></rect><rect x="23" y="67" width="22" height="22" fill="rgb(0 0 0)" stroke="rgba(148, 163, 184, 0.22)" stroke-width="1"></rect><rect x="45" y="67" width="22" height="22" fill="rgb(0 0 0)" stroke="rgba(148, 163, 184, 0.22)" stroke-width="1"></rect><rect x="67" y="67" width="22" height="22" fill="rgb(0 0 0)" stroke="rgba(148, 163, 184, 0.22)" stroke-width="1"></rect><rect x="89" y="67" width="22" height="22" fill="rgb(0 0 0)" stroke="rgba(148, 163, 184, 0.22)" stroke-width="1"></rect><rect x="111" y="67" width="22" height="22" fill="rgb(0 0 0)" stroke="rgba(148, 163, 184, 0.22)" stroke-width="1"></rect><rect x="133" y="67" width="22" height="22" fill="rgb(8 8 8)" stroke="rgba(148, 163, 184, 0.22)" stroke-width="1"></rect><rect x="155" y="67" width="22" height="22" fill="rgb(48 48 48)" stroke="rgba(148, 163, 184, 0.22)" stroke-width="1"></rect><rect x="177" y="67" width="22" height="22" fill="rgb(126 126 126)" stroke="rgba(148, 163, 184, 0.22)" stroke-width="1"></rect><rect x="199" y="67" width="22" height="22" fill="rgb(205 205 205)" stroke="rgba(148, 163, 184, 0.22)" stroke-width="1"></rect><rect x="221" y="67" width="22" height="22" fill="rgb(246 246 246)" stroke="rgba(148, 163, 184, 0.22)" stroke-width="1"></rect><rect x="243" y="67" width="22" height="22" fill="rgb(255 255 255)" stroke="rgba(148, 163, 184, 0.22)" stroke-width="1"></rect><rect x="265" y="67" width="22" height="22" fill="rgb(255 255 255)" stroke="rgba(148, 163, 184, 0.22)" stroke-width="1"></rect><rect x="287" y="67" width="22" height="22" fill="rgb(245 245 245)" stroke="rgba(148, 163, 184, 0.22)" stroke-width="1"></rect><rect x="309" y="67" width="22" height="22" fill="rgb(203 203 203)" stroke="rgba(148, 163, 184, 0.22)" stroke-width="1"></rect><rect x="331" y="67" width="22" height="22" fill="rgb(123 123 123)" stroke="rgba(148, 163, 184, 0.22)" stroke-width="1"></rect><rect x="353" y="67" width="22" height="22" fill="rgb(46 46 46)" stroke="rgba(148, 163, 184, 0.22)" stroke-width="1"></rect><rect x="375" y="67" width="22" height="22" fill="rgb(8 8 8)" stroke="rgba(148, 163, 184, 0.22)" stroke-width="1"></rect><rect x="23" y="89" width="22" height="22" fill="rgb(0 0 0)" stroke="rgba(148, 163, 184, 0.22)" stroke-width="1"></rect><rect x="45" y="89" width="22" height="22" fill="rgb(0 0 0)" stroke="rgba(148, 163, 184, 0.22)" stroke-width="1"></rect><rect x="67" y="89" width="22" height="22" fill="rgb(0 0 0)" stroke="rgba(148, 163, 184, 0.22)" stroke-width="1"></rect><rect x="89" y="89" width="22" height="22" fill="rgb(0 0 0)" stroke="rgba(148, 163, 184, 0.22)" stroke-width="1"></rect><rect x="111" y="89" width="22" height="22" fill="rgb(0 0 0)" stroke="rgba(148, 163, 184, 0.22)" stroke-width="1"></rect><rect x="133" y="89" width="22" height="22" fill="rgb(20 20 20)" stroke="rgba(148, 163, 184, 0.22)" stroke-width="1"></rect><rect x="155" y="89" width="22" height="22" fill="rgb(76 76 76)" stroke="rgba(148, 163, 184, 0.22)" stroke-width="1"></rect><rect x="177" y="89" width="22" height="22" fill="rgb(162 162 162)" stroke="rgba(148, 163, 184, 0.22)" stroke-width="1"></rect><rect x="199" y="89" width="22" height="22" fill="rgb(226 226 226)" stroke="rgba(148, 163, 184, 0.22)" stroke-width="1"></rect><rect x="221" y="89" width="22" height="22" fill="rgb(253 253 253)" stroke="rgba(148, 163, 184, 0.22)" stroke-width="1"></rect><rect x="243" y="89" width="22" height="22" fill="rgb(255 255 255)" stroke="rgba(148, 163, 184, 0.22)" stroke-width="1"></rect><rect x="265" y="89" width="22" height="22" fill="rgb(255 255 255)" stroke="rgba(148, 163, 184, 0.22)" stroke-width="1"></rect><rect x="287" y="89" width="22" height="22" fill="rgb(232 232 232)" stroke="rgba(148, 163, 184, 0.22)" stroke-width="1"></rect><rect x="309" y="89" width="22" height="22" fill="rgb(173 173 173)" stroke="rgba(148, 163, 184, 0.22)" stroke-width="1"></rect><rect x="331" y="89" width="22" height="22" fill="rgb(87 87 87)" stroke="rgba(148, 163, 184, 0.22)" stroke-width="1"></rect><rect x="353" y="89" width="22" height="22" fill="rgb(26 26 26)" stroke="rgba(148, 163, 184, 0.22)" stroke-width="1"></rect><rect x="375" y="89" width="22" height="22" fill="rgb(1 1 1)" stroke="rgba(148, 163, 184, 0.22)" stroke-width="1"></rect><rect x="23" y="111" width="22" height="22" fill="rgb(0 0 0)" stroke="rgba(148, 163, 184, 0.22)" stroke-width="1"></rect><rect x="45" y="111" width="22" height="22" fill="rgb(0 0 0)" stroke="rgba(148, 163, 184, 0.22)" stroke-width="1"></rect><rect x="67" y="111" width="22" height="22" fill="rgb(0 0 0)" stroke="rgba(148, 163, 184, 0.22)" stroke-width="1"></rect><rect x="89" y="111" width="22" height="22" fill="rgb(0 0 0)" stroke="rgba(148, 163, 184, 0.22)" stroke-width="1"></rect><rect x="111" y="111" width="22" height="22" fill="rgb(5 5 5)" stroke="rgba(148, 163, 184, 0.22)" stroke-width="1"></rect><rect x="133" y="111" width="22" height="22" fill="rgb(38 38 38)" stroke="rgba(148, 163, 184, 0.22)" stroke-width="1"></rect><rect x="155" y="111" width="22" height="22" fill="rgb(110 110 110)" stroke="rgba(148, 163, 184, 0.22)" stroke-width="1"></rect><rect x="177" y="111" width="22" height="22" fill="rgb(194 194 194)" stroke="rgba(148, 163, 184, 0.22)" stroke-width="1"></rect><rect x="199" y="111" width="22" height="22" fill="rgb(241 241 241)" stroke="rgba(148, 163, 184, 0.22)" stroke-width="1"></rect><rect x="221" y="111" width="22" height="22" fill="rgb(255 255 255)" stroke="rgba(148, 163, 184, 0.22)" stroke-width="1"></rect><rect x="243" y="111" width="22" height="22" fill="rgb(255 255 255)" stroke="rgba(148, 163, 184, 0.22)" stroke-width="1"></rect><rect x="265" y="111" width="22" height="22" fill="rgb(249 249 249)" stroke="rgba(148, 163, 184, 0.22)" stroke-width="1"></rect><rect x="287" y="111" width="22" height="22" fill="rgb(213 213 213)" stroke="rgba(148, 163, 184, 0.22)" stroke-width="1"></rect><rect x="309" y="111" width="22" height="22" fill="rgb(138 138 138)" stroke="rgba(148, 163, 184, 0.22)" stroke-width="1"></rect><rect x="331" y="111" width="22" height="22" fill="rgb(57 57 57)" stroke="rgba(148, 163, 184, 0.22)" stroke-width="1"></rect><rect x="353" y="111" width="22" height="22" fill="rgb(12 12 12)" stroke="rgba(148, 163, 184, 0.22)" stroke-width="1"></rect><rect x="375" y="111" width="22" height="22" fill="rgb(0 0 0)" stroke="rgba(148, 163, 184, 0.22)" stroke-width="1"></rect><rect x="23" y="133" width="22" height="22" fill="rgb(0 0 0)" stroke="rgba(148, 163, 184, 0.22)" stroke-width="1"></rect><rect x="45" y="133" width="22" height="22" fill="rgb(0 0 0)" stroke="rgba(148, 163, 184, 0.22)" stroke-width="1"></rect><rect x="67" y="133" width="22" height="22" fill="rgb(0 0 0)" stroke="rgba(148, 163, 184, 0.22)" stroke-width="1"></rect><rect x="89" y="133" width="22" height="22" fill="rgb(0 0 0)" stroke="rgba(148, 163, 184, 0.22)" stroke-width="1"></rect><rect x="111" y="133" width="22" height="22" fill="rgb(15 15 15)" stroke="rgba(148, 163, 184, 0.22)" stroke-width="1"></rect><rect x="133" y="133" width="22" height="22" fill="rgb(63 63 63)" stroke="rgba(148, 163, 184, 0.22)" stroke-width="1"></rect><rect x="155" y="133" width="22" height="22" fill="rgb(147 147 147)" stroke="rgba(148, 163, 184, 0.22)" stroke-width="1"></rect><rect x="177" y="133" width="22" height="22" fill="rgb(218 218 218)" stroke="rgba(148, 163, 184, 0.22)" stroke-width="1"></rect><rect x="199" y="133" width="22" height="22" fill="rgb(251 251 251)" stroke="rgba(148, 163, 184, 0.22)" stroke-width="1"></rect><rect x="221" y="133" width="22" height="22" fill="rgb(255 255 255)" stroke="rgba(148, 163, 184, 0.22)" stroke-width="1"></rect><rect x="243" y="133" width="22" height="22" fill="rgb(255 255 255)" stroke="rgba(148, 163, 184, 0.22)" stroke-width="1"></rect><rect x="265" y="133" width="22" height="22" fill="rgb(238 238 238)" stroke="rgba(148, 163, 184, 0.22)" stroke-width="1"></rect><rect x="287" y="133" width="22" height="22" fill="rgb(186 186 186)" stroke="rgba(148, 163, 184, 0.22)" stroke-width="1"></rect><rect x="309" y="133" width="22" height="22" fill="rgb(102 102 102)" stroke="rgba(148, 163, 184, 0.22)" stroke-width="1"></rect><rect x="331" y="133" width="22" height="22" fill="rgb(33 33 33)" stroke="rgba(148, 163, 184, 0.22)" stroke-width="1"></rect><rect x="353" y="133" width="22" height="22" fill="rgb(3 3 3)" stroke="rgba(148, 163, 184, 0.22)" stroke-width="1"></rect><rect x="375" y="133" width="22" height="22" fill="rgb(0 0 0)" stroke="rgba(148, 163, 184, 0.22)" stroke-width="1"></rect><rect x="23" y="155" width="22" height="22" fill="rgb(0 0 0)" stroke="rgba(148, 163, 184, 0.22)" stroke-width="1"></rect><rect x="45" y="155" width="22" height="22" fill="rgb(0 0 0)" stroke="rgba(148, 163, 184, 0.22)" stroke-width="1"></rect><rect x="67" y="155" width="22" height="22" fill="rgb(0 0 0)" stroke="rgba(148, 163, 184, 0.22)" stroke-width="1"></rect><rect x="89" y="155" width="22" height="22" fill="rgb(2 2 2)" stroke="rgba(148, 163, 184, 0.22)" stroke-width="1"></rect><rect x="111" y="155" width="22" height="22" fill="rgb(30 30 30)" stroke="rgba(148, 163, 184, 0.22)" stroke-width="1"></rect><rect x="133" y="155" width="22" height="22" fill="rgb(96 96 96)" stroke="rgba(148, 163, 184, 0.22)" stroke-width="1"></rect><rect x="155" y="155" width="22" height="22" fill="rgb(181 181 181)" stroke="rgba(148, 163, 184, 0.22)" stroke-width="1"></rect><rect x="177" y="155" width="22" height="22" fill="rgb(236 236 236)" stroke="rgba(148, 163, 184, 0.22)" stroke-width="1"></rect><rect x="199" y="155" width="22" height="22" fill="rgb(255 255 255)" stroke="rgba(148, 163, 184, 0.22)" stroke-width="1"></rect><rect x="221" y="155" width="22" height="22" fill="rgb(255 255 255)" stroke="rgba(148, 163, 184, 0.22)" stroke-width="1"></rect><rect x="243" y="155" width="22" height="22" fill="rgb(252 252 252)" stroke="rgba(148, 163, 184, 0.22)" stroke-width="1"></rect><rect x="265" y="155" width="22" height="22" fill="rgb(222 222 222)" stroke="rgba(148, 163, 184, 0.22)" stroke-width="1"></rect><rect x="287" y="155" width="22" height="22" fill="rgb(153 153 153)" stroke="rgba(148, 163, 184, 0.22)" stroke-width="1"></rect><rect x="309" y="155" width="22" height="22" fill="rgb(68 68 68)" stroke="rgba(148, 163, 184, 0.22)" stroke-width="1"></rect><rect x="331" y="155" width="22" height="22" fill="rgb(17 17 17)" stroke="rgba(148, 163, 184, 0.22)" stroke-width="1"></rect><rect x="353" y="155" width="22" height="22" fill="rgb(0 0 0)" stroke="rgba(148, 163, 184, 0.22)" stroke-width="1"></rect><rect x="375" y="155" width="22" height="22" fill="rgb(0 0 0)" stroke="rgba(148, 163, 184, 0.22)" stroke-width="1"></rect><rect x="23" y="177" width="22" height="22" fill="rgb(0 0 0)" stroke="rgba(148, 163, 184, 0.22)" stroke-width="1"></rect><rect x="45" y="177" width="22" height="22" fill="rgb(0 0 0)" stroke="rgba(148, 163, 184, 0.22)" stroke-width="1"></rect><rect x="67" y="177" width="22" height="22" fill="rgb(0 0 0)" stroke="rgba(148, 163, 184, 0.22)" stroke-width="1"></rect><rect x="89" y="177" width="22" height="22" fill="rgb(10 10 10)" stroke="rgba(148, 163, 184, 0.22)" stroke-width="1"></rect><rect x="111" y="177" width="22" height="22" fill="rgb(52 52 52)" stroke="rgba(148, 163, 184, 0.22)" stroke-width="1"></rect><rect x="133" y="177" width="22" height="22" fill="rgb(132 132 132)" stroke="rgba(148, 163, 184, 0.22)" stroke-width="1"></rect><rect x="155" y="177" width="22" height="22" fill="rgb(209 209 209)" stroke="rgba(148, 163, 184, 0.22)" stroke-width="1"></rect><rect x="177" y="177" width="22" height="22" fill="rgb(247 247 247)" stroke="rgba(148, 163, 184, 0.22)" stroke-width="1"></rect><rect x="199" y="177" width="22" height="22" fill="rgb(255 255 255)" stroke="rgba(148, 163, 184, 0.22)" stroke-width="1"></rect><rect x="221" y="177" width="22" height="22" fill="rgb(255 255 255)" stroke="rgba(148, 163, 184, 0.22)" stroke-width="1"></rect><rect x="243" y="177" width="22" height="22" fill="rgb(243 243 243)" stroke="rgba(148, 163, 184, 0.22)" stroke-width="1"></rect><rect x="265" y="177" width="22" height="22" fill="rgb(198 198 198)" stroke="rgba(148, 163, 184, 0.22)" stroke-width="1"></rect><rect x="287" y="177" width="22" height="22" fill="rgb(117 117 117)" stroke="rgba(148, 163, 184, 0.22)" stroke-width="1"></rect><rect x="309" y="177" width="22" height="22" fill="rgb(42 42 42)" stroke="rgba(148, 163, 184, 0.22)" stroke-width="1"></rect><rect x="331" y="177" width="22" height="22" fill="rgb(6 6 6)" stroke="rgba(148, 163, 184, 0.22)" stroke-width="1"></rect><rect x="353" y="177" width="22" height="22" fill="rgb(0 0 0)" stroke="rgba(148, 163, 184, 0.22)" stroke-width="1"></rect><rect x="375" y="177" width="22" height="22" fill="rgb(0 0 0)" stroke="rgba(148, 163, 184, 0.22)" stroke-width="1"></rect><rect x="23" y="199" width="22" height="22" fill="rgb(0 0 0)" stroke="rgba(148, 163, 184, 0.22)" stroke-width="1"></rect><rect x="45" y="199" width="22" height="22" fill="rgb(0 0 0)" stroke="rgba(148, 163, 184, 0.22)" stroke-width="1"></rect><rect x="67" y="199" width="22" height="22" fill="rgb(0 0 0)" stroke="rgba(148, 163, 184, 0.22)" stroke-width="1"></rect><rect x="89" y="199" width="22" height="22" fill="rgb(23 23 23)" stroke="rgba(148, 163, 184, 0.22)" stroke-width="1"></rect><rect x="111" y="199" width="22" height="22" fill="rgb(81 81 81)" stroke="rgba(148, 163, 184, 0.22)" stroke-width="1"></rect><rect x="133" y="199" width="22" height="22" fill="rgb(168 168 168)" stroke="rgba(148, 163, 184, 0.22)" stroke-width="1"></rect><rect x="155" y="199" width="22" height="22" fill="rgb(229 229 229)" stroke="rgba(148, 163, 184, 0.22)" stroke-width="1"></rect><rect x="177" y="199" width="22" height="22" fill="rgb(254 254 254)" stroke="rgba(148, 163, 184, 0.22)" stroke-width="1"></rect><rect x="199" y="199" width="22" height="22" fill="rgb(255 255 255)" stroke="rgba(148, 163, 184, 0.22)" stroke-width="1"></rect><rect x="221" y="199" width="22" height="22" fill="rgb(254 254 254)" stroke="rgba(148, 163, 184, 0.22)" stroke-width="1"></rect><rect x="243" y="199" width="22" height="22" fill="rgb(229 229 229)" stroke="rgba(148, 163, 184, 0.22)" stroke-width="1"></rect><rect x="265" y="199" width="22" height="22" fill="rgb(168 168 168)" stroke="rgba(148, 163, 184, 0.22)" stroke-width="1"></rect><rect x="287" y="199" width="22" height="22" fill="rgb(81 81 81)" stroke="rgba(148, 163, 184, 0.22)" stroke-width="1"></rect><rect x="309" y="199" width="22" height="22" fill="rgb(23 23 23)" stroke="rgba(148, 163, 184, 0.22)" stroke-width="1"></rect><rect x="331" y="199" width="22" height="22" fill="rgb(0 0 0)" stroke="rgba(148, 163, 184, 0.22)" stroke-width="1"></rect><rect x="353" y="199" width="22" height="22" fill="rgb(0 0 0)" stroke="rgba(148, 163, 184, 0.22)" stroke-width="1"></rect><rect x="375" y="199" width="22" height="22" fill="rgb(0 0 0)" stroke="rgba(148, 163, 184, 0.22)" stroke-width="1"></rect><rect x="23" y="221" width="22" height="22" fill="rgb(0 0 0)" stroke="rgba(148, 163, 184, 0.22)" stroke-width="1"></rect><rect x="45" y="221" width="22" height="22" fill="rgb(0 0 0)" stroke="rgba(148, 163, 184, 0.22)" stroke-width="1"></rect><rect x="67" y="221" width="22" height="22" fill="rgb(6 6 6)" stroke="rgba(148, 163, 184, 0.22)" stroke-width="1"></rect><rect x="89" y="221" width="22" height="22" fill="rgb(42 42 42)" stroke="rgba(148, 163, 184, 0.22)" stroke-width="1"></rect><rect x="111" y="221" width="22" height="22" fill="rgb(117 117 117)" stroke="rgba(148, 163, 184, 0.22)" stroke-width="1"></rect><rect x="133" y="221" width="22" height="22" fill="rgb(198 198 198)" stroke="rgba(148, 163, 184, 0.22)" stroke-width="1"></rect><rect x="155" y="221" width="22" height="22" fill="rgb(243 243 243)" stroke="rgba(148, 163, 184, 0.22)" stroke-width="1"></rect><rect x="177" y="221" width="22" height="22" fill="rgb(255 255 255)" stroke="rgba(148, 163, 184, 0.22)" stroke-width="1"></rect><rect x="199" y="221" width="22" height="22" fill="rgb(255 255 255)" stroke="rgba(148, 163, 184, 0.22)" stroke-width="1"></rect><rect x="221" y="221" width="22" height="22" fill="rgb(247 247 247)" stroke="rgba(148, 163, 184, 0.22)" stroke-width="1"></rect><rect x="243" y="221" width="22" height="22" fill="rgb(209 209 209)" stroke="rgba(148, 163, 184, 0.22)" stroke-width="1"></rect><rect x="265" y="221" width="22" height="22" fill="rgb(132 132 132)" stroke="rgba(148, 163, 184, 0.22)" stroke-width="1"></rect><rect x="287" y="221" width="22" height="22" fill="rgb(52 52 52)" stroke="rgba(148, 163, 184, 0.22)" stroke-width="1"></rect><rect x="309" y="221" width="22" height="22" fill="rgb(10 10 10)" stroke="rgba(148, 163, 184, 0.22)" stroke-width="1"></rect><rect x="331" y="221" width="22" height="22" fill="rgb(0 0 0)" stroke="rgba(148, 163, 184, 0.22)" stroke-width="1"></rect><rect x="353" y="221" width="22" height="22" fill="rgb(0 0 0)" stroke="rgba(148, 163, 184, 0.22)" stroke-width="1"></rect><rect x="375" y="221" width="22" height="22" fill="rgb(0 0 0)" stroke="rgba(148, 163, 184, 0.22)" stroke-width="1"></rect><rect x="23" y="243" width="22" height="22" fill="rgb(0 0 0)" stroke="rgba(148, 163, 184, 0.22)" stroke-width="1"></rect><rect x="45" y="243" width="22" height="22" fill="rgb(0 0 0)" stroke="rgba(148, 163, 184, 0.22)" stroke-width="1"></rect><rect x="67" y="243" width="22" height="22" fill="rgb(17 17 17)" stroke="rgba(148, 163, 184, 0.22)" stroke-width="1"></rect><rect x="89" y="243" width="22" height="22" fill="rgb(68 68 68)" stroke="rgba(148, 163, 184, 0.22)" stroke-width="1"></rect><rect x="111" y="243" width="22" height="22" fill="rgb(153 153 153)" stroke="rgba(148, 163, 184, 0.22)" stroke-width="1"></rect><rect x="133" y="243" width="22" height="22" fill="rgb(222 222 222)" stroke="rgba(148, 163, 184, 0.22)" stroke-width="1"></rect><rect x="155" y="243" width="22" height="22" fill="rgb(252 252 252)" stroke="rgba(148, 163, 184, 0.22)" stroke-width="1"></rect><rect x="177" y="243" width="22" height="22" fill="rgb(255 255 255)" stroke="rgba(148, 163, 184, 0.22)" stroke-width="1"></rect><rect x="199" y="243" width="22" height="22" fill="rgb(255 255 255)" stroke="rgba(148, 163, 184, 0.22)" stroke-width="1"></rect><rect x="221" y="243" width="22" height="22" fill="rgb(236 236 236)" stroke="rgba(148, 163, 184, 0.22)" stroke-width="1"></rect><rect x="243" y="243" width="22" height="22" fill="rgb(181 181 181)" stroke="rgba(148, 163, 184, 0.22)" stroke-width="1"></rect><rect x="265" y="243" width="22" height="22" fill="rgb(96 96 96)" stroke="rgba(148, 163, 184, 0.22)" stroke-width="1"></rect><rect x="287" y="243" width="22" height="22" fill="rgb(30 30 30)" stroke="rgba(148, 163, 184, 0.22)" stroke-width="1"></rect><rect x="309" y="243" width="22" height="22" fill="rgb(2 2 2)" stroke="rgba(148, 163, 184, 0.22)" stroke-width="1"></rect><rect x="331" y="243" width="22" height="22" fill="rgb(0 0 0)" stroke="rgba(148, 163, 184, 0.22)" stroke-width="1"></rect><rect x="353" y="243" width="22" height="22" fill="rgb(0 0 0)" stroke="rgba(148, 163, 184, 0.22)" stroke-width="1"></rect><rect x="375" y="243" width="22" height="22" fill="rgb(0 0 0)" stroke="rgba(148, 163, 184, 0.22)" stroke-width="1"></rect><rect x="23" y="265" width="22" height="22" fill="rgb(0 0 0)" stroke="rgba(148, 163, 184, 0.22)" stroke-width="1"></rect><rect x="45" y="265" width="22" height="22" fill="rgb(3 3 3)" stroke="rgba(148, 163, 184, 0.22)" stroke-width="1"></rect><rect x="67" y="265" width="22" height="22" fill="rgb(33 33 33)" stroke="rgba(148, 163, 184, 0.22)" stroke-width="1"></rect><rect x="89" y="265" width="22" height="22" fill="rgb(102 102 102)" stroke="rgba(148, 163, 184, 0.22)" stroke-width="1"></rect><rect x="111" y="265" width="22" height="22" fill="rgb(186 186 186)" stroke="rgba(148, 163, 184, 0.22)" stroke-width="1"></rect><rect x="133" y="265" width="22" height="22" fill="rgb(238 238 238)" stroke="rgba(148, 163, 184, 0.22)" stroke-width="1"></rect><rect x="155" y="265" width="22" height="22" fill="rgb(255 255 255)" stroke="rgba(148, 163, 184, 0.22)" stroke-width="1"></rect><rect x="177" y="265" width="22" height="22" fill="rgb(255 255 255)" stroke="rgba(148, 163, 184, 0.22)" stroke-width="1"></rect><rect x="199" y="265" width="22" height="22" fill="rgb(251 251 251)" stroke="rgba(148, 163, 184, 0.22)" stroke-width="1"></rect><rect x="221" y="265" width="22" height="22" fill="rgb(218 218 218)" stroke="rgba(148, 163, 184, 0.22)" stroke-width="1"></rect><rect x="243" y="265" width="22" height="22" fill="rgb(147 147 147)" stroke="rgba(148, 163, 184, 0.22)" stroke-width="1"></rect><rect x="265" y="265" width="22" height="22" fill="rgb(63 63 63)" stroke="rgba(148, 163, 184, 0.22)" stroke-width="1"></rect><rect x="287" y="265" width="22" height="22" fill="rgb(15 15 15)" stroke="rgba(148, 163, 184, 0.22)" stroke-width="1"></rect><rect x="309" y="265" width="22" height="22" fill="rgb(0 0 0)" stroke="rgba(148, 163, 184, 0.22)" stroke-width="1"></rect><rect x="331" y="265" width="22" height="22" fill="rgb(0 0 0)" stroke="rgba(148, 163, 184, 0.22)" stroke-width="1"></rect><rect x="353" y="265" width="22" height="22" fill="rgb(0 0 0)" stroke="rgba(148, 163, 184, 0.22)" stroke-width="1"></rect><rect x="375" y="265" width="22" height="22" fill="rgb(0 0 0)" stroke="rgba(148, 163, 184, 0.22)" stroke-width="1"></rect><rect x="23" y="287" width="22" height="22" fill="rgb(0 0 0)" stroke="rgba(148, 163, 184, 0.22)" stroke-width="1"></rect><rect x="45" y="287" width="22" height="22" fill="rgb(12 12 12)" stroke="rgba(148, 163, 184, 0.22)" stroke-width="1"></rect><rect x="67" y="287" width="22" height="22" fill="rgb(57 57 57)" stroke="rgba(148, 163, 184, 0.22)" stroke-width="1"></rect><rect x="89" y="287" width="22" height="22" fill="rgb(138 138 138)" stroke="rgba(148, 163, 184, 0.22)" stroke-width="1"></rect><rect x="111" y="287" width="22" height="22" fill="rgb(213 213 213)" stroke="rgba(148, 163, 184, 0.22)" stroke-width="1"></rect><rect x="133" y="287" width="22" height="22" fill="rgb(249 249 249)" stroke="rgba(148, 163, 184, 0.22)" stroke-width="1"></rect><rect x="155" y="287" width="22" height="22" fill="rgb(255 255 255)" stroke="rgba(148, 163, 184, 0.22)" stroke-width="1"></rect><rect x="177" y="287" width="22" height="22" fill="rgb(255 255 255)" stroke="rgba(148, 163, 184, 0.22)" stroke-width="1"></rect><rect x="199" y="287" width="22" height="22" fill="rgb(241 241 241)" stroke="rgba(148, 163, 184, 0.22)" stroke-width="1"></rect><rect x="221" y="287" width="22" height="22" fill="rgb(194 194 194)" stroke="rgba(148, 163, 184, 0.22)" stroke-width="1"></rect><rect x="243" y="287" width="22" height="22" fill="rgb(110 110 110)" stroke="rgba(148, 163, 184, 0.22)" stroke-width="1"></rect><rect x="265" y="287" width="22" height="22" fill="rgb(38 38 38)" stroke="rgba(148, 163, 184, 0.22)" stroke-width="1"></rect><rect x="287" y="287" width="22" height="22" fill="rgb(5 5 5)" stroke="rgba(148, 163, 184, 0.22)" stroke-width="1"></rect><rect x="309" y="287" width="22" height="22" fill="rgb(0 0 0)" stroke="rgba(148, 163, 184, 0.22)" stroke-width="1"></rect><rect x="331" y="287" width="22" height="22" fill="rgb(0 0 0)" stroke="rgba(148, 163, 184, 0.22)" stroke-width="1"></rect><rect x="353" y="287" width="22" height="22" fill="rgb(0 0 0)" stroke="rgba(148, 163, 184, 0.22)" stroke-width="1"></rect><rect x="375" y="287" width="22" height="22" fill="rgb(0 0 0)" stroke="rgba(148, 163, 184, 0.22)" stroke-width="1"></rect><rect x="23" y="309" width="22" height="22" fill="rgb(1 1 1)" stroke="rgba(148, 163, 184, 0.22)" stroke-width="1"></rect><rect x="45" y="309" width="22" height="22" fill="rgb(26 26 26)" stroke="rgba(148, 163, 184, 0.22)" stroke-width="1"></rect><rect x="67" y="309" width="22" height="22" fill="rgb(87 87 87)" stroke="rgba(148, 163, 184, 0.22)" stroke-width="1"></rect><rect x="89" y="309" width="22" height="22" fill="rgb(173 173 173)" stroke="rgba(148, 163, 184, 0.22)" stroke-width="1"></rect><rect x="111" y="309" width="22" height="22" fill="rgb(232 232 232)" stroke="rgba(148, 163, 184, 0.22)" stroke-width="1"></rect><rect x="133" y="309" width="22" height="22" fill="rgb(255 255 255)" stroke="rgba(148, 163, 184, 0.22)" stroke-width="1"></rect><rect x="155" y="309" width="22" height="22" fill="rgb(255 255 255)" stroke="rgba(148, 163, 184, 0.22)" stroke-width="1"></rect><rect x="177" y="309" width="22" height="22" fill="rgb(253 253 253)" stroke="rgba(148, 163, 184, 0.22)" stroke-width="1"></rect><rect x="199" y="309" width="22" height="22" fill="rgb(226 226 226)" stroke="rgba(148, 163, 184, 0.22)" stroke-width="1"></rect><rect x="221" y="309" width="22" height="22" fill="rgb(162 162 162)" stroke="rgba(148, 163, 184, 0.22)" stroke-width="1"></rect><rect x="243" y="309" width="22" height="22" fill="rgb(76 76 76)" stroke="rgba(148, 163, 184, 0.22)" stroke-width="1"></rect><rect x="265" y="309" width="22" height="22" fill="rgb(20 20 20)" stroke="rgba(148, 163, 184, 0.22)" stroke-width="1"></rect><rect x="287" y="309" width="22" height="22" fill="rgb(0 0 0)" stroke="rgba(148, 163, 184, 0.22)" stroke-width="1"></rect><rect x="309" y="309" width="22" height="22" fill="rgb(0 0 0)" stroke="rgba(148, 163, 184, 0.22)" stroke-width="1"></rect><rect x="331" y="309" width="22" height="22" fill="rgb(0 0 0)" stroke="rgba(148, 163, 184, 0.22)" stroke-width="1"></rect><rect x="353" y="309" width="22" height="22" fill="rgb(0 0 0)" stroke="rgba(148, 163, 184, 0.22)" stroke-width="1"></rect><rect x="375" y="309" width="22" height="22" fill="rgb(0 0 0)" stroke="rgba(148, 163, 184, 0.22)" stroke-width="1"></rect><rect x="23" y="331" width="22" height="22" fill="rgb(8 8 8)" stroke="rgba(148, 163, 184, 0.22)" stroke-width="1"></rect><rect x="45" y="331" width="22" height="22" fill="rgb(46 46 46)" stroke="rgba(148, 163, 184, 0.22)" stroke-width="1"></rect><rect x="67" y="331" width="22" height="22" fill="rgb(123 123 123)" stroke="rgba(148, 163, 184, 0.22)" stroke-width="1"></rect><rect x="89" y="331" width="22" height="22" fill="rgb(203 203 203)" stroke="rgba(148, 163, 184, 0.22)" stroke-width="1"></rect><rect x="111" y="331" width="22" height="22" fill="rgb(245 245 245)" stroke="rgba(148, 163, 184, 0.22)" stroke-width="1"></rect><rect x="133" y="331" width="22" height="22" fill="rgb(255 255 255)" stroke="rgba(148, 163, 184, 0.22)" stroke-width="1"></rect><rect x="155" y="331" width="22" height="22" fill="rgb(255 255 255)" stroke="rgba(148, 163, 184, 0.22)" stroke-width="1"></rect><rect x="177" y="331" width="22" height="22" fill="rgb(246 246 246)" stroke="rgba(148, 163, 184, 0.22)" stroke-width="1"></rect><rect x="199" y="331" width="22" height="22" fill="rgb(205 205 205)" stroke="rgba(148, 163, 184, 0.22)" stroke-width="1"></rect><rect x="221" y="331" width="22" height="22" fill="rgb(126 126 126)" stroke="rgba(148, 163, 184, 0.22)" stroke-width="1"></rect><rect x="243" y="331" width="22" height="22" fill="rgb(48 48 48)" stroke="rgba(148, 163, 184, 0.22)" stroke-width="1"></rect><rect x="265" y="331" width="22" height="22" fill="rgb(8 8 8)" stroke="rgba(148, 163, 184, 0.22)" stroke-width="1"></rect><rect x="287" y="331" width="22" height="22" fill="rgb(0 0 0)" stroke="rgba(148, 163, 184, 0.22)" stroke-width="1"></rect><rect x="309" y="331" width="22" height="22" fill="rgb(0 0 0)" stroke="rgba(148, 163, 184, 0.22)" stroke-width="1"></rect><rect x="331" y="331" width="22" height="22" fill="rgb(0 0 0)" stroke="rgba(148, 163, 184, 0.22)" stroke-width="1"></rect><rect x="353" y="331" width="22" height="22" fill="rgb(0 0 0)" stroke="rgba(148, 163, 184, 0.22)" stroke-width="1"></rect><rect x="375" y="331" width="22" height="22" fill="rgb(0 0 0)" stroke="rgba(148, 163, 184, 0.22)" stroke-width="1"></rect><rect x="23" y="353" width="22" height="22" fill="rgb(19 19 19)" stroke="rgba(148, 163, 184, 0.22)" stroke-width="1"></rect><rect x="45" y="353" width="22" height="22" fill="rgb(74 74 74)" stroke="rgba(148, 163, 184, 0.22)" stroke-width="1"></rect><rect x="67" y="353" width="22" height="22" fill="rgb(159 159 159)" stroke="rgba(148, 163, 184, 0.22)" stroke-width="1"></rect><rect x="89" y="353" width="22" height="22" fill="rgb(225 225 225)" stroke="rgba(148, 163, 184, 0.22)" stroke-width="1"></rect><rect x="111" y="353" width="22" height="22" fill="rgb(253 253 253)" stroke="rgba(148, 163, 184, 0.22)" stroke-width="1"></rect><rect x="133" y="353" width="22" height="22" fill="rgb(255 255 255)" stroke="rgba(148, 163, 184, 0.22)" stroke-width="1"></rect><rect x="155" y="353" width="22" height="22" fill="rgb(255 255 255)" stroke="rgba(148, 163, 184, 0.22)" stroke-width="1"></rect><rect x="177" y="353" width="22" height="22" fill="rgb(233 233 233)" stroke="rgba(148, 163, 184, 0.22)" stroke-width="1"></rect><rect x="199" y="353" width="22" height="22" fill="rgb(176 176 176)" stroke="rgba(148, 163, 184, 0.22)" stroke-width="1"></rect><rect x="221" y="353" width="22" height="22" fill="rgb(90 90 90)" stroke="rgba(148, 163, 184, 0.22)" stroke-width="1"></rect><rect x="243" y="353" width="22" height="22" fill="rgb(27 27 27)" stroke="rgba(148, 163, 184, 0.22)" stroke-width="1"></rect><rect x="265" y="353" width="22" height="22" fill="rgb(1 1 1)" stroke="rgba(148, 163, 184, 0.22)" stroke-width="1"></rect><rect x="287" y="353" width="22" height="22" fill="rgb(0 0 0)" stroke="rgba(148, 163, 184, 0.22)" stroke-width="1"></rect><rect x="309" y="353" width="22" height="22" fill="rgb(0 0 0)" stroke="rgba(148, 163, 184, 0.22)" stroke-width="1"></rect><rect x="331" y="353" width="22" height="22" fill="rgb(0 0 0)" stroke="rgba(148, 163, 184, 0.22)" stroke-width="1"></rect><rect x="353" y="353" width="22" height="22" fill="rgb(0 0 0)" stroke="rgba(148, 163, 184, 0.22)" stroke-width="1"></rect><rect x="375" y="353" width="22" height="22" fill="rgb(0 0 0)" stroke="rgba(148, 163, 184, 0.22)" stroke-width="1"></rect><rect x="23" y="375" width="22" height="22" fill="rgb(37 37 37)" stroke="rgba(148, 163, 184, 0.22)" stroke-width="1"></rect><rect x="45" y="375" width="22" height="22" fill="rgb(108 108 108)" stroke="rgba(148, 163, 184, 0.22)" stroke-width="1"></rect><rect x="67" y="375" width="22" height="22" fill="rgb(192 192 192)" stroke="rgba(148, 163, 184, 0.22)" stroke-width="1"></rect><rect x="89" y="375" width="22" height="22" fill="rgb(240 240 240)" stroke="rgba(148, 163, 184, 0.22)" stroke-width="1"></rect><rect x="111" y="375" width="22" height="22" fill="rgb(255 255 255)" stroke="rgba(148, 163, 184, 0.22)" stroke-width="1"></rect><rect x="133" y="375" width="22" height="22" fill="rgb(255 255 255)" stroke="rgba(148, 163, 184, 0.22)" stroke-width="1"></rect><rect x="155" y="375" width="22" height="22" fill="rgb(249 249 249)" stroke="rgba(148, 163, 184, 0.22)" stroke-width="1"></rect><rect x="177" y="375" width="22" height="22" fill="rgb(215 215 215)" stroke="rgba(148, 163, 184, 0.22)" stroke-width="1"></rect><rect x="199" y="375" width="22" height="22" fill="rgb(141 141 141)" stroke="rgba(148, 163, 184, 0.22)" stroke-width="1"></rect><rect x="221" y="375" width="22" height="22" fill="rgb(58 58 58)" stroke="rgba(148, 163, 184, 0.22)" stroke-width="1"></rect><rect x="243" y="375" width="22" height="22" fill="rgb(13 13 13)" stroke="rgba(148, 163, 184, 0.22)" stroke-width="1"></rect><rect x="265" y="375" width="22" height="22" fill="rgb(0 0 0)" stroke="rgba(148, 163, 184, 0.22)" stroke-width="1"></rect><rect x="287" y="375" width="22" height="22" fill="rgb(0 0 0)" stroke="rgba(148, 163, 184, 0.22)" stroke-width="1"></rect><rect x="309" y="375" width="22" height="22" fill="rgb(0 0 0)" stroke="rgba(148, 163, 184, 0.22)" stroke-width="1"></rect><rect x="331" y="375" width="22" height="22" fill="rgb(0 0 0)" stroke="rgba(148, 163, 184, 0.22)" stroke-width="1"></rect><rect x="353" y="375" width="22" height="22" fill="rgb(0 0 0)" stroke="rgba(148, 163, 184, 0.22)" stroke-width="1"></rect><rect x="375" y="375" width="22" height="22" fill="rgb(0 0 0)" stroke="rgba(148, 163, 184, 0.22)" stroke-width="1"></rect></g><circle cx="210" cy="210" r="110" fill="none" stroke="currentColor" stroke-width="1.5" stroke-opacity="0.45" stroke-dasharray="5 7" aria-hidden="true"></circle><g aria-hidden="true"><line x1="210" y1="100" x2="210" y2="320" stroke="#b91c1c" stroke-opacity="0.55" stroke-width="1.8" stroke-dasharray="4 6" stroke-linecap="round"></line><line x1="254" y1="100" x2="166" y2="320" stroke="#b91c1c" stroke-opacity="0.55" stroke-width="1.8" stroke-dasharray="4 6" stroke-linecap="round"></line><line x1="298" y1="122" x2="122" y2="298" stroke="#b91c1c" stroke-opacity="0.55" stroke-width="1.8" stroke-dasharray="4 6" stroke-linecap="round"></line><line x1="320" y1="166" x2="100" y2="254" stroke="#b91c1c" stroke-opacity="0.55" stroke-width="1.8" stroke-dasharray="4 6" stroke-linecap="round"></line><line x1="320" y1="210" x2="100" y2="210" stroke="#b91c1c" stroke-opacity="0.55" stroke-width="1.8" stroke-dasharray="4 6" stroke-linecap="round"></line><line x1="320" y1="254" x2="100" y2="166" stroke="#b91c1c" stroke-opacity="0.55" stroke-width="1.8" stroke-dasharray="4 6" stroke-linecap="round"></line><line x1="298" y1="298" x2="122" y2="122" stroke="#b91c1c" stroke-opacity="0.55" stroke-width="1.8" stroke-dasharray="4 6" stroke-linecap="round"></line><line x1="254" y1="320" x2="166" y2="100" stroke="#b91c1c" stroke-opacity="0.55" stroke-width="1.8" stroke-dasharray="4 6" stroke-linecap="round"></line></g><g aria-hidden="true"><g><circle cx="210" cy="100" r="9" fill="rgb(226 226 226)" stroke="#f8fafc" stroke-width="2.5"></circle><circle cx="210" cy="100" r="10.5" fill="none" stroke="currentColor" stroke-width="1" stroke-opacity="0.45"></circle><text x="210" y="76" font-size="11" font-family="Geist Mono, SFMono-Regular, Menlo, Consolas, monospace" text-anchor="middle" fill="currentColor">I0</text></g><g><circle cx="254" cy="100" r="9" fill="rgb(255 255 255)" stroke="#f8fafc" stroke-width="2.5"></circle><circle cx="254" cy="100" r="10.5" fill="none" stroke="currentColor" stroke-width="1" stroke-opacity="0.45"></circle><text x="262.8103136663824" y="86.50462451344244" font-size="11" font-family="Geist Mono, SFMono-Regular, Menlo, Consolas, monospace" text-anchor="middle" fill="currentColor">I1</text></g><g><circle cx="298" cy="122" r="9" fill="rgb(213 213 213)" stroke="#f8fafc" stroke-width="2.5"></circle><circle cx="298" cy="122" r="10.5" fill="none" stroke="currentColor" stroke-width="1" stroke-opacity="0.45"></circle><text x="307.58073580374355" y="116.41926419625645" font-size="11" font-family="Geist Mono, SFMono-Regular, Menlo, Consolas, monospace" text-anchor="middle" fill="currentColor">I2</text></g><g><circle cx="320" cy="166" r="9" fill="rgb(68 68 68)" stroke="#f8fafc" stroke-width="2.5"></circle><circle cx="320" cy="166" r="10.5" fill="none" stroke="currentColor" stroke-width="1" stroke-opacity="0.45"></circle><text x="337.4953754865576" y="161.1896863336176" font-size="11" font-family="Geist Mono, SFMono-Regular, Menlo, Consolas, monospace" text-anchor="middle" fill="currentColor">I3</text></g><g><circle cx="320" cy="210" r="9" fill="rgb(23 23 23)" stroke="#f8fafc" stroke-width="2.5"></circle><circle cx="320" cy="210" r="10.5" fill="none" stroke="currentColor" stroke-width="1" stroke-opacity="0.45"></circle><text x="348" y="214" font-size="11" font-family="Geist Mono, SFMono-Regular, Menlo, Consolas, monospace" text-anchor="middle" fill="currentColor">I4</text></g><g><circle cx="320" cy="254" r="9" fill="rgb(2 2 2)" stroke="#f8fafc" stroke-width="2.5"></circle><circle cx="320" cy="254" r="10.5" fill="none" stroke="currentColor" stroke-width="1" stroke-opacity="0.45"></circle><text x="337.4953754865576" y="266.8103136663824" font-size="11" font-family="Geist Mono, SFMono-Regular, Menlo, Consolas, monospace" text-anchor="middle" fill="currentColor">I5</text></g><g><circle cx="298" cy="298" r="9" fill="rgb(5 5 5)" stroke="#f8fafc" stroke-width="2.5"></circle><circle cx="298" cy="298" r="10.5" fill="none" stroke="currentColor" stroke-width="1" stroke-opacity="0.45"></circle><text x="307.58073580374355" y="311.58073580374355" font-size="11" font-family="Geist Mono, SFMono-Regular, Menlo, Consolas, monospace" text-anchor="middle" fill="currentColor">I6</text></g><g><circle cx="254" cy="320" r="9" fill="rgb(76 76 76)" stroke="#f8fafc" stroke-width="2.5"></circle><circle cx="254" cy="320" r="10.5" fill="none" stroke="currentColor" stroke-width="1" stroke-opacity="0.45"></circle><text x="262.8103136663824" y="341.4953754865576" font-size="11" font-family="Geist Mono, SFMono-Regular, Menlo, Consolas, monospace" text-anchor="middle" fill="currentColor">I7</text></g><g><circle cx="210" cy="320" r="9" fill="rgb(226 226 226)" stroke="#f8fafc" stroke-width="2.5"></circle><circle cx="210" cy="320" r="10.5" fill="none" stroke="currentColor" stroke-width="1" stroke-opacity="0.45"></circle><text x="210" y="352" font-size="11" font-family="Geist Mono, SFMono-Regular, Menlo, Consolas, monospace" text-anchor="middle" fill="currentColor">I8</text></g><g><circle cx="166" cy="320" r="9" fill="rgb(255 255 255)" stroke="#f8fafc" stroke-width="2.5"></circle><circle cx="166" cy="320" r="10.5" fill="none" stroke="currentColor" stroke-width="1" stroke-opacity="0.45"></circle><text x="157.1896863336176" y="341.4953754865576" font-size="11" font-family="Geist Mono, SFMono-Regular, Menlo, Consolas, monospace" text-anchor="middle" fill="currentColor">I9</text></g><g><circle cx="122" cy="298" r="9" fill="rgb(213 213 213)" stroke="#f8fafc" stroke-width="2.5"></circle><circle cx="122" cy="298" r="10.5" fill="none" stroke="currentColor" stroke-width="1" stroke-opacity="0.45"></circle><text x="112.41926419625645" y="311.58073580374355" font-size="11" font-family="Geist Mono, SFMono-Regular, Menlo, Consolas, monospace" text-anchor="middle" fill="currentColor">I10</text></g><g><circle cx="100" cy="254" r="9" fill="rgb(68 68 68)" stroke="#f8fafc" stroke-width="2.5"></circle><circle cx="100" cy="254" r="10.5" fill="none" stroke="currentColor" stroke-width="1" stroke-opacity="0.45"></circle><text x="82.50462451344247" y="266.81031366638246" font-size="11" font-family="Geist Mono, SFMono-Regular, Menlo, Consolas, monospace" text-anchor="middle" fill="currentColor">I11</text></g><g><circle cx="100" cy="210" r="9" fill="rgb(23 23 23)" stroke="#f8fafc" stroke-width="2.5"></circle><circle cx="100" cy="210" r="10.5" fill="none" stroke="currentColor" stroke-width="1" stroke-opacity="0.45"></circle><text x="72" y="214.00000000000003" font-size="11" font-family="Geist Mono, SFMono-Regular, Menlo, Consolas, monospace" text-anchor="middle" fill="currentColor">I12</text></g><g><circle cx="100" cy="166" r="9" fill="rgb(2 2 2)" stroke="#f8fafc" stroke-width="2.5"></circle><circle cx="100" cy="166" r="10.5" fill="none" stroke="currentColor" stroke-width="1" stroke-opacity="0.45"></circle><text x="82.50462451344245" y="161.18968633361757" font-size="11" font-family="Geist Mono, SFMono-Regular, Menlo, Consolas, monospace" text-anchor="middle" fill="currentColor">I13</text></g><g><circle cx="122" cy="122" r="9" fill="rgb(5 5 5)" stroke="#f8fafc" stroke-width="2.5"></circle><circle cx="122" cy="122" r="10.5" fill="none" stroke="currentColor" stroke-width="1" stroke-opacity="0.45"></circle><text x="112.41926419625642" y="116.41926419625645" font-size="11" font-family="Geist Mono, SFMono-Regular, Menlo, Consolas, monospace" text-anchor="middle" fill="currentColor">I14</text></g><g><circle cx="166" cy="100" r="9" fill="rgb(76 76 76)" stroke="#f8fafc" stroke-width="2.5"></circle><circle cx="166" cy="100" r="10.5" fill="none" stroke="currentColor" stroke-width="1" stroke-opacity="0.45"></circle><text x="157.18968633361754" y="86.50462451344247" font-size="11" font-family="Geist Mono, SFMono-Regular, Menlo, Consolas, monospace" text-anchor="middle" fill="currentColor">I15</text></g></g><circle cx="210" cy="210" r="5" fill="none" stroke="currentColor" stroke-width="1.5" stroke-opacity="0.75" aria-hidden="true"></circle></svg>
