<?xml version="1.0" encoding="UTF-8"?>
<svg xmlns="http://www.w3.org/2000/svg" viewBox="0 0 540 540" class="h-auto w-full text-foreground" style="color:#1e293b" width="540" height="540" role="img" aria-label="ChESS detector response illustration for the Edge case at 22.5 degrees."><rect x="1" y="1" width="538" height="538" rx="28" fill="#f8fafc" stroke="#cbd5e1"></rect><g aria-hidden="true"><rect x="83" y="83" width="22" height="22" fill="rgb(0 0 0)" stroke="rgba(148, 163, 184, 0.22)" stroke-width="1"></rect><rect x="105" y="83" width="22" height="22" fill="rgb(0 0 0)" stroke="rgba(148, 163, 184, 0.22)" stroke-width="1"></rect><rect x="127" y="83" width="22" height="22" fill="rgb(0 0 0)" stroke="rgba(148, 163, 184, 0.22)" stroke-width="1"></rect><rect x="149" y="83" width="22" height="22" fill="rgb(0 0 0)" stroke="rgba(148, 163, 184, 0.22)" stroke-width="1"></rect><rect x="171" y="83" width="22" height="22" fill="rgb(0 0 0)" stroke="rgba(148, 163, 184, 0.22)" stroke-width="1"></rect><rect x="193" y="83" width="22" height="22" fill="rgb(0 0 0)" stroke="rgba(148, 163, 184, 0.22)" stroke-width="1"></rect><rect x="215" y="83" width="22" height="22" fill="rgb(0 0 0)" stroke="rgba(148, 163, 184, 0.22)" stroke-width="1"></rect><rect x="237" y="83" width="22" height="22" fill="rgb(0 0 0)" stroke="rgba(148, 163, 184, 0.22)" stroke-width="1"></rect><rect x="259" y="83" width="22" height="22" fill="rgb(0 0 0)" stroke="rgba(148, 163, 184, 0.22)" stroke-width="1"></rect><rect x="281" y="83" width="22" height="22" fill="rgb(3 3 3)" stroke="rgba(148, 163, 184, 0.22)" stroke-width="1"></rect><rect x="303" y="83" width="22" height="22" fill="rgb(32 32 32)" stroke="rgba(148, 163, 184, 0.22)" stroke-width="1"></rect><rect x="325" y="83" width="22" height="22" fill="rgb(100 100 100)" stroke="rgba(148, 163, 184, 0.22)" stroke-width="1"></rect><rect x="347" y="83" width="22" height="22" fill="rgb(185 185 185)" stroke="rgba(148, 163, 184, 0.22)" stroke-width="1"></rect><rect x="369" y="83" width="22" height="22" fill="rgb(237 237 237)" stroke="rgba(148, 163, 184, 0.22)" stroke-width="1"></rect><rect x="391" y="83" width="22" height="22" fill="rgb(255 255 255)" stroke="rgba(148, 163, 184, 0.22)" stroke-width="1"></rect><rect x="413" y="83" width="22" height="22" fill="rgb(255 255 255)" stroke="rgba(148, 163, 184, 0.22)" stroke-width="1"></rect><rect x="435" y="83" width="22" height="22" fill="rgb(255 255 255)" stroke="rgba(148, 163, 184, 0.22)" stroke-width="1"></rect><rect x="83" y="105" width="22" height="22" fill="rgb(0 0 0)" stroke="rgba(148, 163, 184, 0.22)" stroke-width="1"></rect><rect x="105" y="105" width="22" height="22" fill="rgb(0 0 0)" stroke="rgba(148, 163, 184, 0.22)" stroke-width="1"></rect><rect x="127" y="105" width="22" height="22" fill="rgb(0 0 0)" stroke="rgba(148, 163, 184, 0.22)" stroke-width="1"></rect><rect x="149" y="105" width="22" height="22" fill="rgb(0 0 0)" stroke="rgba(148, 163, 184, 0.22)" stroke-width="1"></rect><rect x="171" y="105" width="22" height="22" fill="rgb(0 0 0)" stroke="rgba(148, 163, 184, 0.22)" stroke-width="1"></rect><rect x="193" y="105" width="22" height="22" fill="rgb(0 0 0)" stroke="rgba(148, 163, 184, 0.22)" stroke-width="1"></rect><rect x="215" y="105" width="22" height="22" fill="rgb(0 0 0)" stroke="rgba(148, 163, 184, 0.22)" stroke-width="1"></rect><rect x="237" y="105" width="22" height="22" fill="rgb(0 0 0)" stroke="rgba(148, 163, 184, 0.22)" stroke-width="1"></rect><rect x="259" y="105" width="22" height="22" fill="rgb(0 0 0)" stroke="rgba(148, 163, 184, 0.22)" stroke-width="1"></rect><rect x="281" y="105" width="22" height="22" fill="rgb(11 11 11)" stroke="rgba(148, 163, 184, 0.22)" stroke-width="1"></rect><rect x="303" y="105" width="22" height="22" fill="rgb(55 55 55)" stroke="rgba(148, 163, 184, 0.22)" stroke-width="1"></rect><rect x="325" y="105" width="22" height="22" fill="rgb(136 136 136)" stroke="rgba(148, 163, 184, 0.22)" stroke-width="1"></rect><rect x="347" y="105" width="22" height="22" fill="rgb(212 212 212)" stroke="rgba(148, 163, 184, 0.22)" stroke-width="1"></rect><rect x="369" y="105" width="22" height="22" fill="rgb(248 248 248)" stroke="rgba(148, 163, 184, 0.22)" stroke-width="1"></rect><rect x="391" y="105" width="22" height="22" fill="rgb(255 255 255)" stroke="rgba(148, 163, 184, 0.22)" stroke-width="1"></rect><rect x="413" y="105" width="22" height="22" fill="rgb(255 255 255)" stroke="rgba(148, 163, 184, 0.22)" stroke-width="1"></rect><rect x="435" y="105" width="22" height="22" fill="rgb(255 255 255)" stroke="rgba(148, 163, 184, 0.22)" stroke-width="1"></rect><rect x="83" y="127" width="22" height="22" fill="rgb(0 0 0)" stroke="rgba(148, 163, 184, 0.22)" stroke-width="1"></rect><rect x="105" y="127" width="22" height="22" fill="rgb(0 0 0)" stroke="rgba(148, 163, 184, 0.22)" stroke-width="1"></rect><rect x="127" y="127" width="22" height="22" fill="rgb(0 0 0)" stroke="rgba(148, 163, 184, 0.22)" stroke-width="1"></rect><rect x="149" y="127" width="22" height="22" fill="rgb(0 0 0)" stroke="rgba(148, 163, 184, 0.22)" stroke-width="1"></rect><rect x="171" y="127" width="22" height="22" fill="rgb(0 0 0)" stroke="rgba(148, 163, 184, 0.22)" stroke-width="1"></rect><rect x="193" y="127" width="22" height="22" fill="rgb(0 0 0)" stroke="rgba(148, 163, 184, 0.22)" stroke-width="1"></rect><rect x="215" y="127" width="22" height="22" fill="rgb(0 0 0)" stroke="rgba(148, 163, 184, 0.22)" stroke-width="1"></rect><rect x="237" y="127" width="22" height="22" fill="rgb(0 0 0)" stroke="rgba(148, 163, 184, 0.22)" stroke-width="1"></rect><rect x="259" y="127" width="22" height="22" fill="rgb(0 0 0)" stroke="rgba(148, 163, 184, 0.22)" stroke-width="1"></rect><rect x="281" y="127" width="22" height="22" fill="rgb(25 25 25)" stroke="rgba(148, 163, 184, 0.22)" stroke-width="1"></rect><rect x="303" y="127" width="22" height="22" fill="rgb(86 86 86)" stroke="rgba(148, 163, 184, 0.22)" stroke-width="1"></rect><rect x="325" y="127" width="22" height="22" fill="rgb(172 172 172)" stroke="rgba(148, 163, 184, 0.22)" stroke-width="1"></rect><rect x="347" y="127" width="22" height="22" fill="rgb(231 231 231)" stroke="rgba(148, 163, 184, 0.22)" stroke-width="1"></rect><rect x="369" y="127" width="22" height="22" fill="rgb(255 255 255)" stroke="rgba(148, 163, 184, 0.22)" stroke-width="1"></rect><rect x="391" y="127" width="22" height="22" fill="rgb(255 255 255)" stroke="rgba(148, 163, 184, 0.22)" stroke-width="1"></rect><rect x="413" y="127" width="22" height="22" fill="rgb(255 255 255)" stroke="rgba(148, 163, 184, 0.22)" stroke-width="1"></rect><rect x="435" y="127" width="22" height="22" fill="rgb(255 255 255)" stroke="rgba(148, 163, 184, 0.22)" stroke-width="1"></rect><rect x="83" y="149" width="22" height="22" fill="rgb(0 0 0)" stroke="rgba(148, 163, 184, 0.22)" stroke-width="1"></rect><rect x="105" y="149" width="22" height="22" fill="rgb(0 0 0)" stroke="rgba(148, 163, 184, 0.22)" stroke-width="1"></rect><rect x="127" y="149" width="22" height="22" fill="rgb(0 0 0)" stroke="rgba(148, 163, 184, 0.22)" stroke-width="1"></rect><rect x="149" y="149" width="22" height="22" fill="rgb(0 0 0)" stroke="rgba(148, 163, 184, 0.22)" stroke-width="1"></rect><rect x="171" y="149" width="22" height="22" fill="rgb(0 0 0)" stroke="rgba(148, 163, 184, 0.22)" stroke-width="1"></rect><rect x="193" y="149" width="22" height="22" fill="rgb(0 0 0)" stroke="rgba(148, 163, 184, 0.22)" stroke-width="1"></rect><rect x="215" y="149" width="22" height="22" fill="rgb(0 0 0)" stroke="rgba(148, 163, 184, 0.22)" stroke-width="1"></rect><rect x="237" y="149" width="22" height="22" fill="rgb(0 0 0)" stroke="rgba(148, 163, 184, 0.22)" stroke-width="1"></rect><rect x="259" y="149" width="22" height="22" fill="rgb(7 7 7)" stroke="rgba(148, 163, 184, 0.22)" stroke-width="1"></rect><rect x="281" y="149" width="22" height="22" fill="rgb(45 45 45)" stroke="rgba(148, 163, 184, 0.22)" stroke-width="1"></rect><rect x="303" y="149" width="22" height="22" fill="rgb(121 121 121)" stroke="rgba(148, 163, 184, 0.22)" stroke-width="1"></rect><rect x="325" y="149" width="22" height="22" fill="rgb(202 202 202)" stroke="rgba(148, 163, 184, 0.22)" stroke-width="1"></rect><rect x="347" y="149" width="22" height="22" fill="rgb(244 244 244)" stroke="rgba(148, 163, 184, 0.22)" stroke-width="1"></rect><rect x="369" y="149" width="22" height="22" fill="rgb(255 255 255)" stroke="rgba(148, 163, 184, 0.22)" stroke-width="1"></rect><rect x="391" y="149" width="22" height="22" fill="rgb(255 255 255)" stroke="rgba(148, 163, 184, 0.22)" stroke-width="1"></rect><rect x="413" y="149" width="22" height="22" fill="rgb(255 255 255)" stroke="rgba(148, 163, 184, 0.22)" stroke-width="1"></rect><rect x="435" y="149" width="22" height="22" fill="rgb(255 255 255)" stroke="rgba(148, 163, 184, 0.22)" stroke-width="1"></rect><rect x="83" y="171" width="22" height="22" fill="rgb(0 0 0)" stroke="rgba(148, 163, 184, 0.22)" stroke-width="1"></rect><rect x="105" y="171" width="22" height="22" fill="rgb(0 0 0)" stroke="rgba(148, 163, 184, 0.22)" stroke-width="1"></rect><rect x="127" y="171" width="22" height="22" fill="rgb(0 0 0)" stroke="rgba(148, 163, 184, 0.22)" stroke-width="1"></rect><rect x="149" y="171" width="22" height="22" fill="rgb(0 0 0)" stroke="rgba(148, 163, 184, 0.22)" stroke-width="1"></rect><rect x="171" y="171" width="22" height="22" fill="rgb(0 0 0)" stroke="rgba(148, 163, 184, 0.22)" stroke-width="1"></rect><rect x="193" y="171" width="22" height="22" fill="rgb(0 0 0)" stroke="rgba(148, 163, 184, 0.22)" stroke-width="1"></rect><rect x="215" y="171" width="22" height="22" fill="rgb(0 0 0)" stroke="rgba(148, 163, 184, 0.22)" stroke-width="1"></rect><rect x="237" y="171" width="22" height="22" fill="rgb(0 0 0)" stroke="rgba(148, 163, 184, 0.22)" stroke-width="1"></rect><rect x="259" y="171" width="22" height="22" fill="rgb(19 19 19)" stroke="rgba(148, 163, 184, 0.22)" stroke-width="1"></rect><rect x="281" y="171" width="22" height="22" fill="rgb(72 72 72)" stroke="rgba(148, 163, 184, 0.22)" stroke-width="1"></rect><rect x="303" y="171" width="22" height="22" fill="rgb(158 158 158)" stroke="rgba(148, 163, 184, 0.22)" stroke-width="1"></rect><rect x="325" y="171" width="22" height="22" fill="rgb(224 224 224)" stroke="rgba(148, 163, 184, 0.22)" stroke-width="1"></rect><rect x="347" y="171" width="22" height="22" fill="rgb(253 253 253)" stroke="rgba(148, 163, 184, 0.22)" stroke-width="1"></rect><rect x="369" y="171" width="22" height="22" fill="rgb(255 255 255)" stroke="rgba(148, 163, 184, 0.22)" stroke-width="1"></rect><rect x="391" y="171" width="22" height="22" fill="rgb(255 255 255)" stroke="rgba(148, 163, 184, 0.22)" stroke-width="1"></rect><rect x="413" y="171" width="22" height="22" fill="rgb(255 255 255)" stroke="rgba(148, 163, 184, 0.22)" stroke-width="1"></rect><rect x="435" y="171" width="22" height="22" fill="rgb(255 255 255)" stroke="rgba(148, 163, 184, 0.22)" stroke-width="1"></rect><rect x="83" y="193" width="22" height="22" fill="rgb(0 0 0)" stroke="rgba(148, 163, 184, 0.22)" stroke-width="1"></rect><rect x="105" y="193" width="22" height="22" fill="rgb(0 0 0)" stroke="rgba(148, 163, 184, 0.22)" stroke-width="1"></rect><rect x="127" y="193" width="22" height="22" fill="rgb(0 0 0)" stroke="rgba(148, 163, 184, 0.22)" stroke-width="1"></rect><rect x="149" y="193" width="22" height="22" fill="rgb(0 0 0)" stroke="rgba(148, 163, 184, 0.22)" stroke-width="1"></rect><rect x="171" y="193" width="22" height="22" fill="rgb(0 0 0)" stroke="rgba(148, 163, 184, 0.22)" stroke-width="1"></rect><rect x="193" y="193" width="22" height="22" fill="rgb(0 0 0)" stroke="rgba(148, 163, 184, 0.22)" stroke-width="1"></rect><rect x="215" y="193" width="22" height="22" fill="rgb(0 0 0)" stroke="rgba(148, 163, 184, 0.22)" stroke-width="1"></rect><rect x="237" y="193" width="22" height="22" fill="rgb(4 4 4)" stroke="rgba(148, 163, 184, 0.22)" stroke-width="1"></rect><rect x="259" y="193" width="22" height="22" fill="rgb(36 36 36)" stroke="rgba(148, 163, 184, 0.22)" stroke-width="1"></rect><rect x="281" y="193" width="22" height="22" fill="rgb(106 106 106)" stroke="rgba(148, 163, 184, 0.22)" stroke-width="1"></rect><rect x="303" y="193" width="22" height="22" fill="rgb(190 190 190)" stroke="rgba(148, 163, 184, 0.22)" stroke-width="1"></rect><rect x="325" y="193" width="22" height="22" fill="rgb(240 240 240)" stroke="rgba(148, 163, 184, 0.22)" stroke-width="1"></rect><rect x="347" y="193" width="22" height="22" fill="rgb(255 255 255)" stroke="rgba(148, 163, 184, 0.22)" stroke-width="1"></rect><rect x="369" y="193" width="22" height="22" fill="rgb(255 255 255)" stroke="rgba(148, 163, 184, 0.22)" stroke-width="1"></rect><rect x="391" y="193" width="22" height="22" fill="rgb(255 255 255)" stroke="rgba(148, 163, 184, 0.22)" stroke-width="1"></rect><rect x="413" y="193" width="22" height="22" fill="rgb(255 255 255)" stroke="rgba(148, 163, 184, 0.22)" stroke-width="1"></rect><rect x="435" y="193" width="22" height="22" fill="rgb(255 255 255)" stroke="rgba(148, 163, 184, 0.22)" stroke-width="1"></rect><rect x="83" y="215" width="22" height="22" fill="rgb(0 0 0)" stroke="rgba(148, 163, 184, 0.22)" stroke-width="1"></rect><rect x="105" y="215" width="22" height="22" fill="rgb(0 0 0)" stroke="rgba(148, 163, 184, 0.22)" stroke-width="1"></rect><rect x="127" y="215" width="22" height="22" fill="rgb(0 0 0)" stroke="rgba(148, 163, 184, 0.22)" stroke-width="1"></rect><rect x="149" y="215" width="22" height="22" fill="rgb(0 0 0)" stroke="rgba(148, 163, 184, 0.22)" stroke-width="1"></rect><rect x="171" y="215" width="22" height="22" fill="rgb(0 0 0)" stroke="rgba(148, 163, 184, 0.22)" stroke-width="1"></rect><rect x="193" y="215" width="22" height="22" fill="rgb(0 0 0)" stroke="rgba(148, 163, 184, 0.22)" stroke-width="1"></rect><rect x="215" y="215" width="22" height="22" fill="rgb(0 0 0)" stroke="rgba(148, 163, 184, 0.22)" stroke-width="1"></rect><rect x="237" y="215" width="22" height="22" fill="rgb(13 13 13)" stroke="rgba(148, 163, 184, 0.22)" stroke-width="1"></rect><rect x="259" y="215" width="22" height="22" fill="rgb(60 60 60)" stroke="rgba(148, 163, 184, 0.22)" stroke-width="1"></rect><rect x="281" y="215" width="22" height="22" fill="rgb(143 143 143)" stroke="rgba(148, 163, 184, 0.22)" stroke-width="1"></rect><rect x="303" y="215" width="22" height="22" fill="rgb(216 216 216)" stroke="rgba(148, 163, 184, 0.22)" stroke-width="1"></rect><rect x="325" y="215" width="22" height="22" fill="rgb(250 250 250)" stroke="rgba(148, 163, 184, 0.22)" stroke-width="1"></rect><rect x="347" y="215" width="22" height="22" fill="rgb(255 255 255)" stroke="rgba(148, 163, 184, 0.22)" stroke-width="1"></rect><rect x="369" y="215" width="22" height="22" fill="rgb(255 255 255)" stroke="rgba(148, 163, 184, 0.22)" stroke-width="1"></rect><rect x="391" y="215" width="22" height="22" fill="rgb(255 255 255)" stroke="rgba(148, 163, 184, 0.22)" stroke-width="1"></rect><rect x="413" y="215" width="22" height="22" fill="rgb(255 255 255)" stroke="rgba(148, 163, 184, 0.22)" stroke-width="1"></rect><rect x="435" y="215" width="22" height="22" fill="rgb(255 255 255)" stroke="rgba(148, 163, 184, 0.22)" stroke-width="1"></rect><rect x="83" y="237" width="22" height="22" fill="rgb(0 0 0)" stroke="rgba(148, 163, 184, 0.22)" stroke-width="1"></rect><rect x="105" y="237" width="22" height="22" fill="rgb(0 0 0)" stroke="rgba(148, 163, 184, 0.22)" stroke-width="1"></rect><rect x="127" y="237" width="22" height="22" fill="rgb(0 0 0)" stroke="rgba(148, 163, 184, 0.22)" stroke-width="1"></rect><rect x="149" y="237" width="22" height="22" fill="rgb(0 0 0)" stroke="rgba(148, 163, 184, 0.22)" stroke-width="1"></rect><rect x="171" y="237" width="22" height="22" fill="rgb(0 0 0)" stroke="rgba(148, 163, 184, 0.22)" stroke-width="1"></rect><rect x="193" y="237" width="22" height="22" fill="rgb(0 0 0)" stroke="rgba(148, 163, 184, 0.22)" stroke-width="1"></rect><rect x="215" y="237" width="22" height="22" fill="rgb(1 1 1)" stroke="rgba(148, 163, 184, 0.22)" stroke-width="1"></rect><rect x="237" y="237" width="22" height="22" fill="rgb(28 28 28)" stroke="rgba(148, 163, 184, 0.22)" stroke-width="1"></rect><rect x="259" y="237" width="22" height="22" fill="rgb(91 91 91)" stroke="rgba(148, 163, 184, 0.22)" stroke-width="1"></rect><rect x="281" y="237" width="22" height="22" fill="rgb(177 177 177)" stroke="rgba(148, 163, 184, 0.22)" stroke-width="1"></rect><rect x="303" y="237" width="22" height="22" fill="rgb(234 234 234)" stroke="rgba(148, 163, 184, 0.22)" stroke-width="1"></rect><rect x="325" y="237" width="22" height="22" fill="rgb(255 255 255)" stroke="rgba(148, 163, 184, 0.22)" stroke-width="1"></rect><rect x="347" y="237" width="22" height="22" fill="rgb(255 255 255)" stroke="rgba(148, 163, 184, 0.22)" stroke-width="1"></rect><rect x="369" y="237" width="22" height="22" fill="rgb(255 255 255)" stroke="rgba(148, 163, 184, 0.22)" stroke-width="1"></rect><rect x="391" y="237" width="22" height="22" fill="rgb(255 255 255)" stroke="rgba(148, 163, 184, 0.22)" stroke-width="1"></rect><rect x="413" y="237" width="22" height="22" fill="rgb(255 255 255)" stroke="rgba(148, 163, 184, 0.22)" stroke-width="1"></rect><rect x="435" y="237" width="22" height="22" fill="rgb(255 255 255)" stroke="rgba(148, 163, 184, 0.22)" stroke-width="1"></rect><rect x="83" y="259" width="22" height="22" fill="rgb(0 0 0)" stroke="rgba(148, 163, 184, 0.22)" stroke-width="1"></rect><rect x="105" y="259" width="22" height="22" fill="rgb(0 0 0)" stroke="rgba(148, 163, 184, 0.22)" stroke-width="1"></rect><rect x="127" y="259" width="22" height="22" fill="rgb(0 0 0)" stroke="rgba(148, 163, 184, 0.22)" stroke-width="1"></rect><rect x="149" y="259" width="22" height="22" fill="rgb(0 0 0)" stroke="rgba(148, 163, 184, 0.22)" stroke-width="1"></rect><rect x="171" y="259" width="22" height="22" fill="rgb(0 0 0)" stroke="rgba(148, 163, 184, 0.22)" stroke-width="1"></rect><rect x="193" y="259" width="22" height="22" fill="rgb(0 0 0)" stroke="rgba(148, 163, 184, 0.22)" stroke-width="1"></rect><rect x="215" y="259" width="22" height="22" fill="rgb(9 9 9)" stroke="rgba(148, 163, 184, 0.22)" stroke-width="1"></rect><rect x="237" y="259" width="22" height="22" fill="rgb(49 49 49)" stroke="rgba(148, 163, 184, 0.22)" stroke-width="1"></rect><rect x="259" y="259" width="22" height="22" fill="rgb(128 128 128)" stroke="rgba(148, 163, 184, 0.22)" stroke-width="1"></rect><rect x="281" y="259" width="22" height="22" fill="rgb(206 206 206)" stroke="rgba(148, 163, 184, 0.22)" stroke-width="1"></rect><rect x="303" y="259" width="22" height="22" fill="rgb(246 246 246)" stroke="rgba(148, 163, 184, 0.22)" stroke-width="1"></rect><rect x="325" y="259" width="22" height="22" fill="rgb(255 255 255)" stroke="rgba(148, 163, 184, 0.22)" stroke-width="1"></rect><rect x="347" y="259" width="22" height="22" fill="rgb(255 255 255)" stroke="rgba(148, 163, 184, 0.22)" stroke-width="1"></rect><rect x="369" y="259" width="22" height="22" fill="rgb(255 255 255)" stroke="rgba(148, 163, 184, 0.22)" stroke-width="1"></rect><rect x="391" y="259" width="22" height="22" fill="rgb(255 255 255)" stroke="rgba(148, 163, 184, 0.22)" stroke-width="1"></rect><rect x="413" y="259" width="22" height="22" fill="rgb(255 255 255)" stroke="rgba(148, 163, 184, 0.22)" stroke-width="1"></rect><rect x="435" y="259" width="22" height="22" fill="rgb(255 255 255)" stroke="rgba(148, 163, 184, 0.22)" stroke-width="1"></rect><rect x="83" y="281" width="22" height="22" fill="rgb(0 0 0)" stroke="rgba(148, 163, 184, 0.22)" stroke-width="1"></rect><rect x="105" y="281" width="22" height="22" fill="rgb(0 0 0)" stroke="rgba(148, 163, 184, 0.22)" stroke-width="1"></rect><rect x="127" y="281" width="22" height="22" fill="rgb(0 0 0)" stroke="rgba(148, 163, 184, 0.22)" stroke-width="1"></rect><rect x="149" y="281" width="22" height="22" fill="rgb(0 0 0)" stroke="rgba(148, 163, 184, 0.22)" stroke-width="1"></rect><rect x="171" y="281" width="22" height="22" fill="rgb(0 0 0)" stroke="rgba(148, 163, 184, 0.22)" stroke-width="1"></rect><rect x="193" y="281" width="22" height="22" fill="rgb(0 0 0)" stroke="rgba(148, 163, 184, 0.22)" stroke-width="1"></rect><rect x="215" y="281" width="22" height="22" fill="rgb(21 21 21)" stroke="rgba(148, 163, 184, 0.22)" stroke-width="1"></rect><rect x="237" y="281" width="22" height="22" fill="rgb(78 78 78)" stroke="rgba(148, 163, 184, 0.22)" stroke-width="1"></rect><rect x="259" y="281" width="22" height="22" fill="rgb(164 164 164)" stroke="rgba(148, 163, 184, 0.22)" stroke-width="1"></rect><rect x="281" y="281" width="22" height="22" fill="rgb(227 227 227)" stroke="rgba(148, 163, 184, 0.22)" stroke-width="1"></rect><rect x="303" y="281" width="22" height="22" fill="rgb(254 254 254)" stroke="rgba(148, 163, 184, 0.22)" stroke-width="1"></rect><rect x="325" y="281" width="22" height="22" fill="rgb(255 255 255)" stroke="rgba(148, 163, 184, 0.22)" stroke-width="1"></rect><rect x="347" y="281" width="22" height="22" fill="rgb(255 255 255)" stroke="rgba(148, 163, 184, 0.22)" stroke-width="1"></rect><rect x="369" y="281" width="22" height="22" fill="rgb(255 255 255)" stroke="rgba(148, 163, 184, 0.22)" stroke-width="1"></rect><rect x="391" y="281" width="22" height="22" fill="rgb(255 255 255)" stroke="rgba(148, 163, 184, 0.22)" stroke-width="1"></rect><rect x="413" y="281" width="22" height="22" fill="rgb(255 255 255)" stroke="rgba(148, 163, 184, 0.22)" stroke-width="1"></rect><rect x="435" y="281" width="22" height="22" fill="rgb(255 255 255)" stroke="rgba(148, 163, 184, 0.22)" stroke-width="1"></rect><rect x="83" y="303" width="22" height="22" fill="rgb(0 0 0)" stroke="rgba(148, 163, 184, 0.22)" stroke-width="1"></rect><rect x="105" y="303" width="22" height="22" fill="rgb(0 0 0)" stroke="rgba(148, 163, 184, 0.22)" stroke-width="1"></rect><rect x="127" y="303" width="22" height="22" fill="rgb(0 0 0)" stroke="rgba(148, 163, 184, 0.22)" stroke-width="1"></rect><rect x="149" y="303" width="22" height="22" fill="rgb(0 0 0)" stroke="rgba(148, 163, 184, 0.22)" stroke-width="1"></rect><rect x="171" y="303" width="22" height="22" fill="rgb(0 0 0)" stroke="rgba(148, 163, 184, 0.22)" stroke-width="1"></rect><rect x="193" y="303" width="22" height="22" fill="rgb(5 5 5)" stroke="rgba(148, 163, 184, 0.22)" stroke-width="1"></rect><rect x="215" y="303" width="22" height="22" fill="rgb(39 39 39)" stroke="rgba(148, 163, 184, 0.22)" stroke-width="1"></rect><rect x="237" y="303" width="22" height="22" fill="rgb(112 112 112)" stroke="rgba(148, 163, 184, 0.22)" stroke-width="1"></rect><rect x="259" y="303" width="22" height="22" fill="rgb(195 195 195)" stroke="rgba(148, 163, 184, 0.22)" stroke-width="1"></rect><rect x="281" y="303" width="22" height="22" fill="rgb(242 242 242)" stroke="rgba(148, 163, 184, 0.22)" stroke-width="1"></rect><rect x="303" y="303" width="22" height="22" fill="rgb(255 255 255)" stroke="rgba(148, 163, 184, 0.22)" stroke-width="1"></rect><rect x="325" y="303" width="22" height="22" fill="rgb(255 255 255)" stroke="rgba(148, 163, 184, 0.22)" stroke-width="1"></rect><rect x="347" y="303" width="22" height="22" fill="rgb(255 255 255)" stroke="rgba(148, 163, 184, 0.22)" stroke-width="1"></rect><rect x="369" y="303" width="22" height="22" fill="rgb(255 255 255)" stroke="rgba(148, 163, 184, 0.22)" stroke-width="1"></rect><rect x="391" y="303" width="22" height="22" fill="rgb(255 255 255)" stroke="rgba(148, 163, 184, 0.22)" stroke-width="1"></rect><rect x="413" y="303" width="22" height="22" fill="rgb(255 255 255)" stroke="rgba(148, 163, 184, 0.22)" stroke-width="1"></rect><rect x="435" y="303" width="22" height="22" fill="rgb(255 255 255)" stroke="rgba(148, 163, 184, 0.22)" stroke-width="1"></rect><rect x="83" y="325" width="22" height="22" fill="rgb(0 0 0)" stroke="rgba(148, 163, 184, 0.22)" stroke-width="1"></rect><rect x="105" y="325" width="22" height="22" fill="rgb(0 0 0)" stroke="rgba(148, 163, 184, 0.22)" stroke-width="1"></rect><rect x="127" y="325" width="22" height="22" fill="rgb(0 0 0)" stroke="rgba(148, 163, 184, 0.22)" stroke-width="1"></rect><rect x="149" y="325" width="22" height="22" fill="rgb(0 0 0)" stroke="rgba(148, 163, 184, 0.22)" stroke-width="1"></rect><rect x="171" y="325" width="22" height="22" fill="rgb(0 0 0)" stroke="rgba(148, 163, 184, 0.22)" stroke-width="1"></rect><rect x="193" y="325" width="22" height="22" fill="rgb(15 15 15)" stroke="rgba(148, 163, 184, 0.22)" stroke-width="1"></rect><rect x="215" y="325" width="22" height="22" fill="rgb(65 65 65)" stroke="rgba(148, 163, 184, 0.22)" stroke-width="1"></rect><rect x="237" y="325" width="22" height="22" fill="rgb(149 149 149)" stroke="rgba(148, 163, 184, 0.22)" stroke-width="1"></rect><rect x="259" y="325" width="22" height="22" fill="rgb(219 219 219)" stroke="rgba(148, 163, 184, 0.22)" stroke-width="1"></rect><rect x="281" y="325" width="22" height="22" fill="rgb(251 251 251)" stroke="rgba(148, 163, 184, 0.22)" stroke-width="1"></rect><rect x="303" y="325" width="22" height="22" fill="rgb(255 255 255)" stroke="rgba(148, 163, 184, 0.22)" stroke-width="1"></rect><rect x="325" y="325" width="22" height="22" fill="rgb(255 255 255)" stroke="rgba(148, 163, 184, 0.22)" stroke-width="1"></rect><rect x="347" y="325" width="22" height="22" fill="rgb(255 255 255)" stroke="rgba(148, 163, 184, 0.22)" stroke-width="1"></rect><rect x="369" y="325" width="22" height="22" fill="rgb(255 255 255)" stroke="rgba(148, 163, 184, 0.22)" stroke-width="1"></rect><rect x="391" y="325" width="22" height="22" fill="rgb(255 255 255)" stroke="rgba(148, 163, 184, 0.22)" stroke-width="1"></rect><rect x="413" y="325" width="22" height="22" fill="rgb(255 255 255)" stroke="rgba(148, 163, 184, 0.22)" stroke-width="1"></rect><rect x="435" y="325" width="22" height="22" fill="rgb(255 255 255)" stroke="rgba(148, 163, 184, 0.22)" stroke-width="1"></rect><rect x="83" y="347" width="22" height="22" fill="rgb(0 0 0)" stroke="rgba(148, 163, 184, 0.22)" stroke-width="1"></rect><rect x="105" y="347" width="22" height="22" fill="rgb(0 0 0)" stroke="rgba(148, 163, 184, 0.22)" stroke-width="1"></rect><rect x="127" y="347" width="22" height="22" fill="rgb(0 0 0)" stroke="rgba(148, 163, 184, 0.22)" stroke-width="1"></rect><rect x="149" y="347" width="22" height="22" fill="rgb(0 0 0)" stroke="rgba(148, 163, 184, 0.22)" stroke-width="1"></rect><rect x="171" y="347" width="22" height="22" fill="rgb(2 2 2)" stroke="rgba(148, 163, 184, 0.22)" stroke-width="1"></rect><rect x="193" y="347" width="22" height="22" fill="rgb(31 31 31)" stroke="rgba(148, 163, 184, 0.22)" stroke-width="1"></rect><rect x="215" y="347" width="22" height="22" fill="rgb(97 97 97)" stroke="rgba(148, 163, 184, 0.22)" stroke-width="1"></rect><rect x="237" y="347" width="22" height="22" fill="rgb(183 183 183)" stroke="rgba(148, 163, 184, 0.22)" stroke-width="1"></rect><rect x="259" y="347" width="22" height="22" fill="rgb(236 236 236)" stroke="rgba(148, 163, 184, 0.22)" stroke-width="1"></rect><rect x="281" y="347" width="22" height="22" fill="rgb(255 255 255)" stroke="rgba(148, 163, 184, 0.22)" stroke-width="1"></rect><rect x="303" y="347" width="22" height="22" fill="rgb(255 255 255)" stroke="rgba(148, 163, 184, 0.22)" stroke-width="1"></rect><rect x="325" y="347" width="22" height="22" fill="rgb(255 255 255)" stroke="rgba(148, 163, 184, 0.22)" stroke-width="1"></rect><rect x="347" y="347" width="22" height="22" fill="rgb(255 255 255)" stroke="rgba(148, 163, 184, 0.22)" stroke-width="1"></rect><rect x="369" y="347" width="22" height="22" fill="rgb(255 255 255)" stroke="rgba(148, 163, 184, 0.22)" stroke-width="1"></rect><rect x="391" y="347" width="22" height="22" fill="rgb(255 255 255)" stroke="rgba(148, 163, 184, 0.22)" stroke-width="1"></rect><rect x="413" y="347" width="22" height="22" fill="rgb(255 255 255)" stroke="rgba(148, 163, 184, 0.22)" stroke-width="1"></rect><rect x="435" y="347" width="22" height="22" fill="rgb(255 255 255)" stroke="rgba(148, 163, 184, 0.22)" stroke-width="1"></rect><rect x="83" y="369" width="22" height="22" fill="rgb(0 0 0)" stroke="rgba(148, 163, 184, 0.22)" stroke-width="1"></rect><rect x="105" y="369" width="22" height="22" fill="rgb(0 0 0)" stroke="rgba(148, 163, 184, 0.22)" stroke-width="1"></rect><rect x="127" y="369" width="22" height="22" fill="rgb(0 0 0)" stroke="rgba(148, 163, 184, 0.22)" stroke-width="1"></rect><rect x="149" y="369" width="22" height="22" fill="rgb(0 0 0)" stroke="rgba(148, 163, 184, 0.22)" stroke-width="1"></rect><rect x="171" y="369" width="22" height="22" fill="rgb(11 11 11)" stroke="rgba(148, 163, 184, 0.22)" stroke-width="1"></rect><rect x="193" y="369" width="22" height="22" fill="rgb(53 53 53)" stroke="rgba(148, 163, 184, 0.22)" stroke-width="1"></rect><rect x="215" y="369" width="22" height="22" fill="rgb(134 134 134)" stroke="rgba(148, 163, 184, 0.22)" stroke-width="1"></rect><rect x="237" y="369" width="22" height="22" fill="rgb(210 210 210)" stroke="rgba(148, 163, 184, 0.22)" stroke-width="1"></rect><rect x="259" y="369" width="22" height="22" fill="rgb(248 248 248)" stroke="rgba(148, 163, 184, 0.22)" stroke-width="1"></rect><rect x="281" y="369" width="22" height="22" fill="rgb(255 255 255)" stroke="rgba(148, 163, 184, 0.22)" stroke-width="1"></rect><rect x="303" y="369" width="22" height="22" fill="rgb(255 255 255)" stroke="rgba(148, 163, 184, 0.22)" stroke-width="1"></rect><rect x="325" y="369" width="22" height="22" fill="rgb(255 255 255)" stroke="rgba(148, 163, 184, 0.22)" stroke-width="1"></rect><rect x="347" y="369" width="22" height="22" fill="rgb(255 255 255)" stroke="rgba(148, 163, 184, 0.22)" stroke-width="1"></rect><rect x="369" y="369" width="22" height="22" fill="rgb(255 255 255)" stroke="rgba(148, 163, 184, 0.22)" stroke-width="1"></rect><rect x="391" y="369" width="22" height="22" fill="rgb(255 255 255)" stroke="rgba(148, 163, 184, 0.22)" stroke-width="1"></rect><rect x="413" y="369" width="22" height="22" fill="rgb(255 255 255)" stroke="rgba(148, 163, 184, 0.22)" stroke-width="1"></rect><rect x="435" y="369" width="22" height="22" fill="rgb(255 255 255)" stroke="rgba(148, 163, 184, 0.22)" stroke-width="1"></rect><rect x="83" y="391" width="22" height="22" fill="rgb(0 0 0)" stroke="rgba(148, 163, 184, 0.22)" stroke-width="1"></rect><rect x="105" y="391" width="22" height="22" fill="rgb(0 0 0)" stroke="rgba(148, 163, 184, 0.22)" stroke-width="1"></rect><rect x="127" y="391" width="22" height="22" fill="rgb(0 0 0)" stroke="rgba(148, 163, 184, 0.22)" stroke-width="1"></rect><rect x="149" y="391" width="22" height="22" fill="rgb(0 0 0)" stroke="rgba(148, 163, 184, 0.22)" stroke-width="1"></rect><rect x="171" y="391" width="22" height="22" fill="rgb(24 24 24)" stroke="rgba(148, 163, 184, 0.22)" stroke-width="1"></rect><rect x="193" y="391" width="22" height="22" fill="rgb(83 83 83)" stroke="rgba(148, 163, 184, 0.22)" stroke-width="1"></rect><rect x="215" y="391" width="22" height="22" fill="rgb(169 169 169)" stroke="rgba(148, 163, 184, 0.22)" stroke-width="1"></rect><rect x="237" y="391" width="22" height="22" fill="rgb(230 230 230)" stroke="rgba(148, 163, 184, 0.22)" stroke-width="1"></rect><rect x="259" y="391" width="22" height="22" fill="rgb(255 255 255)" stroke="rgba(148, 163, 184, 0.22)" stroke-width="1"></rect><rect x="281" y="391" width="22" height="22" fill="rgb(255 255 255)" stroke="rgba(148, 163, 184, 0.22)" stroke-width="1"></rect><rect x="303" y="391" width="22" height="22" fill="rgb(255 255 255)" stroke="rgba(148, 163, 184, 0.22)" stroke-width="1"></rect><rect x="325" y="391" width="22" height="22" fill="rgb(255 255 255)" stroke="rgba(148, 163, 184, 0.22)" stroke-width="1"></rect><rect x="347" y="391" width="22" height="22" fill="rgb(255 255 255)" stroke="rgba(148, 163, 184, 0.22)" stroke-width="1"></rect><rect x="369" y="391" width="22" height="22" fill="rgb(255 255 255)" stroke="rgba(148, 163, 184, 0.22)" stroke-width="1"></rect><rect x="391" y="391" width="22" height="22" fill="rgb(255 255 255)" stroke="rgba(148, 163, 184, 0.22)" stroke-width="1"></rect><rect x="413" y="391" width="22" height="22" fill="rgb(255 255 255)" stroke="rgba(148, 163, 184, 0.22)" stroke-width="1"></rect><rect x="435" y="391" width="22" height="22" fill="rgb(255 255 255)" stroke="rgba(148, 163, 184, 0.22)" stroke-width="1"></rect><rect x="83" y="413" width="22" height="22" fill="rgb(0 0 0)" stroke="rgba(148, 163, 184, 0.22)" stroke-width="1"></rect><rect x="105" y="413" width="22" height="22" fill="rgb(0 0 0)" stroke="rgba(148, 163, 184, 0.22)" stroke-width="1"></rect><rect x="127" y="413" width="22" height="22" fill="rgb(0 0 0)" stroke="rgba(148, 163, 184, 0.22)" stroke-width="1"></rect><rect x="149" y="413" width="22" height="22" fill="rgb(7 7 7)" stroke="rgba(148, 163, 184, 0.22)" stroke-width="1"></rect><rect x="171" y="413" width="22" height="22" fill="rgb(43 43 43)" stroke="rgba(148, 163, 184, 0.22)" stroke-width="1"></rect><rect x="193" y="413" width="22" height="22" fill="rgb(119 119 119)" stroke="rgba(148, 163, 184, 0.22)" stroke-width="1"></rect><rect x="215" y="413" width="22" height="22" fill="rgb(200 200 200)" stroke="rgba(148, 163, 184, 0.22)" stroke-width="1"></rect><rect x="237" y="413" width="22" height="22" fill="rgb(244 244 244)" stroke="rgba(148, 163, 184, 0.22)" stroke-width="1"></rect><rect x="259" y="413" width="22" height="22" fill="rgb(255 255 255)" stroke="rgba(148, 163, 184, 0.22)" stroke-width="1"></rect><rect x="281" y="413" width="22" height="22" fill="rgb(255 255 255)" stroke="rgba(148, 163, 184, 0.22)" stroke-width="1"></rect><rect x="303" y="413" width="22" height="22" fill="rgb(255 255 255)" stroke="rgba(148, 163, 184, 0.22)" stroke-width="1"></rect><rect x="325" y="413" width="22" height="22" fill="rgb(255 255 255)" stroke="rgba(148, 163, 184, 0.22)" stroke-width="1"></rect><rect x="347" y="413" width="22" height="22" fill="rgb(255 255 255)" stroke="rgba(148, 163, 184, 0.22)" stroke-width="1"></rect><rect x="369" y="413" width="22" height="22" fill="rgb(255 255 255)" stroke="rgba(148, 163, 184, 0.22)" stroke-width="1"></rect><rect x="391" y="413" width="22" height="22" fill="rgb(255 255 255)" stroke="rgba(148, 163, 184, 0.22)" stroke-width="1"></rect><rect x="413" y="413" width="22" height="22" fill="rgb(255 255 255)" stroke="rgba(148, 163, 184, 0.22)" stroke-width="1"></rect><rect x="435" y="413" width="22" height="22" fill="rgb(255 255 255)" stroke="rgba(148, 163, 184, 0.22)" stroke-width="1"></rect><rect x="83" y="435" width="22" height="22" fill="rgb(0 0 0)" stroke="rgba(148, 163, 184, 0.22)" stroke-width="1"></rect><rect x="105" y="435" width="22" height="22" fill="rgb(0 0 0)" stroke="rgba(148, 163, 184, 0.22)" stroke-width="1"></rect><rect x="127" y="435" width="22" height="22" fill="rgb(0 0 0)" stroke="rgba(148, 163, 184, 0.22)" stroke-width="1"></rect><rect x="149" y="435" width="22" height="22" fill="rgb(18 18 18)" stroke="rgba(148, 163, 184, 0.22)" stroke-width="1"></rect><rect x="171" y="435" width="22" height="22" fill="rgb(70 70 70)" stroke="rgba(148, 163, 184, 0.22)" stroke-width="1"></rect><rect x="193" y="435" width="22" height="22" fill="rgb(155 155 155)" stroke="rgba(148, 163, 184, 0.22)" stroke-width="1"></rect><rect x="215" y="435" width="22" height="22" fill="rgb(223 223 223)" stroke="rgba(148, 163, 184, 0.22)" stroke-width="1"></rect><rect x="237" y="435" width="22" height="22" fill="rgb(252 252 252)" stroke="rgba(148, 163, 184, 0.22)" stroke-width="1"></rect><rect x="259" y="435" width="22" height="22" fill="rgb(255 255 255)" stroke="rgba(148, 163, 184, 0.22)" stroke-width="1"></rect><rect x="281" y="435" width="22" height="22" fill="rgb(255 255 255)" stroke="rgba(148, 163, 184, 0.22)" stroke-width="1"></rect><rect x="303" y="435" width="22" height="22" fill="rgb(255 255 255)" stroke="rgba(148, 163, 184, 0.22)" stroke-width="1"></rect><rect x="325" y="435" width="22" height="22" fill="rgb(255 255 255)" stroke="rgba(148, 163, 184, 0.22)" stroke-width="1"></rect><rect x="347" y="435" width="22" height="22" fill="rgb(255 255 255)" stroke="rgba(148, 163, 184, 0.22)" stroke-width="1"></rect><rect x="369" y="435" width="22" height="22" fill="rgb(255 255 255)" stroke="rgba(148, 163, 184, 0.22)" stroke-width="1"></rect><rect x="391" y="435" width="22" height="22" fill="rgb(255 255 255)" stroke="rgba(148, 163, 184, 0.22)" stroke-width="1"></rect><rect x="413" y="435" width="22" height="22" fill="rgb(255 255 255)" stroke="rgba(148, 163, 184, 0.22)" stroke-width="1"></rect><rect x="435" y="435" width="22" height="22" fill="rgb(255 255 255)" stroke="rgba(148, 163, 184, 0.22)" stroke-width="1"></rect></g><circle cx="270" cy="270" r="132" fill="none" stroke="currentColor" stroke-width="1.5" stroke-opacity="0.45" stroke-dasharray="5 7" aria-hidden="true"></circle><g aria-hidden="true"><line x1="270" y1="138" x2="270" y2="402" stroke="#b91c1c" stroke-opacity="0.55" stroke-width="1.8" stroke-dasharray="4 6" stroke-linecap="round"></line><line x1="320.51421307219186" y1="148.04790170851015" x2="219.48578692780814" y2="391.95209829148985" stroke="#b91c1c" stroke-opacity="0.55" stroke-width="1.8" stroke-dasharray="4 6" stroke-linecap="round"></line><line x1="363.3380951166243" y1="176.66190488337574" x2="176.66190488337574" y2="363.3380951166243" stroke="#b91c1c" stroke-opacity="0.55" stroke-width="1.8" stroke-dasharray="4 6" stroke-linecap="round"></line><line x1="391.95209829148985" y1="219.48578692780814" x2="148.04790170851018" y2="320.5142130721919" stroke="#b91c1c" stroke-opacity="0.55" stroke-width="1.8" stroke-dasharray="4 6" stroke-linecap="round"></line><line x1="402" y1="270" x2="138" y2="270" stroke="#b91c1c" stroke-opacity="0.55" stroke-width="1.8" stroke-dasharray="4 6" stroke-linecap="round"></line><line x1="391.95209829148985" y1="320.51421307219186" x2="148.04790170851015" y2="219.4857869278081" stroke="#b91c1c" stroke-opacity="0.55" stroke-width="1.8" stroke-dasharray="4 6" stroke-linecap="round"></line><line x1="363.3380951166243" y1="363.33809511662423" x2="176.6619048833757" y2="176.66190488337574" stroke="#b91c1c" stroke-opacity="0.55" stroke-width="1.8" stroke-dasharray="4 6" stroke-linecap="round"></line><line x1="320.51421307219186" y1="391.95209829148985" x2="219.48578692780808" y2="148.04790170851018" stroke="#b91c1c" stroke-opacity="0.55" stroke-width="1.8" stroke-dasharray="4 6" stroke-linecap="round"></line></g><g aria-hidden="true"><g><circle cx="270" cy="138" r="9" fill="rgb(0 0 0)" stroke="#f8fafc" stroke-width="2.5"></circle><circle cx="270" cy="138" r="10.5" fill="none" stroke="currentColor" stroke-width="1" stroke-opacity="0.45"></circle><text x="270" y="114" font-size="11" font-family="Geist Mono, SFMono-Regular, Menlo, Consolas, monospace" text-anchor="middle" fill="currentColor">I0</text></g><g><circle cx="320.51421307219186" cy="148.04790170851015" r="9" fill="rgb(128 128 128)" stroke="#f8fafc" stroke-width="2.5"></circle><circle cx="320.51421307219186" cy="148.04790170851015" r="10.5" fill="none" stroke="currentColor" stroke-width="1" stroke-opacity="0.45"></circle><text x="331.2293491784144" y="126.17927479819411" font-size="11" font-family="Geist Mono, SFMono-Regular, Menlo, Consolas, monospace" text-anchor="middle" fill="currentColor">I1</text></g><g><circle cx="363.3380951166243" cy="176.66190488337574" r="9" fill="rgb(255 255 255)" stroke="#f8fafc" stroke-width="2.5"></circle><circle cx="363.3380951166243" cy="176.66190488337574" r="10.5" fill="none" stroke="currentColor" stroke-width="1" stroke-opacity="0.45"></circle><text x="383.1370849898476" y="160.8629150101524" font-size="11" font-family="Geist Mono, SFMono-Regular, Menlo, Consolas, monospace" text-anchor="middle" fill="currentColor">I2</text></g><g><circle cx="391.95209829148985" cy="219.48578692780814" r="9" fill="rgb(255 255 255)" stroke="#f8fafc" stroke-width="2.5"></circle><circle cx="391.95209829148985" cy="219.48578692780814" r="10.5" fill="none" stroke="currentColor" stroke-width="1" stroke-opacity="0.45"></circle><text x="417.8207252018059" y="212.77065082158563" font-size="11" font-family="Geist Mono, SFMono-Regular, Menlo, Consolas, monospace" text-anchor="middle" fill="currentColor">I3</text></g><g><circle cx="402" cy="270" r="9" fill="rgb(255 255 255)" stroke="#f8fafc" stroke-width="2.5"></circle><circle cx="402" cy="270" r="10.5" fill="none" stroke="currentColor" stroke-width="1" stroke-opacity="0.45"></circle><text x="430" y="274" font-size="11" font-family="Geist Mono, SFMono-Regular, Menlo, Consolas, monospace" text-anchor="middle" fill="currentColor">I4</text></g><g><circle cx="391.95209829148985" cy="320.51421307219186" r="9" fill="rgb(255 255 255)" stroke="#f8fafc" stroke-width="2.5"></circle><circle cx="391.95209829148985" cy="320.51421307219186" r="10.5" fill="none" stroke="currentColor" stroke-width="1" stroke-opacity="0.45"></circle><text x="417.8207252018059" y="335.2293491784144" font-size="11" font-family="Geist Mono, SFMono-Regular, Menlo, Consolas, monospace" text-anchor="middle" fill="currentColor">I5</text></g><g><circle cx="363.3380951166243" cy="363.33809511662423" r="9" fill="rgb(255 255 255)" stroke="#f8fafc" stroke-width="2.5"></circle><circle cx="363.3380951166243" cy="363.33809511662423" r="10.5" fill="none" stroke="currentColor" stroke-width="1" stroke-opacity="0.45"></circle><text x="383.1370849898476" y="387.1370849898476" font-size="11" font-family="Geist Mono, SFMono-Regular, Menlo, Consolas, monospace" text-anchor="middle" fill="currentColor">I6</text></g><g><circle cx="320.51421307219186" cy="391.95209829148985" r="9" fill="rgb(255 255 255)" stroke="#f8fafc" stroke-width="2.5"></circle><circle cx="320.51421307219186" cy="391.95209829148985" r="10.5" fill="none" stroke="currentColor" stroke-width="1" stroke-opacity="0.45"></circle><text x="331.2293491784144" y="421.8207252018059" font-size="11" font-family="Geist Mono, SFMono-Regular, Menlo, Consolas, monospace" text-anchor="middle" fill="currentColor">I7</text></g><g><circle cx="270" cy="402" r="9" fill="rgb(255 255 255)" stroke="#f8fafc" stroke-width="2.5"></circle><circle cx="270" cy="402" r="10.5" fill="none" stroke="currentColor" stroke-width="1" stroke-opacity="0.45"></circle><text x="270" y="434" font-size="11" font-family="Geist Mono, SFMono-Regular, Menlo, Consolas, monospace" text-anchor="middle" fill="currentColor">I8</text></g><g><circle cx="219.48578692780814" cy="391.95209829148985" r="9" fill="rgb(128 128 128)" stroke="#f8fafc" stroke-width="2.5"></circle><circle cx="219.48578692780814" cy="391.95209829148985" r="10.5" fill="none" stroke="currentColor" stroke-width="1" stroke-opacity="0.45"></circle><text x="208.77065082158566" y="421.8207252018059" font-size="11" font-family="Geist Mono, SFMono-Regular, Menlo, Consolas, monospace" text-anchor="middle" fill="currentColor">I9</text></g><g><circle cx="176.66190488337574" cy="363.3380951166243" r="9" fill="rgb(0 0 0)" stroke="#f8fafc" stroke-width="2.5"></circle><circle cx="176.66190488337574" cy="363.3380951166243" r="10.5" fill="none" stroke="currentColor" stroke-width="1" stroke-opacity="0.45"></circle><text x="156.8629150101524" y="387.1370849898476" font-size="11" font-family="Geist Mono, SFMono-Regular, Menlo, Consolas, monospace" text-anchor="middle" fill="currentColor">I10</text></g><g><circle cx="148.04790170851018" cy="320.5142130721919" r="9" fill="rgb(0 0 0)" stroke="#f8fafc" stroke-width="2.5"></circle><circle cx="148.04790170851018" cy="320.5142130721919" r="10.5" fill="none" stroke="currentColor" stroke-width="1" stroke-opacity="0.45"></circle><text x="122.17927479819417" y="335.22934917841445" font-size="11" font-family="Geist Mono, SFMono-Regular, Menlo, Consolas, monospace" text-anchor="middle" fill="currentColor">I11</text></g><g><circle cx="138" cy="270" r="9" fill="rgb(0 0 0)" stroke="#f8fafc" stroke-width="2.5"></circle><circle cx="138" cy="270" r="10.5" fill="none" stroke="currentColor" stroke-width="1" stroke-opacity="0.45"></circle><text x="110" y="274" font-size="11" font-family="Geist Mono, SFMono-Regular, Menlo, Consolas, monospace" text-anchor="middle" fill="currentColor">I12</text></g><g><circle cx="148.04790170851015" cy="219.4857869278081" r="9" fill="rgb(0 0 0)" stroke="#f8fafc" stroke-width="2.5"></circle><circle cx="148.04790170851015" cy="219.4857869278081" r="10.5" fill="none" stroke="currentColor" stroke-width="1" stroke-opacity="0.45"></circle><text x="122.17927479819414" y="212.7706508215856" font-size="11" font-family="Geist Mono, SFMono-Regular, Menlo, Consolas, monospace" text-anchor="middle" fill="currentColor">I13</text></g><g><circle cx="176.6619048833757" cy="176.66190488337574" r="9" fill="rgb(0 0 0)" stroke="#f8fafc" stroke-width="2.5"></circle><circle cx="176.6619048833757" cy="176.66190488337574" r="10.5" fill="none" stroke="currentColor" stroke-width="1" stroke-opacity="0.45"></circle><text x="156.86291501015236" y="160.8629150101524" font-size="11" font-family="Geist Mono, SFMono-Regular, Menlo, Consolas, monospace" text-anchor="middle" fill="currentColor">I14</text></g><g><circle cx="219.48578692780808" cy="148.04790170851018" r="9" fill="rgb(0 0 0)" stroke="#f8fafc" stroke-width="2.5"></circle><circle cx="219.48578692780808" cy="148.04790170851018" r="10.5" fill="none" stroke="currentColor" stroke-width="1" stroke-opacity="0.45"></circle><text x="208.77065082158555" y="126.17927479819417" font-size="11" font-family="Geist Mono, SFMono-Regular, Menlo, Consolas, monospace" text-anchor="middle" fill="currentColor">I15</text></g></g><circle cx="270" cy="270" r="5" fill="#ffffff" stroke="currentColor" stroke-width="1.5" stroke-opacity="0.75" aria-hidden="true"></circle></svg>
