<?xml version="1.0" encoding="UTF-8"?>
<svg xmlns="http://www.w3.org/2000/svg" viewBox="0 0 420 420" class="h-auto w-full text-foreground" style="color:#1e293b" width="540" height="540" role="img" aria-label="ChESS detector response illustration for the Corner case at 22.5 degrees."><g aria-hidden="true"><rect x="23" y="23" width="22" height="22" fill="rgb(255 255 255)" stroke="rgba(148, 163, 184, 0.22)" stroke-width="1"></rect><rect x="45" y="23" width="22" height="22" fill="rgb(255 255 255)" stroke="rgba(148, 163, 184, 0.22)" stroke-width="1"></rect><rect x="67" y="23" width="22" height="22" fill="rgb(255 255 255)" stroke="rgba(148, 163, 184, 0.22)" stroke-width="1"></rect><rect x="89" y="23" width="22" height="22" fill="rgb(255 255 255)" stroke="rgba(148, 163, 184, 0.22)" stroke-width="1"></rect><rect x="111" y="23" width="22" height="22" fill="rgb(255 255 255)" stroke="rgba(148, 163, 184, 0.22)" stroke-width="1"></rect><rect x="133" y="23" width="22" height="22" fill="rgb(255 255 255)" stroke="rgba(148, 163, 184, 0.22)" stroke-width="1"></rect><rect x="155" y="23" width="22" height="22" fill="rgb(255 255 255)" stroke="rgba(148, 163, 184, 0.22)" stroke-width="1"></rect><rect x="177" y="23" width="22" height="22" fill="rgb(255 255 255)" stroke="rgba(148, 163, 184, 0.22)" stroke-width="1"></rect><rect x="199" y="23" width="22" height="22" fill="rgb(255 255 255)" stroke="rgba(148, 163, 184, 0.22)" stroke-width="1"></rect><rect x="221" y="23" width="22" height="22" fill="rgb(252 252 252)" stroke="rgba(148, 163, 184, 0.22)" stroke-width="1"></rect><rect x="243" y="23" width="22" height="22" fill="rgb(223 223 223)" stroke="rgba(148, 163, 184, 0.22)" stroke-width="1"></rect><rect x="265" y="23" width="22" height="22" fill="rgb(155 155 155)" stroke="rgba(148, 163, 184, 0.22)" stroke-width="1"></rect><rect x="287" y="23" width="22" height="22" fill="rgb(70 70 70)" stroke="rgba(148, 163, 184, 0.22)" stroke-width="1"></rect><rect x="309" y="23" width="22" height="22" fill="rgb(18 18 18)" stroke="rgba(148, 163, 184, 0.22)" stroke-width="1"></rect><rect x="331" y="23" width="22" height="22" fill="rgb(0 0 0)" stroke="rgba(148, 163, 184, 0.22)" stroke-width="1"></rect><rect x="353" y="23" width="22" height="22" fill="rgb(0 0 0)" stroke="rgba(148, 163, 184, 0.22)" stroke-width="1"></rect><rect x="375" y="23" width="22" height="22" fill="rgb(0 0 0)" stroke="rgba(148, 163, 184, 0.22)" stroke-width="1"></rect><rect x="23" y="45" width="22" height="22" fill="rgb(255 255 255)" stroke="rgba(148, 163, 184, 0.22)" stroke-width="1"></rect><rect x="45" y="45" width="22" height="22" fill="rgb(255 255 255)" stroke="rgba(148, 163, 184, 0.22)" stroke-width="1"></rect><rect x="67" y="45" width="22" height="22" fill="rgb(255 255 255)" stroke="rgba(148, 163, 184, 0.22)" stroke-width="1"></rect><rect x="89" y="45" width="22" height="22" fill="rgb(255 255 255)" stroke="rgba(148, 163, 184, 0.22)" stroke-width="1"></rect><rect x="111" y="45" width="22" height="22" fill="rgb(255 255 255)" stroke="rgba(148, 163, 184, 0.22)" stroke-width="1"></rect><rect x="133" y="45" width="22" height="22" fill="rgb(255 255 255)" stroke="rgba(148, 163, 184, 0.22)" stroke-width="1"></rect><rect x="155" y="45" width="22" height="22" fill="rgb(255 255 255)" stroke="rgba(148, 163, 184, 0.22)" stroke-width="1"></rect><rect x="177" y="45" width="22" height="22" fill="rgb(255 255 255)" stroke="rgba(148, 163, 184, 0.22)" stroke-width="1"></rect><rect x="199" y="45" width="22" height="22" fill="rgb(255 255 255)" stroke="rgba(148, 163, 184, 0.22)" stroke-width="1"></rect><rect x="221" y="45" width="22" height="22" fill="rgb(244 244 244)" stroke="rgba(148, 163, 184, 0.22)" stroke-width="1"></rect><rect x="243" y="45" width="22" height="22" fill="rgb(200 200 200)" stroke="rgba(148, 163, 184, 0.22)" stroke-width="1"></rect><rect x="265" y="45" width="22" height="22" fill="rgb(119 119 119)" stroke="rgba(148, 163, 184, 0.22)" stroke-width="1"></rect><rect x="287" y="45" width="22" height="22" fill="rgb(43 43 43)" stroke="rgba(148, 163, 184, 0.22)" stroke-width="1"></rect><rect x="309" y="45" width="22" height="22" fill="rgb(7 7 7)" stroke="rgba(148, 163, 184, 0.22)" stroke-width="1"></rect><rect x="331" y="45" width="22" height="22" fill="rgb(0 0 0)" stroke="rgba(148, 163, 184, 0.22)" stroke-width="1"></rect><rect x="353" y="45" width="22" height="22" fill="rgb(0 0 0)" stroke="rgba(148, 163, 184, 0.22)" stroke-width="1"></rect><rect x="375" y="45" width="22" height="22" fill="rgb(0 0 0)" stroke="rgba(148, 163, 184, 0.22)" stroke-width="1"></rect><rect x="23" y="67" width="22" height="22" fill="rgb(255 255 255)" stroke="rgba(148, 163, 184, 0.22)" stroke-width="1"></rect><rect x="45" y="67" width="22" height="22" fill="rgb(255 255 255)" stroke="rgba(148, 163, 184, 0.22)" stroke-width="1"></rect><rect x="67" y="67" width="22" height="22" fill="rgb(255 255 255)" stroke="rgba(148, 163, 184, 0.22)" stroke-width="1"></rect><rect x="89" y="67" width="22" height="22" fill="rgb(255 255 255)" stroke="rgba(148, 163, 184, 0.22)" stroke-width="1"></rect><rect x="111" y="67" width="22" height="22" fill="rgb(255 255 255)" stroke="rgba(148, 163, 184, 0.22)" stroke-width="1"></rect><rect x="133" y="67" width="22" height="22" fill="rgb(255 255 255)" stroke="rgba(148, 163, 184, 0.22)" stroke-width="1"></rect><rect x="155" y="67" width="22" height="22" fill="rgb(255 255 255)" stroke="rgba(148, 163, 184, 0.22)" stroke-width="1"></rect><rect x="177" y="67" width="22" height="22" fill="rgb(255 255 255)" stroke="rgba(148, 163, 184, 0.22)" stroke-width="1"></rect><rect x="199" y="67" width="22" height="22" fill="rgb(255 255 255)" stroke="rgba(148, 163, 184, 0.22)" stroke-width="1"></rect><rect x="221" y="67" width="22" height="22" fill="rgb(230 230 230)" stroke="rgba(148, 163, 184, 0.22)" stroke-width="1"></rect><rect x="243" y="67" width="22" height="22" fill="rgb(169 169 169)" stroke="rgba(148, 163, 184, 0.22)" stroke-width="1"></rect><rect x="265" y="67" width="22" height="22" fill="rgb(83 83 83)" stroke="rgba(148, 163, 184, 0.22)" stroke-width="1"></rect><rect x="287" y="67" width="22" height="22" fill="rgb(24 24 24)" stroke="rgba(148, 163, 184, 0.22)" stroke-width="1"></rect><rect x="309" y="67" width="22" height="22" fill="rgb(0 0 0)" stroke="rgba(148, 163, 184, 0.22)" stroke-width="1"></rect><rect x="331" y="67" width="22" height="22" fill="rgb(0 0 0)" stroke="rgba(148, 163, 184, 0.22)" stroke-width="1"></rect><rect x="353" y="67" width="22" height="22" fill="rgb(0 0 0)" stroke="rgba(148, 163, 184, 0.22)" stroke-width="1"></rect><rect x="375" y="67" width="22" height="22" fill="rgb(0 0 0)" stroke="rgba(148, 163, 184, 0.22)" stroke-width="1"></rect><rect x="23" y="89" width="22" height="22" fill="rgb(237 237 237)" stroke="rgba(148, 163, 184, 0.22)" stroke-width="1"></rect><rect x="45" y="89" width="22" height="22" fill="rgb(248 248 248)" stroke="rgba(148, 163, 184, 0.22)" stroke-width="1"></rect><rect x="67" y="89" width="22" height="22" fill="rgb(255 255 255)" stroke="rgba(148, 163, 184, 0.22)" stroke-width="1"></rect><rect x="89" y="89" width="22" height="22" fill="rgb(255 255 255)" stroke="rgba(148, 163, 184, 0.22)" stroke-width="1"></rect><rect x="111" y="89" width="22" height="22" fill="rgb(255 255 255)" stroke="rgba(148, 163, 184, 0.22)" stroke-width="1"></rect><rect x="133" y="89" width="22" height="22" fill="rgb(255 255 255)" stroke="rgba(148, 163, 184, 0.22)" stroke-width="1"></rect><rect x="155" y="89" width="22" height="22" fill="rgb(255 255 255)" stroke="rgba(148, 163, 184, 0.22)" stroke-width="1"></rect><rect x="177" y="89" width="22" height="22" fill="rgb(255 255 255)" stroke="rgba(148, 163, 184, 0.22)" stroke-width="1"></rect><rect x="199" y="89" width="22" height="22" fill="rgb(247 247 247)" stroke="rgba(148, 163, 184, 0.22)" stroke-width="1"></rect><rect x="221" y="89" width="22" height="22" fill="rgb(210 210 210)" stroke="rgba(148, 163, 184, 0.22)" stroke-width="1"></rect><rect x="243" y="89" width="22" height="22" fill="rgb(134 134 134)" stroke="rgba(148, 163, 184, 0.22)" stroke-width="1"></rect><rect x="265" y="89" width="22" height="22" fill="rgb(53 53 53)" stroke="rgba(148, 163, 184, 0.22)" stroke-width="1"></rect><rect x="287" y="89" width="22" height="22" fill="rgb(11 11 11)" stroke="rgba(148, 163, 184, 0.22)" stroke-width="1"></rect><rect x="309" y="89" width="22" height="22" fill="rgb(0 0 0)" stroke="rgba(148, 163, 184, 0.22)" stroke-width="1"></rect><rect x="331" y="89" width="22" height="22" fill="rgb(0 0 0)" stroke="rgba(148, 163, 184, 0.22)" stroke-width="1"></rect><rect x="353" y="89" width="22" height="22" fill="rgb(0 0 0)" stroke="rgba(148, 163, 184, 0.22)" stroke-width="1"></rect><rect x="375" y="89" width="22" height="22" fill="rgb(0 0 0)" stroke="rgba(148, 163, 184, 0.22)" stroke-width="1"></rect><rect x="23" y="111" width="22" height="22" fill="rgb(185 185 185)" stroke="rgba(148, 163, 184, 0.22)" stroke-width="1"></rect><rect x="45" y="111" width="22" height="22" fill="rgb(212 212 212)" stroke="rgba(148, 163, 184, 0.22)" stroke-width="1"></rect><rect x="67" y="111" width="22" height="22" fill="rgb(231 231 231)" stroke="rgba(148, 163, 184, 0.22)" stroke-width="1"></rect><rect x="89" y="111" width="22" height="22" fill="rgb(244 244 244)" stroke="rgba(148, 163, 184, 0.22)" stroke-width="1"></rect><rect x="111" y="111" width="22" height="22" fill="rgb(252 252 252)" stroke="rgba(148, 163, 184, 0.22)" stroke-width="1"></rect><rect x="133" y="111" width="22" height="22" fill="rgb(255 255 255)" stroke="rgba(148, 163, 184, 0.22)" stroke-width="1"></rect><rect x="155" y="111" width="22" height="22" fill="rgb(255 255 255)" stroke="rgba(148, 163, 184, 0.22)" stroke-width="1"></rect><rect x="177" y="111" width="22" height="22" fill="rgb(254 254 254)" stroke="rgba(148, 163, 184, 0.22)" stroke-width="1"></rect><rect x="199" y="111" width="22" height="22" fill="rgb(235 235 235)" stroke="rgba(148, 163, 184, 0.22)" stroke-width="1"></rect><rect x="221" y="111" width="22" height="22" fill="rgb(182 182 182)" stroke="rgba(148, 163, 184, 0.22)" stroke-width="1"></rect><rect x="243" y="111" width="22" height="22" fill="rgb(97 97 97)" stroke="rgba(148, 163, 184, 0.22)" stroke-width="1"></rect><rect x="265" y="111" width="22" height="22" fill="rgb(31 31 31)" stroke="rgba(148, 163, 184, 0.22)" stroke-width="1"></rect><rect x="287" y="111" width="22" height="22" fill="rgb(3 3 3)" stroke="rgba(148, 163, 184, 0.22)" stroke-width="1"></rect><rect x="309" y="111" width="22" height="22" fill="rgb(0 0 0)" stroke="rgba(148, 163, 184, 0.22)" stroke-width="1"></rect><rect x="331" y="111" width="22" height="22" fill="rgb(0 0 0)" stroke="rgba(148, 163, 184, 0.22)" stroke-width="1"></rect><rect x="353" y="111" width="22" height="22" fill="rgb(0 0 0)" stroke="rgba(148, 163, 184, 0.22)" stroke-width="1"></rect><rect x="375" y="111" width="22" height="22" fill="rgb(0 0 0)" stroke="rgba(148, 163, 184, 0.22)" stroke-width="1"></rect><rect x="23" y="133" width="22" height="22" fill="rgb(100 100 100)" stroke="rgba(148, 163, 184, 0.22)" stroke-width="1"></rect><rect x="45" y="133" width="22" height="22" fill="rgb(136 136 136)" stroke="rgba(148, 163, 184, 0.22)" stroke-width="1"></rect><rect x="67" y="133" width="22" height="22" fill="rgb(172 172 172)" stroke="rgba(148, 163, 184, 0.22)" stroke-width="1"></rect><rect x="89" y="133" width="22" height="22" fill="rgb(202 202 202)" stroke="rgba(148, 163, 184, 0.22)" stroke-width="1"></rect><rect x="111" y="133" width="22" height="22" fill="rgb(224 224 224)" stroke="rgba(148, 163, 184, 0.22)" stroke-width="1"></rect><rect x="133" y="133" width="22" height="22" fill="rgb(239 239 239)" stroke="rgba(148, 163, 184, 0.22)" stroke-width="1"></rect><rect x="155" y="133" width="22" height="22" fill="rgb(246 246 246)" stroke="rgba(148, 163, 184, 0.22)" stroke-width="1"></rect><rect x="177" y="133" width="22" height="22" fill="rgb(243 243 243)" stroke="rgba(148, 163, 184, 0.22)" stroke-width="1"></rect><rect x="199" y="133" width="22" height="22" fill="rgb(216 216 216)" stroke="rgba(148, 163, 184, 0.22)" stroke-width="1"></rect><rect x="221" y="133" width="22" height="22" fill="rgb(148 148 148)" stroke="rgba(148, 163, 184, 0.22)" stroke-width="1"></rect><rect x="243" y="133" width="22" height="22" fill="rgb(66 66 66)" stroke="rgba(148, 163, 184, 0.22)" stroke-width="1"></rect><rect x="265" y="133" width="22" height="22" fill="rgb(16 16 16)" stroke="rgba(148, 163, 184, 0.22)" stroke-width="1"></rect><rect x="287" y="133" width="22" height="22" fill="rgb(0 0 0)" stroke="rgba(148, 163, 184, 0.22)" stroke-width="1"></rect><rect x="309" y="133" width="22" height="22" fill="rgb(0 0 0)" stroke="rgba(148, 163, 184, 0.22)" stroke-width="1"></rect><rect x="331" y="133" width="22" height="22" fill="rgb(0 0 0)" stroke="rgba(148, 163, 184, 0.22)" stroke-width="1"></rect><rect x="353" y="133" width="22" height="22" fill="rgb(0 0 0)" stroke="rgba(148, 163, 184, 0.22)" stroke-width="1"></rect><rect x="375" y="133" width="22" height="22" fill="rgb(0 0 0)" stroke="rgba(148, 163, 184, 0.22)" stroke-width="1"></rect><rect x="23" y="155" width="22" height="22" fill="rgb(32 32 32)" stroke="rgba(148, 163, 184, 0.22)" stroke-width="1"></rect><rect x="45" y="155" width="22" height="22" fill="rgb(55 55 55)" stroke="rgba(148, 163, 184, 0.22)" stroke-width="1"></rect><rect x="67" y="155" width="22" height="22" fill="rgb(86 86 86)" stroke="rgba(148, 163, 184, 0.22)" stroke-width="1"></rect><rect x="89" y="155" width="22" height="22" fill="rgb(121 121 121)" stroke="rgba(148, 163, 184, 0.22)" stroke-width="1"></rect><rect x="111" y="155" width="22" height="22" fill="rgb(158 158 158)" stroke="rgba(148, 163, 184, 0.22)" stroke-width="1"></rect><rect x="133" y="155" width="22" height="22" fill="rgb(189 189 189)" stroke="rgba(148, 163, 184, 0.22)" stroke-width="1"></rect><rect x="155" y="155" width="22" height="22" fill="rgb(211 211 211)" stroke="rgba(148, 163, 184, 0.22)" stroke-width="1"></rect><rect x="177" y="155" width="22" height="22" fill="rgb(216 216 216)" stroke="rgba(148, 163, 184, 0.22)" stroke-width="1"></rect><rect x="199" y="155" width="22" height="22" fill="rgb(186 186 186)" stroke="rgba(148, 163, 184, 0.22)" stroke-width="1"></rect><rect x="221" y="155" width="22" height="22" fill="rgb(114 114 114)" stroke="rgba(148, 163, 184, 0.22)" stroke-width="1"></rect><rect x="243" y="155" width="22" height="22" fill="rgb(44 44 44)" stroke="rgba(148, 163, 184, 0.22)" stroke-width="1"></rect><rect x="265" y="155" width="22" height="22" fill="rgb(9 9 9)" stroke="rgba(148, 163, 184, 0.22)" stroke-width="1"></rect><rect x="287" y="155" width="22" height="22" fill="rgb(0 0 0)" stroke="rgba(148, 163, 184, 0.22)" stroke-width="1"></rect><rect x="309" y="155" width="22" height="22" fill="rgb(0 0 0)" stroke="rgba(148, 163, 184, 0.22)" stroke-width="1"></rect><rect x="331" y="155" width="22" height="22" fill="rgb(0 0 0)" stroke="rgba(148, 163, 184, 0.22)" stroke-width="1"></rect><rect x="353" y="155" width="22" height="22" fill="rgb(0 0 0)" stroke="rgba(148, 163, 184, 0.22)" stroke-width="1"></rect><rect x="375" y="155" width="22" height="22" fill="rgb(0 0 0)" stroke="rgba(148, 163, 184, 0.22)" stroke-width="1"></rect><rect x="23" y="177" width="22" height="22" fill="rgb(3 3 3)" stroke="rgba(148, 163, 184, 0.22)" stroke-width="1"></rect><rect x="45" y="177" width="22" height="22" fill="rgb(11 11 11)" stroke="rgba(148, 163, 184, 0.22)" stroke-width="1"></rect><rect x="67" y="177" width="22" height="22" fill="rgb(25 25 25)" stroke="rgba(148, 163, 184, 0.22)" stroke-width="1"></rect><rect x="89" y="177" width="22" height="22" fill="rgb(45 45 45)" stroke="rgba(148, 163, 184, 0.22)" stroke-width="1"></rect><rect x="111" y="177" width="22" height="22" fill="rgb(73 73 73)" stroke="rgba(148, 163, 184, 0.22)" stroke-width="1"></rect><rect x="133" y="177" width="22" height="22" fill="rgb(107 107 107)" stroke="rgba(148, 163, 184, 0.22)" stroke-width="1"></rect><rect x="155" y="177" width="22" height="22" fill="rgb(141 141 141)" stroke="rgba(148, 163, 184, 0.22)" stroke-width="1"></rect><rect x="177" y="177" width="22" height="22" fill="rgb(164 164 164)" stroke="rgba(148, 163, 184, 0.22)" stroke-width="1"></rect><rect x="199" y="177" width="22" height="22" fill="rgb(148 148 148)" stroke="rgba(148, 163, 184, 0.22)" stroke-width="1"></rect><rect x="221" y="177" width="22" height="22" fill="rgb(91 91 91)" stroke="rgba(148, 163, 184, 0.22)" stroke-width="1"></rect><rect x="243" y="177" width="22" height="22" fill="rgb(39 39 39)" stroke="rgba(148, 163, 184, 0.22)" stroke-width="1"></rect><rect x="265" y="177" width="22" height="22" fill="rgb(12 12 12)" stroke="rgba(148, 163, 184, 0.22)" stroke-width="1"></rect><rect x="287" y="177" width="22" height="22" fill="rgb(1 1 1)" stroke="rgba(148, 163, 184, 0.22)" stroke-width="1"></rect><rect x="309" y="177" width="22" height="22" fill="rgb(0 0 0)" stroke="rgba(148, 163, 184, 0.22)" stroke-width="1"></rect><rect x="331" y="177" width="22" height="22" fill="rgb(0 0 0)" stroke="rgba(148, 163, 184, 0.22)" stroke-width="1"></rect><rect x="353" y="177" width="22" height="22" fill="rgb(0 0 0)" stroke="rgba(148, 163, 184, 0.22)" stroke-width="1"></rect><rect x="375" y="177" width="22" height="22" fill="rgb(0 0 0)" stroke="rgba(148, 163, 184, 0.22)" stroke-width="1"></rect><rect x="23" y="199" width="22" height="22" fill="rgb(0 0 0)" stroke="rgba(148, 163, 184, 0.22)" stroke-width="1"></rect><rect x="45" y="199" width="22" height="22" fill="rgb(0 0 0)" stroke="rgba(148, 163, 184, 0.22)" stroke-width="1"></rect><rect x="67" y="199" width="22" height="22" fill="rgb(0 0 0)" stroke="rgba(148, 163, 184, 0.22)" stroke-width="1"></rect><rect x="89" y="199" width="22" height="22" fill="rgb(8 8 8)" stroke="rgba(148, 163, 184, 0.22)" stroke-width="1"></rect><rect x="111" y="199" width="22" height="22" fill="rgb(20 20 20)" stroke="rgba(148, 163, 184, 0.22)" stroke-width="1"></rect><rect x="133" y="199" width="22" height="22" fill="rgb(39 39 39)" stroke="rgba(148, 163, 184, 0.22)" stroke-width="1"></rect><rect x="155" y="199" width="22" height="22" fill="rgb(69 69 69)" stroke="rgba(148, 163, 184, 0.22)" stroke-width="1"></rect><rect x="177" y="199" width="22" height="22" fill="rgb(107 107 107)" stroke="rgba(148, 163, 184, 0.22)" stroke-width="1"></rect><rect x="199" y="199" width="22" height="22" fill="rgb(128 128 128)" stroke="rgba(148, 163, 184, 0.22)" stroke-width="1"></rect><rect x="221" y="199" width="22" height="22" fill="rgb(107 107 107)" stroke="rgba(148, 163, 184, 0.22)" stroke-width="1"></rect><rect x="243" y="199" width="22" height="22" fill="rgb(69 69 69)" stroke="rgba(148, 163, 184, 0.22)" stroke-width="1"></rect><rect x="265" y="199" width="22" height="22" fill="rgb(39 39 39)" stroke="rgba(148, 163, 184, 0.22)" stroke-width="1"></rect><rect x="287" y="199" width="22" height="22" fill="rgb(20 20 20)" stroke="rgba(148, 163, 184, 0.22)" stroke-width="1"></rect><rect x="309" y="199" width="22" height="22" fill="rgb(8 8 8)" stroke="rgba(148, 163, 184, 0.22)" stroke-width="1"></rect><rect x="331" y="199" width="22" height="22" fill="rgb(0 0 0)" stroke="rgba(148, 163, 184, 0.22)" stroke-width="1"></rect><rect x="353" y="199" width="22" height="22" fill="rgb(0 0 0)" stroke="rgba(148, 163, 184, 0.22)" stroke-width="1"></rect><rect x="375" y="199" width="22" height="22" fill="rgb(0 0 0)" stroke="rgba(148, 163, 184, 0.22)" stroke-width="1"></rect><rect x="23" y="221" width="22" height="22" fill="rgb(0 0 0)" stroke="rgba(148, 163, 184, 0.22)" stroke-width="1"></rect><rect x="45" y="221" width="22" height="22" fill="rgb(0 0 0)" stroke="rgba(148, 163, 184, 0.22)" stroke-width="1"></rect><rect x="67" y="221" width="22" height="22" fill="rgb(0 0 0)" stroke="rgba(148, 163, 184, 0.22)" stroke-width="1"></rect><rect x="89" y="221" width="22" height="22" fill="rgb(0 0 0)" stroke="rgba(148, 163, 184, 0.22)" stroke-width="1"></rect><rect x="111" y="221" width="22" height="22" fill="rgb(1 1 1)" stroke="rgba(148, 163, 184, 0.22)" stroke-width="1"></rect><rect x="133" y="221" width="22" height="22" fill="rgb(12 12 12)" stroke="rgba(148, 163, 184, 0.22)" stroke-width="1"></rect><rect x="155" y="221" width="22" height="22" fill="rgb(39 39 39)" stroke="rgba(148, 163, 184, 0.22)" stroke-width="1"></rect><rect x="177" y="221" width="22" height="22" fill="rgb(91 91 91)" stroke="rgba(148, 163, 184, 0.22)" stroke-width="1"></rect><rect x="199" y="221" width="22" height="22" fill="rgb(148 148 148)" stroke="rgba(148, 163, 184, 0.22)" stroke-width="1"></rect><rect x="221" y="221" width="22" height="22" fill="rgb(164 164 164)" stroke="rgba(148, 163, 184, 0.22)" stroke-width="1"></rect><rect x="243" y="221" width="22" height="22" fill="rgb(141 141 141)" stroke="rgba(148, 163, 184, 0.22)" stroke-width="1"></rect><rect x="265" y="221" width="22" height="22" fill="rgb(107 107 107)" stroke="rgba(148, 163, 184, 0.22)" stroke-width="1"></rect><rect x="287" y="221" width="22" height="22" fill="rgb(73 73 73)" stroke="rgba(148, 163, 184, 0.22)" stroke-width="1"></rect><rect x="309" y="221" width="22" height="22" fill="rgb(45 45 45)" stroke="rgba(148, 163, 184, 0.22)" stroke-width="1"></rect><rect x="331" y="221" width="22" height="22" fill="rgb(25 25 25)" stroke="rgba(148, 163, 184, 0.22)" stroke-width="1"></rect><rect x="353" y="221" width="22" height="22" fill="rgb(11 11 11)" stroke="rgba(148, 163, 184, 0.22)" stroke-width="1"></rect><rect x="375" y="221" width="22" height="22" fill="rgb(3 3 3)" stroke="rgba(148, 163, 184, 0.22)" stroke-width="1"></rect><rect x="23" y="243" width="22" height="22" fill="rgb(0 0 0)" stroke="rgba(148, 163, 184, 0.22)" stroke-width="1"></rect><rect x="45" y="243" width="22" height="22" fill="rgb(0 0 0)" stroke="rgba(148, 163, 184, 0.22)" stroke-width="1"></rect><rect x="67" y="243" width="22" height="22" fill="rgb(0 0 0)" stroke="rgba(148, 163, 184, 0.22)" stroke-width="1"></rect><rect x="89" y="243" width="22" height="22" fill="rgb(0 0 0)" stroke="rgba(148, 163, 184, 0.22)" stroke-width="1"></rect><rect x="111" y="243" width="22" height="22" fill="rgb(0 0 0)" stroke="rgba(148, 163, 184, 0.22)" stroke-width="1"></rect><rect x="133" y="243" width="22" height="22" fill="rgb(9 9 9)" stroke="rgba(148, 163, 184, 0.22)" stroke-width="1"></rect><rect x="155" y="243" width="22" height="22" fill="rgb(44 44 44)" stroke="rgba(148, 163, 184, 0.22)" stroke-width="1"></rect><rect x="177" y="243" width="22" height="22" fill="rgb(114 114 114)" stroke="rgba(148, 163, 184, 0.22)" stroke-width="1"></rect><rect x="199" y="243" width="22" height="22" fill="rgb(186 186 186)" stroke="rgba(148, 163, 184, 0.22)" stroke-width="1"></rect><rect x="221" y="243" width="22" height="22" fill="rgb(216 216 216)" stroke="rgba(148, 163, 184, 0.22)" stroke-width="1"></rect><rect x="243" y="243" width="22" height="22" fill="rgb(211 211 211)" stroke="rgba(148, 163, 184, 0.22)" stroke-width="1"></rect><rect x="265" y="243" width="22" height="22" fill="rgb(189 189 189)" stroke="rgba(148, 163, 184, 0.22)" stroke-width="1"></rect><rect x="287" y="243" width="22" height="22" fill="rgb(158 158 158)" stroke="rgba(148, 163, 184, 0.22)" stroke-width="1"></rect><rect x="309" y="243" width="22" height="22" fill="rgb(121 121 121)" stroke="rgba(148, 163, 184, 0.22)" stroke-width="1"></rect><rect x="331" y="243" width="22" height="22" fill="rgb(86 86 86)" stroke="rgba(148, 163, 184, 0.22)" stroke-width="1"></rect><rect x="353" y="243" width="22" height="22" fill="rgb(55 55 55)" stroke="rgba(148, 163, 184, 0.22)" stroke-width="1"></rect><rect x="375" y="243" width="22" height="22" fill="rgb(32 32 32)" stroke="rgba(148, 163, 184, 0.22)" stroke-width="1"></rect><rect x="23" y="265" width="22" height="22" fill="rgb(0 0 0)" stroke="rgba(148, 163, 184, 0.22)" stroke-width="1"></rect><rect x="45" y="265" width="22" height="22" fill="rgb(0 0 0)" stroke="rgba(148, 163, 184, 0.22)" stroke-width="1"></rect><rect x="67" y="265" width="22" height="22" fill="rgb(0 0 0)" stroke="rgba(148, 163, 184, 0.22)" stroke-width="1"></rect><rect x="89" y="265" width="22" height="22" fill="rgb(0 0 0)" stroke="rgba(148, 163, 184, 0.22)" stroke-width="1"></rect><rect x="111" y="265" width="22" height="22" fill="rgb(0 0 0)" stroke="rgba(148, 163, 184, 0.22)" stroke-width="1"></rect><rect x="133" y="265" width="22" height="22" fill="rgb(16 16 16)" stroke="rgba(148, 163, 184, 0.22)" stroke-width="1"></rect><rect x="155" y="265" width="22" height="22" fill="rgb(66 66 66)" stroke="rgba(148, 163, 184, 0.22)" stroke-width="1"></rect><rect x="177" y="265" width="22" height="22" fill="rgb(148 148 148)" stroke="rgba(148, 163, 184, 0.22)" stroke-width="1"></rect><rect x="199" y="265" width="22" height="22" fill="rgb(216 216 216)" stroke="rgba(148, 163, 184, 0.22)" stroke-width="1"></rect><rect x="221" y="265" width="22" height="22" fill="rgb(243 243 243)" stroke="rgba(148, 163, 184, 0.22)" stroke-width="1"></rect><rect x="243" y="265" width="22" height="22" fill="rgb(246 246 246)" stroke="rgba(148, 163, 184, 0.22)" stroke-width="1"></rect><rect x="265" y="265" width="22" height="22" fill="rgb(239 239 239)" stroke="rgba(148, 163, 184, 0.22)" stroke-width="1"></rect><rect x="287" y="265" width="22" height="22" fill="rgb(224 224 224)" stroke="rgba(148, 163, 184, 0.22)" stroke-width="1"></rect><rect x="309" y="265" width="22" height="22" fill="rgb(202 202 202)" stroke="rgba(148, 163, 184, 0.22)" stroke-width="1"></rect><rect x="331" y="265" width="22" height="22" fill="rgb(172 172 172)" stroke="rgba(148, 163, 184, 0.22)" stroke-width="1"></rect><rect x="353" y="265" width="22" height="22" fill="rgb(136 136 136)" stroke="rgba(148, 163, 184, 0.22)" stroke-width="1"></rect><rect x="375" y="265" width="22" height="22" fill="rgb(100 100 100)" stroke="rgba(148, 163, 184, 0.22)" stroke-width="1"></rect><rect x="23" y="287" width="22" height="22" fill="rgb(0 0 0)" stroke="rgba(148, 163, 184, 0.22)" stroke-width="1"></rect><rect x="45" y="287" width="22" height="22" fill="rgb(0 0 0)" stroke="rgba(148, 163, 184, 0.22)" stroke-width="1"></rect><rect x="67" y="287" width="22" height="22" fill="rgb(0 0 0)" stroke="rgba(148, 163, 184, 0.22)" stroke-width="1"></rect><rect x="89" y="287" width="22" height="22" fill="rgb(0 0 0)" stroke="rgba(148, 163, 184, 0.22)" stroke-width="1"></rect><rect x="111" y="287" width="22" height="22" fill="rgb(3 3 3)" stroke="rgba(148, 163, 184, 0.22)" stroke-width="1"></rect><rect x="133" y="287" width="22" height="22" fill="rgb(31 31 31)" stroke="rgba(148, 163, 184, 0.22)" stroke-width="1"></rect><rect x="155" y="287" width="22" height="22" fill="rgb(97 97 97)" stroke="rgba(148, 163, 184, 0.22)" stroke-width="1"></rect><rect x="177" y="287" width="22" height="22" fill="rgb(182 182 182)" stroke="rgba(148, 163, 184, 0.22)" stroke-width="1"></rect><rect x="199" y="287" width="22" height="22" fill="rgb(235 235 235)" stroke="rgba(148, 163, 184, 0.22)" stroke-width="1"></rect><rect x="221" y="287" width="22" height="22" fill="rgb(254 254 254)" stroke="rgba(148, 163, 184, 0.22)" stroke-width="1"></rect><rect x="243" y="287" width="22" height="22" fill="rgb(255 255 255)" stroke="rgba(148, 163, 184, 0.22)" stroke-width="1"></rect><rect x="265" y="287" width="22" height="22" fill="rgb(255 255 255)" stroke="rgba(148, 163, 184, 0.22)" stroke-width="1"></rect><rect x="287" y="287" width="22" height="22" fill="rgb(252 252 252)" stroke="rgba(148, 163, 184, 0.22)" stroke-width="1"></rect><rect x="309" y="287" width="22" height="22" fill="rgb(244 244 244)" stroke="rgba(148, 163, 184, 0.22)" stroke-width="1"></rect><rect x="331" y="287" width="22" height="22" fill="rgb(231 231 231)" stroke="rgba(148, 163, 184, 0.22)" stroke-width="1"></rect><rect x="353" y="287" width="22" height="22" fill="rgb(212 212 212)" stroke="rgba(148, 163, 184, 0.22)" stroke-width="1"></rect><rect x="375" y="287" width="22" height="22" fill="rgb(185 185 185)" stroke="rgba(148, 163, 184, 0.22)" stroke-width="1"></rect><rect x="23" y="309" width="22" height="22" fill="rgb(0 0 0)" stroke="rgba(148, 163, 184, 0.22)" stroke-width="1"></rect><rect x="45" y="309" width="22" height="22" fill="rgb(0 0 0)" stroke="rgba(148, 163, 184, 0.22)" stroke-width="1"></rect><rect x="67" y="309" width="22" height="22" fill="rgb(0 0 0)" stroke="rgba(148, 163, 184, 0.22)" stroke-width="1"></rect><rect x="89" y="309" width="22" height="22" fill="rgb(0 0 0)" stroke="rgba(148, 163, 184, 0.22)" stroke-width="1"></rect><rect x="111" y="309" width="22" height="22" fill="rgb(11 11 11)" stroke="rgba(148, 163, 184, 0.22)" stroke-width="1"></rect><rect x="133" y="309" width="22" height="22" fill="rgb(53 53 53)" stroke="rgba(148, 163, 184, 0.22)" stroke-width="1"></rect><rect x="155" y="309" width="22" height="22" fill="rgb(134 134 134)" stroke="rgba(148, 163, 184, 0.22)" stroke-width="1"></rect><rect x="177" y="309" width="22" height="22" fill="rgb(210 210 210)" stroke="rgba(148, 163, 184, 0.22)" stroke-width="1"></rect><rect x="199" y="309" width="22" height="22" fill="rgb(247 247 247)" stroke="rgba(148, 163, 184, 0.22)" stroke-width="1"></rect><rect x="221" y="309" width="22" height="22" fill="rgb(255 255 255)" stroke="rgba(148, 163, 184, 0.22)" stroke-width="1"></rect><rect x="243" y="309" width="22" height="22" fill="rgb(255 255 255)" stroke="rgba(148, 163, 184, 0.22)" stroke-width="1"></rect><rect x="265" y="309" width="22" height="22" fill="rgb(255 255 255)" stroke="rgba(148, 163, 184, 0.22)" stroke-width="1"></rect><rect x="287" y="309" width="22" height="22" fill="rgb(255 255 255)" stroke="rgba(148, 163, 184, 0.22)" stroke-width="1"></rect><rect x="309" y="309" width="22" height="22" fill="rgb(255 255 255)" stroke="rgba(148, 163, 184, 0.22)" stroke-width="1"></rect><rect x="331" y="309" width="22" height="22" fill="rgb(255 255 255)" stroke="rgba(148, 163, 184, 0.22)" stroke-width="1"></rect><rect x="353" y="309" width="22" height="22" fill="rgb(248 248 248)" stroke="rgba(148, 163, 184, 0.22)" stroke-width="1"></rect><rect x="375" y="309" width="22" height="22" fill="rgb(237 237 237)" stroke="rgba(148, 163, 184, 0.22)" stroke-width="1"></rect><rect x="23" y="331" width="22" height="22" fill="rgb(0 0 0)" stroke="rgba(148, 163, 184, 0.22)" stroke-width="1"></rect><rect x="45" y="331" width="22" height="22" fill="rgb(0 0 0)" stroke="rgba(148, 163, 184, 0.22)" stroke-width="1"></rect><rect x="67" y="331" width="22" height="22" fill="rgb(0 0 0)" stroke="rgba(148, 163, 184, 0.22)" stroke-width="1"></rect><rect x="89" y="331" width="22" height="22" fill="rgb(0 0 0)" stroke="rgba(148, 163, 184, 0.22)" stroke-width="1"></rect><rect x="111" y="331" width="22" height="22" fill="rgb(24 24 24)" stroke="rgba(148, 163, 184, 0.22)" stroke-width="1"></rect><rect x="133" y="331" width="22" height="22" fill="rgb(83 83 83)" stroke="rgba(148, 163, 184, 0.22)" stroke-width="1"></rect><rect x="155" y="331" width="22" height="22" fill="rgb(169 169 169)" stroke="rgba(148, 163, 184, 0.22)" stroke-width="1"></rect><rect x="177" y="331" width="22" height="22" fill="rgb(230 230 230)" stroke="rgba(148, 163, 184, 0.22)" stroke-width="1"></rect><rect x="199" y="331" width="22" height="22" fill="rgb(255 255 255)" stroke="rgba(148, 163, 184, 0.22)" stroke-width="1"></rect><rect x="221" y="331" width="22" height="22" fill="rgb(255 255 255)" stroke="rgba(148, 163, 184, 0.22)" stroke-width="1"></rect><rect x="243" y="331" width="22" height="22" fill="rgb(255 255 255)" stroke="rgba(148, 163, 184, 0.22)" stroke-width="1"></rect><rect x="265" y="331" width="22" height="22" fill="rgb(255 255 255)" stroke="rgba(148, 163, 184, 0.22)" stroke-width="1"></rect><rect x="287" y="331" width="22" height="22" fill="rgb(255 255 255)" stroke="rgba(148, 163, 184, 0.22)" stroke-width="1"></rect><rect x="309" y="331" width="22" height="22" fill="rgb(255 255 255)" stroke="rgba(148, 163, 184, 0.22)" stroke-width="1"></rect><rect x="331" y="331" width="22" height="22" fill="rgb(255 255 255)" stroke="rgba(148, 163, 184, 0.22)" stroke-width="1"></rect><rect x="353" y="331" width="22" height="22" fill="rgb(255 255 255)" stroke="rgba(148, 163, 184, 0.22)" stroke-width="1"></rect><rect x="375" y="331" width="22" height="22" fill="rgb(255 255 255)" stroke="rgba(148, 163, 184, 0.22)" stroke-width="1"></rect><rect x="23" y="353" width="22" height="22" fill="rgb(0 0 0)" stroke="rgba(148, 163, 184, 0.22)" stroke-width="1"></rect><rect x="45" y="353" width="22" height="22" fill="rgb(0 0 0)" stroke="rgba(148, 163, 184, 0.22)" stroke-width="1"></rect><rect x="67" y="353" width="22" height="22" fill="rgb(0 0 0)" stroke="rgba(148, 163, 184, 0.22)" stroke-width="1"></rect><rect x="89" y="353" width="22" height="22" fill="rgb(7 7 7)" stroke="rgba(148, 163, 184, 0.22)" stroke-width="1"></rect><rect x="111" y="353" width="22" height="22" fill="rgb(43 43 43)" stroke="rgba(148, 163, 184, 0.22)" stroke-width="1"></rect><rect x="133" y="353" width="22" height="22" fill="rgb(119 119 119)" stroke="rgba(148, 163, 184, 0.22)" stroke-width="1"></rect><rect x="155" y="353" width="22" height="22" fill="rgb(200 200 200)" stroke="rgba(148, 163, 184, 0.22)" stroke-width="1"></rect><rect x="177" y="353" width="22" height="22" fill="rgb(244 244 244)" stroke="rgba(148, 163, 184, 0.22)" stroke-width="1"></rect><rect x="199" y="353" width="22" height="22" fill="rgb(255 255 255)" stroke="rgba(148, 163, 184, 0.22)" stroke-width="1"></rect><rect x="221" y="353" width="22" height="22" fill="rgb(255 255 255)" stroke="rgba(148, 163, 184, 0.22)" stroke-width="1"></rect><rect x="243" y="353" width="22" height="22" fill="rgb(255 255 255)" stroke="rgba(148, 163, 184, 0.22)" stroke-width="1"></rect><rect x="265" y="353" width="22" height="22" fill="rgb(255 255 255)" stroke="rgba(148, 163, 184, 0.22)" stroke-width="1"></rect><rect x="287" y="353" width="22" height="22" fill="rgb(255 255 255)" stroke="rgba(148, 163, 184, 0.22)" stroke-width="1"></rect><rect x="309" y="353" width="22" height="22" fill="rgb(255 255 255)" stroke="rgba(148, 163, 184, 0.22)" stroke-width="1"></rect><rect x="331" y="353" width="22" height="22" fill="rgb(255 255 255)" stroke="rgba(148, 163, 184, 0.22)" stroke-width="1"></rect><rect x="353" y="353" width="22" height="22" fill="rgb(255 255 255)" stroke="rgba(148, 163, 184, 0.22)" stroke-width="1"></rect><rect x="375" y="353" width="22" height="22" fill="rgb(255 255 255)" stroke="rgba(148, 163, 184, 0.22)" stroke-width="1"></rect><rect x="23" y="375" width="22" height="22" fill="rgb(0 0 0)" stroke="rgba(148, 163, 184, 0.22)" stroke-width="1"></rect><rect x="45" y="375" width="22" height="22" fill="rgb(0 0 0)" stroke="rgba(148, 163, 184, 0.22)" stroke-width="1"></rect><rect x="67" y="375" width="22" height="22" fill="rgb(0 0 0)" stroke="rgba(148, 163, 184, 0.22)" stroke-width="1"></rect><rect x="89" y="375" width="22" height="22" fill="rgb(18 18 18)" stroke="rgba(148, 163, 184, 0.22)" stroke-width="1"></rect><rect x="111" y="375" width="22" height="22" fill="rgb(70 70 70)" stroke="rgba(148, 163, 184, 0.22)" stroke-width="1"></rect><rect x="133" y="375" width="22" height="22" fill="rgb(155 155 155)" stroke="rgba(148, 163, 184, 0.22)" stroke-width="1"></rect><rect x="155" y="375" width="22" height="22" fill="rgb(223 223 223)" stroke="rgba(148, 163, 184, 0.22)" stroke-width="1"></rect><rect x="177" y="375" width="22" height="22" fill="rgb(252 252 252)" stroke="rgba(148, 163, 184, 0.22)" stroke-width="1"></rect><rect x="199" y="375" width="22" height="22" fill="rgb(255 255 255)" stroke="rgba(148, 163, 184, 0.22)" stroke-width="1"></rect><rect x="221" y="375" width="22" height="22" fill="rgb(255 255 255)" stroke="rgba(148, 163, 184, 0.22)" stroke-width="1"></rect><rect x="243" y="375" width="22" height="22" fill="rgb(255 255 255)" stroke="rgba(148, 163, 184, 0.22)" stroke-width="1"></rect><rect x="265" y="375" width="22" height="22" fill="rgb(255 255 255)" stroke="rgba(148, 163, 184, 0.22)" stroke-width="1"></rect><rect x="287" y="375" width="22" height="22" fill="rgb(255 255 255)" stroke="rgba(148, 163, 184, 0.22)" stroke-width="1"></rect><rect x="309" y="375" width="22" height="22" fill="rgb(255 255 255)" stroke="rgba(148, 163, 184, 0.22)" stroke-width="1"></rect><rect x="331" y="375" width="22" height="22" fill="rgb(255 255 255)" stroke="rgba(148, 163, 184, 0.22)" stroke-width="1"></rect><rect x="353" y="375" width="22" height="22" fill="rgb(255 255 255)" stroke="rgba(148, 163, 184, 0.22)" stroke-width="1"></rect><rect x="375" y="375" width="22" height="22" fill="rgb(255 255 255)" stroke="rgba(148, 163, 184, 0.22)" stroke-width="1"></rect></g><g aria-hidden="true"><rect x="199" y="199" width="22" height="22" fill="none" stroke="#d97706" stroke-width="2.5" rx="4"></rect><rect x="177" y="199" width="22" height="22" fill="none" stroke="#d97706" stroke-width="2.5" rx="4"></rect><rect x="221" y="199" width="22" height="22" fill="none" stroke="#d97706" stroke-width="2.5" rx="4"></rect><rect x="199" y="177" width="22" height="22" fill="none" stroke="#d97706" stroke-width="2.5" rx="4"></rect><rect x="199" y="221" width="22" height="22" fill="none" stroke="#d97706" stroke-width="2.5" rx="4"></rect></g><circle cx="210" cy="210" r="110" fill="none" stroke="currentColor" stroke-width="1.5" stroke-opacity="0.45" stroke-dasharray="5 7" aria-hidden="true"></circle><g aria-hidden="true"><g><circle cx="210" cy="100" r="9" fill="rgb(247 247 247)" stroke="#f8fafc" stroke-width="2.5"></circle><circle cx="210" cy="100" r="10.5" fill="none" stroke="currentColor" stroke-width="1" stroke-opacity="0.45"></circle><text x="210" y="76" font-size="11" font-family="Geist Mono, SFMono-Regular, Menlo, Consolas, monospace" text-anchor="middle" fill="currentColor">I0</text></g><g><circle cx="254" cy="100" r="9" fill="rgb(134 134 134)" stroke="#f8fafc" stroke-width="2.5"></circle><circle cx="254" cy="100" r="10.5" fill="none" stroke="currentColor" stroke-width="1" stroke-opacity="0.45"></circle><text x="262.8103136663824" y="86.50462451344244" font-size="11" font-family="Geist Mono, SFMono-Regular, Menlo, Consolas, monospace" text-anchor="middle" fill="currentColor">I1</text></g><g><circle cx="298" cy="122" r="9" fill="rgb(3 3 3)" stroke="#f8fafc" stroke-width="2.5"></circle><circle cx="298" cy="122" r="10.5" fill="none" stroke="currentColor" stroke-width="1" stroke-opacity="0.45"></circle><text x="307.58073580374355" y="116.41926419625645" font-size="11" font-family="Geist Mono, SFMono-Regular, Menlo, Consolas, monospace" text-anchor="middle" fill="currentColor">I2</text></g><g><circle cx="320" cy="166" r="9" fill="rgb(0 0 0)" stroke="#f8fafc" stroke-width="2.5"></circle><circle cx="320" cy="166" r="10.5" fill="none" stroke="currentColor" stroke-width="1" stroke-opacity="0.45"></circle><text x="337.4953754865576" y="161.1896863336176" font-size="11" font-family="Geist Mono, SFMono-Regular, Menlo, Consolas, monospace" text-anchor="middle" fill="currentColor">I3</text></g><g><circle cx="320" cy="210" r="9" fill="rgb(8 8 8)" stroke="#f8fafc" stroke-width="2.5"></circle><circle cx="320" cy="210" r="10.5" fill="none" stroke="currentColor" stroke-width="1" stroke-opacity="0.45"></circle><text x="348" y="214" font-size="11" font-family="Geist Mono, SFMono-Regular, Menlo, Consolas, monospace" text-anchor="middle" fill="currentColor">I4</text></g><g><circle cx="320" cy="254" r="9" fill="rgb(121 121 121)" stroke="#f8fafc" stroke-width="2.5"></circle><circle cx="320" cy="254" r="10.5" fill="none" stroke="currentColor" stroke-width="1" stroke-opacity="0.45"></circle><text x="337.4953754865576" y="266.8103136663824" font-size="11" font-family="Geist Mono, SFMono-Regular, Menlo, Consolas, monospace" text-anchor="middle" fill="currentColor">I5</text></g><g><circle cx="298" cy="298" r="9" fill="rgb(252 252 252)" stroke="#f8fafc" stroke-width="2.5"></circle><circle cx="298" cy="298" r="10.5" fill="none" stroke="currentColor" stroke-width="1" stroke-opacity="0.45"></circle><text x="307.58073580374355" y="311.58073580374355" font-size="11" font-family="Geist Mono, SFMono-Regular, Menlo, Consolas, monospace" text-anchor="middle" fill="currentColor">I6</text></g><g><circle cx="254" cy="320" r="9" fill="rgb(255 255 255)" stroke="#f8fafc" stroke-width="2.5"></circle><circle cx="254" cy="320" r="10.5" fill="none" stroke="currentColor" stroke-width="1" stroke-opacity="0.45"></circle><text x="262.8103136663824" y="341.4953754865576" font-size="11" font-family="Geist Mono, SFMono-Regular, Menlo, Consolas, monospace" text-anchor="middle" fill="currentColor">I7</text></g><g><circle cx="210" cy="320" r="9" fill="rgb(247 247 247)" stroke="#f8fafc" stroke-width="2.5"></circle><circle cx="210" cy="320" r="10.5" fill="none" stroke="currentColor" stroke-width="1" stroke-opacity="0.45"></circle><text x="210" y="352" font-size="11" font-family="Geist Mono, SFMono-Regular, Menlo, Consolas, monospace" text-anchor="middle" fill="currentColor">I8</text></g><g><circle cx="166" cy="320" r="9" fill="rgb(134 134 134)" stroke="#f8fafc" stroke-width="2.5"></circle><circle cx="166" cy="320" r="10.5" fill="none" stroke="currentColor" stroke-width="1" stroke-opacity="0.45"></circle><text x="157.1896863336176" y="341.4953754865576" font-size="11" font-family="Geist Mono, SFMono-Regular, Menlo, Consolas, monospace" text-anchor="middle" fill="currentColor">I9</text></g><g><circle cx="122" cy="298" r="9" fill="rgb(3 3 3)" stroke="#f8fafc" stroke-width="2.5"></circle><circle cx="122" cy="298" r="10.5" fill="none" stroke="currentColor" stroke-width="1" stroke-opacity="0.45"></circle><text x="112.41926419625645" y="311.58073580374355" font-size="11" font-family="Geist Mono, SFMono-Regular, Menlo, Consolas, monospace" text-anchor="middle" fill="currentColor">I10</text></g><g><circle cx="100" cy="254" r="9" fill="rgb(0 0 0)" stroke="#f8fafc" stroke-width="2.5"></circle><circle cx="100" cy="254" r="10.5" fill="none" stroke="currentColor" stroke-width="1" stroke-opacity="0.45"></circle><text x="82.50462451344247" y="266.81031366638246" font-size="11" font-family="Geist Mono, SFMono-Regular, Menlo, Consolas, monospace" text-anchor="middle" fill="currentColor">I11</text></g><g><circle cx="100" cy="210" r="9" fill="rgb(8 8 8)" stroke="#f8fafc" stroke-width="2.5"></circle><circle cx="100" cy="210" r="10.5" fill="none" stroke="currentColor" stroke-width="1" stroke-opacity="0.45"></circle><text x="72" y="214.00000000000003" font-size="11" font-family="Geist Mono, SFMono-Regular, Menlo, Consolas, monospace" text-anchor="middle" fill="currentColor">I12</text></g><g><circle cx="100" cy="166" r="9" fill="rgb(121 121 121)" stroke="#f8fafc" stroke-width="2.5"></circle><circle cx="100" cy="166" r="10.5" fill="none" stroke="currentColor" stroke-width="1" stroke-opacity="0.45"></circle><text x="82.50462451344245" y="161.18968633361757" font-size="11" font-family="Geist Mono, SFMono-Regular, Menlo, Consolas, monospace" text-anchor="middle" fill="currentColor">I13</text></g><g><circle cx="122" cy="122" r="9" fill="rgb(252 252 252)" stroke="#f8fafc" stroke-width="2.5"></circle><circle cx="122" cy="122" r="10.5" fill="none" stroke="currentColor" stroke-width="1" stroke-opacity="0.45"></circle><text x="112.41926419625642" y="116.41926419625645" font-size="11" font-family="Geist Mono, SFMono-Regular, Menlo, Consolas, monospace" text-anchor="middle" fill="currentColor">I14</text></g><g><circle cx="166" cy="100" r="9" fill="rgb(255 255 255)" stroke="#f8fafc" stroke-width="2.5"></circle><circle cx="166" cy="100" r="10.5" fill="none" stroke="currentColor" stroke-width="1" stroke-opacity="0.45"></circle><text x="157.18968633361754" y="86.50462451344247" font-size="11" font-family="Geist Mono, SFMono-Regular, Menlo, Consolas, monospace" text-anchor="middle" fill="currentColor">I15</text></g></g><circle cx="210" cy="210" r="5" fill="none" stroke="currentColor" stroke-width="1.5" stroke-opacity="0.75" aria-hidden="true"></circle></svg>
