<svg xmlns="http://www.w3.org/2000/svg" width="1716.6" height="1090.5"><g fill="none" stroke="#2798d3" stroke-linejoin="bevel"><path stroke-width="10" d="m960 203 31-66M758 203l-27-58"/><path stroke-width="11" d="m918 276 15-35M799 277l-16-36"/><path stroke-width="16" d="m363 311-98-187M568 705 416 411"/><path stroke-width="15" d="m678 675 37-59M1038 677l-36-59M1089 770l-29-54M627 770l29-53"/><path stroke-width="16" d="m1350 316 103-195M1197 608l103-196m-30 84"/></g><g fill="none" stroke="#2798d3"><path stroke-linejoin="bevel" stroke-width="24" d="m507 422 105 207 100-191"/><path stroke-width="24" d="m1201 439 202-400 274 1-523 1013h-105L858 683l-190 370H561L40 40h273l194 382"/><path stroke-linejoin="bevel" stroke-width="24" d="m1006 437 98 191 97-189"/><path stroke-width="22" d="M712 438 508 40h241l109 210L967 39h241l-202 398"/></g><g fill="#23c6e0"><path d="M79 39a39 39 0 0 1-40 40A39 39 0 0 1 0 39 39 39 0 0 1 39 0a39 39 0 0 1 40 39M1717 39a39 39 0 0 1-40 40 39 39 0 0 1-39-40 39 39 0 0 1 39-39 39 39 0 0 1 40 39M597 1051a39 39 0 0 1-39 40 39 39 0 0 1-39-40 39 39 0 0 1 39-39 39 39 0 0 1 39 39M710 1051a39 39 0 0 1-39 40 39 39 0 0 1-39-40 39 39 0 0 1 39-39 39 39 0 0 1 39 39M1085 1051a39 39 0 0 1-39 40 39 39 0 0 1-39-40 39 39 0 0 1 39-39 39 39 0 0 1 39 39M1198 1051a39 39 0 0 1-39 40 39 39 0 0 1-40-40 39 39 0 0 1 39-39 39 39 0 0 1 40 39"/></g><g fill="#23c6e0"><path d="M196 123a33 33 0 0 1-33 32 33 33 0 0 1-32-32 33 33 0 0 1 32-33 33 33 0 0 1 33 33M247 219a33 33 0 0 1-33 32 33 33 0 0 1-32-32 33 33 0 0 1 32-33 33 33 0 0 1 33 32M298 313a33 33 0 0 1-33 33 33 33 0 0 1-32-32 33 33 0 0 1 32-33 33 33 0 0 1 33 32M347 409a33 33 0 0 1-32 32 33 33 0 0 1-33-32 33 33 0 0 1 32-33 33 33 0 0 1 33 33M397 505a33 33 0 0 1-33 33 33 33 0 0 1-32-33 33 33 0 0 1 32-33 33 33 0 0 1 33 33M447 601a33 33 0 0 1-33 32 33 33 0 0 1-32-32 33 33 0 0 1 32-33 33 33 0 0 1 33 32M497 696a33 33 0 0 1-33 32 33 33 0 0 1-32-32 33 33 0 0 1 32-33 33 33 0 0 1 33 33M546 792a33 33 0 0 1-32 32 33 33 0 0 1-33-32 33 33 0 0 1 32-33 33 33 0 0 1 33 32M597 887a33 33 0 0 1-33 33 33 33 0 0 1-33-33 33 33 0 0 1 33-32 33 33 0 0 1 33 32M647 982a33 33 0 0 1-32 33 33 33 0 0 1-33-32 33 33 0 0 1 32-33 33 33 0 0 1 33 32M698 887a33 33 0 0 1-33 33 33 33 0 0 1-32-33 33 33 0 0 1 32-32 33 33 0 0 1 33 32M748 791a33 33 0 0 1-32 33 33 33 0 0 1-33-33 33 33 0 0 1 33-32 33 33 0 0 1 32 32M648 792a33 33 0 0 1-33 32 33 33 0 0 1-32-32 33 33 0 0 1 32-33 33 33 0 0 1 33 32M597 696a33 33 0 0 1-33 33 33 33 0 0 1-32-33 33 33 0 0 1 32-33 33 33 0 0 1 33 33M697 696a33 33 0 0 1-32 33 33 33 0 0 1-33-33 33 33 0 0 1 32-33 33 33 0 0 1 33 33M548 600a33 33 0 0 1-32 33 33 33 0 0 1-33-33 33 33 0 0 1 32-33 33 33 0 0 1 33 33M498 504a33 33 0 0 1-33 33 33 33 0 0 1-32-32 33 33 0 0 1 32-33 33 33 0 0 1 33 32M448 409a33 33 0 0 1-32 33 33 33 0 0 1-33-33 33 33 0 0 1 32-33 33 33 0 0 1 33 33M398 314a33 33 0 0 1-33 32 33 33 0 0 1-32-32 33 33 0 0 1 32-33 33 33 0 0 1 33 32M348 219a33 33 0 0 1-33 32 33 33 0 0 1-32-32 33 33 0 0 1 32-33 33 33 0 0 1 33 32M297 122a33 33 0 0 1-32 33 33 33 0 0 1-33-33 33 33 0 0 1 32-32 33 33 0 0 1 33 32M658 123a33 33 0 0 1-33 33 33 33 0 0 1-32-33 33 33 0 0 1 32-33 33 33 0 0 1 33 33M708 219a33 33 0 0 1-32 32 33 33 0 0 1-33-32 33 33 0 0 1 33-33 33 33 0 0 1 32 33M759 314a33 33 0 0 1-32 32 33 33 0 0 1-33-32 33 33 0 0 1 33-33 33 33 0 0 1 32 32M809 219a33 33 0 0 1-32 32 33 33 0 0 1-33-32 33 33 0 0 1 33-33 33 33 0 0 1 32 33M759 123a33 33 0 0 1-33 32 33 33 0 0 1-32-32 33 33 0 0 1 32-33 33 33 0 0 1 33 32M798 695a33 33 0 0 1-33 33 33 33 0 0 1-32-32 33 33 0 0 1 32-33 33 33 0 0 1 33 32M984 696a33 33 0 0 1-33 32 33 33 0 0 1-32-32 33 33 0 0 1 32-33 33 33 0 0 1 33 32M1033 791a33 33 0 0 1-32 33 33 33 0 0 1-33-33 33 33 0 0 1 32-32 33 33 0 0 1 33 32M1084 887a33 33 0 0 1-33 32 33 33 0 0 1-33-32 33 33 0 0 1 33-33 33 33 0 0 1 33 33M1134 982a33 33 0 0 1-32 33 33 33 0 0 1-33-33 33 33 0 0 1 32-32 33 33 0 0 1 33 32M1185 887a33 33 0 0 1-33 32 33 33 0 0 1-32-32 33 33 0 0 1 32-33 33 33 0 0 1 33 33M1235 791a33 33 0 0 1-32 33 33 33 0 0 1-33-33 33 33 0 0 1 33-32 33 33 0 0 1 32 32M1135 791a33 33 0 0 1-33 33 33 33 0 0 1-32-32 33 33 0 0 1 32-33 33 33 0 0 1 33 32M1084 696a33 33 0 0 1-33 32 33 33 0 0 1-32-32 33 33 0 0 1 32-33 33 33 0 0 1 33 33M1184 696a33 33 0 0 1-32 32 33 33 0 0 1-33-32 33 33 0 0 1 32-33 33 33 0 0 1 33 33M1285 695a33 33 0 0 1-33 33 33 33 0 0 1-32-33 33 33 0 0 1 32-32 33 33 0 0 1 33 32M1234 601a33 33 0 0 1-32 32 33 33 0 0 1-33-32 33 33 0 0 1 33-33 33 33 0 0 1 32 33M1335 601a33 33 0 0 1-32 32 33 33 0 0 1-33-32 33 33 0 0 1 33-33 33 33 0 0 1 32 33M1386 505a33 33 0 0 1-33 33 33 33 0 0 1-32-33 33 33 0 0 1 32-32 33 33 0 0 1 33 32M1285 505a33 33 0 0 1-32 33 33 33 0 0 1-33-32 33 33 0 0 1 33-33 33 33 0 0 1 32 32M1335 410a33 33 0 0 1-33 32 33 33 0 0 1-32-32 33 33 0 0 1 32-33 33 33 0 0 1 33 33M1435 409a33 33 0 0 1-32 33 33 33 0 0 1-33-33 33 33 0 0 1 33-32 33 33 0 0 1 32 32M1384 314a33 33 0 0 1-33 33 33 33 0 0 1-32-33 33 33 0 0 1 32-32 33 33 0 0 1 33 32M1485 314a33 33 0 0 1-32 33 33 33 0 0 1-33-33 33 33 0 0 1 32-32 33 33 0 0 1 33 32M1536 218a33 33 0 0 1-33 33 33 33 0 0 1-32-33 33 33 0 0 1 32-32 33 33 0 0 1 33 32M1435 219a33 33 0 0 1-33 32 33 33 0 0 1-32-32 33 33 0 0 1 32-33 33 33 0 0 1 33 32M1485 123a33 33 0 0 1-33 32 33 33 0 0 1-33-32 33 33 0 0 1 33-33 33 33 0 0 1 33 33M1585 122a33 33 0 0 1-33 33 33 33 0 0 1-32-32 33 33 0 0 1 32-33 33 33 0 0 1 33 32M1023 314a33 33 0 0 1-33 32 33 33 0 0 1-32-32 33 33 0 0 1 32-33 33 33 0 0 1 33 32M1073 218a33 33 0 0 1-32 32 33 33 0 0 1-33-32 33 33 0 0 1 32-33 33 33 0 0 1 33 33M973 218a33 33 0 0 1-33 33 33 33 0 0 1-33-33 33 33 0 0 1 33-32 33 33 0 0 1 33 32M1022 122a33 33 0 0 1-32 33 33 33 0 0 1-33-32 33 33 0 0 1 32-33 33 33 0 0 1 33 32M1123 122a33 33 0 0 1-33 32 33 33 0 0 1-33-32 33 33 0 0 1 33-33 33 33 0 0 1 33 33"/></g><g transform="translate(-278 -408)"><path fill="#fff" d="M1246 690a221 221 0 0 1 87 90l-195 103ZM941 783a218 218-31 0 1 86-91l109 189z"/><circle cx="1136.6" cy="880.4" r="208.9" fill="#2798d3"/><circle cx="1136.9" cy="880.6" r="185" fill="#fefefe"/><circle cx="1137.4" cy="880.8" r="132.3" fill="#2798d3"/><circle cx="1136.7" cy="880.4" r="98.3" fill="#fefefe"/><circle cx="1136.7" cy="881.2" r="57.9" fill="#2798d3"/></g></svg>